M48
; DRILL file {KiCad (5.1.6)-1} date 10/07/20 13:29:58
; FORMAT={-:-/ absolute / inch / decimal}
; #@! TF.CreationDate,2020-10-07T13:29:58+02:00
; #@! TF.GenerationSoftware,Kicad,Pcbnew,(5.1.6)-1
; #@! TF.FileFunction,Plated,1,2,PTH
FMAT,2
INCH
T1C0.0394
T2C0.0472
T3C0.0730
T4C0.1260
%
G90
G05
T1
X2.5117Y-5.1086
X2.586Y-5.0417
X2.6603Y-4.9748
X2.7346Y-4.9079
X7.8725Y-5.405
X7.8725Y-5.505
X7.9725Y-5.405
X7.9725Y-5.505
X2.5117Y-5.1086
X2.586Y-5.0417
X2.6603Y-4.9748
X2.7346Y-4.9079
T2
X4.5655Y-4.6884
X4.7623Y-4.771
X4.9592Y-4.6884
X7.5655Y-4.6884
X7.7623Y-4.771
X7.9592Y-4.6884
X5.3155Y-4.4915
X5.5123Y-4.5742
X5.7092Y-4.4915
X4.1569Y-5.9137
X4.3695Y-5.8943
X4.5045Y-5.7289
X7.5655Y-3.2671
X7.7623Y-3.3498
X7.9592Y-3.2671
X6.8155Y-3.7809
X7.0123Y-3.8635
X7.2092Y-3.7809
X4.8842Y-5.5832
X5.0952Y-5.6158
X5.2662Y-5.4879
X5.3155Y-3.7809
X5.5123Y-3.8635
X5.7092Y-3.7809
X3.8048Y-5.2515
X4.0174Y-5.2321
X4.1524Y-5.0667
X8.3155Y-4.8852
X8.5123Y-4.9679
X8.7092Y-4.8852
X7.5655Y-3.9777
X7.7623Y-4.0604
X7.9592Y-3.9777
X6.8155Y-4.4915
X7.0123Y-4.5742
X7.2092Y-4.4915
X8.3155Y-4.1746
X8.5123Y-4.2573
X8.7092Y-4.1746
X6.0655Y-4.2947
X6.2623Y-4.3773
X6.4592Y-4.2947
X3.0294Y-5.8531
X3.231Y-5.7828
X3.3219Y-5.5896
X8.3155Y-3.4639
X8.5123Y-3.5466
X8.7092Y-3.4639
X6.0655Y-2.8734
X6.2623Y-2.9561
X6.4592Y-2.8734
X4.5655Y-3.9777
X4.7623Y-4.0604
X4.9592Y-3.9777
X6.0655Y-3.584
X6.2623Y-3.6667
X6.4592Y-3.584
X3.5312Y-6.4104
X3.7328Y-6.3401
X3.8238Y-6.147
X5.3155Y-3.0702
X5.5123Y-3.1529
X5.7092Y-3.0702
X5.6698Y-5.4384
X5.8667Y-5.521
X6.0635Y-5.4384
X6.8155Y-3.0702
X7.0123Y-3.1529
X7.2092Y-3.0702
X4.5655Y-3.2671
X4.7623Y-3.3498
X4.9592Y-3.2671
T3
X6.5084Y-5.208
X7.5163Y-5.208
X6.5084Y-5.208
X7.5163Y-5.208
T4
X8.5063Y-2.7614
X8.548Y-5.3894
X6.2063Y-4.7524
X4.7776Y-2.6031
X3.5417Y-6.7929
X2.0476Y-5.0244
T0
M30
