G04 #@! TF.GenerationSoftware,KiCad,Pcbnew,(5.1.9)-1*
G04 #@! TF.CreationDate,2021-01-29T17:36:36+01:00*
G04 #@! TF.ProjectId,Mathias_ergo,4d617468-6961-4735-9f65-72676f2e6b69,1.0*
G04 #@! TF.SameCoordinates,Original*
G04 #@! TF.FileFunction,Legend,Top*
G04 #@! TF.FilePolarity,Positive*
%FSLAX46Y46*%
G04 Gerber Fmt 4.6, Leading zero omitted, Abs format (unit mm)*
G04 Created by KiCad (PCBNEW (5.1.9)-1) date 2021-01-29 17:36:36*
%MOMM*%
%LPD*%
G01*
G04 APERTURE LIST*
%ADD10C,0.170000*%
%ADD11C,0.300000*%
%ADD12C,0.150000*%
%ADD13C,0.120000*%
%ADD14C,0.100000*%
G04 APERTURE END LIST*
D10*
X154054752Y-98436180D02*
X154054752Y-99150466D01*
X154007133Y-99293323D01*
X153911895Y-99388561D01*
X153769038Y-99436180D01*
X153673800Y-99436180D01*
X155007133Y-99436180D02*
X154530942Y-99436180D01*
X154530942Y-98436180D01*
X155911895Y-99340942D02*
X155864276Y-99388561D01*
X155721419Y-99436180D01*
X155626180Y-99436180D01*
X155483323Y-99388561D01*
X155388085Y-99293323D01*
X155340466Y-99198085D01*
X155292847Y-99007609D01*
X155292847Y-98864752D01*
X155340466Y-98674276D01*
X155388085Y-98579038D01*
X155483323Y-98483800D01*
X155626180Y-98436180D01*
X155721419Y-98436180D01*
X155864276Y-98483800D01*
X155911895Y-98531419D01*
X156626180Y-98436180D02*
X156626180Y-99150466D01*
X156578561Y-99293323D01*
X156483323Y-99388561D01*
X156340466Y-99436180D01*
X156245228Y-99436180D01*
X157578561Y-99436180D02*
X157102371Y-99436180D01*
X157102371Y-98436180D01*
X158483323Y-99340942D02*
X158435704Y-99388561D01*
X158292847Y-99436180D01*
X158197609Y-99436180D01*
X158054752Y-99388561D01*
X157959514Y-99293323D01*
X157911895Y-99198085D01*
X157864276Y-99007609D01*
X157864276Y-98864752D01*
X157911895Y-98674276D01*
X157959514Y-98579038D01*
X158054752Y-98483800D01*
X158197609Y-98436180D01*
X158292847Y-98436180D01*
X158435704Y-98483800D01*
X158483323Y-98531419D01*
X159197609Y-98436180D02*
X159197609Y-99150466D01*
X159149990Y-99293323D01*
X159054752Y-99388561D01*
X158911895Y-99436180D01*
X158816657Y-99436180D01*
X160149990Y-99436180D02*
X159673800Y-99436180D01*
X159673800Y-98436180D01*
X161054752Y-99340942D02*
X161007133Y-99388561D01*
X160864276Y-99436180D01*
X160769038Y-99436180D01*
X160626180Y-99388561D01*
X160530942Y-99293323D01*
X160483323Y-99198085D01*
X160435704Y-99007609D01*
X160435704Y-98864752D01*
X160483323Y-98674276D01*
X160530942Y-98579038D01*
X160626180Y-98483800D01*
X160769038Y-98436180D01*
X160864276Y-98436180D01*
X161007133Y-98483800D01*
X161054752Y-98531419D01*
X161769038Y-98436180D02*
X161769038Y-99150466D01*
X161721419Y-99293323D01*
X161626180Y-99388561D01*
X161483323Y-99436180D01*
X161388085Y-99436180D01*
X162721419Y-99436180D02*
X162245228Y-99436180D01*
X162245228Y-98436180D01*
X163626180Y-99340942D02*
X163578561Y-99388561D01*
X163435704Y-99436180D01*
X163340466Y-99436180D01*
X163197609Y-99388561D01*
X163102371Y-99293323D01*
X163054752Y-99198085D01*
X163007133Y-99007609D01*
X163007133Y-98864752D01*
X163054752Y-98674276D01*
X163102371Y-98579038D01*
X163197609Y-98483800D01*
X163340466Y-98436180D01*
X163435704Y-98436180D01*
X163578561Y-98483800D01*
X163626180Y-98531419D01*
X211980876Y-141358262D02*
X212149057Y-141268838D01*
X212255503Y-141266172D01*
X212384305Y-141305551D01*
X212515773Y-141451375D01*
X212672263Y-141745691D01*
X212719641Y-141936228D01*
X212680263Y-142065029D01*
X212618528Y-142151786D01*
X212450348Y-142241209D01*
X212343902Y-142243876D01*
X212215100Y-142204497D01*
X212083632Y-142058672D01*
X211927141Y-141764356D01*
X211879763Y-141573820D01*
X211919142Y-141445018D01*
X211980876Y-141358262D01*
X212768044Y-141317241D02*
X213104405Y-141138394D01*
X213207160Y-141838805D02*
X212804756Y-141081993D01*
X212802089Y-140975547D01*
X212863824Y-140888790D01*
X212947914Y-140844078D01*
X213272585Y-141048971D02*
X213608946Y-140870125D01*
X213711701Y-141570536D02*
X213309297Y-140813723D01*
X213306631Y-140707277D01*
X213368365Y-140620521D01*
X213452456Y-140575809D01*
X208936389Y-142953372D02*
X209104570Y-142863949D01*
X209211016Y-142861283D01*
X209339817Y-142900661D01*
X209471286Y-143046486D01*
X209627776Y-143340802D01*
X209675154Y-143531338D01*
X209635776Y-143660140D01*
X209574041Y-143746897D01*
X209405861Y-143836320D01*
X209299415Y-143838986D01*
X209170613Y-143799608D01*
X209039144Y-143653783D01*
X208882654Y-143359467D01*
X208835276Y-143168931D01*
X208874655Y-143040129D01*
X208936389Y-142953372D01*
X209849692Y-142845284D02*
X210162673Y-143433916D01*
X209894403Y-142929374D02*
X209914093Y-142864973D01*
X209975827Y-142778216D01*
X210101962Y-142711149D01*
X210208409Y-142708483D01*
X210295165Y-142770217D01*
X210541079Y-143232713D01*
D11*
X150952428Y-59709857D02*
X151166714Y-59781285D01*
X151238142Y-59852714D01*
X151309571Y-59995571D01*
X151309571Y-60209857D01*
X151238142Y-60352714D01*
X151166714Y-60424142D01*
X151023857Y-60495571D01*
X150452428Y-60495571D01*
X150452428Y-58995571D01*
X150952428Y-58995571D01*
X151095285Y-59067000D01*
X151166714Y-59138428D01*
X151238142Y-59281285D01*
X151238142Y-59424142D01*
X151166714Y-59567000D01*
X151095285Y-59638428D01*
X150952428Y-59709857D01*
X150452428Y-59709857D01*
X152166714Y-60495571D02*
X152023857Y-60424142D01*
X151952428Y-60352714D01*
X151881000Y-60209857D01*
X151881000Y-59781285D01*
X151952428Y-59638428D01*
X152023857Y-59567000D01*
X152166714Y-59495571D01*
X152381000Y-59495571D01*
X152523857Y-59567000D01*
X152595285Y-59638428D01*
X152666714Y-59781285D01*
X152666714Y-60209857D01*
X152595285Y-60352714D01*
X152523857Y-60424142D01*
X152381000Y-60495571D01*
X152166714Y-60495571D01*
X153095285Y-59495571D02*
X153666714Y-59495571D01*
X153309571Y-58995571D02*
X153309571Y-60281285D01*
X153381000Y-60424142D01*
X153523857Y-60495571D01*
X153666714Y-60495571D01*
X154166714Y-60495571D02*
X154166714Y-58995571D01*
X154309571Y-59924142D02*
X154738142Y-60495571D01*
X154738142Y-59495571D02*
X154166714Y-60067000D01*
X155952428Y-60424142D02*
X155809571Y-60495571D01*
X155523857Y-60495571D01*
X155381000Y-60424142D01*
X155309571Y-60281285D01*
X155309571Y-59709857D01*
X155381000Y-59567000D01*
X155523857Y-59495571D01*
X155809571Y-59495571D01*
X155952428Y-59567000D01*
X156023857Y-59709857D01*
X156023857Y-59852714D01*
X155309571Y-59995571D01*
X157238142Y-60424142D02*
X157095285Y-60495571D01*
X156809571Y-60495571D01*
X156666714Y-60424142D01*
X156595285Y-60281285D01*
X156595285Y-59709857D01*
X156666714Y-59567000D01*
X156809571Y-59495571D01*
X157095285Y-59495571D01*
X157238142Y-59567000D01*
X157309571Y-59709857D01*
X157309571Y-59852714D01*
X156595285Y-59995571D01*
X157952428Y-60495571D02*
X157952428Y-58995571D01*
X157952428Y-59567000D02*
X158095285Y-59495571D01*
X158381000Y-59495571D01*
X158523857Y-59567000D01*
X158595285Y-59638428D01*
X158666714Y-59781285D01*
X158666714Y-60209857D01*
X158595285Y-60352714D01*
X158523857Y-60424142D01*
X158381000Y-60495571D01*
X158095285Y-60495571D01*
X157952428Y-60424142D01*
X160452428Y-60495571D02*
X160452428Y-59495571D01*
X160452428Y-59781285D02*
X160523857Y-59638428D01*
X160595285Y-59567000D01*
X160738142Y-59495571D01*
X160881000Y-59495571D01*
X161952428Y-60424142D02*
X161809571Y-60495571D01*
X161523857Y-60495571D01*
X161381000Y-60424142D01*
X161309571Y-60281285D01*
X161309571Y-59709857D01*
X161381000Y-59567000D01*
X161523857Y-59495571D01*
X161809571Y-59495571D01*
X161952428Y-59567000D01*
X162023857Y-59709857D01*
X162023857Y-59852714D01*
X161309571Y-59995571D01*
X162523857Y-59495571D02*
X162881000Y-60495571D01*
X163238142Y-59495571D01*
X165738142Y-60495571D02*
X164881000Y-60495571D01*
X165309571Y-60495571D02*
X165309571Y-58995571D01*
X165166714Y-59209857D01*
X165023857Y-59352714D01*
X164881000Y-59424142D01*
X166381000Y-60352714D02*
X166452428Y-60424142D01*
X166381000Y-60495571D01*
X166309571Y-60424142D01*
X166381000Y-60352714D01*
X166381000Y-60495571D01*
X167881000Y-60495571D02*
X167023857Y-60495571D01*
X167452428Y-60495571D02*
X167452428Y-58995571D01*
X167309571Y-59209857D01*
X167166714Y-59352714D01*
X167023857Y-59424142D01*
D10*
X194091609Y-128544580D02*
X194091609Y-127544580D01*
X194329704Y-127544580D01*
X194472561Y-127592200D01*
X194567800Y-127687438D01*
X194615419Y-127782676D01*
X194663038Y-127973152D01*
X194663038Y-128116009D01*
X194615419Y-128306485D01*
X194567800Y-128401723D01*
X194472561Y-128496961D01*
X194329704Y-128544580D01*
X194091609Y-128544580D01*
X195472561Y-128496961D02*
X195377323Y-128544580D01*
X195186847Y-128544580D01*
X195091609Y-128496961D01*
X195043990Y-128401723D01*
X195043990Y-128020771D01*
X195091609Y-127925533D01*
X195186847Y-127877914D01*
X195377323Y-127877914D01*
X195472561Y-127925533D01*
X195520180Y-128020771D01*
X195520180Y-128116009D01*
X195043990Y-128211247D01*
X195948752Y-128544580D02*
X195948752Y-127544580D01*
X195948752Y-127925533D02*
X196043990Y-127877914D01*
X196234466Y-127877914D01*
X196329704Y-127925533D01*
X196377323Y-127973152D01*
X196424942Y-128068390D01*
X196424942Y-128354104D01*
X196377323Y-128449342D01*
X196329704Y-128496961D01*
X196234466Y-128544580D01*
X196043990Y-128544580D01*
X195948752Y-128496961D01*
X196996371Y-128544580D02*
X196901133Y-128496961D01*
X196853514Y-128449342D01*
X196805895Y-128354104D01*
X196805895Y-128068390D01*
X196853514Y-127973152D01*
X196901133Y-127925533D01*
X196996371Y-127877914D01*
X197139228Y-127877914D01*
X197234466Y-127925533D01*
X197282085Y-127973152D01*
X197329704Y-128068390D01*
X197329704Y-128354104D01*
X197282085Y-128449342D01*
X197234466Y-128496961D01*
X197139228Y-128544580D01*
X196996371Y-128544580D01*
X198186847Y-127877914D02*
X198186847Y-128544580D01*
X197758276Y-127877914D02*
X197758276Y-128401723D01*
X197805895Y-128496961D01*
X197901133Y-128544580D01*
X198043990Y-128544580D01*
X198139228Y-128496961D01*
X198186847Y-128449342D01*
X198663038Y-127877914D02*
X198663038Y-128544580D01*
X198663038Y-127973152D02*
X198710657Y-127925533D01*
X198805895Y-127877914D01*
X198948752Y-127877914D01*
X199043990Y-127925533D01*
X199091609Y-128020771D01*
X199091609Y-128544580D01*
X199996371Y-128496961D02*
X199901133Y-128544580D01*
X199710657Y-128544580D01*
X199615419Y-128496961D01*
X199567800Y-128449342D01*
X199520180Y-128354104D01*
X199520180Y-128068390D01*
X199567800Y-127973152D01*
X199615419Y-127925533D01*
X199710657Y-127877914D01*
X199901133Y-127877914D01*
X199996371Y-127925533D01*
X200805895Y-128496961D02*
X200710657Y-128544580D01*
X200520180Y-128544580D01*
X200424942Y-128496961D01*
X200377323Y-128401723D01*
X200377323Y-128020771D01*
X200424942Y-127925533D01*
X200520180Y-127877914D01*
X200710657Y-127877914D01*
X200805895Y-127925533D01*
X200853514Y-128020771D01*
X200853514Y-128116009D01*
X200377323Y-128211247D01*
X202043990Y-128544580D02*
X202043990Y-127877914D01*
X202043990Y-128068390D02*
X202091609Y-127973152D01*
X202139228Y-127925533D01*
X202234466Y-127877914D01*
X202329704Y-127877914D01*
X202663038Y-128544580D02*
X202663038Y-127877914D01*
X202663038Y-127544580D02*
X202615419Y-127592200D01*
X202663038Y-127639819D01*
X202710657Y-127592200D01*
X202663038Y-127544580D01*
X202663038Y-127639819D01*
X203567800Y-127877914D02*
X203567800Y-128687438D01*
X203520180Y-128782676D01*
X203472561Y-128830295D01*
X203377323Y-128877914D01*
X203234466Y-128877914D01*
X203139228Y-128830295D01*
X203567800Y-128496961D02*
X203472561Y-128544580D01*
X203282085Y-128544580D01*
X203186847Y-128496961D01*
X203139228Y-128449342D01*
X203091609Y-128354104D01*
X203091609Y-128068390D01*
X203139228Y-127973152D01*
X203186847Y-127925533D01*
X203282085Y-127877914D01*
X203472561Y-127877914D01*
X203567800Y-127925533D01*
X204043990Y-128544580D02*
X204043990Y-127544580D01*
X204472561Y-128544580D02*
X204472561Y-128020771D01*
X204424942Y-127925533D01*
X204329704Y-127877914D01*
X204186847Y-127877914D01*
X204091609Y-127925533D01*
X204043990Y-127973152D01*
X204805895Y-127877914D02*
X205186847Y-127877914D01*
X204948752Y-127544580D02*
X204948752Y-128401723D01*
X204996371Y-128496961D01*
X205091609Y-128544580D01*
X205186847Y-128544580D01*
D12*
X213165966Y-139622211D02*
X208221460Y-142251252D01*
D13*
X179677106Y-144785622D02*
G75*
G02*
X171980721Y-144784158I-3846385J9501464D01*
G01*
X165280721Y-144784158D02*
X171980721Y-144784158D01*
X186380721Y-144784158D02*
X179680721Y-144784158D01*
X171880721Y-124434158D02*
X165080721Y-129234158D01*
X179780721Y-124434158D02*
X171880721Y-124434158D01*
X186630721Y-129234158D02*
X179780721Y-124434158D01*
D14*
X113529221Y-71818158D02*
X128329221Y-71818158D01*
X128329221Y-71818158D02*
X128329221Y-86618158D01*
X128329221Y-86618158D02*
X113529221Y-86618158D01*
X113529221Y-86618158D02*
X113529221Y-71818158D01*
D13*
X122563221Y-79184158D02*
G75*
G03*
X122563221Y-79184158I-1600000J0D01*
G01*
X127363221Y-79184158D02*
G75*
G03*
X127363221Y-79184158I-900000J0D01*
G01*
X116363221Y-79184158D02*
G75*
G03*
X116363221Y-79184158I-900000J0D01*
G01*
X117063221Y-82984158D02*
G75*
G03*
X117063221Y-82984158I-1100000J0D01*
G01*
D14*
X99593610Y-139617502D02*
X112780507Y-132898443D01*
X112780507Y-132898443D02*
X119499566Y-146085339D01*
X119499566Y-146085339D02*
X106312670Y-152804399D01*
X106312670Y-152804399D02*
X99593610Y-139617502D01*
D13*
X111161447Y-142805691D02*
G75*
G03*
X111161447Y-142805691I-1600000J0D01*
G01*
X115361983Y-140308743D02*
G75*
G03*
X115361983Y-140308743I-900000J0D01*
G01*
X105560911Y-145302639D02*
G75*
G03*
X105560911Y-145302639I-900000J0D01*
G01*
X107931578Y-148461468D02*
G75*
G03*
X107931578Y-148461468I-1100000J0D01*
G01*
D14*
X151629221Y-79868158D02*
X166429221Y-79868158D01*
X166429221Y-79868158D02*
X166429221Y-94668158D01*
X166429221Y-94668158D02*
X151629221Y-94668158D01*
X151629221Y-94668158D02*
X151629221Y-79868158D01*
D13*
X160663221Y-87234158D02*
G75*
G03*
X160663221Y-87234158I-1600000J0D01*
G01*
X165463221Y-87234158D02*
G75*
G03*
X165463221Y-87234158I-900000J0D01*
G01*
X154463221Y-87234158D02*
G75*
G03*
X154463221Y-87234158I-900000J0D01*
G01*
X155163221Y-91034158D02*
G75*
G03*
X155163221Y-91034158I-1100000J0D01*
G01*
D14*
X69767508Y-138895992D02*
X81021516Y-129284161D01*
X81021516Y-129284161D02*
X90633347Y-140538170D01*
X90633347Y-140538170D02*
X79379339Y-150150001D01*
X79379339Y-150150001D02*
X69767508Y-138895992D01*
D13*
X81804200Y-139669146D02*
G75*
G03*
X81804200Y-139669146I-1600000J0D01*
G01*
X85286433Y-136097182D02*
G75*
G03*
X85286433Y-136097182I-900000J0D01*
G01*
X76921967Y-143241110D02*
G75*
G03*
X76921967Y-143241110I-900000J0D01*
G01*
X79970073Y-145805929D02*
G75*
G03*
X79970073Y-145805929I-1100000J0D01*
G01*
D14*
X141579221Y-125968158D02*
X156379221Y-125968158D01*
X156379221Y-125968158D02*
X156379221Y-140768158D01*
X156379221Y-140768158D02*
X141579221Y-140768158D01*
X141579221Y-140768158D02*
X141579221Y-125968158D01*
D13*
X150613221Y-133334158D02*
G75*
G03*
X150613221Y-133334158I-1600000J0D01*
G01*
X155413221Y-133334158D02*
G75*
G03*
X155413221Y-133334158I-900000J0D01*
G01*
X144413221Y-133334158D02*
G75*
G03*
X144413221Y-133334158I-900000J0D01*
G01*
X145113221Y-137134158D02*
G75*
G03*
X145113221Y-137134158I-1100000J0D01*
G01*
D14*
X90945091Y-122643828D02*
X104131988Y-115924769D01*
X104131988Y-115924769D02*
X110851047Y-129111665D01*
X110851047Y-129111665D02*
X97664151Y-135830725D01*
X97664151Y-135830725D02*
X90945091Y-122643828D01*
D13*
X102512928Y-125832017D02*
G75*
G03*
X102512928Y-125832017I-1600000J0D01*
G01*
X106713464Y-123335069D02*
G75*
G03*
X106713464Y-123335069I-900000J0D01*
G01*
X96912392Y-128328965D02*
G75*
G03*
X96912392Y-128328965I-900000J0D01*
G01*
X99283059Y-131487794D02*
G75*
G03*
X99283059Y-131487794I-1100000J0D01*
G01*
D14*
X189729221Y-71818158D02*
X204529221Y-71818158D01*
X204529221Y-71818158D02*
X204529221Y-86618158D01*
X204529221Y-86618158D02*
X189729221Y-86618158D01*
X189729221Y-86618158D02*
X189729221Y-71818158D01*
D13*
X198763221Y-79184158D02*
G75*
G03*
X198763221Y-79184158I-1600000J0D01*
G01*
X203563221Y-79184158D02*
G75*
G03*
X203563221Y-79184158I-900000J0D01*
G01*
X192563221Y-79184158D02*
G75*
G03*
X192563221Y-79184158I-900000J0D01*
G01*
X193263221Y-82984158D02*
G75*
G03*
X193263221Y-82984158I-1100000J0D01*
G01*
D14*
X189729221Y-107918158D02*
X204529221Y-107918158D01*
X204529221Y-107918158D02*
X204529221Y-122718158D01*
X204529221Y-122718158D02*
X189729221Y-122718158D01*
X189729221Y-122718158D02*
X189729221Y-107918158D01*
D13*
X198763221Y-115284158D02*
G75*
G03*
X198763221Y-115284158I-1600000J0D01*
G01*
X203563221Y-115284158D02*
G75*
G03*
X203563221Y-115284158I-900000J0D01*
G01*
X192563221Y-115284158D02*
G75*
G03*
X192563221Y-115284158I-900000J0D01*
G01*
X193263221Y-119084158D02*
G75*
G03*
X193263221Y-119084158I-1100000J0D01*
G01*
D14*
X132579221Y-102918158D02*
X147379221Y-102918158D01*
X147379221Y-102918158D02*
X147379221Y-117718158D01*
X147379221Y-117718158D02*
X132579221Y-117718158D01*
X132579221Y-117718158D02*
X132579221Y-102918158D01*
D13*
X141613221Y-110284158D02*
G75*
G03*
X141613221Y-110284158I-1600000J0D01*
G01*
X146413221Y-110284158D02*
G75*
G03*
X146413221Y-110284158I-900000J0D01*
G01*
X135413221Y-110284158D02*
G75*
G03*
X135413221Y-110284158I-900000J0D01*
G01*
X136113221Y-114084158D02*
G75*
G03*
X136113221Y-114084158I-1100000J0D01*
G01*
D14*
X113529221Y-107918158D02*
X128329221Y-107918158D01*
X128329221Y-107918158D02*
X128329221Y-122718158D01*
X128329221Y-122718158D02*
X113529221Y-122718158D01*
X113529221Y-122718158D02*
X113529221Y-107918158D01*
D13*
X122563221Y-115284158D02*
G75*
G03*
X122563221Y-115284158I-1600000J0D01*
G01*
X127363221Y-115284158D02*
G75*
G03*
X127363221Y-115284158I-900000J0D01*
G01*
X116363221Y-115284158D02*
G75*
G03*
X116363221Y-115284158I-900000J0D01*
G01*
X117063221Y-119084158D02*
G75*
G03*
X117063221Y-119084158I-1100000J0D01*
G01*
D14*
X151629221Y-61818158D02*
X166429221Y-61818158D01*
X166429221Y-61818158D02*
X166429221Y-76618158D01*
X166429221Y-76618158D02*
X151629221Y-76618158D01*
X151629221Y-76618158D02*
X151629221Y-61818158D01*
D13*
X160663221Y-69184158D02*
G75*
G03*
X160663221Y-69184158I-1600000J0D01*
G01*
X165463221Y-69184158D02*
G75*
G03*
X165463221Y-69184158I-900000J0D01*
G01*
X154463221Y-69184158D02*
G75*
G03*
X154463221Y-69184158I-900000J0D01*
G01*
X155163221Y-72984158D02*
G75*
G03*
X155163221Y-72984158I-1100000J0D01*
G01*
D14*
X170679221Y-102918158D02*
X185479221Y-102918158D01*
X185479221Y-102918158D02*
X185479221Y-117718158D01*
X185479221Y-117718158D02*
X170679221Y-117718158D01*
X170679221Y-117718158D02*
X170679221Y-102918158D01*
D13*
X179713221Y-110284158D02*
G75*
G03*
X179713221Y-110284158I-1600000J0D01*
G01*
X184513221Y-110284158D02*
G75*
G03*
X184513221Y-110284158I-900000J0D01*
G01*
X173513221Y-110284158D02*
G75*
G03*
X173513221Y-110284158I-900000J0D01*
G01*
X174213221Y-114084158D02*
G75*
G03*
X174213221Y-114084158I-1100000J0D01*
G01*
D14*
X132579221Y-84868158D02*
X147379221Y-84868158D01*
X147379221Y-84868158D02*
X147379221Y-99668158D01*
X147379221Y-99668158D02*
X132579221Y-99668158D01*
X132579221Y-99668158D02*
X132579221Y-84868158D01*
D13*
X141613221Y-92234158D02*
G75*
G03*
X141613221Y-92234158I-1600000J0D01*
G01*
X146413221Y-92234158D02*
G75*
G03*
X146413221Y-92234158I-900000J0D01*
G01*
X135413221Y-92234158D02*
G75*
G03*
X135413221Y-92234158I-900000J0D01*
G01*
X136113221Y-96034158D02*
G75*
G03*
X136113221Y-96034158I-1100000J0D01*
G01*
D14*
X132579221Y-66818158D02*
X147379221Y-66818158D01*
X147379221Y-66818158D02*
X147379221Y-81618158D01*
X147379221Y-81618158D02*
X132579221Y-81618158D01*
X132579221Y-81618158D02*
X132579221Y-66818158D01*
D13*
X141613221Y-74184158D02*
G75*
G03*
X141613221Y-74184158I-1600000J0D01*
G01*
X146413221Y-74184158D02*
G75*
G03*
X146413221Y-74184158I-900000J0D01*
G01*
X135413221Y-74184158D02*
G75*
G03*
X135413221Y-74184158I-900000J0D01*
G01*
X136113221Y-77984158D02*
G75*
G03*
X136113221Y-77984158I-1100000J0D01*
G01*
D14*
X82139494Y-153381725D02*
X93393502Y-143769894D01*
X93393502Y-143769894D02*
X103005333Y-155023903D01*
X103005333Y-155023903D02*
X91751325Y-164635734D01*
X91751325Y-164635734D02*
X82139494Y-153381725D01*
D13*
X94176186Y-154154879D02*
G75*
G03*
X94176186Y-154154879I-1600000J0D01*
G01*
X97658419Y-150582915D02*
G75*
G03*
X97658419Y-150582915I-900000J0D01*
G01*
X89293953Y-157726843D02*
G75*
G03*
X89293953Y-157726843I-900000J0D01*
G01*
X92342059Y-160291662D02*
G75*
G03*
X92342059Y-160291662I-1100000J0D01*
G01*
D14*
X208779221Y-76818158D02*
X223579221Y-76818158D01*
X223579221Y-76818158D02*
X223579221Y-91618158D01*
X223579221Y-91618158D02*
X208779221Y-91618158D01*
X208779221Y-91618158D02*
X208779221Y-76818158D01*
D13*
X217813221Y-84184158D02*
G75*
G03*
X217813221Y-84184158I-1600000J0D01*
G01*
X222613221Y-84184158D02*
G75*
G03*
X222613221Y-84184158I-900000J0D01*
G01*
X211613221Y-84184158D02*
G75*
G03*
X211613221Y-84184158I-900000J0D01*
G01*
X212313221Y-87984158D02*
G75*
G03*
X212313221Y-87984158I-1100000J0D01*
G01*
D14*
X189729221Y-89868158D02*
X204529221Y-89868158D01*
X204529221Y-89868158D02*
X204529221Y-104668158D01*
X204529221Y-104668158D02*
X189729221Y-104668158D01*
X189729221Y-104668158D02*
X189729221Y-89868158D01*
D13*
X198763221Y-97234158D02*
G75*
G03*
X198763221Y-97234158I-1600000J0D01*
G01*
X203563221Y-97234158D02*
G75*
G03*
X203563221Y-97234158I-900000J0D01*
G01*
X192563221Y-97234158D02*
G75*
G03*
X192563221Y-97234158I-900000J0D01*
G01*
X193263221Y-101034158D02*
G75*
G03*
X193263221Y-101034158I-1100000J0D01*
G01*
D14*
X170679221Y-84868158D02*
X185479221Y-84868158D01*
X185479221Y-84868158D02*
X185479221Y-99668158D01*
X185479221Y-99668158D02*
X170679221Y-99668158D01*
X170679221Y-99668158D02*
X170679221Y-84868158D01*
D13*
X179713221Y-92234158D02*
G75*
G03*
X179713221Y-92234158I-1600000J0D01*
G01*
X184513221Y-92234158D02*
G75*
G03*
X184513221Y-92234158I-900000J0D01*
G01*
X173513221Y-92234158D02*
G75*
G03*
X173513221Y-92234158I-900000J0D01*
G01*
X174213221Y-96034158D02*
G75*
G03*
X174213221Y-96034158I-1100000J0D01*
G01*
D14*
X170679221Y-66818158D02*
X185479221Y-66818158D01*
X185479221Y-66818158D02*
X185479221Y-81618158D01*
X185479221Y-81618158D02*
X170679221Y-81618158D01*
X170679221Y-81618158D02*
X170679221Y-66818158D01*
D13*
X179713221Y-74184158D02*
G75*
G03*
X179713221Y-74184158I-1600000J0D01*
G01*
X184513221Y-74184158D02*
G75*
G03*
X184513221Y-74184158I-900000J0D01*
G01*
X173513221Y-74184158D02*
G75*
G03*
X173513221Y-74184158I-900000J0D01*
G01*
X174213221Y-77984158D02*
G75*
G03*
X174213221Y-77984158I-1100000J0D01*
G01*
D14*
X151629221Y-97918158D02*
X166429221Y-97918158D01*
X166429221Y-97918158D02*
X166429221Y-112718158D01*
X166429221Y-112718158D02*
X151629221Y-112718158D01*
X151629221Y-112718158D02*
X151629221Y-97918158D01*
D13*
X160663221Y-105284158D02*
G75*
G03*
X160663221Y-105284158I-1600000J0D01*
G01*
X165463221Y-105284158D02*
G75*
G03*
X165463221Y-105284158I-900000J0D01*
G01*
X154463221Y-105284158D02*
G75*
G03*
X154463221Y-105284158I-900000J0D01*
G01*
X155163221Y-109084158D02*
G75*
G03*
X155163221Y-109084158I-1100000J0D01*
G01*
D14*
X113529221Y-89868158D02*
X128329221Y-89868158D01*
X128329221Y-89868158D02*
X128329221Y-104668158D01*
X128329221Y-104668158D02*
X113529221Y-104668158D01*
X113529221Y-104668158D02*
X113529221Y-89868158D01*
D13*
X122563221Y-97234158D02*
G75*
G03*
X122563221Y-97234158I-1600000J0D01*
G01*
X127363221Y-97234158D02*
G75*
G03*
X127363221Y-97234158I-900000J0D01*
G01*
X116363221Y-97234158D02*
G75*
G03*
X116363221Y-97234158I-900000J0D01*
G01*
X117063221Y-101034158D02*
G75*
G03*
X117063221Y-101034158I-1100000J0D01*
G01*
D14*
X208779221Y-94868158D02*
X223579221Y-94868158D01*
X223579221Y-94868158D02*
X223579221Y-109668158D01*
X223579221Y-109668158D02*
X208779221Y-109668158D01*
X208779221Y-109668158D02*
X208779221Y-94868158D01*
D13*
X217813221Y-102234158D02*
G75*
G03*
X217813221Y-102234158I-1600000J0D01*
G01*
X222613221Y-102234158D02*
G75*
G03*
X222613221Y-102234158I-900000J0D01*
G01*
X211613221Y-102234158D02*
G75*
G03*
X211613221Y-102234158I-900000J0D01*
G01*
X212313221Y-106034158D02*
G75*
G03*
X212313221Y-106034158I-1100000J0D01*
G01*
D14*
X119778662Y-130308168D02*
X134169737Y-126853177D01*
X134169737Y-126853177D02*
X137624729Y-141244251D01*
X137624729Y-141244251D02*
X123233654Y-144699243D01*
X123233654Y-144699243D02*
X119778662Y-130308168D01*
D13*
X130326819Y-135735212D02*
G75*
G03*
X130326819Y-135735212I-1600000J0D01*
G01*
X134974853Y-134451262D02*
G75*
G03*
X134974853Y-134451262I-899999J0D01*
G01*
X124278784Y-137019162D02*
G75*
G03*
X124278784Y-137019162I-900000J0D01*
G01*
X125852062Y-140597445D02*
G75*
G03*
X125852062Y-140597445I-1100000J0D01*
G01*
D14*
X208779221Y-112918158D02*
X223579221Y-112918158D01*
X223579221Y-112918158D02*
X223579221Y-127718158D01*
X223579221Y-127718158D02*
X208779221Y-127718158D01*
X208779221Y-127718158D02*
X208779221Y-112918158D01*
D13*
X217813221Y-120284158D02*
G75*
G03*
X217813221Y-120284158I-1600000J0D01*
G01*
X222613221Y-120284158D02*
G75*
G03*
X222613221Y-120284158I-900000J0D01*
G01*
X211613221Y-120284158D02*
G75*
G03*
X211613221Y-120284158I-900000J0D01*
G01*
X212313221Y-124084158D02*
G75*
G03*
X212313221Y-124084158I-1100000J0D01*
G01*
X104537222Y-110827047D02*
X97495149Y-97582833D01*
X87044265Y-120128217D02*
X80002191Y-106884004D01*
X91229424Y-117074243D02*
G75*
G03*
X91229424Y-117074243I-349999J0D01*
G01*
X194558221Y-134602914D02*
X199758221Y-134602914D01*
X194558221Y-132002914D02*
X194558221Y-134602914D01*
X199758221Y-129402914D02*
X199758221Y-134602914D01*
X194558221Y-132002914D02*
X197158221Y-132002914D01*
X197158221Y-132002914D02*
X197158221Y-129402914D01*
X197158221Y-129402914D02*
X199758221Y-129402914D01*
X194558221Y-130732914D02*
X194558221Y-129402914D01*
X194558221Y-129402914D02*
X195888221Y-129402914D01*
X195583221Y-143694221D02*
X196513221Y-143694221D01*
X198743221Y-143694221D02*
X197813221Y-143694221D01*
X198743221Y-143694221D02*
X198743221Y-141534221D01*
X195583221Y-143694221D02*
X195583221Y-142234221D01*
X61703437Y-128524157D02*
X69520410Y-121847831D01*
X69520410Y-121847831D02*
X67792878Y-119825152D01*
X67792878Y-119825152D02*
X59975905Y-126501477D01*
X59975905Y-126501477D02*
X61703437Y-128524157D01*
X60698291Y-125884502D02*
X56801602Y-121322066D01*
X56801602Y-121322066D02*
X57379511Y-120828485D01*
X57379511Y-120828485D02*
X61276199Y-125390921D01*
X60743915Y-125845535D02*
X56847227Y-121283099D01*
X60835164Y-125767601D02*
X56938476Y-121205165D01*
X60926413Y-125689667D02*
X57029724Y-121127232D01*
X61017661Y-125611734D02*
X57120973Y-121049298D01*
X61108910Y-125533800D02*
X57212222Y-120971364D01*
X61200159Y-125455866D02*
X57303470Y-120893430D01*
X62640140Y-128158116D02*
X62425823Y-127907182D01*
X63218049Y-127664535D02*
X63003731Y-127413601D01*
X63680492Y-126835592D02*
X61952961Y-124812913D01*
X62629722Y-124234904D02*
X58733034Y-119672468D01*
X58733034Y-119672468D02*
X59310942Y-119178887D01*
X59310942Y-119178887D02*
X63207630Y-123741323D01*
X64615131Y-126559519D02*
X64357254Y-126257584D01*
X65193039Y-126065938D02*
X64935162Y-125764003D01*
X65611924Y-125185994D02*
X63884392Y-123163314D01*
X64561153Y-122585306D02*
X60664465Y-118022870D01*
X60664465Y-118022870D02*
X61242373Y-117529289D01*
X61242373Y-117529289D02*
X65139062Y-122091725D01*
X66546562Y-124909921D02*
X66288685Y-124607986D01*
X67124470Y-124416340D02*
X66866593Y-124114405D01*
X67543355Y-123536396D02*
X65815823Y-121513716D01*
X66492584Y-120935708D02*
X62595896Y-116373272D01*
X62595896Y-116373272D02*
X63173804Y-115879691D01*
X63173804Y-115879691D02*
X67070493Y-120442127D01*
X68477993Y-123260323D02*
X68220116Y-122958388D01*
X69055902Y-122766742D02*
X68798025Y-122464807D01*
X64474781Y-129721092D02*
X63509065Y-130545891D01*
X63509065Y-130545891D02*
X62684266Y-129580175D01*
D12*
X214498935Y-68186538D02*
X214498935Y-67186538D01*
X214498935Y-67662729D02*
X215070363Y-67662729D01*
X215070363Y-68186538D02*
X215070363Y-67186538D01*
X216070363Y-68186538D02*
X215498935Y-68186538D01*
X215784649Y-68186538D02*
X215784649Y-67186538D01*
X215689411Y-67329396D01*
X215594173Y-67424634D01*
X215498935Y-67472253D01*
X216689411Y-67186538D02*
X216784649Y-67186538D01*
X216879887Y-67234158D01*
X216927506Y-67281777D01*
X216975125Y-67377015D01*
X217022744Y-67567491D01*
X217022744Y-67805586D01*
X216975125Y-67996062D01*
X216927506Y-68091300D01*
X216879887Y-68138919D01*
X216784649Y-68186538D01*
X216689411Y-68186538D01*
X216594173Y-68138919D01*
X216546554Y-68091300D01*
X216498935Y-67996062D01*
X216451316Y-67805586D01*
X216451316Y-67567491D01*
X216498935Y-67377015D01*
X216546554Y-67281777D01*
X216594173Y-67234158D01*
X216689411Y-67186538D01*
X217879887Y-67186538D02*
X217689411Y-67186538D01*
X217594173Y-67234158D01*
X217546554Y-67281777D01*
X217451316Y-67424634D01*
X217403697Y-67615110D01*
X217403697Y-67996062D01*
X217451316Y-68091300D01*
X217498935Y-68138919D01*
X217594173Y-68186538D01*
X217784649Y-68186538D01*
X217879887Y-68138919D01*
X217927506Y-68091300D01*
X217975125Y-67996062D01*
X217975125Y-67757967D01*
X217927506Y-67662729D01*
X217879887Y-67615110D01*
X217784649Y-67567491D01*
X217594173Y-67567491D01*
X217498935Y-67615110D01*
X217451316Y-67662729D01*
X217403697Y-67757967D01*
X213655155Y-130604779D02*
X213655155Y-129604779D01*
X213655155Y-130080970D02*
X214226583Y-130080970D01*
X214226583Y-130604779D02*
X214226583Y-129604779D01*
X215226583Y-130604779D02*
X214655155Y-130604779D01*
X214940869Y-130604779D02*
X214940869Y-129604779D01*
X214845631Y-129747637D01*
X214750393Y-129842875D01*
X214655155Y-129890494D01*
X215845631Y-129604779D02*
X215940869Y-129604779D01*
X216036107Y-129652399D01*
X216083726Y-129700018D01*
X216131345Y-129795256D01*
X216178964Y-129985732D01*
X216178964Y-130223827D01*
X216131345Y-130414303D01*
X216083726Y-130509541D01*
X216036107Y-130557160D01*
X215940869Y-130604779D01*
X215845631Y-130604779D01*
X215750393Y-130557160D01*
X215702774Y-130509541D01*
X215655155Y-130414303D01*
X215607536Y-130223827D01*
X215607536Y-129985732D01*
X215655155Y-129795256D01*
X215702774Y-129700018D01*
X215750393Y-129652399D01*
X215845631Y-129604779D01*
X217083726Y-129604779D02*
X216607536Y-129604779D01*
X216559917Y-130080970D01*
X216607536Y-130033351D01*
X216702774Y-129985732D01*
X216940869Y-129985732D01*
X217036107Y-130033351D01*
X217083726Y-130080970D01*
X217131345Y-130176208D01*
X217131345Y-130414303D01*
X217083726Y-130509541D01*
X217036107Y-130557160D01*
X216940869Y-130604779D01*
X216702774Y-130604779D01*
X216607536Y-130557160D01*
X216559917Y-130509541D01*
X119248935Y-63186539D02*
X119248935Y-62186539D01*
X119248935Y-62662730D02*
X119820363Y-62662730D01*
X119820363Y-63186539D02*
X119820363Y-62186539D01*
X120820363Y-63186539D02*
X120248935Y-63186539D01*
X120534649Y-63186539D02*
X120534649Y-62186539D01*
X120439411Y-62329397D01*
X120344173Y-62424635D01*
X120248935Y-62472254D01*
X121439411Y-62186539D02*
X121534649Y-62186539D01*
X121629887Y-62234159D01*
X121677506Y-62281778D01*
X121725125Y-62377016D01*
X121772744Y-62567492D01*
X121772744Y-62805587D01*
X121725125Y-62996063D01*
X121677506Y-63091301D01*
X121629887Y-63138920D01*
X121534649Y-63186539D01*
X121439411Y-63186539D01*
X121344173Y-63138920D01*
X121296554Y-63091301D01*
X121248935Y-62996063D01*
X121201316Y-62805587D01*
X121201316Y-62567492D01*
X121248935Y-62377016D01*
X121296554Y-62281778D01*
X121344173Y-62234159D01*
X121439411Y-62186539D01*
X122629887Y-62519873D02*
X122629887Y-63186539D01*
X122391792Y-62138920D02*
X122153697Y-62853206D01*
X122772744Y-62853206D01*
X156348935Y-117786538D02*
X156348935Y-116786538D01*
X156348935Y-117262729D02*
X156920363Y-117262729D01*
X156920363Y-117786538D02*
X156920363Y-116786538D01*
X157920363Y-117786538D02*
X157348935Y-117786538D01*
X157634649Y-117786538D02*
X157634649Y-116786538D01*
X157539411Y-116929396D01*
X157444173Y-117024634D01*
X157348935Y-117072253D01*
X158539411Y-116786538D02*
X158634649Y-116786538D01*
X158729887Y-116834158D01*
X158777506Y-116881777D01*
X158825125Y-116977015D01*
X158872744Y-117167491D01*
X158872744Y-117405586D01*
X158825125Y-117596062D01*
X158777506Y-117691300D01*
X158729887Y-117738919D01*
X158634649Y-117786538D01*
X158539411Y-117786538D01*
X158444173Y-117738919D01*
X158396554Y-117691300D01*
X158348935Y-117596062D01*
X158301316Y-117405586D01*
X158301316Y-117167491D01*
X158348935Y-116977015D01*
X158396554Y-116881777D01*
X158444173Y-116834158D01*
X158539411Y-116786538D01*
X159206078Y-116786538D02*
X159825125Y-116786538D01*
X159491792Y-117167491D01*
X159634649Y-117167491D01*
X159729887Y-117215110D01*
X159777506Y-117262729D01*
X159825125Y-117357967D01*
X159825125Y-117596062D01*
X159777506Y-117691300D01*
X159729887Y-117738919D01*
X159634649Y-117786538D01*
X159348935Y-117786538D01*
X159253697Y-117738919D01*
X159206078Y-117691300D01*
X77762648Y-113418130D02*
X77762648Y-112418130D01*
X77762648Y-112894321D02*
X78334076Y-112894321D01*
X78334076Y-113418130D02*
X78334076Y-112418130D01*
X79334076Y-113418130D02*
X78762648Y-113418130D01*
X79048362Y-113418130D02*
X79048362Y-112418130D01*
X78953124Y-112560988D01*
X78857886Y-112656226D01*
X78762648Y-112703845D01*
X79953124Y-112418130D02*
X80048362Y-112418130D01*
X80143600Y-112465750D01*
X80191219Y-112513369D01*
X80238838Y-112608607D01*
X80286457Y-112799083D01*
X80286457Y-113037178D01*
X80238838Y-113227654D01*
X80191219Y-113322892D01*
X80143600Y-113370511D01*
X80048362Y-113418130D01*
X79953124Y-113418130D01*
X79857886Y-113370511D01*
X79810267Y-113322892D01*
X79762648Y-113227654D01*
X79715029Y-113037178D01*
X79715029Y-112799083D01*
X79762648Y-112608607D01*
X79810267Y-112513369D01*
X79857886Y-112465750D01*
X79953124Y-112418130D01*
X80667410Y-112513369D02*
X80715029Y-112465750D01*
X80810267Y-112418130D01*
X81048362Y-112418130D01*
X81143600Y-112465750D01*
X81191219Y-112513369D01*
X81238838Y-112608607D01*
X81238838Y-112703845D01*
X81191219Y-112846702D01*
X80619791Y-113418130D01*
X81238838Y-113418130D01*
X98481171Y-160499129D02*
X98481171Y-159499129D01*
X98481171Y-159975320D02*
X99052599Y-159975320D01*
X99052599Y-160499129D02*
X99052599Y-159499129D01*
X100052599Y-160499129D02*
X99481171Y-160499129D01*
X99766885Y-160499129D02*
X99766885Y-159499129D01*
X99671647Y-159641987D01*
X99576409Y-159737225D01*
X99481171Y-159784844D01*
X100671647Y-159499129D02*
X100766885Y-159499129D01*
X100862123Y-159546749D01*
X100909742Y-159594368D01*
X100957361Y-159689606D01*
X101004980Y-159880082D01*
X101004980Y-160118177D01*
X100957361Y-160308653D01*
X100909742Y-160403891D01*
X100862123Y-160451510D01*
X100766885Y-160499129D01*
X100671647Y-160499129D01*
X100576409Y-160451510D01*
X100528790Y-160403891D01*
X100481171Y-160308653D01*
X100433552Y-160118177D01*
X100433552Y-159880082D01*
X100481171Y-159689606D01*
X100528790Y-159594368D01*
X100576409Y-159546749D01*
X100671647Y-159499129D01*
X101957361Y-160499129D02*
X101385933Y-160499129D01*
X101671647Y-160499129D02*
X101671647Y-159499129D01*
X101576409Y-159641987D01*
X101481171Y-159737225D01*
X101385933Y-159784844D01*
X206980012Y-137593655D02*
X207128503Y-137568633D01*
X207338729Y-137456854D01*
X207400463Y-137370097D01*
X207420153Y-137305696D01*
X207417486Y-137199250D01*
X207372775Y-137115160D01*
X207286018Y-137053425D01*
X207221617Y-137033736D01*
X207115171Y-137036403D01*
X206924635Y-137083781D01*
X206818189Y-137086447D01*
X206753788Y-137066758D01*
X206667031Y-137005023D01*
X206622319Y-136920933D01*
X206619653Y-136814487D01*
X206639342Y-136750086D01*
X206701077Y-136663329D01*
X206911302Y-136551550D01*
X207059794Y-136526528D01*
X207331754Y-136327993D02*
X208011451Y-137099161D01*
X207844294Y-136379061D01*
X208347812Y-136920315D01*
X208088566Y-135925588D01*
X208427593Y-135853188D02*
X208447283Y-135788787D01*
X208509017Y-135702030D01*
X208719243Y-135590252D01*
X208825689Y-135587585D01*
X208890090Y-135607274D01*
X208976846Y-135669009D01*
X209021558Y-135753099D01*
X209046580Y-135901590D01*
X208810308Y-136674401D01*
X209356895Y-136383776D01*
X209686280Y-135076068D02*
X209265829Y-135299626D01*
X209447342Y-135742433D01*
X209467031Y-135678032D01*
X209528766Y-135591276D01*
X209738991Y-135479497D01*
X209845437Y-135476830D01*
X209909838Y-135496520D01*
X209996595Y-135558254D01*
X210108374Y-135768480D01*
X210111040Y-135874926D01*
X210091351Y-135939327D01*
X210029617Y-136026083D01*
X209819391Y-136137862D01*
X209712945Y-136140529D01*
X209648544Y-136120839D01*
X184195006Y-125512729D02*
X184337863Y-125560348D01*
X184385482Y-125607967D01*
X184433101Y-125703205D01*
X184433101Y-125846062D01*
X184385482Y-125941300D01*
X184337863Y-125988919D01*
X184242625Y-126036538D01*
X183861673Y-126036538D01*
X183861673Y-125036538D01*
X184195006Y-125036538D01*
X184290244Y-125084158D01*
X184337863Y-125131777D01*
X184385482Y-125227015D01*
X184385482Y-125322253D01*
X184337863Y-125417491D01*
X184290244Y-125465110D01*
X184195006Y-125512729D01*
X183861673Y-125512729D01*
X184718816Y-125036538D02*
X185290244Y-125036538D01*
X185004530Y-126036538D02*
X185004530Y-125036538D01*
X186147387Y-126036538D02*
X185575959Y-126036538D01*
X185861673Y-126036538D02*
X185861673Y-125036538D01*
X185766435Y-125179396D01*
X185671197Y-125274634D01*
X185575959Y-125322253D01*
X119204497Y-75129720D02*
X119347354Y-75177339D01*
X119585449Y-75177339D01*
X119680687Y-75129720D01*
X119728306Y-75082101D01*
X119775925Y-74986863D01*
X119775925Y-74891625D01*
X119728306Y-74796387D01*
X119680687Y-74748768D01*
X119585449Y-74701149D01*
X119394973Y-74653530D01*
X119299735Y-74605911D01*
X119252116Y-74558292D01*
X119204497Y-74463054D01*
X119204497Y-74367816D01*
X119252116Y-74272578D01*
X119299735Y-74224959D01*
X119394973Y-74177339D01*
X119633068Y-74177339D01*
X119775925Y-74224959D01*
X120109259Y-74177339D02*
X120347354Y-75177339D01*
X120537830Y-74463054D01*
X120728306Y-75177339D01*
X120966401Y-74177339D01*
X121299735Y-74272578D02*
X121347354Y-74224959D01*
X121442592Y-74177339D01*
X121680687Y-74177339D01*
X121775925Y-74224959D01*
X121823544Y-74272578D01*
X121871163Y-74367816D01*
X121871163Y-74463054D01*
X121823544Y-74605911D01*
X121252116Y-75177339D01*
X121871163Y-75177339D01*
X122728306Y-74510673D02*
X122728306Y-75177339D01*
X122490211Y-74129720D02*
X122252116Y-74844006D01*
X122871163Y-74844006D01*
X106712180Y-140150606D02*
X106861085Y-140128179D01*
X107073230Y-140020086D01*
X107136469Y-139934420D01*
X107157279Y-139870372D01*
X107156471Y-139763896D01*
X107113233Y-139679038D01*
X107027567Y-139615799D01*
X106963520Y-139594989D01*
X106857044Y-139595797D01*
X106665709Y-139639842D01*
X106559233Y-139640651D01*
X106495186Y-139619840D01*
X106409520Y-139556601D01*
X106366282Y-139471744D01*
X106365474Y-139365267D01*
X106386284Y-139301220D01*
X106449523Y-139215554D01*
X106661668Y-139107461D01*
X106810573Y-139085034D01*
X107085957Y-138891275D02*
X107752092Y-139674188D01*
X107597528Y-138951281D01*
X108091523Y-139501239D01*
X107849677Y-138502140D01*
X108722298Y-138431626D02*
X109024958Y-139025630D01*
X108337205Y-138200288D02*
X108449339Y-138944814D01*
X109000915Y-138663772D01*
X157253697Y-83574919D02*
X157396554Y-83622538D01*
X157634649Y-83622538D01*
X157729887Y-83574919D01*
X157777506Y-83527300D01*
X157825125Y-83432062D01*
X157825125Y-83336824D01*
X157777506Y-83241586D01*
X157729887Y-83193967D01*
X157634649Y-83146348D01*
X157444173Y-83098729D01*
X157348935Y-83051110D01*
X157301316Y-83003491D01*
X157253697Y-82908253D01*
X157253697Y-82813015D01*
X157301316Y-82717777D01*
X157348935Y-82670158D01*
X157444173Y-82622538D01*
X157682268Y-82622538D01*
X157825125Y-82670158D01*
X158158459Y-82622538D02*
X158396554Y-83622538D01*
X158587030Y-82908253D01*
X158777506Y-83622538D01*
X159015601Y-82622538D01*
X159920363Y-83622538D02*
X159348935Y-83622538D01*
X159634649Y-83622538D02*
X159634649Y-82622538D01*
X159539411Y-82765396D01*
X159444173Y-82860634D01*
X159348935Y-82908253D01*
X160253697Y-82622538D02*
X160920363Y-82622538D01*
X160491792Y-83622538D01*
X76451742Y-138061831D02*
X76591297Y-138005262D01*
X76772346Y-137850632D01*
X76813840Y-137752570D01*
X76819123Y-137685434D01*
X76793481Y-137582088D01*
X76731629Y-137509668D01*
X76633567Y-137468175D01*
X76566431Y-137462891D01*
X76463085Y-137488534D01*
X76287320Y-137576028D01*
X76183974Y-137601670D01*
X76116838Y-137596387D01*
X76018776Y-137554893D01*
X75956924Y-137482474D01*
X75931282Y-137379128D01*
X75936565Y-137311992D01*
X75978059Y-137213930D01*
X76159108Y-137059300D01*
X76298663Y-137002731D01*
X76521206Y-136750039D02*
X77351703Y-137355814D01*
X77032651Y-136688963D01*
X77641382Y-137108405D01*
X77172983Y-136193369D01*
X78510417Y-136366179D02*
X78075899Y-136737292D01*
X78293158Y-136551736D02*
X77643710Y-135791330D01*
X77664069Y-135961811D01*
X77653501Y-136096083D01*
X77612008Y-136194145D01*
X78548955Y-135018177D02*
X78186857Y-135327438D01*
X78459908Y-135720462D01*
X78465192Y-135653326D01*
X78506686Y-135555264D01*
X78687735Y-135400634D01*
X78791080Y-135374991D01*
X78858216Y-135380275D01*
X78956278Y-135421769D01*
X79110909Y-135602818D01*
X79136551Y-135706163D01*
X79131267Y-135773299D01*
X79089774Y-135871361D01*
X78908725Y-136025992D01*
X78805379Y-136051634D01*
X78738243Y-136046351D01*
X147203697Y-129674919D02*
X147346554Y-129722538D01*
X147584649Y-129722538D01*
X147679887Y-129674919D01*
X147727506Y-129627300D01*
X147775125Y-129532062D01*
X147775125Y-129436824D01*
X147727506Y-129341586D01*
X147679887Y-129293967D01*
X147584649Y-129246348D01*
X147394173Y-129198729D01*
X147298935Y-129151110D01*
X147251316Y-129103491D01*
X147203697Y-129008253D01*
X147203697Y-128913015D01*
X147251316Y-128817777D01*
X147298935Y-128770158D01*
X147394173Y-128722538D01*
X147632268Y-128722538D01*
X147775125Y-128770158D01*
X148108459Y-128722538D02*
X148346554Y-129722538D01*
X148537030Y-129008253D01*
X148727506Y-129722538D01*
X148965601Y-128722538D01*
X149870363Y-129722538D02*
X149298935Y-129722538D01*
X149584649Y-129722538D02*
X149584649Y-128722538D01*
X149489411Y-128865396D01*
X149394173Y-128960634D01*
X149298935Y-129008253D01*
X150441792Y-129151110D02*
X150346554Y-129103491D01*
X150298935Y-129055872D01*
X150251316Y-128960634D01*
X150251316Y-128913015D01*
X150298935Y-128817777D01*
X150346554Y-128770158D01*
X150441792Y-128722538D01*
X150632268Y-128722538D01*
X150727506Y-128770158D01*
X150775125Y-128817777D01*
X150822744Y-128913015D01*
X150822744Y-128960634D01*
X150775125Y-129055872D01*
X150727506Y-129103491D01*
X150632268Y-129151110D01*
X150441792Y-129151110D01*
X150346554Y-129198729D01*
X150298935Y-129246348D01*
X150251316Y-129341586D01*
X150251316Y-129532062D01*
X150298935Y-129627300D01*
X150346554Y-129674919D01*
X150441792Y-129722538D01*
X150632268Y-129722538D01*
X150727506Y-129674919D01*
X150775125Y-129627300D01*
X150822744Y-129532062D01*
X150822744Y-129341586D01*
X150775125Y-129246348D01*
X150727506Y-129198729D01*
X150632268Y-129151110D01*
X97639372Y-123393118D02*
X97788277Y-123370691D01*
X98000422Y-123262598D01*
X98063661Y-123176932D01*
X98084471Y-123112884D01*
X98083663Y-123006408D01*
X98040426Y-122921550D01*
X97954760Y-122858311D01*
X97890712Y-122837501D01*
X97784236Y-122838309D01*
X97592902Y-122882354D01*
X97486425Y-122883163D01*
X97422378Y-122862352D01*
X97336712Y-122799113D01*
X97293475Y-122714256D01*
X97292666Y-122607779D01*
X97313476Y-122543732D01*
X97376716Y-122458066D01*
X97588860Y-122349973D01*
X97737765Y-122327546D01*
X98013149Y-122133787D02*
X98679284Y-122916700D01*
X98524720Y-122193793D01*
X99018715Y-122743751D01*
X98776869Y-121744652D01*
X100037008Y-122224905D02*
X99527861Y-122484328D01*
X99782435Y-122354617D02*
X99328444Y-121463610D01*
X99308442Y-121634134D01*
X99266822Y-121762229D01*
X99203583Y-121847895D01*
X99880020Y-121182568D02*
X100431595Y-120901527D01*
X100307542Y-121392288D01*
X100434828Y-121327432D01*
X100541305Y-121326624D01*
X100605352Y-121347434D01*
X100691018Y-121410673D01*
X100799111Y-121622818D01*
X100799920Y-121729294D01*
X100779109Y-121793342D01*
X100715870Y-121879008D01*
X100461297Y-122008719D01*
X100354820Y-122009528D01*
X100290773Y-121988717D01*
X195353697Y-75524919D02*
X195496554Y-75572538D01*
X195734649Y-75572538D01*
X195829887Y-75524919D01*
X195877506Y-75477300D01*
X195925125Y-75382062D01*
X195925125Y-75286824D01*
X195877506Y-75191586D01*
X195829887Y-75143967D01*
X195734649Y-75096348D01*
X195544173Y-75048729D01*
X195448935Y-75001110D01*
X195401316Y-74953491D01*
X195353697Y-74858253D01*
X195353697Y-74763015D01*
X195401316Y-74667777D01*
X195448935Y-74620158D01*
X195544173Y-74572538D01*
X195782268Y-74572538D01*
X195925125Y-74620158D01*
X196258459Y-74572538D02*
X196496554Y-75572538D01*
X196687030Y-74858253D01*
X196877506Y-75572538D01*
X197115601Y-74572538D01*
X198020363Y-75572538D02*
X197448935Y-75572538D01*
X197734649Y-75572538D02*
X197734649Y-74572538D01*
X197639411Y-74715396D01*
X197544173Y-74810634D01*
X197448935Y-74858253D01*
X198639411Y-74572538D02*
X198734649Y-74572538D01*
X198829887Y-74620158D01*
X198877506Y-74667777D01*
X198925125Y-74763015D01*
X198972744Y-74953491D01*
X198972744Y-75191586D01*
X198925125Y-75382062D01*
X198877506Y-75477300D01*
X198829887Y-75524919D01*
X198734649Y-75572538D01*
X198639411Y-75572538D01*
X198544173Y-75524919D01*
X198496554Y-75477300D01*
X198448935Y-75382062D01*
X198401316Y-75191586D01*
X198401316Y-74953491D01*
X198448935Y-74763015D01*
X198496554Y-74667777D01*
X198544173Y-74620158D01*
X198639411Y-74572538D01*
X195353697Y-111624919D02*
X195496554Y-111672538D01*
X195734649Y-111672538D01*
X195829887Y-111624919D01*
X195877506Y-111577300D01*
X195925125Y-111482062D01*
X195925125Y-111386824D01*
X195877506Y-111291586D01*
X195829887Y-111243967D01*
X195734649Y-111196348D01*
X195544173Y-111148729D01*
X195448935Y-111101110D01*
X195401316Y-111053491D01*
X195353697Y-110958253D01*
X195353697Y-110863015D01*
X195401316Y-110767777D01*
X195448935Y-110720158D01*
X195544173Y-110672538D01*
X195782268Y-110672538D01*
X195925125Y-110720158D01*
X196258459Y-110672538D02*
X196496554Y-111672538D01*
X196687030Y-110958253D01*
X196877506Y-111672538D01*
X197115601Y-110672538D01*
X198020363Y-111672538D02*
X197448935Y-111672538D01*
X197734649Y-111672538D02*
X197734649Y-110672538D01*
X197639411Y-110815396D01*
X197544173Y-110910634D01*
X197448935Y-110958253D01*
X198972744Y-111672538D02*
X198401316Y-111672538D01*
X198687030Y-111672538D02*
X198687030Y-110672538D01*
X198591792Y-110815396D01*
X198496554Y-110910634D01*
X198401316Y-110958253D01*
X138203697Y-106624919D02*
X138346554Y-106672538D01*
X138584649Y-106672538D01*
X138679887Y-106624919D01*
X138727506Y-106577300D01*
X138775125Y-106482062D01*
X138775125Y-106386824D01*
X138727506Y-106291586D01*
X138679887Y-106243967D01*
X138584649Y-106196348D01*
X138394173Y-106148729D01*
X138298935Y-106101110D01*
X138251316Y-106053491D01*
X138203697Y-105958253D01*
X138203697Y-105863015D01*
X138251316Y-105767777D01*
X138298935Y-105720158D01*
X138394173Y-105672538D01*
X138632268Y-105672538D01*
X138775125Y-105720158D01*
X139108459Y-105672538D02*
X139346554Y-106672538D01*
X139537030Y-105958253D01*
X139727506Y-106672538D01*
X139965601Y-105672538D01*
X140870363Y-106672538D02*
X140298935Y-106672538D01*
X140584649Y-106672538D02*
X140584649Y-105672538D01*
X140489411Y-105815396D01*
X140394173Y-105910634D01*
X140298935Y-105958253D01*
X141727506Y-106005872D02*
X141727506Y-106672538D01*
X141489411Y-105624919D02*
X141251316Y-106339205D01*
X141870363Y-106339205D01*
X119629887Y-111624919D02*
X119772744Y-111672538D01*
X120010840Y-111672538D01*
X120106078Y-111624919D01*
X120153697Y-111577300D01*
X120201316Y-111482062D01*
X120201316Y-111386824D01*
X120153697Y-111291586D01*
X120106078Y-111243967D01*
X120010840Y-111196348D01*
X119820363Y-111148729D01*
X119725125Y-111101110D01*
X119677506Y-111053491D01*
X119629887Y-110958253D01*
X119629887Y-110863015D01*
X119677506Y-110767777D01*
X119725125Y-110720158D01*
X119820363Y-110672538D01*
X120058459Y-110672538D01*
X120201316Y-110720158D01*
X120534649Y-110672538D02*
X120772744Y-111672538D01*
X120963221Y-110958253D01*
X121153697Y-111672538D01*
X121391792Y-110672538D01*
X121677506Y-110672538D02*
X122344173Y-110672538D01*
X121915601Y-111672538D01*
X157729887Y-65524919D02*
X157872744Y-65572538D01*
X158110840Y-65572538D01*
X158206078Y-65524919D01*
X158253697Y-65477300D01*
X158301316Y-65382062D01*
X158301316Y-65286824D01*
X158253697Y-65191586D01*
X158206078Y-65143967D01*
X158110840Y-65096348D01*
X157920363Y-65048729D01*
X157825125Y-65001110D01*
X157777506Y-64953491D01*
X157729887Y-64858253D01*
X157729887Y-64763015D01*
X157777506Y-64667777D01*
X157825125Y-64620158D01*
X157920363Y-64572538D01*
X158158459Y-64572538D01*
X158301316Y-64620158D01*
X158634649Y-64572538D02*
X158872744Y-65572538D01*
X159063221Y-64858253D01*
X159253697Y-65572538D01*
X159491792Y-64572538D01*
X160396554Y-65572538D02*
X159825125Y-65572538D01*
X160110840Y-65572538D02*
X160110840Y-64572538D01*
X160015601Y-64715396D01*
X159920363Y-64810634D01*
X159825125Y-64858253D01*
X176303697Y-106624919D02*
X176446554Y-106672538D01*
X176684649Y-106672538D01*
X176779887Y-106624919D01*
X176827506Y-106577300D01*
X176875125Y-106482062D01*
X176875125Y-106386824D01*
X176827506Y-106291586D01*
X176779887Y-106243967D01*
X176684649Y-106196348D01*
X176494173Y-106148729D01*
X176398935Y-106101110D01*
X176351316Y-106053491D01*
X176303697Y-105958253D01*
X176303697Y-105863015D01*
X176351316Y-105767777D01*
X176398935Y-105720158D01*
X176494173Y-105672538D01*
X176732268Y-105672538D01*
X176875125Y-105720158D01*
X177208459Y-105672538D02*
X177446554Y-106672538D01*
X177637030Y-105958253D01*
X177827506Y-106672538D01*
X178065601Y-105672538D01*
X178398935Y-105767777D02*
X178446554Y-105720158D01*
X178541792Y-105672538D01*
X178779887Y-105672538D01*
X178875125Y-105720158D01*
X178922744Y-105767777D01*
X178970363Y-105863015D01*
X178970363Y-105958253D01*
X178922744Y-106101110D01*
X178351316Y-106672538D01*
X178970363Y-106672538D01*
X179589411Y-105672538D02*
X179684649Y-105672538D01*
X179779887Y-105720158D01*
X179827506Y-105767777D01*
X179875125Y-105863015D01*
X179922744Y-106053491D01*
X179922744Y-106291586D01*
X179875125Y-106482062D01*
X179827506Y-106577300D01*
X179779887Y-106624919D01*
X179684649Y-106672538D01*
X179589411Y-106672538D01*
X179494173Y-106624919D01*
X179446554Y-106577300D01*
X179398935Y-106482062D01*
X179351316Y-106291586D01*
X179351316Y-106053491D01*
X179398935Y-105863015D01*
X179446554Y-105767777D01*
X179494173Y-105720158D01*
X179589411Y-105672538D01*
X138679887Y-88574919D02*
X138822744Y-88622538D01*
X139060840Y-88622538D01*
X139156078Y-88574919D01*
X139203697Y-88527300D01*
X139251316Y-88432062D01*
X139251316Y-88336824D01*
X139203697Y-88241586D01*
X139156078Y-88193967D01*
X139060840Y-88146348D01*
X138870363Y-88098729D01*
X138775125Y-88051110D01*
X138727506Y-88003491D01*
X138679887Y-87908253D01*
X138679887Y-87813015D01*
X138727506Y-87717777D01*
X138775125Y-87670158D01*
X138870363Y-87622538D01*
X139108459Y-87622538D01*
X139251316Y-87670158D01*
X139584649Y-87622538D02*
X139822744Y-88622538D01*
X140013221Y-87908253D01*
X140203697Y-88622538D01*
X140441792Y-87622538D01*
X140870363Y-88622538D02*
X141060840Y-88622538D01*
X141156078Y-88574919D01*
X141203697Y-88527300D01*
X141298935Y-88384443D01*
X141346554Y-88193967D01*
X141346554Y-87813015D01*
X141298935Y-87717777D01*
X141251316Y-87670158D01*
X141156078Y-87622538D01*
X140965601Y-87622538D01*
X140870363Y-87670158D01*
X140822744Y-87717777D01*
X140775125Y-87813015D01*
X140775125Y-88051110D01*
X140822744Y-88146348D01*
X140870363Y-88193967D01*
X140965601Y-88241586D01*
X141156078Y-88241586D01*
X141251316Y-88193967D01*
X141298935Y-88146348D01*
X141346554Y-88051110D01*
X138679887Y-70524919D02*
X138822744Y-70572538D01*
X139060840Y-70572538D01*
X139156078Y-70524919D01*
X139203697Y-70477300D01*
X139251316Y-70382062D01*
X139251316Y-70286824D01*
X139203697Y-70191586D01*
X139156078Y-70143967D01*
X139060840Y-70096348D01*
X138870363Y-70048729D01*
X138775125Y-70001110D01*
X138727506Y-69953491D01*
X138679887Y-69858253D01*
X138679887Y-69763015D01*
X138727506Y-69667777D01*
X138775125Y-69620158D01*
X138870363Y-69572538D01*
X139108459Y-69572538D01*
X139251316Y-69620158D01*
X139584649Y-69572538D02*
X139822744Y-70572538D01*
X140013221Y-69858253D01*
X140203697Y-70572538D01*
X140441792Y-69572538D01*
X140775125Y-69667777D02*
X140822744Y-69620158D01*
X140917982Y-69572538D01*
X141156078Y-69572538D01*
X141251316Y-69620158D01*
X141298935Y-69667777D01*
X141346554Y-69763015D01*
X141346554Y-69858253D01*
X141298935Y-70001110D01*
X140727506Y-70572538D01*
X141346554Y-70572538D01*
X89185826Y-152238303D02*
X89325381Y-152181734D01*
X89506430Y-152027104D01*
X89547924Y-151929042D01*
X89553207Y-151861906D01*
X89527565Y-151758560D01*
X89465713Y-151686140D01*
X89367651Y-151644647D01*
X89300515Y-151639363D01*
X89197169Y-151665006D01*
X89021404Y-151752500D01*
X88918058Y-151778143D01*
X88850922Y-151772859D01*
X88752860Y-151731365D01*
X88691008Y-151658946D01*
X88665366Y-151555600D01*
X88670649Y-151488464D01*
X88712143Y-151390402D01*
X88893192Y-151235772D01*
X89032748Y-151179203D01*
X89255290Y-150926511D02*
X90085787Y-151532286D01*
X89766735Y-150865435D01*
X90375466Y-151284877D01*
X89907067Y-150369841D01*
X90124325Y-150184284D02*
X90595053Y-149782245D01*
X90588993Y-150288406D01*
X90697623Y-150195628D01*
X90800968Y-150169985D01*
X90868104Y-150175269D01*
X90966166Y-150216763D01*
X91120797Y-150397812D01*
X91146439Y-150501157D01*
X91141155Y-150568293D01*
X91099662Y-150666355D01*
X90882403Y-150851912D01*
X90779057Y-150877554D01*
X90711921Y-150872271D01*
X214403697Y-80524919D02*
X214546554Y-80572538D01*
X214784649Y-80572538D01*
X214879887Y-80524919D01*
X214927506Y-80477300D01*
X214975125Y-80382062D01*
X214975125Y-80286824D01*
X214927506Y-80191586D01*
X214879887Y-80143967D01*
X214784649Y-80096348D01*
X214594173Y-80048729D01*
X214498935Y-80001110D01*
X214451316Y-79953491D01*
X214403697Y-79858253D01*
X214403697Y-79763015D01*
X214451316Y-79667777D01*
X214498935Y-79620158D01*
X214594173Y-79572538D01*
X214832268Y-79572538D01*
X214975125Y-79620158D01*
X215308459Y-79572538D02*
X215546554Y-80572538D01*
X215737030Y-79858253D01*
X215927506Y-80572538D01*
X216165601Y-79572538D01*
X217070363Y-80572538D02*
X216498935Y-80572538D01*
X216784649Y-80572538D02*
X216784649Y-79572538D01*
X216689411Y-79715396D01*
X216594173Y-79810634D01*
X216498935Y-79858253D01*
X217451316Y-79667777D02*
X217498935Y-79620158D01*
X217594173Y-79572538D01*
X217832268Y-79572538D01*
X217927506Y-79620158D01*
X217975125Y-79667777D01*
X218022744Y-79763015D01*
X218022744Y-79858253D01*
X217975125Y-80001110D01*
X217403697Y-80572538D01*
X218022744Y-80572538D01*
X195829887Y-93574919D02*
X195972744Y-93622538D01*
X196210840Y-93622538D01*
X196306078Y-93574919D01*
X196353697Y-93527300D01*
X196401316Y-93432062D01*
X196401316Y-93336824D01*
X196353697Y-93241586D01*
X196306078Y-93193967D01*
X196210840Y-93146348D01*
X196020363Y-93098729D01*
X195925125Y-93051110D01*
X195877506Y-93003491D01*
X195829887Y-92908253D01*
X195829887Y-92813015D01*
X195877506Y-92717777D01*
X195925125Y-92670158D01*
X196020363Y-92622538D01*
X196258459Y-92622538D01*
X196401316Y-92670158D01*
X196734649Y-92622538D02*
X196972744Y-93622538D01*
X197163221Y-92908253D01*
X197353697Y-93622538D01*
X197591792Y-92622538D01*
X198401316Y-92622538D02*
X198210840Y-92622538D01*
X198115601Y-92670158D01*
X198067982Y-92717777D01*
X197972744Y-92860634D01*
X197925125Y-93051110D01*
X197925125Y-93432062D01*
X197972744Y-93527300D01*
X198020363Y-93574919D01*
X198115601Y-93622538D01*
X198306078Y-93622538D01*
X198401316Y-93574919D01*
X198448935Y-93527300D01*
X198496554Y-93432062D01*
X198496554Y-93193967D01*
X198448935Y-93098729D01*
X198401316Y-93051110D01*
X198306078Y-93003491D01*
X198115601Y-93003491D01*
X198020363Y-93051110D01*
X197972744Y-93098729D01*
X197925125Y-93193967D01*
X176779887Y-88574919D02*
X176922744Y-88622538D01*
X177160840Y-88622538D01*
X177256078Y-88574919D01*
X177303697Y-88527300D01*
X177351316Y-88432062D01*
X177351316Y-88336824D01*
X177303697Y-88241586D01*
X177256078Y-88193967D01*
X177160840Y-88146348D01*
X176970363Y-88098729D01*
X176875125Y-88051110D01*
X176827506Y-88003491D01*
X176779887Y-87908253D01*
X176779887Y-87813015D01*
X176827506Y-87717777D01*
X176875125Y-87670158D01*
X176970363Y-87622538D01*
X177208459Y-87622538D01*
X177351316Y-87670158D01*
X177684649Y-87622538D02*
X177922744Y-88622538D01*
X178113221Y-87908253D01*
X178303697Y-88622538D01*
X178541792Y-87622538D01*
X179065601Y-88051110D02*
X178970363Y-88003491D01*
X178922744Y-87955872D01*
X178875125Y-87860634D01*
X178875125Y-87813015D01*
X178922744Y-87717777D01*
X178970363Y-87670158D01*
X179065601Y-87622538D01*
X179256078Y-87622538D01*
X179351316Y-87670158D01*
X179398935Y-87717777D01*
X179446554Y-87813015D01*
X179446554Y-87860634D01*
X179398935Y-87955872D01*
X179351316Y-88003491D01*
X179256078Y-88051110D01*
X179065601Y-88051110D01*
X178970363Y-88098729D01*
X178922744Y-88146348D01*
X178875125Y-88241586D01*
X178875125Y-88432062D01*
X178922744Y-88527300D01*
X178970363Y-88574919D01*
X179065601Y-88622538D01*
X179256078Y-88622538D01*
X179351316Y-88574919D01*
X179398935Y-88527300D01*
X179446554Y-88432062D01*
X179446554Y-88241586D01*
X179398935Y-88146348D01*
X179351316Y-88098729D01*
X179256078Y-88051110D01*
X176303697Y-70524919D02*
X176446554Y-70572538D01*
X176684649Y-70572538D01*
X176779887Y-70524919D01*
X176827506Y-70477300D01*
X176875125Y-70382062D01*
X176875125Y-70286824D01*
X176827506Y-70191586D01*
X176779887Y-70143967D01*
X176684649Y-70096348D01*
X176494173Y-70048729D01*
X176398935Y-70001110D01*
X176351316Y-69953491D01*
X176303697Y-69858253D01*
X176303697Y-69763015D01*
X176351316Y-69667777D01*
X176398935Y-69620158D01*
X176494173Y-69572538D01*
X176732268Y-69572538D01*
X176875125Y-69620158D01*
X177208459Y-69572538D02*
X177446554Y-70572538D01*
X177637030Y-69858253D01*
X177827506Y-70572538D01*
X178065601Y-69572538D01*
X178970363Y-70572538D02*
X178398935Y-70572538D01*
X178684649Y-70572538D02*
X178684649Y-69572538D01*
X178589411Y-69715396D01*
X178494173Y-69810634D01*
X178398935Y-69858253D01*
X179827506Y-69572538D02*
X179637030Y-69572538D01*
X179541792Y-69620158D01*
X179494173Y-69667777D01*
X179398935Y-69810634D01*
X179351316Y-70001110D01*
X179351316Y-70382062D01*
X179398935Y-70477300D01*
X179446554Y-70524919D01*
X179541792Y-70572538D01*
X179732268Y-70572538D01*
X179827506Y-70524919D01*
X179875125Y-70477300D01*
X179922744Y-70382062D01*
X179922744Y-70143967D01*
X179875125Y-70048729D01*
X179827506Y-70001110D01*
X179732268Y-69953491D01*
X179541792Y-69953491D01*
X179446554Y-70001110D01*
X179398935Y-70048729D01*
X179351316Y-70143967D01*
X157253697Y-101624919D02*
X157396554Y-101672538D01*
X157634649Y-101672538D01*
X157729887Y-101624919D01*
X157777506Y-101577300D01*
X157825125Y-101482062D01*
X157825125Y-101386824D01*
X157777506Y-101291586D01*
X157729887Y-101243967D01*
X157634649Y-101196348D01*
X157444173Y-101148729D01*
X157348935Y-101101110D01*
X157301316Y-101053491D01*
X157253697Y-100958253D01*
X157253697Y-100863015D01*
X157301316Y-100767777D01*
X157348935Y-100720158D01*
X157444173Y-100672538D01*
X157682268Y-100672538D01*
X157825125Y-100720158D01*
X158158459Y-100672538D02*
X158396554Y-101672538D01*
X158587030Y-100958253D01*
X158777506Y-101672538D01*
X159015601Y-100672538D01*
X159920363Y-101672538D02*
X159348935Y-101672538D01*
X159634649Y-101672538D02*
X159634649Y-100672538D01*
X159539411Y-100815396D01*
X159444173Y-100910634D01*
X159348935Y-100958253D01*
X160396554Y-101672538D02*
X160587030Y-101672538D01*
X160682268Y-101624919D01*
X160729887Y-101577300D01*
X160825125Y-101434443D01*
X160872744Y-101243967D01*
X160872744Y-100863015D01*
X160825125Y-100767777D01*
X160777506Y-100720158D01*
X160682268Y-100672538D01*
X160491792Y-100672538D01*
X160396554Y-100720158D01*
X160348935Y-100767777D01*
X160301316Y-100863015D01*
X160301316Y-101101110D01*
X160348935Y-101196348D01*
X160396554Y-101243967D01*
X160491792Y-101291586D01*
X160682268Y-101291586D01*
X160777506Y-101243967D01*
X160825125Y-101196348D01*
X160872744Y-101101110D01*
X119153697Y-93574919D02*
X119296554Y-93622538D01*
X119534649Y-93622538D01*
X119629887Y-93574919D01*
X119677506Y-93527300D01*
X119725125Y-93432062D01*
X119725125Y-93336824D01*
X119677506Y-93241586D01*
X119629887Y-93193967D01*
X119534649Y-93146348D01*
X119344173Y-93098729D01*
X119248935Y-93051110D01*
X119201316Y-93003491D01*
X119153697Y-92908253D01*
X119153697Y-92813015D01*
X119201316Y-92717777D01*
X119248935Y-92670158D01*
X119344173Y-92622538D01*
X119582268Y-92622538D01*
X119725125Y-92670158D01*
X120058459Y-92622538D02*
X120296554Y-93622538D01*
X120487030Y-92908253D01*
X120677506Y-93622538D01*
X120915601Y-92622538D01*
X121248935Y-92717777D02*
X121296554Y-92670158D01*
X121391792Y-92622538D01*
X121629887Y-92622538D01*
X121725125Y-92670158D01*
X121772744Y-92717777D01*
X121820363Y-92813015D01*
X121820363Y-92908253D01*
X121772744Y-93051110D01*
X121201316Y-93622538D01*
X121820363Y-93622538D01*
X122772744Y-93622538D02*
X122201316Y-93622538D01*
X122487030Y-93622538D02*
X122487030Y-92622538D01*
X122391792Y-92765396D01*
X122296554Y-92860634D01*
X122201316Y-92908253D01*
X214403697Y-98574919D02*
X214546554Y-98622538D01*
X214784649Y-98622538D01*
X214879887Y-98574919D01*
X214927506Y-98527300D01*
X214975125Y-98432062D01*
X214975125Y-98336824D01*
X214927506Y-98241586D01*
X214879887Y-98193967D01*
X214784649Y-98146348D01*
X214594173Y-98098729D01*
X214498935Y-98051110D01*
X214451316Y-98003491D01*
X214403697Y-97908253D01*
X214403697Y-97813015D01*
X214451316Y-97717777D01*
X214498935Y-97670158D01*
X214594173Y-97622538D01*
X214832268Y-97622538D01*
X214975125Y-97670158D01*
X215308459Y-97622538D02*
X215546554Y-98622538D01*
X215737030Y-97908253D01*
X215927506Y-98622538D01*
X216165601Y-97622538D01*
X216498935Y-97717777D02*
X216546554Y-97670158D01*
X216641792Y-97622538D01*
X216879887Y-97622538D01*
X216975125Y-97670158D01*
X217022744Y-97717777D01*
X217070363Y-97813015D01*
X217070363Y-97908253D01*
X217022744Y-98051110D01*
X216451316Y-98622538D01*
X217070363Y-98622538D01*
X217451316Y-97717777D02*
X217498935Y-97670158D01*
X217594173Y-97622538D01*
X217832268Y-97622538D01*
X217927506Y-97670158D01*
X217975125Y-97717777D01*
X218022744Y-97813015D01*
X218022744Y-97908253D01*
X217975125Y-98051110D01*
X217403697Y-98622538D01*
X218022744Y-98622538D01*
X126113060Y-132599504D02*
X126263086Y-132612458D01*
X126494603Y-132556876D01*
X126576093Y-132488339D01*
X126611280Y-132430920D01*
X126635350Y-132327196D01*
X126613117Y-132234590D01*
X126544581Y-132153100D01*
X126487161Y-132117913D01*
X126383438Y-132093842D01*
X126187109Y-132092005D01*
X126083386Y-132067934D01*
X126025966Y-132032747D01*
X125957430Y-131951257D01*
X125935197Y-131858650D01*
X125959267Y-131754927D01*
X125994454Y-131697508D01*
X126075944Y-131628971D01*
X126307461Y-131573389D01*
X126457487Y-131586343D01*
X126770494Y-131462225D02*
X127235456Y-132379012D01*
X127253923Y-131639997D01*
X127605883Y-132290081D01*
X127603954Y-131262129D01*
X127950310Y-131276920D02*
X127985497Y-131219500D01*
X128066987Y-131150964D01*
X128298504Y-131095382D01*
X128402227Y-131119452D01*
X128459647Y-131154639D01*
X128528183Y-131236130D01*
X128550416Y-131328736D01*
X128537462Y-131478763D01*
X128115219Y-132167800D01*
X128717163Y-132023286D01*
X128807841Y-130973101D02*
X129409784Y-130828587D01*
X129174592Y-131276829D01*
X129313502Y-131243480D01*
X129417225Y-131267550D01*
X129474645Y-131302737D01*
X129543181Y-131384227D01*
X129598763Y-131615744D01*
X129574693Y-131719467D01*
X129539506Y-131776887D01*
X129458016Y-131845423D01*
X129180196Y-131912122D01*
X129076473Y-131888051D01*
X129019053Y-131852864D01*
X214879887Y-116624919D02*
X215022744Y-116672538D01*
X215260840Y-116672538D01*
X215356078Y-116624919D01*
X215403697Y-116577300D01*
X215451316Y-116482062D01*
X215451316Y-116386824D01*
X215403697Y-116291586D01*
X215356078Y-116243967D01*
X215260840Y-116196348D01*
X215070363Y-116148729D01*
X214975125Y-116101110D01*
X214927506Y-116053491D01*
X214879887Y-115958253D01*
X214879887Y-115863015D01*
X214927506Y-115767777D01*
X214975125Y-115720158D01*
X215070363Y-115672538D01*
X215308459Y-115672538D01*
X215451316Y-115720158D01*
X215784649Y-115672538D02*
X216022744Y-116672538D01*
X216213221Y-115958253D01*
X216403697Y-116672538D01*
X216641792Y-115672538D01*
X217498935Y-115672538D02*
X217022744Y-115672538D01*
X216975125Y-116148729D01*
X217022744Y-116101110D01*
X217117982Y-116053491D01*
X217356078Y-116053491D01*
X217451316Y-116101110D01*
X217498935Y-116148729D01*
X217546554Y-116243967D01*
X217546554Y-116482062D01*
X217498935Y-116577300D01*
X217451316Y-116624919D01*
X217356078Y-116672538D01*
X217117982Y-116672538D01*
X217022744Y-116624919D01*
X216975125Y-116577300D01*
X90077669Y-107657001D02*
X90960617Y-107187530D01*
X90486430Y-107817182D01*
X91273598Y-107776161D01*
X90390650Y-108245633D01*
X90966568Y-109125914D02*
X90902167Y-109106225D01*
X90793054Y-109002445D01*
X90748343Y-108918355D01*
X90723320Y-108769864D01*
X90762699Y-108641062D01*
X90824434Y-108554305D01*
X90970258Y-108422837D01*
X91096394Y-108355770D01*
X91286930Y-108308392D01*
X91393376Y-108305725D01*
X91522178Y-108345104D01*
X91631290Y-108448883D01*
X91676002Y-108532974D01*
X91701024Y-108681465D01*
X91681335Y-108745866D01*
X91966627Y-109079560D02*
X91251860Y-109459609D01*
X91190125Y-109546365D01*
X91170436Y-109610766D01*
X91173103Y-109717212D01*
X91262526Y-109885393D01*
X91349282Y-109947127D01*
X91413683Y-109966817D01*
X91520129Y-109964150D01*
X92234897Y-109584102D01*
X91821420Y-110936521D02*
X91553151Y-110431979D01*
X91687286Y-110684250D02*
X92570233Y-110214779D01*
X92399386Y-110197756D01*
X92270585Y-110158377D01*
X92183828Y-110096643D01*
X192973387Y-131728294D02*
X192973387Y-132442580D01*
X192925768Y-132585437D01*
X192830530Y-132680675D01*
X192687673Y-132728294D01*
X192592435Y-132728294D01*
X193354340Y-131728294D02*
X193973387Y-131728294D01*
X193640054Y-132109247D01*
X193782911Y-132109247D01*
X193878149Y-132156866D01*
X193925768Y-132204485D01*
X193973387Y-132299723D01*
X193973387Y-132537818D01*
X193925768Y-132633056D01*
X193878149Y-132680675D01*
X193782911Y-132728294D01*
X193497197Y-132728294D01*
X193401959Y-132680675D01*
X193354340Y-132633056D01*
X200210840Y-143029459D02*
X200163221Y-143124697D01*
X200067982Y-143219935D01*
X199925125Y-143362792D01*
X199877506Y-143458030D01*
X199877506Y-143553268D01*
X200115601Y-143505649D02*
X200067982Y-143600887D01*
X199972744Y-143696125D01*
X199782268Y-143743744D01*
X199448935Y-143743744D01*
X199258459Y-143696125D01*
X199163221Y-143600887D01*
X199115601Y-143505649D01*
X199115601Y-143315173D01*
X199163221Y-143219935D01*
X199258459Y-143124697D01*
X199448935Y-143077078D01*
X199782268Y-143077078D01*
X199972744Y-143124697D01*
X200067982Y-143219935D01*
X200115601Y-143315173D01*
X200115601Y-143505649D01*
X200115601Y-142124697D02*
X200115601Y-142696125D01*
X200115601Y-142410411D02*
X199115601Y-142410411D01*
X199258459Y-142505649D01*
X199353697Y-142600887D01*
X199401316Y-142696125D01*
X60074457Y-127677656D02*
X59531309Y-128141547D01*
X59391754Y-128198116D01*
X59257482Y-128187548D01*
X59128494Y-128109845D01*
X59066642Y-128037425D01*
X59963499Y-129087510D02*
X59592386Y-128652992D01*
X59777942Y-128870251D02*
X60538348Y-128220803D01*
X60367866Y-128241162D01*
X60233595Y-128230594D01*
X60135533Y-128189101D01*
M02*
