G04 #@! TF.GenerationSoftware,KiCad,Pcbnew,(5.1.9)-1*
G04 #@! TF.CreationDate,2021-01-29T17:36:36+01:00*
G04 #@! TF.ProjectId,Mathias_ergo,4d617468-6961-4735-9f65-72676f2e6b69,1.0*
G04 #@! TF.SameCoordinates,Original*
G04 #@! TF.FileFunction,Soldermask,Top*
G04 #@! TF.FilePolarity,Negative*
%FSLAX46Y46*%
G04 Gerber Fmt 4.6, Leading zero omitted, Abs format (unit mm)*
G04 Created by KiCad (PCBNEW (5.1.9)-1) date 2021-01-29 17:36:36*
%MOMM*%
%LPD*%
G01*
G04 APERTURE LIST*
%ADD10C,4.400000*%
%ADD11C,0.900000*%
%ADD12C,0.100000*%
%ADD13C,4.000000*%
%ADD14C,2.000000*%
%ADD15C,3.200000*%
%ADD16C,1.800000*%
%ADD17O,1.700000X1.700000*%
%ADD18R,1.700000X1.700000*%
%ADD19R,0.800000X0.900000*%
G04 APERTURE END LIST*
D10*
X216213221Y-70934158D03*
X215369441Y-133352399D03*
X120963221Y-65934159D03*
X158063221Y-120534158D03*
X79476934Y-116165750D03*
X100195457Y-163246749D03*
D11*
X208758979Y-140493107D03*
X211407821Y-139084693D03*
X211407821Y-139084693D03*
X208758979Y-140493107D03*
D12*
G36*
X213505514Y-139515288D02*
G01*
X213129937Y-138808930D01*
X214012884Y-138339458D01*
X214388461Y-139045816D01*
X213505514Y-139515288D01*
G37*
G36*
X212599434Y-137811199D02*
G01*
X212223857Y-137104841D01*
X213106804Y-136635369D01*
X213482381Y-137341727D01*
X212599434Y-137811199D01*
G37*
G36*
X207059996Y-142942431D02*
G01*
X206684419Y-142236073D01*
X207567366Y-141766601D01*
X207942943Y-142472959D01*
X207059996Y-142942431D01*
G37*
G36*
X206153916Y-141238342D02*
G01*
X205778339Y-140531984D01*
X206661286Y-140062512D01*
X207036863Y-140768870D01*
X206153916Y-141238342D01*
G37*
G36*
X211291529Y-138013957D02*
G01*
X210587322Y-136689535D01*
X211205385Y-136360905D01*
X211909592Y-137685327D01*
X211291529Y-138013957D01*
G37*
G36*
X209967107Y-138718164D02*
G01*
X209262900Y-137393742D01*
X209880963Y-137065112D01*
X210585170Y-138389534D01*
X209967107Y-138718164D01*
G37*
G36*
X207318265Y-140126579D02*
G01*
X206614058Y-138802157D01*
X207232121Y-138473527D01*
X207936328Y-139797949D01*
X207318265Y-140126579D01*
G37*
G36*
G01*
X181330721Y-132534158D02*
X181330721Y-138034158D01*
G75*
G02*
X178580721Y-140784158I-2750000J0D01*
G01*
X173080721Y-140784158D01*
G75*
G02*
X170330721Y-138034158I0J2750000D01*
G01*
X170330721Y-132534158D01*
G75*
G02*
X173080721Y-129784158I2750000J0D01*
G01*
X178580721Y-129784158D01*
G75*
G02*
X181330721Y-132534158I0J-2750000D01*
G01*
G37*
D13*
X186384421Y-135284158D03*
X165277021Y-135284158D03*
X165277021Y-135284158D03*
X186384421Y-135284158D03*
D14*
X125963221Y-82984158D03*
X120963221Y-85084158D03*
X115963221Y-82984158D03*
D15*
X120963221Y-79184158D03*
D16*
X115463221Y-79184158D03*
X126463221Y-79184158D03*
D14*
X115741644Y-143921563D03*
X112239991Y-148062629D03*
X106831578Y-148461468D03*
D15*
X109561447Y-142805691D03*
D16*
X104660911Y-145302639D03*
X114461983Y-140308743D03*
D14*
X164063221Y-91034158D03*
X159063221Y-93134158D03*
X154063221Y-91034158D03*
D15*
X159063221Y-87234158D03*
D16*
X153563221Y-87234158D03*
X164563221Y-87234158D03*
D14*
X86474132Y-139311448D03*
X84035943Y-144155541D03*
X78870073Y-145805929D03*
D15*
X80204200Y-139669146D03*
D16*
X76021967Y-143241110D03*
X84386433Y-136097182D03*
D14*
X154013221Y-137134158D03*
X149013221Y-139234158D03*
X144013221Y-137134158D03*
D15*
X149013221Y-133334158D03*
D16*
X143513221Y-133334158D03*
X154513221Y-133334158D03*
D14*
X107093125Y-126947889D03*
X103591472Y-131088955D03*
X98183059Y-131487794D03*
D15*
X100912928Y-125832017D03*
D16*
X96012392Y-128328965D03*
X105813464Y-123335069D03*
D14*
X202163221Y-82984158D03*
X197163221Y-85084158D03*
X192163221Y-82984158D03*
D15*
X197163221Y-79184158D03*
D16*
X191663221Y-79184158D03*
X202663221Y-79184158D03*
D14*
X202163221Y-119084158D03*
X197163221Y-121184158D03*
X192163221Y-119084158D03*
D15*
X197163221Y-115284158D03*
D16*
X191663221Y-115284158D03*
X202663221Y-115284158D03*
D14*
X145013221Y-114084158D03*
X140013221Y-116184158D03*
X135013221Y-114084158D03*
D15*
X140013221Y-110284158D03*
D16*
X134513221Y-110284158D03*
X145513221Y-110284158D03*
D14*
X125963221Y-119084158D03*
X120963221Y-121184158D03*
X115963221Y-119084158D03*
D15*
X120963221Y-115284158D03*
D16*
X115463221Y-115284158D03*
X126463221Y-115284158D03*
D14*
X164063221Y-72984158D03*
X159063221Y-75084158D03*
X154063221Y-72984158D03*
D15*
X159063221Y-69184158D03*
D16*
X153563221Y-69184158D03*
X164563221Y-69184158D03*
D14*
X183113221Y-114084158D03*
X178113221Y-116184158D03*
X173113221Y-114084158D03*
D15*
X178113221Y-110284158D03*
D16*
X172613221Y-110284158D03*
X183613221Y-110284158D03*
D14*
X145013221Y-96034158D03*
X140013221Y-98134158D03*
X135013221Y-96034158D03*
D15*
X140013221Y-92234158D03*
D16*
X134513221Y-92234158D03*
X145513221Y-92234158D03*
D14*
X145013221Y-77984158D03*
X140013221Y-80084158D03*
X135013221Y-77984158D03*
D15*
X140013221Y-74184158D03*
D16*
X134513221Y-74184158D03*
X145513221Y-74184158D03*
D14*
X98846118Y-153797181D03*
X96407929Y-158641274D03*
X91242059Y-160291662D03*
D15*
X92576186Y-154154879D03*
D16*
X88393953Y-157726843D03*
X96758419Y-150582915D03*
D14*
X221213221Y-87984158D03*
X216213221Y-90084158D03*
X211213221Y-87984158D03*
D15*
X216213221Y-84184158D03*
D16*
X210713221Y-84184158D03*
X221713221Y-84184158D03*
D14*
X202163221Y-101034158D03*
X197163221Y-103134158D03*
X192163221Y-101034158D03*
D15*
X197163221Y-97234158D03*
D16*
X191663221Y-97234158D03*
X202663221Y-97234158D03*
D14*
X183113221Y-96034158D03*
X178113221Y-98134158D03*
X173113221Y-96034158D03*
D15*
X178113221Y-92234158D03*
D16*
X172613221Y-92234158D03*
X183613221Y-92234158D03*
D14*
X183113221Y-77984158D03*
X178113221Y-80084158D03*
X173113221Y-77984158D03*
D15*
X178113221Y-74184158D03*
D16*
X172613221Y-74184158D03*
X183613221Y-74184158D03*
D14*
X164063221Y-109084158D03*
X159063221Y-111184158D03*
X154063221Y-109084158D03*
D15*
X159063221Y-105284158D03*
D16*
X153563221Y-105284158D03*
X164563221Y-105284158D03*
D14*
X125963221Y-101034158D03*
X120963221Y-103134158D03*
X115963221Y-101034158D03*
D15*
X120963221Y-97234158D03*
D16*
X115463221Y-97234158D03*
X126463221Y-97234158D03*
D14*
X221213221Y-106034158D03*
X216213221Y-108134158D03*
X211213221Y-106034158D03*
D15*
X216213221Y-102234158D03*
D16*
X210713221Y-102234158D03*
X221713221Y-102234158D03*
D14*
X134475761Y-138262991D03*
X130104147Y-141472195D03*
X124752062Y-140597445D03*
D15*
X128726819Y-135735212D03*
D16*
X123378784Y-137019162D03*
X134074854Y-134451262D03*
D14*
X221213221Y-124084158D03*
X216213221Y-126184158D03*
X211213221Y-124084158D03*
D15*
X216213221Y-120284158D03*
D16*
X210713221Y-120284158D03*
X221713221Y-120284158D03*
G36*
G01*
X98845157Y-98507248D02*
X98845157Y-98507248D01*
G75*
G02*
X98700440Y-98980595I-309032J-164315D01*
G01*
X97958764Y-99374951D01*
G75*
G02*
X97485417Y-99230234I-164315J309032D01*
G01*
X97485417Y-99230234D01*
G75*
G02*
X97630134Y-98756887I309032J164315D01*
G01*
X98371810Y-98362531D01*
G75*
G02*
X98845157Y-98507248I164315J-309032D01*
G01*
G37*
G36*
G01*
X99361576Y-99478490D02*
X99361576Y-99478490D01*
G75*
G02*
X99216859Y-99951837I-309032J-164315D01*
G01*
X98475183Y-100346193D01*
G75*
G02*
X98001836Y-100201476I-164315J309032D01*
G01*
X98001836Y-100201476D01*
G75*
G02*
X98146553Y-99728129I309032J164315D01*
G01*
X98888229Y-99333773D01*
G75*
G02*
X99361576Y-99478490I164315J-309032D01*
G01*
G37*
G36*
G01*
X99877995Y-100449732D02*
X99877995Y-100449732D01*
G75*
G02*
X99733278Y-100923079I-309032J-164315D01*
G01*
X98991602Y-101317435D01*
G75*
G02*
X98518255Y-101172718I-164315J309032D01*
G01*
X98518255Y-101172718D01*
G75*
G02*
X98662972Y-100699371I309032J164315D01*
G01*
X99404648Y-100305015D01*
G75*
G02*
X99877995Y-100449732I164315J-309032D01*
G01*
G37*
G36*
G01*
X85308191Y-104934833D02*
X85308191Y-104934833D01*
G75*
G02*
X84834844Y-104790116I-164315J309032D01*
G01*
X84440488Y-104048440D01*
G75*
G02*
X84585205Y-103575093I309032J164315D01*
G01*
X84585205Y-103575093D01*
G75*
G02*
X85058552Y-103719810I164315J-309032D01*
G01*
X85452908Y-104461486D01*
G75*
G02*
X85308191Y-104934833I-309032J-164315D01*
G01*
G37*
G36*
G01*
X86279433Y-104418414D02*
X86279433Y-104418414D01*
G75*
G02*
X85806086Y-104273697I-164315J309032D01*
G01*
X85411730Y-103532021D01*
G75*
G02*
X85556447Y-103058674I309032J164315D01*
G01*
X85556447Y-103058674D01*
G75*
G02*
X86029794Y-103203391I164315J-309032D01*
G01*
X86424150Y-103945067D01*
G75*
G02*
X86279433Y-104418414I-309032J-164315D01*
G01*
G37*
G36*
G01*
X87250675Y-103901995D02*
X87250675Y-103901995D01*
G75*
G02*
X86777328Y-103757278I-164315J309032D01*
G01*
X86382972Y-103015602D01*
G75*
G02*
X86527689Y-102542255I309032J164315D01*
G01*
X86527689Y-102542255D01*
G75*
G02*
X87001036Y-102686972I164315J-309032D01*
G01*
X87395392Y-103428648D01*
G75*
G02*
X87250675Y-103901995I-309032J-164315D01*
G01*
G37*
G36*
G01*
X88221918Y-103385577D02*
X88221918Y-103385577D01*
G75*
G02*
X87748571Y-103240860I-164315J309032D01*
G01*
X87354215Y-102499184D01*
G75*
G02*
X87498932Y-102025837I309032J164315D01*
G01*
X87498932Y-102025837D01*
G75*
G02*
X87972279Y-102170554I164315J-309032D01*
G01*
X88366635Y-102912230D01*
G75*
G02*
X88221918Y-103385577I-309032J-164315D01*
G01*
G37*
G36*
G01*
X89193160Y-102869158D02*
X89193160Y-102869158D01*
G75*
G02*
X88719813Y-102724441I-164315J309032D01*
G01*
X88325457Y-101982765D01*
G75*
G02*
X88470174Y-101509418I309032J164315D01*
G01*
X88470174Y-101509418D01*
G75*
G02*
X88943521Y-101654135I164315J-309032D01*
G01*
X89337877Y-102395811D01*
G75*
G02*
X89193160Y-102869158I-309032J-164315D01*
G01*
G37*
G36*
G01*
X90164402Y-102352739D02*
X90164402Y-102352739D01*
G75*
G02*
X89691055Y-102208022I-164315J309032D01*
G01*
X89296699Y-101466346D01*
G75*
G02*
X89441416Y-100992999I309032J164315D01*
G01*
X89441416Y-100992999D01*
G75*
G02*
X89914763Y-101137716I164315J-309032D01*
G01*
X90309119Y-101879392D01*
G75*
G02*
X90164402Y-102352739I-309032J-164315D01*
G01*
G37*
G36*
G01*
X91135645Y-101836320D02*
X91135645Y-101836320D01*
G75*
G02*
X90662298Y-101691603I-164315J309032D01*
G01*
X90267942Y-100949927D01*
G75*
G02*
X90412659Y-100476580I309032J164315D01*
G01*
X90412659Y-100476580D01*
G75*
G02*
X90886006Y-100621297I164315J-309032D01*
G01*
X91280362Y-101362973D01*
G75*
G02*
X91135645Y-101836320I-309032J-164315D01*
G01*
G37*
G36*
G01*
X92106887Y-101319902D02*
X92106887Y-101319902D01*
G75*
G02*
X91633540Y-101175185I-164315J309032D01*
G01*
X91239184Y-100433509D01*
G75*
G02*
X91383901Y-99960162I309032J164315D01*
G01*
X91383901Y-99960162D01*
G75*
G02*
X91857248Y-100104879I164315J-309032D01*
G01*
X92251604Y-100846555D01*
G75*
G02*
X92106887Y-101319902I-309032J-164315D01*
G01*
G37*
G36*
G01*
X93078129Y-100803483D02*
X93078129Y-100803483D01*
G75*
G02*
X92604782Y-100658766I-164315J309032D01*
G01*
X92210426Y-99917090D01*
G75*
G02*
X92355143Y-99443743I309032J164315D01*
G01*
X92355143Y-99443743D01*
G75*
G02*
X92828490Y-99588460I164315J-309032D01*
G01*
X93222846Y-100330136D01*
G75*
G02*
X93078129Y-100803483I-309032J-164315D01*
G01*
G37*
G36*
G01*
X94049372Y-100287064D02*
X94049372Y-100287064D01*
G75*
G02*
X93576025Y-100142347I-164315J309032D01*
G01*
X93181669Y-99400671D01*
G75*
G02*
X93326386Y-98927324I309032J164315D01*
G01*
X93326386Y-98927324D01*
G75*
G02*
X93799733Y-99072041I164315J-309032D01*
G01*
X94194089Y-99813717D01*
G75*
G02*
X94049372Y-100287064I-309032J-164315D01*
G01*
G37*
G36*
G01*
X95020614Y-99770646D02*
X95020614Y-99770646D01*
G75*
G02*
X94547267Y-99625929I-164315J309032D01*
G01*
X94152911Y-98884253D01*
G75*
G02*
X94297628Y-98410906I309032J164315D01*
G01*
X94297628Y-98410906D01*
G75*
G02*
X94770975Y-98555623I164315J-309032D01*
G01*
X95165331Y-99297299D01*
G75*
G02*
X95020614Y-99770646I-309032J-164315D01*
G01*
G37*
G36*
G01*
X95991857Y-99254227D02*
X95991857Y-99254227D01*
G75*
G02*
X95518510Y-99109510I-164315J309032D01*
G01*
X95124154Y-98367834D01*
G75*
G02*
X95268871Y-97894487I309032J164315D01*
G01*
X95268871Y-97894487D01*
G75*
G02*
X95742218Y-98039204I164315J-309032D01*
G01*
X96136574Y-98780880D01*
G75*
G02*
X95991857Y-99254227I-309032J-164315D01*
G01*
G37*
G36*
G01*
X100394413Y-101420975D02*
X100394413Y-101420975D01*
G75*
G02*
X100249696Y-101894322I-309032J-164315D01*
G01*
X99508020Y-102288678D01*
G75*
G02*
X99034673Y-102143961I-164315J309032D01*
G01*
X99034673Y-102143961D01*
G75*
G02*
X99179390Y-101670614I309032J164315D01*
G01*
X99921066Y-101276258D01*
G75*
G02*
X100394413Y-101420975I164315J-309032D01*
G01*
G37*
G36*
G01*
X100910832Y-102392217D02*
X100910832Y-102392217D01*
G75*
G02*
X100766115Y-102865564I-309032J-164315D01*
G01*
X100024439Y-103259920D01*
G75*
G02*
X99551092Y-103115203I-164315J309032D01*
G01*
X99551092Y-103115203D01*
G75*
G02*
X99695809Y-102641856I309032J164315D01*
G01*
X100437485Y-102247500D01*
G75*
G02*
X100910832Y-102392217I164315J-309032D01*
G01*
G37*
G36*
G01*
X101427251Y-103363459D02*
X101427251Y-103363459D01*
G75*
G02*
X101282534Y-103836806I-309032J-164315D01*
G01*
X100540858Y-104231162D01*
G75*
G02*
X100067511Y-104086445I-164315J309032D01*
G01*
X100067511Y-104086445D01*
G75*
G02*
X100212228Y-103613098I309032J164315D01*
G01*
X100953904Y-103218742D01*
G75*
G02*
X101427251Y-103363459I164315J-309032D01*
G01*
G37*
G36*
G01*
X101943670Y-104334702D02*
X101943670Y-104334702D01*
G75*
G02*
X101798953Y-104808049I-309032J-164315D01*
G01*
X101057277Y-105202405D01*
G75*
G02*
X100583930Y-105057688I-164315J309032D01*
G01*
X100583930Y-105057688D01*
G75*
G02*
X100728647Y-104584341I309032J164315D01*
G01*
X101470323Y-104189985D01*
G75*
G02*
X101943670Y-104334702I164315J-309032D01*
G01*
G37*
G36*
G01*
X102460088Y-105305944D02*
X102460088Y-105305944D01*
G75*
G02*
X102315371Y-105779291I-309032J-164315D01*
G01*
X101573695Y-106173647D01*
G75*
G02*
X101100348Y-106028930I-164315J309032D01*
G01*
X101100348Y-106028930D01*
G75*
G02*
X101245065Y-105555583I309032J164315D01*
G01*
X101986741Y-105161227D01*
G75*
G02*
X102460088Y-105305944I164315J-309032D01*
G01*
G37*
G36*
G01*
X102976507Y-106277186D02*
X102976507Y-106277186D01*
G75*
G02*
X102831790Y-106750533I-309032J-164315D01*
G01*
X102090114Y-107144889D01*
G75*
G02*
X101616767Y-107000172I-164315J309032D01*
G01*
X101616767Y-107000172D01*
G75*
G02*
X101761484Y-106526825I309032J164315D01*
G01*
X102503160Y-106132469D01*
G75*
G02*
X102976507Y-106277186I164315J-309032D01*
G01*
G37*
G36*
G01*
X103492926Y-107248429D02*
X103492926Y-107248429D01*
G75*
G02*
X103348209Y-107721776I-309032J-164315D01*
G01*
X102606533Y-108116132D01*
G75*
G02*
X102133186Y-107971415I-164315J309032D01*
G01*
X102133186Y-107971415D01*
G75*
G02*
X102277903Y-107498068I309032J164315D01*
G01*
X103019579Y-107103712D01*
G75*
G02*
X103492926Y-107248429I164315J-309032D01*
G01*
G37*
G36*
G01*
X104009344Y-108219671D02*
X104009344Y-108219671D01*
G75*
G02*
X103864627Y-108693018I-309032J-164315D01*
G01*
X103122951Y-109087374D01*
G75*
G02*
X102649604Y-108942657I-164315J309032D01*
G01*
X102649604Y-108942657D01*
G75*
G02*
X102794321Y-108469310I309032J164315D01*
G01*
X103535997Y-108074954D01*
G75*
G02*
X104009344Y-108219671I164315J-309032D01*
G01*
G37*
G36*
G01*
X104525763Y-109190913D02*
X104525763Y-109190913D01*
G75*
G02*
X104381046Y-109664260I-309032J-164315D01*
G01*
X103639370Y-110058616D01*
G75*
G02*
X103166023Y-109913899I-164315J309032D01*
G01*
X103166023Y-109913899D01*
G75*
G02*
X103310740Y-109440552I309032J164315D01*
G01*
X104052416Y-109046196D01*
G75*
G02*
X104525763Y-109190913I164315J-309032D01*
G01*
G37*
G36*
G01*
X103033930Y-112498441D02*
X103033930Y-112498441D01*
G75*
G02*
X102560583Y-112353724I-164315J309032D01*
G01*
X102166227Y-111612048D01*
G75*
G02*
X102310944Y-111138701I309032J164315D01*
G01*
X102310944Y-111138701D01*
G75*
G02*
X102784291Y-111283418I164315J-309032D01*
G01*
X103178647Y-112025094D01*
G75*
G02*
X103033930Y-112498441I-309032J-164315D01*
G01*
G37*
G36*
G01*
X102062688Y-113014859D02*
X102062688Y-113014859D01*
G75*
G02*
X101589341Y-112870142I-164315J309032D01*
G01*
X101194985Y-112128466D01*
G75*
G02*
X101339702Y-111655119I309032J164315D01*
G01*
X101339702Y-111655119D01*
G75*
G02*
X101813049Y-111799836I164315J-309032D01*
G01*
X102207405Y-112541512D01*
G75*
G02*
X102062688Y-113014859I-309032J-164315D01*
G01*
G37*
G36*
G01*
X101091445Y-113531278D02*
X101091445Y-113531278D01*
G75*
G02*
X100618098Y-113386561I-164315J309032D01*
G01*
X100223742Y-112644885D01*
G75*
G02*
X100368459Y-112171538I309032J164315D01*
G01*
X100368459Y-112171538D01*
G75*
G02*
X100841806Y-112316255I164315J-309032D01*
G01*
X101236162Y-113057931D01*
G75*
G02*
X101091445Y-113531278I-309032J-164315D01*
G01*
G37*
G36*
G01*
X100120203Y-114047697D02*
X100120203Y-114047697D01*
G75*
G02*
X99646856Y-113902980I-164315J309032D01*
G01*
X99252500Y-113161304D01*
G75*
G02*
X99397217Y-112687957I309032J164315D01*
G01*
X99397217Y-112687957D01*
G75*
G02*
X99870564Y-112832674I164315J-309032D01*
G01*
X100264920Y-113574350D01*
G75*
G02*
X100120203Y-114047697I-309032J-164315D01*
G01*
G37*
G36*
G01*
X99148961Y-114564116D02*
X99148961Y-114564116D01*
G75*
G02*
X98675614Y-114419399I-164315J309032D01*
G01*
X98281258Y-113677723D01*
G75*
G02*
X98425975Y-113204376I309032J164315D01*
G01*
X98425975Y-113204376D01*
G75*
G02*
X98899322Y-113349093I164315J-309032D01*
G01*
X99293678Y-114090769D01*
G75*
G02*
X99148961Y-114564116I-309032J-164315D01*
G01*
G37*
G36*
G01*
X98177718Y-115080534D02*
X98177718Y-115080534D01*
G75*
G02*
X97704371Y-114935817I-164315J309032D01*
G01*
X97310015Y-114194141D01*
G75*
G02*
X97454732Y-113720794I309032J164315D01*
G01*
X97454732Y-113720794D01*
G75*
G02*
X97928079Y-113865511I164315J-309032D01*
G01*
X98322435Y-114607187D01*
G75*
G02*
X98177718Y-115080534I-309032J-164315D01*
G01*
G37*
G36*
G01*
X97206476Y-115596953D02*
X97206476Y-115596953D01*
G75*
G02*
X96733129Y-115452236I-164315J309032D01*
G01*
X96338773Y-114710560D01*
G75*
G02*
X96483490Y-114237213I309032J164315D01*
G01*
X96483490Y-114237213D01*
G75*
G02*
X96956837Y-114381930I164315J-309032D01*
G01*
X97351193Y-115123606D01*
G75*
G02*
X97206476Y-115596953I-309032J-164315D01*
G01*
G37*
G36*
G01*
X96235233Y-116113372D02*
X96235233Y-116113372D01*
G75*
G02*
X95761886Y-115968655I-164315J309032D01*
G01*
X95367530Y-115226979D01*
G75*
G02*
X95512247Y-114753632I309032J164315D01*
G01*
X95512247Y-114753632D01*
G75*
G02*
X95985594Y-114898349I164315J-309032D01*
G01*
X96379950Y-115640025D01*
G75*
G02*
X96235233Y-116113372I-309032J-164315D01*
G01*
G37*
G36*
G01*
X95263991Y-116629791D02*
X95263991Y-116629791D01*
G75*
G02*
X94790644Y-116485074I-164315J309032D01*
G01*
X94396288Y-115743398D01*
G75*
G02*
X94541005Y-115270051I309032J164315D01*
G01*
X94541005Y-115270051D01*
G75*
G02*
X95014352Y-115414768I164315J-309032D01*
G01*
X95408708Y-116156444D01*
G75*
G02*
X95263991Y-116629791I-309032J-164315D01*
G01*
G37*
G36*
G01*
X94292749Y-117146209D02*
X94292749Y-117146209D01*
G75*
G02*
X93819402Y-117001492I-164315J309032D01*
G01*
X93425046Y-116259816D01*
G75*
G02*
X93569763Y-115786469I309032J164315D01*
G01*
X93569763Y-115786469D01*
G75*
G02*
X94043110Y-115931186I164315J-309032D01*
G01*
X94437466Y-116672862D01*
G75*
G02*
X94292749Y-117146209I-309032J-164315D01*
G01*
G37*
G36*
G01*
X93321506Y-117662628D02*
X93321506Y-117662628D01*
G75*
G02*
X92848159Y-117517911I-164315J309032D01*
G01*
X92453803Y-116776235D01*
G75*
G02*
X92598520Y-116302888I309032J164315D01*
G01*
X92598520Y-116302888D01*
G75*
G02*
X93071867Y-116447605I164315J-309032D01*
G01*
X93466223Y-117189281D01*
G75*
G02*
X93321506Y-117662628I-309032J-164315D01*
G01*
G37*
G36*
G01*
X92350264Y-118179047D02*
X92350264Y-118179047D01*
G75*
G02*
X91876917Y-118034330I-164315J309032D01*
G01*
X91482561Y-117292654D01*
G75*
G02*
X91627278Y-116819307I309032J164315D01*
G01*
X91627278Y-116819307D01*
G75*
G02*
X92100625Y-116964024I164315J-309032D01*
G01*
X92494981Y-117705700D01*
G75*
G02*
X92350264Y-118179047I-309032J-164315D01*
G01*
G37*
D17*
X198428221Y-133272914D03*
X195888221Y-133272914D03*
X198428221Y-130732914D03*
D18*
X195888221Y-130732914D03*
G36*
G01*
X64202013Y-129401721D02*
X64202013Y-129401721D01*
G75*
G02*
X63003637Y-129307407I-552031J646345D01*
G01*
X63003637Y-129307407D01*
G75*
G02*
X63097951Y-128109031I646345J552031D01*
G01*
X63097951Y-128109031D01*
G75*
G02*
X64296327Y-128203345I552031J-646345D01*
G01*
X64296327Y-128203345D01*
G75*
G02*
X64202013Y-129401721I-646345J-552031D01*
G01*
G37*
G36*
G01*
X66133444Y-127752123D02*
X66133444Y-127752123D01*
G75*
G02*
X64935068Y-127657809I-552031J646345D01*
G01*
X64935068Y-127657809D01*
G75*
G02*
X65029382Y-126459433I646345J552031D01*
G01*
X65029382Y-126459433D01*
G75*
G02*
X66227758Y-126553747I552031J-646345D01*
G01*
X66227758Y-126553747D01*
G75*
G02*
X66133444Y-127752123I-646345J-552031D01*
G01*
G37*
G36*
G01*
X68064875Y-126102525D02*
X68064875Y-126102525D01*
G75*
G02*
X66866499Y-126008211I-552031J646345D01*
G01*
X66866499Y-126008211D01*
G75*
G02*
X66960813Y-124809835I646345J552031D01*
G01*
X66960813Y-124809835D01*
G75*
G02*
X68159189Y-124904149I552031J-646345D01*
G01*
X68159189Y-124904149D01*
G75*
G02*
X68064875Y-126102525I-646345J-552031D01*
G01*
G37*
D12*
G36*
X70642651Y-123900896D02*
G01*
X69349961Y-125004958D01*
X68245899Y-123712268D01*
X69538589Y-122608206D01*
X70642651Y-123900896D01*
G37*
D19*
X197163221Y-143934221D03*
X196213221Y-141934221D03*
X198113221Y-141934221D03*
G36*
G01*
X69996306Y-124452927D02*
X69996306Y-124452927D01*
G75*
G02*
X68797930Y-124358613I-552031J646345D01*
G01*
X68797930Y-124358613D01*
G75*
G02*
X68892244Y-123160237I646345J552031D01*
G01*
X68892244Y-123160237D01*
G75*
G02*
X70090620Y-123254551I552031J-646345D01*
G01*
X70090620Y-123254551D01*
G75*
G02*
X69996306Y-124452927I-646345J-552031D01*
G01*
G37*
G36*
G01*
X68064875Y-126102525D02*
X68064875Y-126102525D01*
G75*
G02*
X66866499Y-126008211I-552031J646345D01*
G01*
X66866499Y-126008211D01*
G75*
G02*
X66960813Y-124809835I646345J552031D01*
G01*
X66960813Y-124809835D01*
G75*
G02*
X68159189Y-124904149I552031J-646345D01*
G01*
X68159189Y-124904149D01*
G75*
G02*
X68064875Y-126102525I-646345J-552031D01*
G01*
G37*
G36*
G01*
X66133444Y-127752123D02*
X66133444Y-127752123D01*
G75*
G02*
X64935068Y-127657809I-552031J646345D01*
G01*
X64935068Y-127657809D01*
G75*
G02*
X65029382Y-126459433I646345J552031D01*
G01*
X65029382Y-126459433D01*
G75*
G02*
X66227758Y-126553747I552031J-646345D01*
G01*
X66227758Y-126553747D01*
G75*
G02*
X66133444Y-127752123I-646345J-552031D01*
G01*
G37*
D12*
G36*
X64848358Y-128849690D02*
G01*
X63555668Y-129953752D01*
X62451606Y-128661062D01*
X63744296Y-127557000D01*
X64848358Y-128849690D01*
G37*
G36*
X170332711Y-138033962D02*
G01*
X170385531Y-138570261D01*
X170541909Y-139085768D01*
X170795851Y-139560860D01*
X171137598Y-139977281D01*
X171554019Y-140319028D01*
X172029111Y-140572970D01*
X172544618Y-140729348D01*
X173080917Y-140782168D01*
X173082543Y-140783333D01*
X173082347Y-140785323D01*
X173080721Y-140786158D01*
X173053668Y-140786158D01*
X173053472Y-140786148D01*
X172519934Y-140733599D01*
X172519549Y-140733523D01*
X172009351Y-140578756D01*
X172008989Y-140578606D01*
X171538791Y-140327280D01*
X171538465Y-140327062D01*
X171126327Y-139988829D01*
X171126050Y-139988552D01*
X170787817Y-139576414D01*
X170787599Y-139576088D01*
X170536273Y-139105890D01*
X170536123Y-139105528D01*
X170381356Y-138595330D01*
X170381280Y-138594945D01*
X170328731Y-138061407D01*
X170328721Y-138061211D01*
X170328721Y-138034158D01*
X170329721Y-138032426D01*
X170331721Y-138032426D01*
X170332711Y-138033962D01*
G37*
G36*
X181331886Y-138032532D02*
G01*
X181332721Y-138034158D01*
X181332721Y-138061211D01*
X181332711Y-138061407D01*
X181280162Y-138594945D01*
X181280086Y-138595330D01*
X181125319Y-139105528D01*
X181125169Y-139105890D01*
X180873843Y-139576088D01*
X180873625Y-139576414D01*
X180535392Y-139988552D01*
X180535115Y-139988829D01*
X180122977Y-140327062D01*
X180122651Y-140327280D01*
X179652453Y-140578606D01*
X179652091Y-140578756D01*
X179141893Y-140733523D01*
X179141508Y-140733599D01*
X178607970Y-140786148D01*
X178607774Y-140786158D01*
X178580721Y-140786158D01*
X178578989Y-140785158D01*
X178578989Y-140783158D01*
X178580525Y-140782168D01*
X179116824Y-140729348D01*
X179632331Y-140572970D01*
X180107423Y-140319028D01*
X180523844Y-139977281D01*
X180865591Y-139560860D01*
X181119533Y-139085768D01*
X181275911Y-138570261D01*
X181328731Y-138033962D01*
X181329896Y-138032336D01*
X181331886Y-138032532D01*
G37*
G36*
X173082453Y-129783158D02*
G01*
X173082453Y-129785158D01*
X173080917Y-129786148D01*
X172544618Y-129838968D01*
X172029111Y-129995346D01*
X171554019Y-130249288D01*
X171137598Y-130591035D01*
X170795851Y-131007456D01*
X170541909Y-131482548D01*
X170385531Y-131998055D01*
X170332711Y-132534354D01*
X170331546Y-132535980D01*
X170329556Y-132535784D01*
X170328721Y-132534158D01*
X170328721Y-132507105D01*
X170328731Y-132506909D01*
X170381280Y-131973371D01*
X170381356Y-131972986D01*
X170536123Y-131462788D01*
X170536273Y-131462426D01*
X170787599Y-130992228D01*
X170787817Y-130991902D01*
X171126050Y-130579764D01*
X171126327Y-130579487D01*
X171538465Y-130241254D01*
X171538791Y-130241036D01*
X172008989Y-129989710D01*
X172009351Y-129989560D01*
X172519549Y-129834793D01*
X172519934Y-129834717D01*
X173053472Y-129782168D01*
X173053668Y-129782158D01*
X173080721Y-129782158D01*
X173082453Y-129783158D01*
G37*
G36*
X178607970Y-129782168D02*
G01*
X179141508Y-129834717D01*
X179141893Y-129834793D01*
X179652091Y-129989560D01*
X179652453Y-129989710D01*
X180122651Y-130241036D01*
X180122977Y-130241254D01*
X180535115Y-130579487D01*
X180535392Y-130579764D01*
X180873625Y-130991902D01*
X180873843Y-130992228D01*
X181125169Y-131462426D01*
X181125319Y-131462788D01*
X181280086Y-131972986D01*
X181280162Y-131973371D01*
X181332711Y-132506909D01*
X181332721Y-132507105D01*
X181332721Y-132534158D01*
X181331721Y-132535890D01*
X181329721Y-132535890D01*
X181328731Y-132534354D01*
X181275911Y-131998055D01*
X181119533Y-131482548D01*
X180865591Y-131007456D01*
X180523844Y-130591035D01*
X180107423Y-130249288D01*
X179632331Y-129995346D01*
X179116824Y-129838968D01*
X178580525Y-129786148D01*
X178578899Y-129784983D01*
X178579095Y-129782993D01*
X178580721Y-129782158D01*
X178607774Y-129782158D01*
X178607970Y-129782168D01*
G37*
M02*
