G04 #@! TF.GenerationSoftware,KiCad,Pcbnew,(5.1.6)-1*
G04 #@! TF.CreationDate,2020-10-07T13:29:02+02:00*
G04 #@! TF.ProjectId,Mathias_ergo,4d617468-6961-4735-9f65-72676f2e6b69,rev?*
G04 #@! TF.SameCoordinates,Original*
G04 #@! TF.FileFunction,Soldermask,Bot*
G04 #@! TF.FilePolarity,Negative*
%FSLAX46Y46*%
G04 Gerber Fmt 4.6, Leading zero omitted, Abs format (unit mm)*
G04 Created by KiCad (PCBNEW (5.1.6)-1) date 2020-10-07 13:29:02*
%MOMM*%
%LPD*%
G01*
G04 APERTURE LIST*
%ADD10C,0.100000*%
G04 APERTURE END LIST*
D10*
G36*
X90791314Y-169799524D02*
G01*
X90791316Y-169799525D01*
X90791317Y-169799525D01*
X91309983Y-170014364D01*
X91776768Y-170326259D01*
X92173740Y-170723231D01*
X92485637Y-171190019D01*
X92700476Y-171708686D01*
X92810000Y-172259299D01*
X92810000Y-172820701D01*
X92700476Y-173371314D01*
X92700475Y-173371317D01*
X92485636Y-173889983D01*
X92173741Y-174356768D01*
X91776768Y-174753741D01*
X91309983Y-175065636D01*
X90791317Y-175280475D01*
X90791316Y-175280475D01*
X90791314Y-175280476D01*
X90240701Y-175390000D01*
X89679299Y-175390000D01*
X89128686Y-175280476D01*
X89128684Y-175280475D01*
X89128683Y-175280475D01*
X88610017Y-175065636D01*
X88143232Y-174753741D01*
X87746259Y-174356768D01*
X87434364Y-173889983D01*
X87219525Y-173371317D01*
X87219524Y-173371314D01*
X87110000Y-172820701D01*
X87110000Y-172259299D01*
X87219524Y-171708686D01*
X87434363Y-171190019D01*
X87746260Y-170723231D01*
X88143232Y-170326259D01*
X88610017Y-170014364D01*
X89128683Y-169799525D01*
X89128684Y-169799525D01*
X89128686Y-169799524D01*
X89679299Y-169690000D01*
X90240701Y-169690000D01*
X90791314Y-169799524D01*
G37*
G36*
X89999017Y-161814825D02*
G01*
X90190105Y-161893977D01*
X90362079Y-162008886D01*
X90508332Y-162155139D01*
X90623241Y-162327113D01*
X90702393Y-162518201D01*
X90742743Y-162721059D01*
X90742743Y-162927891D01*
X90702393Y-163130749D01*
X90623241Y-163321837D01*
X90508332Y-163493811D01*
X90362079Y-163640064D01*
X90190105Y-163754973D01*
X89999017Y-163834125D01*
X89796159Y-163874475D01*
X89589327Y-163874475D01*
X89386469Y-163834125D01*
X89195381Y-163754973D01*
X89023407Y-163640064D01*
X88877154Y-163493811D01*
X88762245Y-163321837D01*
X88683093Y-163130749D01*
X88642743Y-162927891D01*
X88642743Y-162721059D01*
X88683093Y-162518201D01*
X88762245Y-162327113D01*
X88877154Y-162155139D01*
X89023407Y-162008886D01*
X89195381Y-161893977D01*
X89386469Y-161814825D01*
X89589327Y-161774475D01*
X89796159Y-161774475D01*
X89999017Y-161814825D01*
G37*
G36*
X95119916Y-160029776D02*
G01*
X95311004Y-160108928D01*
X95482978Y-160223837D01*
X95629231Y-160370090D01*
X95744140Y-160542064D01*
X95823292Y-160733152D01*
X95863642Y-160936010D01*
X95863642Y-161142842D01*
X95823292Y-161345700D01*
X95744140Y-161536788D01*
X95629231Y-161708762D01*
X95482978Y-161855015D01*
X95311004Y-161969924D01*
X95119916Y-162049076D01*
X94917058Y-162089426D01*
X94710226Y-162089426D01*
X94507368Y-162049076D01*
X94316280Y-161969924D01*
X94144306Y-161855015D01*
X93998053Y-161708762D01*
X93883144Y-161536788D01*
X93803992Y-161345700D01*
X93763642Y-161142842D01*
X93763642Y-160936010D01*
X93803992Y-160733152D01*
X93883144Y-160542064D01*
X93998053Y-160370090D01*
X94144306Y-160223837D01*
X94316280Y-160108928D01*
X94507368Y-160029776D01*
X94710226Y-159989426D01*
X94917058Y-159989426D01*
X95119916Y-160029776D01*
G37*
G36*
X87055579Y-159421598D02*
G01*
X87228468Y-159493211D01*
X87384064Y-159597177D01*
X87516387Y-159729500D01*
X87620353Y-159885096D01*
X87691966Y-160057985D01*
X87728474Y-160241523D01*
X87728474Y-160428657D01*
X87691966Y-160612195D01*
X87620353Y-160785084D01*
X87516387Y-160940680D01*
X87384064Y-161073003D01*
X87228468Y-161176969D01*
X87055579Y-161248582D01*
X86872041Y-161285090D01*
X86684907Y-161285090D01*
X86501369Y-161248582D01*
X86328480Y-161176969D01*
X86172884Y-161073003D01*
X86040561Y-160940680D01*
X85936595Y-160785084D01*
X85864982Y-160612195D01*
X85828474Y-160428657D01*
X85828474Y-160241523D01*
X85864982Y-160057985D01*
X85936595Y-159885096D01*
X86040561Y-159729500D01*
X86172884Y-159597177D01*
X86328480Y-159493211D01*
X86501369Y-159421598D01*
X86684907Y-159385090D01*
X86872041Y-159385090D01*
X87055579Y-159421598D01*
G37*
G36*
X91347058Y-155068280D02*
G01*
X91647339Y-155192661D01*
X91917585Y-155373233D01*
X92147410Y-155603058D01*
X92327982Y-155873304D01*
X92452363Y-156173585D01*
X92515771Y-156492361D01*
X92515771Y-156817383D01*
X92452363Y-157136159D01*
X92327982Y-157436440D01*
X92147410Y-157706686D01*
X91917585Y-157936511D01*
X91647339Y-158117083D01*
X91347058Y-158241464D01*
X91028282Y-158304872D01*
X90703260Y-158304872D01*
X90384484Y-158241464D01*
X90084203Y-158117083D01*
X89813957Y-157936511D01*
X89584132Y-157706686D01*
X89403560Y-157436440D01*
X89279179Y-157136159D01*
X89215771Y-156817383D01*
X89215771Y-156492361D01*
X89279179Y-156173585D01*
X89403560Y-155873304D01*
X89584132Y-155603058D01*
X89813957Y-155373233D01*
X90084203Y-155192661D01*
X90384484Y-155068280D01*
X90703260Y-155004872D01*
X91028282Y-155004872D01*
X91347058Y-155068280D01*
G37*
G36*
X97430465Y-155123519D02*
G01*
X97621553Y-155202671D01*
X97793527Y-155317580D01*
X97939780Y-155463833D01*
X98054689Y-155635807D01*
X98133841Y-155826895D01*
X98174191Y-156029753D01*
X98174191Y-156236585D01*
X98133841Y-156439443D01*
X98054689Y-156630531D01*
X97939780Y-156802505D01*
X97793527Y-156948758D01*
X97621553Y-157063667D01*
X97430465Y-157142819D01*
X97227607Y-157183169D01*
X97020775Y-157183169D01*
X96817917Y-157142819D01*
X96626829Y-157063667D01*
X96454855Y-156948758D01*
X96308602Y-156802505D01*
X96193693Y-156630531D01*
X96114541Y-156439443D01*
X96074191Y-156236585D01*
X96074191Y-156029753D01*
X96114541Y-155826895D01*
X96193693Y-155635807D01*
X96308602Y-155463833D01*
X96454855Y-155317580D01*
X96626829Y-155202671D01*
X96817917Y-155123519D01*
X97020775Y-155083169D01*
X97227607Y-155083169D01*
X97430465Y-155123519D01*
G37*
G36*
X95230173Y-152061162D02*
G01*
X95403062Y-152132775D01*
X95558658Y-152236741D01*
X95690981Y-152369064D01*
X95794947Y-152524660D01*
X95866560Y-152697549D01*
X95903068Y-152881087D01*
X95903068Y-153068221D01*
X95866560Y-153251759D01*
X95794947Y-153424648D01*
X95690981Y-153580244D01*
X95558658Y-153712567D01*
X95403062Y-153816533D01*
X95230173Y-153888146D01*
X95046635Y-153924654D01*
X94859501Y-153924654D01*
X94675963Y-153888146D01*
X94503074Y-153816533D01*
X94347478Y-153712567D01*
X94215155Y-153580244D01*
X94111189Y-153424648D01*
X94039576Y-153251759D01*
X94003068Y-153068221D01*
X94003068Y-152881087D01*
X94039576Y-152697549D01*
X94111189Y-152524660D01*
X94215155Y-152369064D01*
X94347478Y-152236741D01*
X94503074Y-152132775D01*
X94675963Y-152061162D01*
X94859501Y-152024654D01*
X95046635Y-152024654D01*
X95230173Y-152061162D01*
G37*
G36*
X105891670Y-149198921D02*
G01*
X106082758Y-149278073D01*
X106254732Y-149392982D01*
X106400985Y-149539235D01*
X106515894Y-149711209D01*
X106595046Y-149902297D01*
X106635396Y-150105155D01*
X106635396Y-150311987D01*
X106595046Y-150514845D01*
X106515894Y-150705933D01*
X106400985Y-150877907D01*
X106254732Y-151024160D01*
X106082758Y-151139069D01*
X105891670Y-151218221D01*
X105688812Y-151258571D01*
X105481980Y-151258571D01*
X105279122Y-151218221D01*
X105088034Y-151139069D01*
X104916060Y-151024160D01*
X104769807Y-150877907D01*
X104654898Y-150705933D01*
X104575746Y-150514845D01*
X104535396Y-150311987D01*
X104535396Y-150105155D01*
X104575746Y-149902297D01*
X104654898Y-149711209D01*
X104769807Y-149539235D01*
X104916060Y-149392982D01*
X105088034Y-149278073D01*
X105279122Y-149198921D01*
X105481980Y-149158571D01*
X105688812Y-149158571D01*
X105891670Y-149198921D01*
G37*
G36*
X111292298Y-148705753D02*
G01*
X111483386Y-148784905D01*
X111655360Y-148899814D01*
X111801613Y-149046067D01*
X111916522Y-149218041D01*
X111995674Y-149409129D01*
X112036024Y-149611987D01*
X112036024Y-149818819D01*
X111995674Y-150021677D01*
X111916522Y-150212765D01*
X111801613Y-150384739D01*
X111655360Y-150530992D01*
X111483386Y-150645901D01*
X111292298Y-150725053D01*
X111089440Y-150765403D01*
X110882608Y-150765403D01*
X110679750Y-150725053D01*
X110488662Y-150645901D01*
X110316688Y-150530992D01*
X110170435Y-150384739D01*
X110055526Y-150212765D01*
X109976374Y-150021677D01*
X109936024Y-149818819D01*
X109936024Y-149611987D01*
X109976374Y-149409129D01*
X110055526Y-149218041D01*
X110170435Y-149046067D01*
X110316688Y-148899814D01*
X110488662Y-148784905D01*
X110679750Y-148705753D01*
X110882608Y-148665403D01*
X111089440Y-148665403D01*
X111292298Y-148705753D01*
G37*
G36*
X77252079Y-147657916D02*
G01*
X77443167Y-147737068D01*
X77615141Y-147851977D01*
X77761394Y-147998230D01*
X77876303Y-148170204D01*
X77955455Y-148361292D01*
X77995805Y-148564150D01*
X77995805Y-148770982D01*
X77955455Y-148973840D01*
X77876303Y-149164928D01*
X77761394Y-149336902D01*
X77615141Y-149483155D01*
X77443167Y-149598064D01*
X77252079Y-149677216D01*
X77049221Y-149717566D01*
X76842389Y-149717566D01*
X76639531Y-149677216D01*
X76448443Y-149598064D01*
X76276469Y-149483155D01*
X76130216Y-149336902D01*
X76015307Y-149164928D01*
X75936155Y-148973840D01*
X75895805Y-148770982D01*
X75895805Y-148564150D01*
X75936155Y-148361292D01*
X76015307Y-148170204D01*
X76130216Y-147998230D01*
X76276469Y-147851977D01*
X76448443Y-147737068D01*
X76639531Y-147657916D01*
X76842389Y-147617566D01*
X77049221Y-147617566D01*
X77252079Y-147657916D01*
G37*
G36*
X103637035Y-146174614D02*
G01*
X103809924Y-146246227D01*
X103965520Y-146350193D01*
X104097843Y-146482516D01*
X104201809Y-146638112D01*
X104273422Y-146811001D01*
X104309930Y-146994539D01*
X104309930Y-147181673D01*
X104273422Y-147365211D01*
X104201809Y-147538100D01*
X104097843Y-147693696D01*
X103965520Y-147826019D01*
X103809924Y-147929985D01*
X103637035Y-148001598D01*
X103453497Y-148038106D01*
X103266363Y-148038106D01*
X103082825Y-148001598D01*
X102909936Y-147929985D01*
X102754340Y-147826019D01*
X102622017Y-147693696D01*
X102518051Y-147538100D01*
X102446438Y-147365211D01*
X102409930Y-147181673D01*
X102409930Y-146994539D01*
X102446438Y-146811001D01*
X102518051Y-146638112D01*
X102622017Y-146482516D01*
X102754340Y-146350193D01*
X102909936Y-146246227D01*
X103082825Y-146174614D01*
X103266363Y-146138106D01*
X103453497Y-146138106D01*
X103637035Y-146174614D01*
G37*
G36*
X82372978Y-145872867D02*
G01*
X82564066Y-145952019D01*
X82736040Y-146066928D01*
X82882293Y-146213181D01*
X82997202Y-146385155D01*
X83076354Y-146576243D01*
X83116704Y-146779101D01*
X83116704Y-146985933D01*
X83076354Y-147188791D01*
X82997202Y-147379879D01*
X82882293Y-147551853D01*
X82736040Y-147698106D01*
X82564066Y-147813015D01*
X82372978Y-147892167D01*
X82170120Y-147932517D01*
X81963288Y-147932517D01*
X81760430Y-147892167D01*
X81569342Y-147813015D01*
X81397368Y-147698106D01*
X81251115Y-147551853D01*
X81136206Y-147379879D01*
X81057054Y-147188791D01*
X81016704Y-146985933D01*
X81016704Y-146779101D01*
X81057054Y-146576243D01*
X81136206Y-146385155D01*
X81251115Y-146213181D01*
X81397368Y-146066928D01*
X81569342Y-145952019D01*
X81760430Y-145872867D01*
X81963288Y-145832517D01*
X82170120Y-145832517D01*
X82372978Y-145872867D01*
G37*
G36*
X158952000Y-147147500D02*
G01*
X157852000Y-147147500D01*
X157852000Y-146247500D01*
X158952000Y-146247500D01*
X158952000Y-147147500D01*
G37*
G36*
X166252000Y-147147500D02*
G01*
X165152000Y-147147500D01*
X165152000Y-146247500D01*
X166252000Y-146247500D01*
X166252000Y-147147500D01*
G37*
G36*
X74308641Y-145264689D02*
G01*
X74481530Y-145336302D01*
X74637126Y-145440268D01*
X74769449Y-145572591D01*
X74873415Y-145728187D01*
X74945028Y-145901076D01*
X74981536Y-146084614D01*
X74981536Y-146271748D01*
X74945028Y-146455286D01*
X74873415Y-146628175D01*
X74769449Y-146783771D01*
X74637126Y-146916094D01*
X74481530Y-147020060D01*
X74308641Y-147091673D01*
X74125103Y-147128181D01*
X73937969Y-147128181D01*
X73754431Y-147091673D01*
X73581542Y-147020060D01*
X73425946Y-146916094D01*
X73293623Y-146783771D01*
X73189657Y-146628175D01*
X73118044Y-146455286D01*
X73081536Y-146271748D01*
X73081536Y-146084614D01*
X73118044Y-145901076D01*
X73189657Y-145728187D01*
X73293623Y-145572591D01*
X73425946Y-145440268D01*
X73581542Y-145336302D01*
X73754431Y-145264689D01*
X73937969Y-145228181D01*
X74125103Y-145228181D01*
X74308641Y-145264689D01*
G37*
G36*
X114721146Y-144504205D02*
G01*
X114912234Y-144583357D01*
X115084208Y-144698266D01*
X115230461Y-144844519D01*
X115345370Y-145016493D01*
X115424522Y-145207581D01*
X115464872Y-145410439D01*
X115464872Y-145617271D01*
X115424522Y-145820129D01*
X115345370Y-146011217D01*
X115230461Y-146183191D01*
X115084208Y-146329444D01*
X114912234Y-146444353D01*
X114721146Y-146523505D01*
X114518288Y-146563855D01*
X114311456Y-146563855D01*
X114108598Y-146523505D01*
X113917510Y-146444353D01*
X113745536Y-146329444D01*
X113599283Y-146183191D01*
X113484374Y-146011217D01*
X113405222Y-145820129D01*
X113364872Y-145617271D01*
X113364872Y-145410439D01*
X113405222Y-145207581D01*
X113484374Y-145016493D01*
X113599283Y-144844519D01*
X113745536Y-144698266D01*
X113917510Y-144583357D01*
X114108598Y-144504205D01*
X114311456Y-144463855D01*
X114518288Y-144463855D01*
X114721146Y-144504205D01*
G37*
G36*
X160697842Y-145251714D02*
G01*
X160697844Y-145251715D01*
X160697845Y-145251715D01*
X160784433Y-145287581D01*
X160788841Y-145289407D01*
X160870730Y-145344123D01*
X160940377Y-145413770D01*
X160995093Y-145495659D01*
X160995094Y-145495661D01*
X161020844Y-145557826D01*
X161032786Y-145586658D01*
X161052000Y-145683252D01*
X161052000Y-145781748D01*
X161032786Y-145878342D01*
X160995093Y-145969341D01*
X160940377Y-146051230D01*
X160870730Y-146120877D01*
X160788841Y-146175593D01*
X160788840Y-146175594D01*
X160788839Y-146175594D01*
X160697845Y-146213285D01*
X160697844Y-146213285D01*
X160697842Y-146213286D01*
X160601248Y-146232500D01*
X160502752Y-146232500D01*
X160406158Y-146213286D01*
X160406156Y-146213285D01*
X160406155Y-146213285D01*
X160315161Y-146175594D01*
X160315160Y-146175594D01*
X160315159Y-146175593D01*
X160233270Y-146120877D01*
X160163623Y-146051230D01*
X160108907Y-145969341D01*
X160071214Y-145878342D01*
X160052000Y-145781748D01*
X160052000Y-145683252D01*
X160071214Y-145586658D01*
X160083157Y-145557826D01*
X160108906Y-145495661D01*
X160108907Y-145495659D01*
X160163623Y-145413770D01*
X160233270Y-145344123D01*
X160315159Y-145289407D01*
X160319567Y-145287581D01*
X160406155Y-145251715D01*
X160406156Y-145251715D01*
X160406158Y-145251714D01*
X160502752Y-145232500D01*
X160601248Y-145232500D01*
X160697842Y-145251714D01*
G37*
G36*
X163697842Y-145251714D02*
G01*
X163697844Y-145251715D01*
X163697845Y-145251715D01*
X163784433Y-145287581D01*
X163788841Y-145289407D01*
X163870730Y-145344123D01*
X163940377Y-145413770D01*
X163995093Y-145495659D01*
X163995094Y-145495661D01*
X164020844Y-145557826D01*
X164032786Y-145586658D01*
X164052000Y-145683252D01*
X164052000Y-145781748D01*
X164032786Y-145878342D01*
X163995093Y-145969341D01*
X163940377Y-146051230D01*
X163870730Y-146120877D01*
X163788841Y-146175593D01*
X163788840Y-146175594D01*
X163788839Y-146175594D01*
X163697845Y-146213285D01*
X163697844Y-146213285D01*
X163697842Y-146213286D01*
X163601248Y-146232500D01*
X163502752Y-146232500D01*
X163406158Y-146213286D01*
X163406156Y-146213285D01*
X163406155Y-146213285D01*
X163315161Y-146175594D01*
X163315160Y-146175594D01*
X163315159Y-146175593D01*
X163233270Y-146120877D01*
X163163623Y-146051230D01*
X163108907Y-145969341D01*
X163071214Y-145878342D01*
X163052000Y-145781748D01*
X163052000Y-145683252D01*
X163071214Y-145586658D01*
X163083157Y-145557826D01*
X163108906Y-145495661D01*
X163108907Y-145495659D01*
X163163623Y-145413770D01*
X163233270Y-145344123D01*
X163315159Y-145289407D01*
X163319567Y-145287581D01*
X163406155Y-145251715D01*
X163406156Y-145251715D01*
X163406158Y-145251714D01*
X163502752Y-145232500D01*
X163601248Y-145232500D01*
X163697842Y-145251714D01*
G37*
G36*
X108697429Y-142919420D02*
G01*
X108997710Y-143043801D01*
X109267956Y-143224373D01*
X109497781Y-143454198D01*
X109678353Y-143724444D01*
X109802734Y-144024725D01*
X109866142Y-144343501D01*
X109866142Y-144668523D01*
X109802734Y-144987299D01*
X109678353Y-145287580D01*
X109497781Y-145557826D01*
X109267956Y-145787651D01*
X108997710Y-145968223D01*
X108697429Y-146092604D01*
X108378653Y-146156012D01*
X108053631Y-146156012D01*
X107734855Y-146092604D01*
X107434574Y-145968223D01*
X107164328Y-145787651D01*
X106934503Y-145557826D01*
X106753931Y-145287580D01*
X106629550Y-144987299D01*
X106566142Y-144668523D01*
X106566142Y-144343501D01*
X106629550Y-144024725D01*
X106753931Y-143724444D01*
X106934503Y-143454198D01*
X107164328Y-143224373D01*
X107434574Y-143043801D01*
X107734855Y-142919420D01*
X108053631Y-142856012D01*
X108378653Y-142856012D01*
X108697429Y-142919420D01*
G37*
G36*
X166252000Y-145217500D02*
G01*
X165152000Y-145217500D01*
X165152000Y-144317500D01*
X166252000Y-144317500D01*
X166252000Y-145217500D01*
G37*
G36*
X158952000Y-145217500D02*
G01*
X157852000Y-145217500D01*
X157852000Y-144317500D01*
X158952000Y-144317500D01*
X158952000Y-145217500D01*
G37*
G36*
X161702000Y-144782500D02*
G01*
X160902000Y-144782500D01*
X160902000Y-143182500D01*
X161702000Y-143182500D01*
X161702000Y-144782500D01*
G37*
G36*
X164702000Y-144782500D02*
G01*
X163902000Y-144782500D01*
X163902000Y-143182500D01*
X164702000Y-143182500D01*
X164702000Y-144782500D01*
G37*
G36*
X160202000Y-144782500D02*
G01*
X159402000Y-144782500D01*
X159402000Y-143182500D01*
X160202000Y-143182500D01*
X160202000Y-144782500D01*
G37*
G36*
X78600120Y-140911371D02*
G01*
X78900401Y-141035752D01*
X79170647Y-141216324D01*
X79400472Y-141446149D01*
X79581044Y-141716395D01*
X79705425Y-142016676D01*
X79768833Y-142335452D01*
X79768833Y-142660474D01*
X79705425Y-142979250D01*
X79581044Y-143279531D01*
X79400472Y-143549777D01*
X79170647Y-143779602D01*
X78900401Y-143960174D01*
X78600120Y-144084555D01*
X78281344Y-144147963D01*
X77956322Y-144147963D01*
X77637546Y-144084555D01*
X77337265Y-143960174D01*
X77067019Y-143779602D01*
X76837194Y-143549777D01*
X76656622Y-143279531D01*
X76532241Y-142979250D01*
X76468833Y-142660474D01*
X76468833Y-142335452D01*
X76532241Y-142016676D01*
X76656622Y-141716395D01*
X76837194Y-141446149D01*
X77067019Y-141216324D01*
X77337265Y-141035752D01*
X77637546Y-140911371D01*
X77956322Y-140847963D01*
X78281344Y-140847963D01*
X78600120Y-140911371D01*
G37*
G36*
X129723821Y-141630554D02*
G01*
X129914909Y-141709706D01*
X130086883Y-141824615D01*
X130233136Y-141970868D01*
X130348045Y-142142842D01*
X130427197Y-142333930D01*
X130467547Y-142536788D01*
X130467547Y-142743620D01*
X130427197Y-142946478D01*
X130348045Y-143137566D01*
X130233136Y-143309540D01*
X130086883Y-143455793D01*
X129914909Y-143570702D01*
X129723821Y-143649854D01*
X129520963Y-143690204D01*
X129314131Y-143690204D01*
X129111273Y-143649854D01*
X128920185Y-143570702D01*
X128748211Y-143455793D01*
X128601958Y-143309540D01*
X128487049Y-143137566D01*
X128407897Y-142946478D01*
X128367547Y-142743620D01*
X128367547Y-142536788D01*
X128407897Y-142333930D01*
X128487049Y-142142842D01*
X128601958Y-141970868D01*
X128748211Y-141824615D01*
X128920185Y-141709706D01*
X129111273Y-141630554D01*
X129314131Y-141590204D01*
X129520963Y-141590204D01*
X129723821Y-141630554D01*
G37*
G36*
X84683527Y-140966610D02*
G01*
X84874615Y-141045762D01*
X85046589Y-141160671D01*
X85192842Y-141306924D01*
X85307751Y-141478898D01*
X85386903Y-141669986D01*
X85427253Y-141872844D01*
X85427253Y-142079676D01*
X85386903Y-142282534D01*
X85307751Y-142473622D01*
X85192842Y-142645596D01*
X85046589Y-142791849D01*
X84874615Y-142906758D01*
X84683527Y-142985910D01*
X84480669Y-143026260D01*
X84273837Y-143026260D01*
X84070979Y-142985910D01*
X83879891Y-142906758D01*
X83707917Y-142791849D01*
X83561664Y-142645596D01*
X83446755Y-142473622D01*
X83367603Y-142282534D01*
X83327253Y-142079676D01*
X83327253Y-141872844D01*
X83367603Y-141669986D01*
X83446755Y-141478898D01*
X83561664Y-141306924D01*
X83707917Y-141160671D01*
X83879891Y-141045762D01*
X84070979Y-140966610D01*
X84273837Y-140926260D01*
X84480669Y-140926260D01*
X84683527Y-140966610D01*
G37*
G36*
X113349459Y-141010426D02*
G01*
X113522348Y-141082039D01*
X113677944Y-141186005D01*
X113810267Y-141318328D01*
X113914233Y-141473924D01*
X113985846Y-141646813D01*
X114022354Y-141830351D01*
X114022354Y-142017485D01*
X113985846Y-142201023D01*
X113914233Y-142373912D01*
X113810267Y-142529508D01*
X113677944Y-142661831D01*
X113522348Y-142765797D01*
X113349459Y-142837410D01*
X113165921Y-142873918D01*
X112978787Y-142873918D01*
X112795249Y-142837410D01*
X112622360Y-142765797D01*
X112466764Y-142661831D01*
X112334441Y-142529508D01*
X112230475Y-142373912D01*
X112158862Y-142201023D01*
X112122354Y-142017485D01*
X112122354Y-141830351D01*
X112158862Y-141646813D01*
X112230475Y-141473924D01*
X112334441Y-141318328D01*
X112466764Y-141186005D01*
X112622360Y-141082039D01*
X112795249Y-141010426D01*
X112978787Y-140973918D01*
X113165921Y-140973918D01*
X113349459Y-141010426D01*
G37*
G36*
X124364307Y-140802542D02*
G01*
X124555395Y-140881694D01*
X124727369Y-140996603D01*
X124873622Y-141142856D01*
X124988531Y-141314830D01*
X125067683Y-141505918D01*
X125108033Y-141708776D01*
X125108033Y-141915608D01*
X125067683Y-142118466D01*
X124988531Y-142309554D01*
X124873622Y-142481528D01*
X124727369Y-142627781D01*
X124555395Y-142742690D01*
X124364307Y-142821842D01*
X124161449Y-142862192D01*
X123954617Y-142862192D01*
X123751759Y-142821842D01*
X123560671Y-142742690D01*
X123388697Y-142627781D01*
X123242444Y-142481528D01*
X123127535Y-142309554D01*
X123048383Y-142118466D01*
X123008033Y-141915608D01*
X123008033Y-141708776D01*
X123048383Y-141505918D01*
X123127535Y-141314830D01*
X123242444Y-141142856D01*
X123388697Y-140996603D01*
X123560671Y-140881694D01*
X123751759Y-140802542D01*
X123954617Y-140762192D01*
X124161449Y-140762192D01*
X124364307Y-140802542D01*
G37*
G36*
X149319495Y-139224508D02*
G01*
X149510583Y-139303660D01*
X149682557Y-139418569D01*
X149828810Y-139564822D01*
X149943719Y-139736796D01*
X150022871Y-139927884D01*
X150063221Y-140130742D01*
X150063221Y-140337574D01*
X150022871Y-140540432D01*
X149943719Y-140731520D01*
X149828810Y-140903494D01*
X149682557Y-141049747D01*
X149510583Y-141164656D01*
X149319495Y-141243808D01*
X149116637Y-141284158D01*
X148909805Y-141284158D01*
X148706947Y-141243808D01*
X148515859Y-141164656D01*
X148343885Y-141049747D01*
X148197632Y-140903494D01*
X148082723Y-140731520D01*
X148003571Y-140540432D01*
X147963221Y-140337574D01*
X147963221Y-140130742D01*
X148003571Y-139927884D01*
X148082723Y-139736796D01*
X148197632Y-139564822D01*
X148343885Y-139418569D01*
X148515859Y-139303660D01*
X148706947Y-139224508D01*
X148909805Y-139184158D01*
X149116637Y-139184158D01*
X149319495Y-139224508D01*
G37*
G36*
X202764020Y-138961586D02*
G01*
X202764022Y-138961587D01*
X202764023Y-138961587D01*
X202817990Y-138983941D01*
X202927810Y-139029430D01*
X203075217Y-139127924D01*
X203200576Y-139253283D01*
X203299070Y-139400690D01*
X203308450Y-139423335D01*
X203363260Y-139555657D01*
X203366914Y-139564480D01*
X203401500Y-139738358D01*
X203401500Y-139915642D01*
X203366914Y-140089520D01*
X203299070Y-140253310D01*
X203200576Y-140400717D01*
X203075217Y-140526076D01*
X202927810Y-140624570D01*
X202824525Y-140667352D01*
X202764023Y-140692413D01*
X202764022Y-140692413D01*
X202764020Y-140692414D01*
X202590142Y-140727000D01*
X202412858Y-140727000D01*
X202238980Y-140692414D01*
X202238978Y-140692413D01*
X202238977Y-140692413D01*
X202178475Y-140667352D01*
X202075190Y-140624570D01*
X201927783Y-140526076D01*
X201802424Y-140400717D01*
X201703930Y-140253310D01*
X201636086Y-140089520D01*
X201601500Y-139915642D01*
X201601500Y-139738358D01*
X201636086Y-139564480D01*
X201639741Y-139555657D01*
X201694550Y-139423335D01*
X201703930Y-139400690D01*
X201802424Y-139253283D01*
X201927783Y-139127924D01*
X202075190Y-139029430D01*
X202185010Y-138983941D01*
X202238977Y-138961587D01*
X202238978Y-138961587D01*
X202238980Y-138961586D01*
X202412858Y-138927000D01*
X202590142Y-138927000D01*
X202764020Y-138961586D01*
G37*
G36*
X200224020Y-138961586D02*
G01*
X200224022Y-138961587D01*
X200224023Y-138961587D01*
X200277990Y-138983941D01*
X200387810Y-139029430D01*
X200535217Y-139127924D01*
X200660576Y-139253283D01*
X200759070Y-139400690D01*
X200768450Y-139423335D01*
X200823260Y-139555657D01*
X200826914Y-139564480D01*
X200861500Y-139738358D01*
X200861500Y-139915642D01*
X200826914Y-140089520D01*
X200759070Y-140253310D01*
X200660576Y-140400717D01*
X200535217Y-140526076D01*
X200387810Y-140624570D01*
X200284525Y-140667352D01*
X200224023Y-140692413D01*
X200224022Y-140692413D01*
X200224020Y-140692414D01*
X200050142Y-140727000D01*
X199872858Y-140727000D01*
X199698980Y-140692414D01*
X199698978Y-140692413D01*
X199698977Y-140692413D01*
X199638475Y-140667352D01*
X199535190Y-140624570D01*
X199387783Y-140526076D01*
X199262424Y-140400717D01*
X199163930Y-140253310D01*
X199096086Y-140089520D01*
X199061500Y-139915642D01*
X199061500Y-139738358D01*
X199096086Y-139564480D01*
X199099741Y-139555657D01*
X199154550Y-139423335D01*
X199163930Y-139400690D01*
X199262424Y-139253283D01*
X199387783Y-139127924D01*
X199535190Y-139029430D01*
X199645010Y-138983941D01*
X199698977Y-138961587D01*
X199698978Y-138961587D01*
X199698980Y-138961586D01*
X199872858Y-138927000D01*
X200050142Y-138927000D01*
X200224020Y-138961586D01*
G37*
G36*
X134067264Y-138383323D02*
G01*
X134258352Y-138462475D01*
X134430326Y-138577384D01*
X134576579Y-138723637D01*
X134691488Y-138895611D01*
X134770640Y-139086699D01*
X134810990Y-139289557D01*
X134810990Y-139496389D01*
X134770640Y-139699247D01*
X134691488Y-139890335D01*
X134576579Y-140062309D01*
X134430326Y-140208562D01*
X134258352Y-140323471D01*
X134067264Y-140402623D01*
X133864406Y-140442973D01*
X133657574Y-140442973D01*
X133454716Y-140402623D01*
X133263628Y-140323471D01*
X133091654Y-140208562D01*
X132945401Y-140062309D01*
X132830492Y-139890335D01*
X132751340Y-139699247D01*
X132710990Y-139496389D01*
X132710990Y-139289557D01*
X132751340Y-139086699D01*
X132830492Y-138895611D01*
X132945401Y-138723637D01*
X133091654Y-138577384D01*
X133263628Y-138462475D01*
X133454716Y-138383323D01*
X133657574Y-138342973D01*
X133864406Y-138342973D01*
X134067264Y-138383323D01*
G37*
G36*
X82483235Y-137904253D02*
G01*
X82656124Y-137975866D01*
X82811720Y-138079832D01*
X82944043Y-138212155D01*
X83048009Y-138367751D01*
X83119622Y-138540640D01*
X83156130Y-138724178D01*
X83156130Y-138911312D01*
X83119622Y-139094850D01*
X83048009Y-139267739D01*
X82944043Y-139423335D01*
X82811720Y-139555658D01*
X82656124Y-139659624D01*
X82483235Y-139731237D01*
X82299697Y-139767745D01*
X82112563Y-139767745D01*
X81929025Y-139731237D01*
X81756136Y-139659624D01*
X81600540Y-139555658D01*
X81468217Y-139423335D01*
X81364251Y-139267739D01*
X81292638Y-139094850D01*
X81256130Y-138911312D01*
X81256130Y-138724178D01*
X81292638Y-138540640D01*
X81364251Y-138367751D01*
X81468217Y-138212155D01*
X81600540Y-138079832D01*
X81756136Y-137975866D01*
X81929025Y-137904253D01*
X82112563Y-137867745D01*
X82299697Y-137867745D01*
X82483235Y-137904253D01*
G37*
G36*
X217951314Y-134149524D02*
G01*
X217951316Y-134149525D01*
X217951317Y-134149525D01*
X218004724Y-134171647D01*
X218360265Y-134318917D01*
X218469983Y-134364364D01*
X218936768Y-134676259D01*
X219333741Y-135073232D01*
X219587660Y-135453249D01*
X219645637Y-135540019D01*
X219734625Y-135754855D01*
X219850617Y-136034883D01*
X219860476Y-136058686D01*
X219970000Y-136609299D01*
X219970000Y-137170701D01*
X219862068Y-137713309D01*
X219860475Y-137721317D01*
X219802733Y-137860717D01*
X219681889Y-138152462D01*
X219645636Y-138239983D01*
X219333741Y-138706768D01*
X218936768Y-139103741D01*
X218469983Y-139415636D01*
X218469982Y-139415637D01*
X218469981Y-139415637D01*
X218255145Y-139504625D01*
X217951317Y-139630475D01*
X217951316Y-139630475D01*
X217951314Y-139630476D01*
X217400701Y-139740000D01*
X216839299Y-139740000D01*
X216288686Y-139630476D01*
X216288684Y-139630475D01*
X216288683Y-139630475D01*
X215984855Y-139504625D01*
X215770019Y-139415637D01*
X215770018Y-139415637D01*
X215770017Y-139415636D01*
X215303232Y-139103741D01*
X214906259Y-138706768D01*
X214594364Y-138239983D01*
X214558112Y-138152462D01*
X214437267Y-137860717D01*
X214379525Y-137721317D01*
X214377932Y-137713309D01*
X214270000Y-137170701D01*
X214270000Y-136609299D01*
X214379524Y-136058686D01*
X214389384Y-136034883D01*
X214505375Y-135754855D01*
X214594363Y-135540019D01*
X214652341Y-135453249D01*
X214906259Y-135073232D01*
X215303232Y-134676259D01*
X215770017Y-134364364D01*
X215879736Y-134318917D01*
X216235276Y-134171647D01*
X216288683Y-134149525D01*
X216288684Y-134149525D01*
X216288686Y-134149524D01*
X216839299Y-134040000D01*
X217400701Y-134040000D01*
X217951314Y-134149524D01*
G37*
G36*
X122930687Y-137332537D02*
G01*
X123103576Y-137404150D01*
X123259172Y-137508116D01*
X123391495Y-137640439D01*
X123495461Y-137796035D01*
X123567074Y-137968924D01*
X123603582Y-138152462D01*
X123603582Y-138339596D01*
X123567074Y-138523134D01*
X123495461Y-138696023D01*
X123391495Y-138851619D01*
X123259172Y-138983942D01*
X123103576Y-139087908D01*
X122930687Y-139159521D01*
X122747149Y-139196029D01*
X122560015Y-139196029D01*
X122376477Y-139159521D01*
X122203588Y-139087908D01*
X122047992Y-138983942D01*
X121915669Y-138851619D01*
X121811703Y-138696023D01*
X121740090Y-138523134D01*
X121703582Y-138339596D01*
X121703582Y-138152462D01*
X121740090Y-137968924D01*
X121811703Y-137796035D01*
X121915669Y-137640439D01*
X122047992Y-137508116D01*
X122203588Y-137404150D01*
X122376477Y-137332537D01*
X122560015Y-137296029D01*
X122747149Y-137296029D01*
X122930687Y-137332537D01*
G37*
G36*
X154319495Y-137124508D02*
G01*
X154510583Y-137203660D01*
X154682557Y-137318569D01*
X154828810Y-137464822D01*
X154943719Y-137636796D01*
X155022871Y-137827884D01*
X155063221Y-138030742D01*
X155063221Y-138237574D01*
X155022871Y-138440432D01*
X154943719Y-138631520D01*
X154828810Y-138803494D01*
X154682557Y-138949747D01*
X154510583Y-139064656D01*
X154319495Y-139143808D01*
X154116637Y-139184158D01*
X153909805Y-139184158D01*
X153706947Y-139143808D01*
X153515859Y-139064656D01*
X153343885Y-138949747D01*
X153197632Y-138803494D01*
X153082723Y-138631520D01*
X153003571Y-138440432D01*
X152963221Y-138237574D01*
X152963221Y-138030742D01*
X153003571Y-137827884D01*
X153082723Y-137636796D01*
X153197632Y-137464822D01*
X153343885Y-137318569D01*
X153515859Y-137203660D01*
X153706947Y-137124508D01*
X153909805Y-137084158D01*
X154116637Y-137084158D01*
X154319495Y-137124508D01*
G37*
G36*
X144319495Y-137124508D02*
G01*
X144510583Y-137203660D01*
X144682557Y-137318569D01*
X144828810Y-137464822D01*
X144943719Y-137636796D01*
X145022871Y-137827884D01*
X145063221Y-138030742D01*
X145063221Y-138237574D01*
X145022871Y-138440432D01*
X144943719Y-138631520D01*
X144828810Y-138803494D01*
X144682557Y-138949747D01*
X144510583Y-139064656D01*
X144319495Y-139143808D01*
X144116637Y-139184158D01*
X143909805Y-139184158D01*
X143706947Y-139143808D01*
X143515859Y-139064656D01*
X143343885Y-138949747D01*
X143197632Y-138803494D01*
X143082723Y-138631520D01*
X143003571Y-138440432D01*
X142963221Y-138237574D01*
X142963221Y-138030742D01*
X143003571Y-137827884D01*
X143082723Y-137636796D01*
X143197632Y-137464822D01*
X143343885Y-137318569D01*
X143515859Y-137203660D01*
X143706947Y-137124508D01*
X143909805Y-137084158D01*
X144116637Y-137084158D01*
X144319495Y-137124508D01*
G37*
G36*
X128471495Y-135328867D02*
G01*
X128771776Y-135453248D01*
X129042022Y-135633820D01*
X129271847Y-135863645D01*
X129452419Y-136133891D01*
X129576800Y-136434172D01*
X129640208Y-136752948D01*
X129640208Y-137077970D01*
X129576800Y-137396746D01*
X129452419Y-137697027D01*
X129271847Y-137967273D01*
X129042022Y-138197098D01*
X128771776Y-138377670D01*
X128471495Y-138502051D01*
X128152719Y-138565459D01*
X127827697Y-138565459D01*
X127508921Y-138502051D01*
X127208640Y-138377670D01*
X126938394Y-138197098D01*
X126708569Y-137967273D01*
X126527997Y-137697027D01*
X126403616Y-137396746D01*
X126340208Y-137077970D01*
X126340208Y-136752948D01*
X126403616Y-136434172D01*
X126527997Y-136133891D01*
X126708569Y-135863645D01*
X126938394Y-135633820D01*
X127208640Y-135453248D01*
X127508921Y-135328867D01*
X127827697Y-135265459D01*
X128152719Y-135265459D01*
X128471495Y-135328867D01*
G37*
G36*
X202764020Y-136421586D02*
G01*
X202764022Y-136421587D01*
X202764023Y-136421587D01*
X202824525Y-136446648D01*
X202927810Y-136489430D01*
X203075217Y-136587924D01*
X203200576Y-136713283D01*
X203299070Y-136860690D01*
X203366914Y-137024480D01*
X203401500Y-137198358D01*
X203401500Y-137375642D01*
X203366914Y-137549520D01*
X203299070Y-137713310D01*
X203200576Y-137860717D01*
X203075217Y-137986076D01*
X202927810Y-138084570D01*
X202824525Y-138127352D01*
X202764023Y-138152413D01*
X202764022Y-138152413D01*
X202764020Y-138152414D01*
X202590142Y-138187000D01*
X202412858Y-138187000D01*
X202238980Y-138152414D01*
X202238978Y-138152413D01*
X202238977Y-138152413D01*
X202178475Y-138127352D01*
X202075190Y-138084570D01*
X201927783Y-137986076D01*
X201802424Y-137860717D01*
X201703930Y-137713310D01*
X201636086Y-137549520D01*
X201601500Y-137375642D01*
X201601500Y-137198358D01*
X201636086Y-137024480D01*
X201703930Y-136860690D01*
X201802424Y-136713283D01*
X201927783Y-136587924D01*
X202075190Y-136489430D01*
X202178475Y-136446648D01*
X202238977Y-136421587D01*
X202238978Y-136421587D01*
X202238980Y-136421586D01*
X202412858Y-136387000D01*
X202590142Y-136387000D01*
X202764020Y-136421586D01*
G37*
G36*
X200861500Y-138187000D02*
G01*
X199061500Y-138187000D01*
X199061500Y-136387000D01*
X200861500Y-136387000D01*
X200861500Y-138187000D01*
G37*
G36*
X181469746Y-126786993D02*
G01*
X181980849Y-126942033D01*
X182451880Y-127193804D01*
X182864745Y-127532634D01*
X183203575Y-127945499D01*
X183455346Y-128416530D01*
X183610386Y-128927633D01*
X183663221Y-129464066D01*
X183663221Y-135104250D01*
X183610386Y-135640683D01*
X183455346Y-136151786D01*
X183203575Y-136622817D01*
X182864745Y-137035682D01*
X182451880Y-137374512D01*
X181980849Y-137626283D01*
X181469746Y-137781323D01*
X180933313Y-137834158D01*
X175293129Y-137834158D01*
X174756696Y-137781323D01*
X174245593Y-137626283D01*
X173774562Y-137374512D01*
X173361697Y-137035682D01*
X173022867Y-136622817D01*
X172771096Y-136151786D01*
X172616056Y-135640683D01*
X172563221Y-135104250D01*
X172563221Y-129464066D01*
X172616056Y-128927633D01*
X172771096Y-128416530D01*
X173022867Y-127945499D01*
X173361697Y-127532634D01*
X173774562Y-127193804D01*
X174245593Y-126942033D01*
X174756696Y-126786993D01*
X175293129Y-126734158D01*
X180933313Y-126734158D01*
X181469746Y-126786993D01*
G37*
G36*
X133603939Y-134671397D02*
G01*
X133776828Y-134743010D01*
X133932424Y-134846976D01*
X134064747Y-134979299D01*
X134168713Y-135134895D01*
X134240326Y-135307784D01*
X134276834Y-135491322D01*
X134276834Y-135678456D01*
X134240326Y-135861994D01*
X134168713Y-136034883D01*
X134064747Y-136190479D01*
X133932424Y-136322802D01*
X133776828Y-136426768D01*
X133603939Y-136498381D01*
X133420401Y-136534889D01*
X133233267Y-136534889D01*
X133049729Y-136498381D01*
X132876840Y-136426768D01*
X132721244Y-136322802D01*
X132588921Y-136190479D01*
X132484955Y-136034883D01*
X132413342Y-135861994D01*
X132376834Y-135678456D01*
X132376834Y-135491322D01*
X132413342Y-135307784D01*
X132484955Y-135134895D01*
X132588921Y-134979299D01*
X132721244Y-134846976D01*
X132876840Y-134743010D01*
X133049729Y-134671397D01*
X133233267Y-134634889D01*
X133420401Y-134634889D01*
X133603939Y-134671397D01*
G37*
G36*
X149494508Y-132747566D02*
G01*
X149794789Y-132871947D01*
X150065035Y-133052519D01*
X150294860Y-133282344D01*
X150475432Y-133552590D01*
X150599813Y-133852871D01*
X150663221Y-134171647D01*
X150663221Y-134496669D01*
X150599813Y-134815445D01*
X150475432Y-135115726D01*
X150294860Y-135385972D01*
X150065035Y-135615797D01*
X149794789Y-135796369D01*
X149494508Y-135920750D01*
X149175732Y-135984158D01*
X148850710Y-135984158D01*
X148531934Y-135920750D01*
X148231653Y-135796369D01*
X147961407Y-135615797D01*
X147731582Y-135385972D01*
X147551010Y-135115726D01*
X147426629Y-134815445D01*
X147363221Y-134496669D01*
X147363221Y-134171647D01*
X147426629Y-133852871D01*
X147551010Y-133552590D01*
X147731582Y-133282344D01*
X147961407Y-133052519D01*
X148231653Y-132871947D01*
X148531934Y-132747566D01*
X148850710Y-132684158D01*
X149175732Y-132684158D01*
X149494508Y-132747566D01*
G37*
G36*
X143790326Y-133420666D02*
G01*
X143963215Y-133492279D01*
X144118811Y-133596245D01*
X144251134Y-133728568D01*
X144355100Y-133884164D01*
X144426713Y-134057053D01*
X144463221Y-134240591D01*
X144463221Y-134427725D01*
X144426713Y-134611263D01*
X144355100Y-134784152D01*
X144251134Y-134939748D01*
X144118811Y-135072071D01*
X143963215Y-135176037D01*
X143790326Y-135247650D01*
X143606788Y-135284158D01*
X143419654Y-135284158D01*
X143236116Y-135247650D01*
X143063227Y-135176037D01*
X142907631Y-135072071D01*
X142775308Y-134939748D01*
X142671342Y-134784152D01*
X142599729Y-134611263D01*
X142563221Y-134427725D01*
X142563221Y-134240591D01*
X142599729Y-134057053D01*
X142671342Y-133884164D01*
X142775308Y-133728568D01*
X142907631Y-133596245D01*
X143063227Y-133492279D01*
X143236116Y-133420666D01*
X143419654Y-133384158D01*
X143606788Y-133384158D01*
X143790326Y-133420666D01*
G37*
G36*
X154790326Y-133420666D02*
G01*
X154963215Y-133492279D01*
X155118811Y-133596245D01*
X155251134Y-133728568D01*
X155355100Y-133884164D01*
X155426713Y-134057053D01*
X155463221Y-134240591D01*
X155463221Y-134427725D01*
X155426713Y-134611263D01*
X155355100Y-134784152D01*
X155251134Y-134939748D01*
X155118811Y-135072071D01*
X154963215Y-135176037D01*
X154790326Y-135247650D01*
X154606788Y-135284158D01*
X154419654Y-135284158D01*
X154236116Y-135247650D01*
X154063227Y-135176037D01*
X153907631Y-135072071D01*
X153775308Y-134939748D01*
X153671342Y-134784152D01*
X153599729Y-134611263D01*
X153563221Y-134427725D01*
X153563221Y-134240591D01*
X153599729Y-134057053D01*
X153671342Y-133884164D01*
X153775308Y-133728568D01*
X153907631Y-133596245D01*
X154063227Y-133492279D01*
X154236116Y-133420666D01*
X154419654Y-133384158D01*
X154606788Y-133384158D01*
X154790326Y-133420666D01*
G37*
G36*
X166071613Y-129784075D02*
G01*
X166071615Y-129784076D01*
X166071616Y-129784076D01*
X166153419Y-129817960D01*
X166544783Y-129980068D01*
X166970624Y-130264606D01*
X167332773Y-130626755D01*
X167617311Y-131052596D01*
X167813304Y-131525766D01*
X167913221Y-132028080D01*
X167913221Y-132540236D01*
X167813304Y-133042550D01*
X167617311Y-133515720D01*
X167617310Y-133515721D01*
X167332774Y-133941560D01*
X166970623Y-134303711D01*
X166879849Y-134364364D01*
X166544783Y-134588248D01*
X166210202Y-134726836D01*
X166071616Y-134784240D01*
X166071615Y-134784240D01*
X166071613Y-134784241D01*
X165569299Y-134884158D01*
X165057143Y-134884158D01*
X164554829Y-134784241D01*
X164554827Y-134784240D01*
X164554826Y-134784240D01*
X164416240Y-134726836D01*
X164081659Y-134588248D01*
X163746593Y-134364364D01*
X163655819Y-134303711D01*
X163293668Y-133941560D01*
X163009132Y-133515721D01*
X163009131Y-133515720D01*
X162813138Y-133042550D01*
X162713221Y-132540236D01*
X162713221Y-132028080D01*
X162813138Y-131525766D01*
X163009131Y-131052596D01*
X163293669Y-130626755D01*
X163655818Y-130264606D01*
X164081659Y-129980068D01*
X164473023Y-129817960D01*
X164554826Y-129784076D01*
X164554827Y-129784076D01*
X164554829Y-129784075D01*
X165057143Y-129684158D01*
X165569299Y-129684158D01*
X166071613Y-129784075D01*
G37*
G36*
X191671613Y-129784075D02*
G01*
X191671615Y-129784076D01*
X191671616Y-129784076D01*
X191753419Y-129817960D01*
X192144783Y-129980068D01*
X192570624Y-130264606D01*
X192932773Y-130626755D01*
X193217311Y-131052596D01*
X193413304Y-131525766D01*
X193513221Y-132028080D01*
X193513221Y-132540236D01*
X193413304Y-133042550D01*
X193217311Y-133515720D01*
X193217310Y-133515721D01*
X192932774Y-133941560D01*
X192570623Y-134303711D01*
X192479849Y-134364364D01*
X192144783Y-134588248D01*
X191810202Y-134726836D01*
X191671616Y-134784240D01*
X191671615Y-134784240D01*
X191671613Y-134784241D01*
X191169299Y-134884158D01*
X190657143Y-134884158D01*
X190154829Y-134784241D01*
X190154827Y-134784240D01*
X190154826Y-134784240D01*
X190016240Y-134726836D01*
X189681659Y-134588248D01*
X189346593Y-134364364D01*
X189255819Y-134303711D01*
X188893668Y-133941560D01*
X188609132Y-133515721D01*
X188609131Y-133515720D01*
X188413138Y-133042550D01*
X188313221Y-132540236D01*
X188313221Y-132028080D01*
X188413138Y-131525766D01*
X188609131Y-131052596D01*
X188893669Y-130626755D01*
X189255818Y-130264606D01*
X189681659Y-129980068D01*
X190073023Y-129817960D01*
X190154826Y-129784076D01*
X190154827Y-129784076D01*
X190154829Y-129784075D01*
X190657143Y-129684158D01*
X191169299Y-129684158D01*
X191671613Y-129784075D01*
G37*
G36*
X96948236Y-132378769D02*
G01*
X97139324Y-132457921D01*
X97311298Y-132572830D01*
X97457551Y-132719083D01*
X97572460Y-132891057D01*
X97651612Y-133082145D01*
X97691962Y-133285003D01*
X97691962Y-133491835D01*
X97651612Y-133694693D01*
X97572460Y-133885781D01*
X97457551Y-134057755D01*
X97311298Y-134204008D01*
X97139324Y-134318917D01*
X96948236Y-134398069D01*
X96745378Y-134438419D01*
X96538546Y-134438419D01*
X96335688Y-134398069D01*
X96144600Y-134318917D01*
X95972626Y-134204008D01*
X95826373Y-134057755D01*
X95711464Y-133885781D01*
X95632312Y-133694693D01*
X95591962Y-133491835D01*
X95591962Y-133285003D01*
X95632312Y-133082145D01*
X95711464Y-132891057D01*
X95826373Y-132719083D01*
X95972626Y-132572830D01*
X96144600Y-132457921D01*
X96335688Y-132378769D01*
X96538546Y-132338419D01*
X96745378Y-132338419D01*
X96948236Y-132378769D01*
G37*
G36*
X102348864Y-131885601D02*
G01*
X102539952Y-131964753D01*
X102711926Y-132079662D01*
X102858179Y-132225915D01*
X102973088Y-132397889D01*
X103052240Y-132588977D01*
X103092590Y-132791835D01*
X103092590Y-132998667D01*
X103052240Y-133201525D01*
X102973088Y-133392613D01*
X102858179Y-133564587D01*
X102711926Y-133710840D01*
X102539952Y-133825749D01*
X102348864Y-133904901D01*
X102146006Y-133945251D01*
X101939174Y-133945251D01*
X101736316Y-133904901D01*
X101545228Y-133825749D01*
X101373254Y-133710840D01*
X101227001Y-133564587D01*
X101112092Y-133392613D01*
X101032940Y-133201525D01*
X100992590Y-132998667D01*
X100992590Y-132791835D01*
X101032940Y-132588977D01*
X101112092Y-132397889D01*
X101227001Y-132225915D01*
X101373254Y-132079662D01*
X101545228Y-131964753D01*
X101736316Y-131885601D01*
X101939174Y-131845251D01*
X102146006Y-131845251D01*
X102348864Y-131885601D01*
G37*
G36*
X94693601Y-129354462D02*
G01*
X94866490Y-129426075D01*
X95022086Y-129530041D01*
X95154409Y-129662364D01*
X95258375Y-129817960D01*
X95329988Y-129990849D01*
X95366496Y-130174387D01*
X95366496Y-130361521D01*
X95329988Y-130545059D01*
X95258375Y-130717948D01*
X95154409Y-130873544D01*
X95022086Y-131005867D01*
X94866490Y-131109833D01*
X94693601Y-131181446D01*
X94510063Y-131217954D01*
X94322929Y-131217954D01*
X94139391Y-131181446D01*
X93966502Y-131109833D01*
X93810906Y-131005867D01*
X93678583Y-130873544D01*
X93574617Y-130717948D01*
X93503004Y-130545059D01*
X93466496Y-130361521D01*
X93466496Y-130174387D01*
X93503004Y-129990849D01*
X93574617Y-129817960D01*
X93678583Y-129662364D01*
X93810906Y-129530041D01*
X93966502Y-129426075D01*
X94139391Y-129354462D01*
X94322929Y-129317954D01*
X94510063Y-129317954D01*
X94693601Y-129354462D01*
G37*
G36*
X64361829Y-129042524D02*
G01*
X64447736Y-129137934D01*
X64451321Y-129141712D01*
X64495503Y-129185894D01*
X64495504Y-129185896D01*
X64504682Y-129199632D01*
X64513513Y-129210986D01*
X64782106Y-129509290D01*
X65067475Y-129826224D01*
X64418104Y-130410920D01*
X64414326Y-130414505D01*
X64370144Y-130458687D01*
X64356402Y-130467869D01*
X64345052Y-130476697D01*
X64269125Y-130545061D01*
X63729814Y-131030659D01*
X63145116Y-130381286D01*
X63141533Y-130377510D01*
X63097351Y-130333328D01*
X63088169Y-130319586D01*
X63079340Y-130308234D01*
X62958824Y-130174387D01*
X62525379Y-129692998D01*
X63174752Y-129108300D01*
X63178528Y-129104717D01*
X63222710Y-129060535D01*
X63236452Y-129051353D01*
X63247804Y-129042524D01*
X63331127Y-128967500D01*
X63863040Y-128488563D01*
X64361829Y-129042524D01*
G37*
G36*
X52841314Y-124879524D02*
G01*
X52841316Y-124879525D01*
X52841317Y-124879525D01*
X52890132Y-124899745D01*
X53342558Y-125087146D01*
X53359983Y-125094364D01*
X53826768Y-125406259D01*
X54223741Y-125803232D01*
X54504655Y-126223650D01*
X54535637Y-126270019D01*
X54591225Y-126404220D01*
X54706087Y-126681520D01*
X54750476Y-126788686D01*
X54860000Y-127339299D01*
X54860000Y-127900701D01*
X54757395Y-128416530D01*
X54750475Y-128451317D01*
X54692910Y-128590290D01*
X54536665Y-128967500D01*
X54535636Y-128969983D01*
X54223741Y-129436768D01*
X53826768Y-129833741D01*
X53359983Y-130145636D01*
X52841317Y-130360475D01*
X52841316Y-130360475D01*
X52841314Y-130360476D01*
X52290701Y-130470000D01*
X51729299Y-130470000D01*
X51178686Y-130360476D01*
X51178684Y-130360475D01*
X51178683Y-130360475D01*
X50660017Y-130145636D01*
X50193232Y-129833741D01*
X49796259Y-129436768D01*
X49484364Y-128969983D01*
X49483336Y-128967500D01*
X49327090Y-128590290D01*
X49269525Y-128451317D01*
X49262605Y-128416530D01*
X49160000Y-127900701D01*
X49160000Y-127339299D01*
X49269524Y-126788686D01*
X49313914Y-126681520D01*
X49428775Y-126404220D01*
X49484363Y-126270019D01*
X49515346Y-126223650D01*
X49796259Y-125803232D01*
X50193232Y-125406259D01*
X50660017Y-125094364D01*
X50677443Y-125087146D01*
X51129868Y-124899745D01*
X51178683Y-124879525D01*
X51178684Y-124879525D01*
X51178686Y-124879524D01*
X51729299Y-124770000D01*
X52290701Y-124770000D01*
X52841314Y-124879524D01*
G37*
G36*
X105777712Y-127684053D02*
G01*
X105968800Y-127763205D01*
X106140774Y-127878114D01*
X106287027Y-128024367D01*
X106401936Y-128196341D01*
X106481088Y-128387429D01*
X106521438Y-128590287D01*
X106521438Y-128797119D01*
X106481088Y-128999977D01*
X106401936Y-129191065D01*
X106287027Y-129363039D01*
X106140774Y-129509292D01*
X105968800Y-129624201D01*
X105777712Y-129703353D01*
X105574854Y-129743703D01*
X105368022Y-129743703D01*
X105165164Y-129703353D01*
X104974076Y-129624201D01*
X104802102Y-129509292D01*
X104655849Y-129363039D01*
X104540940Y-129191065D01*
X104461788Y-128999977D01*
X104421438Y-128797119D01*
X104421438Y-128590287D01*
X104461788Y-128387429D01*
X104540940Y-128196341D01*
X104655849Y-128024367D01*
X104802102Y-127878114D01*
X104974076Y-127763205D01*
X105165164Y-127684053D01*
X105368022Y-127643703D01*
X105574854Y-127643703D01*
X105777712Y-127684053D01*
G37*
G36*
X99753995Y-126099268D02*
G01*
X100054276Y-126223649D01*
X100324522Y-126404221D01*
X100554347Y-126634046D01*
X100734919Y-126904292D01*
X100859300Y-127204573D01*
X100922708Y-127523349D01*
X100922708Y-127848371D01*
X100859300Y-128167147D01*
X100734919Y-128467428D01*
X100554347Y-128737674D01*
X100324522Y-128967499D01*
X100054276Y-129148071D01*
X99753995Y-129272452D01*
X99435219Y-129335860D01*
X99110197Y-129335860D01*
X98791421Y-129272452D01*
X98491140Y-129148071D01*
X98220894Y-128967499D01*
X97991069Y-128737674D01*
X97810497Y-128467428D01*
X97686116Y-128167147D01*
X97622708Y-127848371D01*
X97622708Y-127523349D01*
X97686116Y-127204573D01*
X97810497Y-126904292D01*
X97991069Y-126634046D01*
X98220894Y-126404221D01*
X98491140Y-126223649D01*
X98791421Y-126099268D01*
X99110197Y-126035860D01*
X99435219Y-126035860D01*
X99753995Y-126099268D01*
G37*
G36*
X65946535Y-127194605D02*
G01*
X65946537Y-127194606D01*
X65946538Y-127194606D01*
X65963978Y-127201830D01*
X66110325Y-127262449D01*
X66257732Y-127360943D01*
X66383091Y-127486302D01*
X66481585Y-127633709D01*
X66549429Y-127797499D01*
X66584015Y-127971377D01*
X66584015Y-128148661D01*
X66549429Y-128322539D01*
X66481585Y-128486329D01*
X66383091Y-128633736D01*
X66257732Y-128759095D01*
X66110325Y-128857589D01*
X66105443Y-128859611D01*
X65946538Y-128925432D01*
X65946537Y-128925432D01*
X65946535Y-128925433D01*
X65772657Y-128960019D01*
X65595373Y-128960019D01*
X65421495Y-128925433D01*
X65421493Y-128925432D01*
X65421492Y-128925432D01*
X65262587Y-128859611D01*
X65257705Y-128857589D01*
X65110298Y-128759095D01*
X64984939Y-128633736D01*
X64886445Y-128486329D01*
X64818601Y-128322539D01*
X64784015Y-128148661D01*
X64784015Y-127971377D01*
X64818601Y-127797499D01*
X64886445Y-127633709D01*
X64984939Y-127486302D01*
X65110298Y-127360943D01*
X65257705Y-127262449D01*
X65404052Y-127201830D01*
X65421492Y-127194606D01*
X65421493Y-127194606D01*
X65421495Y-127194605D01*
X65595373Y-127160019D01*
X65772657Y-127160019D01*
X65946535Y-127194605D01*
G37*
G36*
X67834123Y-125495014D02*
G01*
X67834125Y-125495015D01*
X67834126Y-125495015D01*
X67881944Y-125514822D01*
X67997913Y-125562858D01*
X68145320Y-125661352D01*
X68270679Y-125786711D01*
X68369173Y-125934118D01*
X68437017Y-126097908D01*
X68471603Y-126271786D01*
X68471603Y-126449070D01*
X68437017Y-126622948D01*
X68369173Y-126786738D01*
X68270679Y-126934145D01*
X68145320Y-127059504D01*
X67997913Y-127157998D01*
X67911465Y-127193806D01*
X67834126Y-127225841D01*
X67834125Y-127225841D01*
X67834123Y-127225842D01*
X67660245Y-127260428D01*
X67482961Y-127260428D01*
X67309083Y-127225842D01*
X67309081Y-127225841D01*
X67309080Y-127225841D01*
X67231741Y-127193806D01*
X67145293Y-127157998D01*
X66997886Y-127059504D01*
X66872527Y-126934145D01*
X66774033Y-126786738D01*
X66706189Y-126622948D01*
X66671603Y-126449070D01*
X66671603Y-126271786D01*
X66706189Y-126097908D01*
X66774033Y-125934118D01*
X66872527Y-125786711D01*
X66997886Y-125661352D01*
X67145293Y-125562858D01*
X67261262Y-125514822D01*
X67309080Y-125495015D01*
X67309081Y-125495015D01*
X67309083Y-125495014D01*
X67482961Y-125460428D01*
X67660245Y-125460428D01*
X67834123Y-125495014D01*
G37*
G36*
X216519495Y-125174508D02*
G01*
X216710583Y-125253660D01*
X216882557Y-125368569D01*
X217028810Y-125514822D01*
X217143719Y-125686796D01*
X217222871Y-125877884D01*
X217263221Y-126080742D01*
X217263221Y-126287574D01*
X217222871Y-126490432D01*
X217143719Y-126681520D01*
X217028810Y-126853494D01*
X216882557Y-126999747D01*
X216710583Y-127114656D01*
X216519495Y-127193808D01*
X216316637Y-127234158D01*
X216109805Y-127234158D01*
X215906947Y-127193808D01*
X215715859Y-127114656D01*
X215543885Y-126999747D01*
X215397632Y-126853494D01*
X215282723Y-126681520D01*
X215203571Y-126490432D01*
X215163221Y-126287574D01*
X215163221Y-126080742D01*
X215203571Y-125877884D01*
X215282723Y-125686796D01*
X215397632Y-125514822D01*
X215543885Y-125368569D01*
X215715859Y-125253660D01*
X215906947Y-125174508D01*
X216109805Y-125134158D01*
X216316637Y-125134158D01*
X216519495Y-125174508D01*
G37*
G36*
X104406025Y-124190274D02*
G01*
X104578914Y-124261887D01*
X104734510Y-124365853D01*
X104866833Y-124498176D01*
X104970799Y-124653772D01*
X105042412Y-124826661D01*
X105078920Y-125010199D01*
X105078920Y-125197333D01*
X105042412Y-125380871D01*
X104970799Y-125553760D01*
X104866833Y-125709356D01*
X104734510Y-125841679D01*
X104578914Y-125945645D01*
X104406025Y-126017258D01*
X104222487Y-126053766D01*
X104035353Y-126053766D01*
X103851815Y-126017258D01*
X103678926Y-125945645D01*
X103523330Y-125841679D01*
X103391007Y-125709356D01*
X103287041Y-125553760D01*
X103215428Y-125380871D01*
X103178920Y-125197333D01*
X103178920Y-125010199D01*
X103215428Y-124826661D01*
X103287041Y-124653772D01*
X103391007Y-124498176D01*
X103523330Y-124365853D01*
X103678926Y-124261887D01*
X103851815Y-124190274D01*
X104035353Y-124153766D01*
X104222487Y-124153766D01*
X104406025Y-124190274D01*
G37*
G36*
X70024593Y-123943749D02*
G01*
X70110500Y-124039159D01*
X70114085Y-124042937D01*
X70158267Y-124087119D01*
X70158268Y-124087121D01*
X70167446Y-124100857D01*
X70176277Y-124112211D01*
X70730239Y-124727449D01*
X70233730Y-125174508D01*
X70080868Y-125312145D01*
X70077090Y-125315730D01*
X70032908Y-125359912D01*
X70019166Y-125369094D01*
X70007816Y-125377922D01*
X69392578Y-125931884D01*
X68896444Y-125380871D01*
X68807880Y-125282511D01*
X68804297Y-125278735D01*
X68760115Y-125234553D01*
X68750933Y-125220811D01*
X68742104Y-125209459D01*
X68637970Y-125093806D01*
X68188143Y-124594223D01*
X68837516Y-124009525D01*
X68841292Y-124005942D01*
X68885474Y-123961760D01*
X68899216Y-123952578D01*
X68910568Y-123943749D01*
X69525804Y-123389788D01*
X70024593Y-123943749D01*
G37*
G36*
X221519495Y-123074508D02*
G01*
X221710583Y-123153660D01*
X221882557Y-123268569D01*
X222028810Y-123414822D01*
X222143719Y-123586796D01*
X222222871Y-123777884D01*
X222263221Y-123980742D01*
X222263221Y-124187574D01*
X222222871Y-124390432D01*
X222143719Y-124581520D01*
X222028810Y-124753494D01*
X221882557Y-124899747D01*
X221710583Y-125014656D01*
X221519495Y-125093808D01*
X221316637Y-125134158D01*
X221109805Y-125134158D01*
X220906947Y-125093808D01*
X220715859Y-125014656D01*
X220543885Y-124899747D01*
X220397632Y-124753494D01*
X220282723Y-124581520D01*
X220203571Y-124390432D01*
X220163221Y-124187574D01*
X220163221Y-123980742D01*
X220203571Y-123777884D01*
X220282723Y-123586796D01*
X220397632Y-123414822D01*
X220543885Y-123268569D01*
X220715859Y-123153660D01*
X220906947Y-123074508D01*
X221109805Y-123034158D01*
X221316637Y-123034158D01*
X221519495Y-123074508D01*
G37*
G36*
X211519495Y-123074508D02*
G01*
X211710583Y-123153660D01*
X211882557Y-123268569D01*
X212028810Y-123414822D01*
X212143719Y-123586796D01*
X212222871Y-123777884D01*
X212263221Y-123980742D01*
X212263221Y-124187574D01*
X212222871Y-124390432D01*
X212143719Y-124581520D01*
X212028810Y-124753494D01*
X211882557Y-124899747D01*
X211710583Y-125014656D01*
X211519495Y-125093808D01*
X211316637Y-125134158D01*
X211109805Y-125134158D01*
X210906947Y-125093808D01*
X210715859Y-125014656D01*
X210543885Y-124899747D01*
X210397632Y-124753494D01*
X210282723Y-124581520D01*
X210203571Y-124390432D01*
X210163221Y-124187574D01*
X210163221Y-123980742D01*
X210203571Y-123777884D01*
X210282723Y-123586796D01*
X210397632Y-123414822D01*
X210543885Y-123268569D01*
X210715859Y-123153660D01*
X210906947Y-123074508D01*
X211109805Y-123034158D01*
X211316637Y-123034158D01*
X211519495Y-123074508D01*
G37*
G36*
X164210000Y-123970000D02*
G01*
X163210000Y-123970000D01*
X163210000Y-123070000D01*
X164210000Y-123070000D01*
X164210000Y-123970000D01*
G37*
G36*
X158471314Y-117969524D02*
G01*
X158471316Y-117969525D01*
X158471317Y-117969525D01*
X158509529Y-117985353D01*
X158925587Y-118157690D01*
X158989983Y-118184364D01*
X159456768Y-118496259D01*
X159853741Y-118893232D01*
X160148358Y-119334158D01*
X160165637Y-119360019D01*
X160199710Y-119442279D01*
X160362035Y-119834164D01*
X160380476Y-119878686D01*
X160490000Y-120429299D01*
X160490000Y-120990701D01*
X160380476Y-121541314D01*
X160380475Y-121541317D01*
X160322401Y-121681519D01*
X160190588Y-121999745D01*
X160165636Y-122059983D01*
X159853741Y-122526768D01*
X159456768Y-122923741D01*
X158989983Y-123235636D01*
X158471317Y-123450475D01*
X158471316Y-123450475D01*
X158471314Y-123450476D01*
X157920701Y-123560000D01*
X157359299Y-123560000D01*
X156808686Y-123450476D01*
X156808684Y-123450475D01*
X156808683Y-123450475D01*
X156290017Y-123235636D01*
X155823232Y-122923741D01*
X155426259Y-122526768D01*
X155114364Y-122059983D01*
X155089413Y-121999745D01*
X154957599Y-121681519D01*
X154899525Y-121541317D01*
X154899524Y-121541314D01*
X154790000Y-120990701D01*
X154790000Y-120429299D01*
X154899524Y-119878686D01*
X154917966Y-119834164D01*
X155080290Y-119442279D01*
X155114363Y-119360019D01*
X155131643Y-119334158D01*
X155426259Y-118893232D01*
X155823232Y-118496259D01*
X156290017Y-118184364D01*
X156354414Y-118157690D01*
X156770471Y-117985353D01*
X156808683Y-117969525D01*
X156808684Y-117969525D01*
X156808686Y-117969524D01*
X157359299Y-117860000D01*
X157920701Y-117860000D01*
X158471314Y-117969524D01*
G37*
G36*
X166210000Y-123020000D02*
G01*
X165210000Y-123020000D01*
X165210000Y-122120000D01*
X166210000Y-122120000D01*
X166210000Y-123020000D01*
G37*
G36*
X197469495Y-120174508D02*
G01*
X197660583Y-120253660D01*
X197832557Y-120368569D01*
X197978810Y-120514822D01*
X198093719Y-120686796D01*
X198172871Y-120877884D01*
X198213221Y-121080742D01*
X198213221Y-121287574D01*
X198172871Y-121490432D01*
X198093719Y-121681520D01*
X197978810Y-121853494D01*
X197832557Y-121999747D01*
X197660583Y-122114656D01*
X197469495Y-122193808D01*
X197266637Y-122234158D01*
X197059805Y-122234158D01*
X196856947Y-122193808D01*
X196665859Y-122114656D01*
X196493885Y-121999747D01*
X196347632Y-121853494D01*
X196232723Y-121681520D01*
X196153571Y-121490432D01*
X196113221Y-121287574D01*
X196113221Y-121080742D01*
X196153571Y-120877884D01*
X196232723Y-120686796D01*
X196347632Y-120514822D01*
X196493885Y-120368569D01*
X196665859Y-120253660D01*
X196856947Y-120174508D01*
X197059805Y-120134158D01*
X197266637Y-120134158D01*
X197469495Y-120174508D01*
G37*
G36*
X121269495Y-120174508D02*
G01*
X121460583Y-120253660D01*
X121632557Y-120368569D01*
X121778810Y-120514822D01*
X121893719Y-120686796D01*
X121972871Y-120877884D01*
X122013221Y-121080742D01*
X122013221Y-121287574D01*
X121972871Y-121490432D01*
X121893719Y-121681520D01*
X121778810Y-121853494D01*
X121632557Y-121999747D01*
X121460583Y-122114656D01*
X121269495Y-122193808D01*
X121066637Y-122234158D01*
X120859805Y-122234158D01*
X120656947Y-122193808D01*
X120465859Y-122114656D01*
X120293885Y-121999747D01*
X120147632Y-121853494D01*
X120032723Y-121681520D01*
X119953571Y-121490432D01*
X119913221Y-121287574D01*
X119913221Y-121080742D01*
X119953571Y-120877884D01*
X120032723Y-120686796D01*
X120147632Y-120514822D01*
X120293885Y-120368569D01*
X120465859Y-120253660D01*
X120656947Y-120174508D01*
X120859805Y-120134158D01*
X121066637Y-120134158D01*
X121269495Y-120174508D01*
G37*
G36*
X164210000Y-122070000D02*
G01*
X163210000Y-122070000D01*
X163210000Y-121170000D01*
X164210000Y-121170000D01*
X164210000Y-122070000D01*
G37*
G36*
X216694508Y-118697566D02*
G01*
X216994789Y-118821947D01*
X217265035Y-119002519D01*
X217494860Y-119232344D01*
X217675432Y-119502590D01*
X217799813Y-119802871D01*
X217863221Y-120121647D01*
X217863221Y-120446669D01*
X217799813Y-120765445D01*
X217675432Y-121065726D01*
X217494860Y-121335972D01*
X217265035Y-121565797D01*
X216994789Y-121746369D01*
X216694508Y-121870750D01*
X216375732Y-121934158D01*
X216050710Y-121934158D01*
X215731934Y-121870750D01*
X215431653Y-121746369D01*
X215161407Y-121565797D01*
X214931582Y-121335972D01*
X214751010Y-121065726D01*
X214626629Y-120765445D01*
X214563221Y-120446669D01*
X214563221Y-120121647D01*
X214626629Y-119802871D01*
X214751010Y-119502590D01*
X214931582Y-119232344D01*
X215161407Y-119002519D01*
X215431653Y-118821947D01*
X215731934Y-118697566D01*
X216050710Y-118634158D01*
X216375732Y-118634158D01*
X216694508Y-118697566D01*
G37*
G36*
X221990326Y-119370666D02*
G01*
X222163215Y-119442279D01*
X222318811Y-119546245D01*
X222451134Y-119678568D01*
X222555100Y-119834164D01*
X222626713Y-120007053D01*
X222663221Y-120190591D01*
X222663221Y-120377725D01*
X222626713Y-120561263D01*
X222555100Y-120734152D01*
X222451134Y-120889748D01*
X222318811Y-121022071D01*
X222163215Y-121126037D01*
X221990326Y-121197650D01*
X221806788Y-121234158D01*
X221619654Y-121234158D01*
X221436116Y-121197650D01*
X221263227Y-121126037D01*
X221107631Y-121022071D01*
X220975308Y-120889748D01*
X220871342Y-120734152D01*
X220799729Y-120561263D01*
X220763221Y-120377725D01*
X220763221Y-120190591D01*
X220799729Y-120007053D01*
X220871342Y-119834164D01*
X220975308Y-119678568D01*
X221107631Y-119546245D01*
X221263227Y-119442279D01*
X221436116Y-119370666D01*
X221619654Y-119334158D01*
X221806788Y-119334158D01*
X221990326Y-119370666D01*
G37*
G36*
X210990326Y-119370666D02*
G01*
X211163215Y-119442279D01*
X211318811Y-119546245D01*
X211451134Y-119678568D01*
X211555100Y-119834164D01*
X211626713Y-120007053D01*
X211663221Y-120190591D01*
X211663221Y-120377725D01*
X211626713Y-120561263D01*
X211555100Y-120734152D01*
X211451134Y-120889748D01*
X211318811Y-121022071D01*
X211163215Y-121126037D01*
X210990326Y-121197650D01*
X210806788Y-121234158D01*
X210619654Y-121234158D01*
X210436116Y-121197650D01*
X210263227Y-121126037D01*
X210107631Y-121022071D01*
X209975308Y-120889748D01*
X209871342Y-120734152D01*
X209799729Y-120561263D01*
X209763221Y-120377725D01*
X209763221Y-120190591D01*
X209799729Y-120007053D01*
X209871342Y-119834164D01*
X209975308Y-119678568D01*
X210107631Y-119546245D01*
X210263227Y-119442279D01*
X210436116Y-119370666D01*
X210619654Y-119334158D01*
X210806788Y-119334158D01*
X210990326Y-119370666D01*
G37*
G36*
X89896728Y-118735794D02*
G01*
X89973974Y-118751334D01*
X90046704Y-118781646D01*
X90112122Y-118825563D01*
X90166365Y-118880044D01*
X90167716Y-118881401D01*
X90200413Y-118930567D01*
X90613222Y-119706946D01*
X90635697Y-119761543D01*
X90642134Y-119794280D01*
X90650901Y-119838858D01*
X90650728Y-119917650D01*
X90635188Y-119994896D01*
X90604876Y-120067626D01*
X90560959Y-120133044D01*
X90519313Y-120174508D01*
X90505121Y-120188638D01*
X90483144Y-120203253D01*
X90439513Y-120232269D01*
X90403082Y-120247266D01*
X90366652Y-120262263D01*
X90351448Y-120265253D01*
X90289339Y-120277467D01*
X90210547Y-120277294D01*
X90133301Y-120261754D01*
X90060571Y-120231442D01*
X89995153Y-120187525D01*
X89939560Y-120131688D01*
X89906860Y-120082517D01*
X89685467Y-119666137D01*
X89494054Y-119306141D01*
X89471579Y-119251544D01*
X89465142Y-119218807D01*
X89456375Y-119174229D01*
X89456548Y-119095438D01*
X89472088Y-119018192D01*
X89502400Y-118945462D01*
X89546317Y-118880044D01*
X89602154Y-118824451D01*
X89602155Y-118824450D01*
X89654376Y-118789722D01*
X89667763Y-118780819D01*
X89704194Y-118765822D01*
X89740624Y-118750825D01*
X89755828Y-118747835D01*
X89817937Y-118735621D01*
X89896728Y-118735794D01*
G37*
G36*
X202469495Y-118074508D02*
G01*
X202660583Y-118153660D01*
X202832557Y-118268569D01*
X202978810Y-118414822D01*
X203093719Y-118586796D01*
X203172871Y-118777884D01*
X203213221Y-118980742D01*
X203213221Y-119187574D01*
X203172871Y-119390432D01*
X203093719Y-119581520D01*
X202978810Y-119753494D01*
X202832557Y-119899747D01*
X202660583Y-120014656D01*
X202469495Y-120093808D01*
X202266637Y-120134158D01*
X202059805Y-120134158D01*
X201856947Y-120093808D01*
X201665859Y-120014656D01*
X201493885Y-119899747D01*
X201347632Y-119753494D01*
X201232723Y-119581520D01*
X201153571Y-119390432D01*
X201113221Y-119187574D01*
X201113221Y-118980742D01*
X201153571Y-118777884D01*
X201232723Y-118586796D01*
X201347632Y-118414822D01*
X201493885Y-118268569D01*
X201665859Y-118153660D01*
X201856947Y-118074508D01*
X202059805Y-118034158D01*
X202266637Y-118034158D01*
X202469495Y-118074508D01*
G37*
G36*
X116269495Y-118074508D02*
G01*
X116460583Y-118153660D01*
X116632557Y-118268569D01*
X116778810Y-118414822D01*
X116893719Y-118586796D01*
X116972871Y-118777884D01*
X117013221Y-118980742D01*
X117013221Y-119187574D01*
X116972871Y-119390432D01*
X116893719Y-119581520D01*
X116778810Y-119753494D01*
X116632557Y-119899747D01*
X116460583Y-120014656D01*
X116269495Y-120093808D01*
X116066637Y-120134158D01*
X115859805Y-120134158D01*
X115656947Y-120093808D01*
X115465859Y-120014656D01*
X115293885Y-119899747D01*
X115147632Y-119753494D01*
X115032723Y-119581520D01*
X114953571Y-119390432D01*
X114913221Y-119187574D01*
X114913221Y-118980742D01*
X114953571Y-118777884D01*
X115032723Y-118586796D01*
X115147632Y-118414822D01*
X115293885Y-118268569D01*
X115465859Y-118153660D01*
X115656947Y-118074508D01*
X115859805Y-118034158D01*
X116066637Y-118034158D01*
X116269495Y-118074508D01*
G37*
G36*
X126269495Y-118074508D02*
G01*
X126460583Y-118153660D01*
X126632557Y-118268569D01*
X126778810Y-118414822D01*
X126893719Y-118586796D01*
X126972871Y-118777884D01*
X127013221Y-118980742D01*
X127013221Y-119187574D01*
X126972871Y-119390432D01*
X126893719Y-119581520D01*
X126778810Y-119753494D01*
X126632557Y-119899747D01*
X126460583Y-120014656D01*
X126269495Y-120093808D01*
X126066637Y-120134158D01*
X125859805Y-120134158D01*
X125656947Y-120093808D01*
X125465859Y-120014656D01*
X125293885Y-119899747D01*
X125147632Y-119753494D01*
X125032723Y-119581520D01*
X124953571Y-119390432D01*
X124913221Y-119187574D01*
X124913221Y-118980742D01*
X124953571Y-118777884D01*
X125032723Y-118586796D01*
X125147632Y-118414822D01*
X125293885Y-118268569D01*
X125465859Y-118153660D01*
X125656947Y-118074508D01*
X125859805Y-118034158D01*
X126066637Y-118034158D01*
X126269495Y-118074508D01*
G37*
G36*
X192469495Y-118074508D02*
G01*
X192660583Y-118153660D01*
X192832557Y-118268569D01*
X192978810Y-118414822D01*
X193093719Y-118586796D01*
X193172871Y-118777884D01*
X193213221Y-118980742D01*
X193213221Y-119187574D01*
X193172871Y-119390432D01*
X193093719Y-119581520D01*
X192978810Y-119753494D01*
X192832557Y-119899747D01*
X192660583Y-120014656D01*
X192469495Y-120093808D01*
X192266637Y-120134158D01*
X192059805Y-120134158D01*
X191856947Y-120093808D01*
X191665859Y-120014656D01*
X191493885Y-119899747D01*
X191347632Y-119753494D01*
X191232723Y-119581520D01*
X191153571Y-119390432D01*
X191113221Y-119187574D01*
X191113221Y-118980742D01*
X191153571Y-118777884D01*
X191232723Y-118586796D01*
X191347632Y-118414822D01*
X191493885Y-118268569D01*
X191665859Y-118153660D01*
X191856947Y-118074508D01*
X192059805Y-118034158D01*
X192266637Y-118034158D01*
X192469495Y-118074508D01*
G37*
G36*
X90867970Y-118219375D02*
G01*
X90945216Y-118234915D01*
X91017946Y-118265227D01*
X91083364Y-118309144D01*
X91137607Y-118363625D01*
X91138958Y-118364982D01*
X91171655Y-118414148D01*
X91584464Y-119190527D01*
X91606939Y-119245124D01*
X91608201Y-119251544D01*
X91622143Y-119322439D01*
X91621970Y-119401231D01*
X91606430Y-119478477D01*
X91576118Y-119551207D01*
X91532201Y-119616625D01*
X91477481Y-119671106D01*
X91476363Y-119672219D01*
X91466816Y-119678568D01*
X91410755Y-119715850D01*
X91374324Y-119730847D01*
X91337894Y-119745844D01*
X91322690Y-119748834D01*
X91260581Y-119761048D01*
X91181789Y-119760875D01*
X91104543Y-119745335D01*
X91031813Y-119715023D01*
X90966395Y-119671106D01*
X90910802Y-119615269D01*
X90878102Y-119566098D01*
X90656709Y-119149718D01*
X90465296Y-118789722D01*
X90442821Y-118735125D01*
X90435435Y-118697566D01*
X90427617Y-118657810D01*
X90427790Y-118579019D01*
X90443330Y-118501773D01*
X90473642Y-118429043D01*
X90517559Y-118363625D01*
X90573396Y-118308032D01*
X90573397Y-118308031D01*
X90625618Y-118273303D01*
X90639005Y-118264400D01*
X90675436Y-118249403D01*
X90711866Y-118234406D01*
X90727070Y-118231416D01*
X90789179Y-118219202D01*
X90867970Y-118219375D01*
G37*
G36*
X91839213Y-117702956D02*
G01*
X91916459Y-117718496D01*
X91989189Y-117748808D01*
X92054607Y-117792725D01*
X92108850Y-117847206D01*
X92110201Y-117848563D01*
X92142898Y-117897729D01*
X92555707Y-118674108D01*
X92578182Y-118728705D01*
X92582632Y-118751334D01*
X92593386Y-118806020D01*
X92593213Y-118884812D01*
X92577673Y-118962058D01*
X92547361Y-119034788D01*
X92503444Y-119100206D01*
X92448724Y-119154687D01*
X92447606Y-119155800D01*
X92425629Y-119170415D01*
X92381998Y-119199431D01*
X92345567Y-119214428D01*
X92309137Y-119229425D01*
X92294293Y-119232344D01*
X92231824Y-119244629D01*
X92153032Y-119244456D01*
X92075786Y-119228916D01*
X92003056Y-119198604D01*
X91937638Y-119154687D01*
X91882045Y-119098850D01*
X91849345Y-119049679D01*
X91599091Y-118579019D01*
X91436539Y-118273303D01*
X91414064Y-118218706D01*
X91407311Y-118184363D01*
X91398860Y-118141391D01*
X91399033Y-118062600D01*
X91414573Y-117985354D01*
X91444885Y-117912624D01*
X91488802Y-117847206D01*
X91544639Y-117791613D01*
X91544640Y-117791612D01*
X91572354Y-117773182D01*
X91610248Y-117747981D01*
X91646679Y-117732984D01*
X91683109Y-117717987D01*
X91698313Y-117714997D01*
X91760422Y-117702783D01*
X91839213Y-117702956D01*
G37*
G36*
X92810455Y-117186538D02*
G01*
X92887701Y-117202078D01*
X92960431Y-117232390D01*
X93025849Y-117276307D01*
X93080092Y-117330788D01*
X93081443Y-117332145D01*
X93114140Y-117381311D01*
X93526949Y-118157690D01*
X93549424Y-118212287D01*
X93553874Y-118234916D01*
X93564628Y-118289602D01*
X93564455Y-118368394D01*
X93548915Y-118445640D01*
X93518603Y-118518370D01*
X93474686Y-118583788D01*
X93424095Y-118634158D01*
X93418848Y-118639382D01*
X93396871Y-118653997D01*
X93353240Y-118683013D01*
X93317888Y-118697566D01*
X93280379Y-118713007D01*
X93265175Y-118715997D01*
X93203066Y-118728211D01*
X93124274Y-118728038D01*
X93047028Y-118712498D01*
X92974298Y-118682186D01*
X92908880Y-118638269D01*
X92853287Y-118582432D01*
X92820587Y-118533261D01*
X92599194Y-118116881D01*
X92407781Y-117756885D01*
X92385306Y-117702288D01*
X92378869Y-117669551D01*
X92370102Y-117624973D01*
X92370275Y-117546182D01*
X92385815Y-117468936D01*
X92416127Y-117396206D01*
X92460044Y-117330788D01*
X92515881Y-117275195D01*
X92515882Y-117275194D01*
X92568103Y-117240466D01*
X92581490Y-117231563D01*
X92617921Y-117216566D01*
X92654351Y-117201569D01*
X92669555Y-117198579D01*
X92731664Y-117186365D01*
X92810455Y-117186538D01*
G37*
G36*
X93781697Y-116670119D02*
G01*
X93858943Y-116685659D01*
X93931673Y-116715971D01*
X93997091Y-116759888D01*
X94051334Y-116814369D01*
X94052685Y-116815726D01*
X94085382Y-116864892D01*
X94498191Y-117641271D01*
X94520666Y-117695868D01*
X94525116Y-117718497D01*
X94535870Y-117773183D01*
X94535697Y-117851975D01*
X94520157Y-117929221D01*
X94489845Y-118001951D01*
X94445928Y-118067369D01*
X94391208Y-118121850D01*
X94390090Y-118122963D01*
X94368113Y-118137578D01*
X94324482Y-118166594D01*
X94288051Y-118181591D01*
X94251621Y-118196588D01*
X94236417Y-118199578D01*
X94174308Y-118211792D01*
X94095516Y-118211619D01*
X94018270Y-118196079D01*
X93945540Y-118165767D01*
X93880122Y-118121850D01*
X93824529Y-118066013D01*
X93791829Y-118016842D01*
X93570436Y-117600462D01*
X93379023Y-117240466D01*
X93356548Y-117185869D01*
X93350111Y-117153132D01*
X93341344Y-117108554D01*
X93341517Y-117029763D01*
X93357057Y-116952517D01*
X93387369Y-116879787D01*
X93431286Y-116814369D01*
X93487123Y-116758776D01*
X93487124Y-116758775D01*
X93539345Y-116724047D01*
X93552732Y-116715144D01*
X93589163Y-116700147D01*
X93625593Y-116685150D01*
X93640797Y-116682160D01*
X93702906Y-116669946D01*
X93781697Y-116670119D01*
G37*
G36*
X94752940Y-116153700D02*
G01*
X94830186Y-116169240D01*
X94902916Y-116199552D01*
X94968334Y-116243469D01*
X95012243Y-116287571D01*
X95023928Y-116299307D01*
X95056625Y-116348473D01*
X95469434Y-117124852D01*
X95491909Y-117179449D01*
X95496359Y-117202078D01*
X95507113Y-117256764D01*
X95506940Y-117335556D01*
X95491400Y-117412802D01*
X95461088Y-117485532D01*
X95417171Y-117550950D01*
X95362451Y-117605431D01*
X95361333Y-117606544D01*
X95339356Y-117621159D01*
X95295725Y-117650175D01*
X95259294Y-117665172D01*
X95222864Y-117680169D01*
X95207660Y-117683159D01*
X95145551Y-117695373D01*
X95066759Y-117695200D01*
X94989513Y-117679660D01*
X94916783Y-117649348D01*
X94851365Y-117605431D01*
X94795772Y-117549594D01*
X94763072Y-117500423D01*
X94541679Y-117084043D01*
X94350266Y-116724047D01*
X94327791Y-116669450D01*
X94321354Y-116636713D01*
X94312587Y-116592135D01*
X94312760Y-116513344D01*
X94328300Y-116436098D01*
X94358612Y-116363368D01*
X94402529Y-116297950D01*
X94458366Y-116242357D01*
X94458367Y-116242356D01*
X94510588Y-116207628D01*
X94523975Y-116198725D01*
X94560406Y-116183728D01*
X94596836Y-116168731D01*
X94612040Y-116165741D01*
X94674149Y-116153527D01*
X94752940Y-116153700D01*
G37*
G36*
X178419495Y-115174508D02*
G01*
X178610583Y-115253660D01*
X178782557Y-115368569D01*
X178928810Y-115514822D01*
X179043719Y-115686796D01*
X179122871Y-115877884D01*
X179163221Y-116080742D01*
X179163221Y-116287574D01*
X179122871Y-116490432D01*
X179043719Y-116681520D01*
X178928810Y-116853494D01*
X178782557Y-116999747D01*
X178610583Y-117114656D01*
X178419495Y-117193808D01*
X178216637Y-117234158D01*
X178009805Y-117234158D01*
X177806947Y-117193808D01*
X177615859Y-117114656D01*
X177443885Y-116999747D01*
X177297632Y-116853494D01*
X177182723Y-116681520D01*
X177103571Y-116490432D01*
X177063221Y-116287574D01*
X177063221Y-116080742D01*
X177103571Y-115877884D01*
X177182723Y-115686796D01*
X177297632Y-115514822D01*
X177443885Y-115368569D01*
X177615859Y-115253660D01*
X177806947Y-115174508D01*
X178009805Y-115134158D01*
X178216637Y-115134158D01*
X178419495Y-115174508D01*
G37*
G36*
X140319495Y-115174508D02*
G01*
X140510583Y-115253660D01*
X140682557Y-115368569D01*
X140828810Y-115514822D01*
X140943719Y-115686796D01*
X141022871Y-115877884D01*
X141063221Y-116080742D01*
X141063221Y-116287574D01*
X141022871Y-116490432D01*
X140943719Y-116681520D01*
X140828810Y-116853494D01*
X140682557Y-116999747D01*
X140510583Y-117114656D01*
X140319495Y-117193808D01*
X140116637Y-117234158D01*
X139909805Y-117234158D01*
X139706947Y-117193808D01*
X139515859Y-117114656D01*
X139343885Y-116999747D01*
X139197632Y-116853494D01*
X139082723Y-116681520D01*
X139003571Y-116490432D01*
X138963221Y-116287574D01*
X138963221Y-116080742D01*
X139003571Y-115877884D01*
X139082723Y-115686796D01*
X139197632Y-115514822D01*
X139343885Y-115368569D01*
X139515859Y-115253660D01*
X139706947Y-115174508D01*
X139909805Y-115134158D01*
X140116637Y-115134158D01*
X140319495Y-115174508D01*
G37*
G36*
X95724182Y-115637281D02*
G01*
X95801428Y-115652821D01*
X95874158Y-115683133D01*
X95939576Y-115727050D01*
X95977803Y-115765445D01*
X95995170Y-115782888D01*
X96027867Y-115832054D01*
X96440676Y-116608433D01*
X96463151Y-116663030D01*
X96467601Y-116685659D01*
X96478355Y-116740345D01*
X96478182Y-116819137D01*
X96462642Y-116896383D01*
X96432330Y-116969113D01*
X96388413Y-117034531D01*
X96333693Y-117089012D01*
X96332575Y-117090125D01*
X96310598Y-117104740D01*
X96266967Y-117133756D01*
X96230536Y-117148753D01*
X96194106Y-117163750D01*
X96178902Y-117166740D01*
X96116793Y-117178954D01*
X96038001Y-117178781D01*
X95960755Y-117163241D01*
X95888025Y-117132929D01*
X95822607Y-117089012D01*
X95767014Y-117033175D01*
X95734314Y-116984004D01*
X95471878Y-116490432D01*
X95321508Y-116207628D01*
X95299033Y-116153031D01*
X95292596Y-116120294D01*
X95283829Y-116075716D01*
X95284002Y-115996925D01*
X95299542Y-115919679D01*
X95329854Y-115846949D01*
X95373771Y-115781531D01*
X95429608Y-115725938D01*
X95429609Y-115725937D01*
X95457323Y-115707507D01*
X95495217Y-115682306D01*
X95531648Y-115667309D01*
X95568078Y-115652312D01*
X95583282Y-115649322D01*
X95645391Y-115637108D01*
X95724182Y-115637281D01*
G37*
G36*
X121444508Y-113697566D02*
G01*
X121744789Y-113821947D01*
X122015035Y-114002519D01*
X122244860Y-114232344D01*
X122425432Y-114502590D01*
X122549813Y-114802871D01*
X122613221Y-115121647D01*
X122613221Y-115446669D01*
X122549813Y-115765445D01*
X122425432Y-116065726D01*
X122244860Y-116335972D01*
X122015035Y-116565797D01*
X121744789Y-116746369D01*
X121444508Y-116870750D01*
X121125732Y-116934158D01*
X120800710Y-116934158D01*
X120481934Y-116870750D01*
X120181653Y-116746369D01*
X119911407Y-116565797D01*
X119681582Y-116335972D01*
X119501010Y-116065726D01*
X119376629Y-115765445D01*
X119313221Y-115446669D01*
X119313221Y-115121647D01*
X119376629Y-114802871D01*
X119501010Y-114502590D01*
X119681582Y-114232344D01*
X119911407Y-114002519D01*
X120181653Y-113821947D01*
X120481934Y-113697566D01*
X120800710Y-113634158D01*
X121125732Y-113634158D01*
X121444508Y-113697566D01*
G37*
G36*
X197644508Y-113697566D02*
G01*
X197944789Y-113821947D01*
X198215035Y-114002519D01*
X198444860Y-114232344D01*
X198625432Y-114502590D01*
X198749813Y-114802871D01*
X198813221Y-115121647D01*
X198813221Y-115446669D01*
X198749813Y-115765445D01*
X198625432Y-116065726D01*
X198444860Y-116335972D01*
X198215035Y-116565797D01*
X197944789Y-116746369D01*
X197644508Y-116870750D01*
X197325732Y-116934158D01*
X197000710Y-116934158D01*
X196681934Y-116870750D01*
X196381653Y-116746369D01*
X196111407Y-116565797D01*
X195881582Y-116335972D01*
X195701010Y-116065726D01*
X195576629Y-115765445D01*
X195513221Y-115446669D01*
X195513221Y-115121647D01*
X195576629Y-114802871D01*
X195701010Y-114502590D01*
X195881582Y-114232344D01*
X196111407Y-114002519D01*
X196381653Y-113821947D01*
X196681934Y-113697566D01*
X197000710Y-113634158D01*
X197325732Y-113634158D01*
X197644508Y-113697566D01*
G37*
G36*
X96695425Y-115120863D02*
G01*
X96772671Y-115136403D01*
X96845401Y-115166715D01*
X96910819Y-115210632D01*
X96953659Y-115253660D01*
X96966413Y-115266470D01*
X96999110Y-115315636D01*
X97411919Y-116092015D01*
X97434394Y-116146612D01*
X97438844Y-116169241D01*
X97449598Y-116223927D01*
X97449425Y-116302719D01*
X97433885Y-116379965D01*
X97403573Y-116452695D01*
X97359656Y-116518113D01*
X97311763Y-116565797D01*
X97303818Y-116573707D01*
X97281841Y-116588322D01*
X97238210Y-116617338D01*
X97201779Y-116632335D01*
X97165349Y-116647332D01*
X97150145Y-116650322D01*
X97088036Y-116662536D01*
X97009244Y-116662363D01*
X96931998Y-116646823D01*
X96859268Y-116616511D01*
X96793850Y-116572594D01*
X96738257Y-116516757D01*
X96705557Y-116467586D01*
X96468673Y-116022070D01*
X96292751Y-115691210D01*
X96270276Y-115636613D01*
X96263839Y-115603876D01*
X96255072Y-115559298D01*
X96255245Y-115480507D01*
X96270785Y-115403261D01*
X96301097Y-115330531D01*
X96345014Y-115265113D01*
X96400851Y-115209520D01*
X96400852Y-115209519D01*
X96453073Y-115174791D01*
X96466460Y-115165888D01*
X96502891Y-115150891D01*
X96539321Y-115135894D01*
X96554525Y-115132904D01*
X96616634Y-115120690D01*
X96695425Y-115120863D01*
G37*
G36*
X115740326Y-114370666D02*
G01*
X115913215Y-114442279D01*
X116068811Y-114546245D01*
X116201134Y-114678568D01*
X116305100Y-114834164D01*
X116376713Y-115007053D01*
X116413221Y-115190591D01*
X116413221Y-115377725D01*
X116376713Y-115561263D01*
X116305100Y-115734152D01*
X116201134Y-115889748D01*
X116068811Y-116022071D01*
X115913215Y-116126037D01*
X115740326Y-116197650D01*
X115556788Y-116234158D01*
X115369654Y-116234158D01*
X115186116Y-116197650D01*
X115013227Y-116126037D01*
X114857631Y-116022071D01*
X114725308Y-115889748D01*
X114621342Y-115734152D01*
X114549729Y-115561263D01*
X114513221Y-115377725D01*
X114513221Y-115190591D01*
X114549729Y-115007053D01*
X114621342Y-114834164D01*
X114725308Y-114678568D01*
X114857631Y-114546245D01*
X115013227Y-114442279D01*
X115186116Y-114370666D01*
X115369654Y-114334158D01*
X115556788Y-114334158D01*
X115740326Y-114370666D01*
G37*
G36*
X126740326Y-114370666D02*
G01*
X126913215Y-114442279D01*
X127068811Y-114546245D01*
X127201134Y-114678568D01*
X127305100Y-114834164D01*
X127376713Y-115007053D01*
X127413221Y-115190591D01*
X127413221Y-115377725D01*
X127376713Y-115561263D01*
X127305100Y-115734152D01*
X127201134Y-115889748D01*
X127068811Y-116022071D01*
X126913215Y-116126037D01*
X126740326Y-116197650D01*
X126556788Y-116234158D01*
X126369654Y-116234158D01*
X126186116Y-116197650D01*
X126013227Y-116126037D01*
X125857631Y-116022071D01*
X125725308Y-115889748D01*
X125621342Y-115734152D01*
X125549729Y-115561263D01*
X125513221Y-115377725D01*
X125513221Y-115190591D01*
X125549729Y-115007053D01*
X125621342Y-114834164D01*
X125725308Y-114678568D01*
X125857631Y-114546245D01*
X126013227Y-114442279D01*
X126186116Y-114370666D01*
X126369654Y-114334158D01*
X126556788Y-114334158D01*
X126740326Y-114370666D01*
G37*
G36*
X191940326Y-114370666D02*
G01*
X192113215Y-114442279D01*
X192268811Y-114546245D01*
X192401134Y-114678568D01*
X192505100Y-114834164D01*
X192576713Y-115007053D01*
X192613221Y-115190591D01*
X192613221Y-115377725D01*
X192576713Y-115561263D01*
X192505100Y-115734152D01*
X192401134Y-115889748D01*
X192268811Y-116022071D01*
X192113215Y-116126037D01*
X191940326Y-116197650D01*
X191756788Y-116234158D01*
X191569654Y-116234158D01*
X191386116Y-116197650D01*
X191213227Y-116126037D01*
X191057631Y-116022071D01*
X190925308Y-115889748D01*
X190821342Y-115734152D01*
X190749729Y-115561263D01*
X190713221Y-115377725D01*
X190713221Y-115190591D01*
X190749729Y-115007053D01*
X190821342Y-114834164D01*
X190925308Y-114678568D01*
X191057631Y-114546245D01*
X191213227Y-114442279D01*
X191386116Y-114370666D01*
X191569654Y-114334158D01*
X191756788Y-114334158D01*
X191940326Y-114370666D01*
G37*
G36*
X202940326Y-114370666D02*
G01*
X203113215Y-114442279D01*
X203268811Y-114546245D01*
X203401134Y-114678568D01*
X203505100Y-114834164D01*
X203576713Y-115007053D01*
X203613221Y-115190591D01*
X203613221Y-115377725D01*
X203576713Y-115561263D01*
X203505100Y-115734152D01*
X203401134Y-115889748D01*
X203268811Y-116022071D01*
X203113215Y-116126037D01*
X202940326Y-116197650D01*
X202756788Y-116234158D01*
X202569654Y-116234158D01*
X202386116Y-116197650D01*
X202213227Y-116126037D01*
X202057631Y-116022071D01*
X201925308Y-115889748D01*
X201821342Y-115734152D01*
X201749729Y-115561263D01*
X201713221Y-115377725D01*
X201713221Y-115190591D01*
X201749729Y-115007053D01*
X201821342Y-114834164D01*
X201925308Y-114678568D01*
X202057631Y-114546245D01*
X202213227Y-114442279D01*
X202386116Y-114370666D01*
X202569654Y-114334158D01*
X202756788Y-114334158D01*
X202940326Y-114370666D01*
G37*
G36*
X97666667Y-114604444D02*
G01*
X97743913Y-114619984D01*
X97816643Y-114650296D01*
X97882061Y-114694213D01*
X97936304Y-114748694D01*
X97937655Y-114750051D01*
X97970352Y-114799217D01*
X98383161Y-115575596D01*
X98405636Y-115630193D01*
X98410086Y-115652822D01*
X98420840Y-115707508D01*
X98420667Y-115786300D01*
X98405127Y-115863546D01*
X98374815Y-115936276D01*
X98330898Y-116001694D01*
X98276178Y-116056175D01*
X98275060Y-116057288D01*
X98262370Y-116065727D01*
X98209452Y-116100919D01*
X98173021Y-116115916D01*
X98136591Y-116130913D01*
X98121387Y-116133903D01*
X98059278Y-116146117D01*
X97980486Y-116145944D01*
X97903240Y-116130404D01*
X97830510Y-116100092D01*
X97765092Y-116056175D01*
X97709499Y-116000338D01*
X97676799Y-115951167D01*
X97444791Y-115514822D01*
X97263993Y-115174791D01*
X97241518Y-115120194D01*
X97235081Y-115087457D01*
X97226314Y-115042879D01*
X97226487Y-114964088D01*
X97242027Y-114886842D01*
X97272339Y-114814112D01*
X97316256Y-114748694D01*
X97372093Y-114693101D01*
X97372094Y-114693100D01*
X97424315Y-114658372D01*
X97437702Y-114649469D01*
X97474133Y-114634472D01*
X97510563Y-114619475D01*
X97525767Y-114616485D01*
X97587876Y-114604271D01*
X97666667Y-114604444D01*
G37*
G36*
X98637909Y-114088025D02*
G01*
X98715155Y-114103565D01*
X98787885Y-114133877D01*
X98853303Y-114177794D01*
X98907546Y-114232275D01*
X98908897Y-114233632D01*
X98941594Y-114282798D01*
X99354403Y-115059177D01*
X99376878Y-115113774D01*
X99381328Y-115136403D01*
X99392082Y-115191089D01*
X99391909Y-115269881D01*
X99376369Y-115347127D01*
X99346057Y-115419857D01*
X99302140Y-115485275D01*
X99272463Y-115514822D01*
X99246302Y-115540869D01*
X99224325Y-115555484D01*
X99180694Y-115584500D01*
X99144263Y-115599497D01*
X99107833Y-115614494D01*
X99092629Y-115617484D01*
X99030520Y-115629698D01*
X98951728Y-115629525D01*
X98874482Y-115613985D01*
X98801752Y-115583673D01*
X98736334Y-115539756D01*
X98680741Y-115483919D01*
X98648041Y-115434748D01*
X98420631Y-115007051D01*
X98235235Y-114658372D01*
X98212760Y-114603775D01*
X98206323Y-114571038D01*
X98197556Y-114526460D01*
X98197729Y-114447669D01*
X98213269Y-114370423D01*
X98243581Y-114297693D01*
X98287498Y-114232275D01*
X98343335Y-114176682D01*
X98343336Y-114176681D01*
X98395557Y-114141953D01*
X98408944Y-114133050D01*
X98445375Y-114118053D01*
X98481805Y-114103056D01*
X98497009Y-114100066D01*
X98559118Y-114087852D01*
X98637909Y-114088025D01*
G37*
G36*
X135319495Y-113074508D02*
G01*
X135510583Y-113153660D01*
X135682557Y-113268569D01*
X135828810Y-113414822D01*
X135943719Y-113586796D01*
X136022871Y-113777884D01*
X136063221Y-113980742D01*
X136063221Y-114187574D01*
X136022871Y-114390432D01*
X135943719Y-114581520D01*
X135828810Y-114753494D01*
X135682557Y-114899747D01*
X135510583Y-115014656D01*
X135319495Y-115093808D01*
X135116637Y-115134158D01*
X134909805Y-115134158D01*
X134706947Y-115093808D01*
X134515859Y-115014656D01*
X134343885Y-114899747D01*
X134197632Y-114753494D01*
X134082723Y-114581520D01*
X134003571Y-114390432D01*
X133963221Y-114187574D01*
X133963221Y-113980742D01*
X134003571Y-113777884D01*
X134082723Y-113586796D01*
X134197632Y-113414822D01*
X134343885Y-113268569D01*
X134515859Y-113153660D01*
X134706947Y-113074508D01*
X134909805Y-113034158D01*
X135116637Y-113034158D01*
X135319495Y-113074508D01*
G37*
G36*
X145319495Y-113074508D02*
G01*
X145510583Y-113153660D01*
X145682557Y-113268569D01*
X145828810Y-113414822D01*
X145943719Y-113586796D01*
X146022871Y-113777884D01*
X146063221Y-113980742D01*
X146063221Y-114187574D01*
X146022871Y-114390432D01*
X145943719Y-114581520D01*
X145828810Y-114753494D01*
X145682557Y-114899747D01*
X145510583Y-115014656D01*
X145319495Y-115093808D01*
X145116637Y-115134158D01*
X144909805Y-115134158D01*
X144706947Y-115093808D01*
X144515859Y-115014656D01*
X144343885Y-114899747D01*
X144197632Y-114753494D01*
X144082723Y-114581520D01*
X144003571Y-114390432D01*
X143963221Y-114187574D01*
X143963221Y-113980742D01*
X144003571Y-113777884D01*
X144082723Y-113586796D01*
X144197632Y-113414822D01*
X144343885Y-113268569D01*
X144515859Y-113153660D01*
X144706947Y-113074508D01*
X144909805Y-113034158D01*
X145116637Y-113034158D01*
X145319495Y-113074508D01*
G37*
G36*
X173419495Y-113074508D02*
G01*
X173610583Y-113153660D01*
X173782557Y-113268569D01*
X173928810Y-113414822D01*
X174043719Y-113586796D01*
X174122871Y-113777884D01*
X174163221Y-113980742D01*
X174163221Y-114187574D01*
X174122871Y-114390432D01*
X174043719Y-114581520D01*
X173928810Y-114753494D01*
X173782557Y-114899747D01*
X173610583Y-115014656D01*
X173419495Y-115093808D01*
X173216637Y-115134158D01*
X173009805Y-115134158D01*
X172806947Y-115093808D01*
X172615859Y-115014656D01*
X172443885Y-114899747D01*
X172297632Y-114753494D01*
X172182723Y-114581520D01*
X172103571Y-114390432D01*
X172063221Y-114187574D01*
X172063221Y-113980742D01*
X172103571Y-113777884D01*
X172182723Y-113586796D01*
X172297632Y-113414822D01*
X172443885Y-113268569D01*
X172615859Y-113153660D01*
X172806947Y-113074508D01*
X173009805Y-113034158D01*
X173216637Y-113034158D01*
X173419495Y-113074508D01*
G37*
G36*
X183419495Y-113074508D02*
G01*
X183610583Y-113153660D01*
X183782557Y-113268569D01*
X183928810Y-113414822D01*
X184043719Y-113586796D01*
X184122871Y-113777884D01*
X184163221Y-113980742D01*
X184163221Y-114187574D01*
X184122871Y-114390432D01*
X184043719Y-114581520D01*
X183928810Y-114753494D01*
X183782557Y-114899747D01*
X183610583Y-115014656D01*
X183419495Y-115093808D01*
X183216637Y-115134158D01*
X183009805Y-115134158D01*
X182806947Y-115093808D01*
X182615859Y-115014656D01*
X182443885Y-114899747D01*
X182297632Y-114753494D01*
X182182723Y-114581520D01*
X182103571Y-114390432D01*
X182063221Y-114187574D01*
X182063221Y-113980742D01*
X182103571Y-113777884D01*
X182182723Y-113586796D01*
X182297632Y-113414822D01*
X182443885Y-113268569D01*
X182615859Y-113153660D01*
X182806947Y-113074508D01*
X183009805Y-113034158D01*
X183216637Y-113034158D01*
X183419495Y-113074508D01*
G37*
G36*
X99609152Y-113571606D02*
G01*
X99686398Y-113587146D01*
X99759128Y-113617458D01*
X99824546Y-113661375D01*
X99878789Y-113715856D01*
X99880140Y-113717213D01*
X99912837Y-113766379D01*
X100325646Y-114542758D01*
X100348121Y-114597355D01*
X100352571Y-114619984D01*
X100363325Y-114674670D01*
X100363152Y-114753462D01*
X100347612Y-114830708D01*
X100317300Y-114903438D01*
X100273383Y-114968856D01*
X100235020Y-115007051D01*
X100217545Y-115024450D01*
X100195568Y-115039065D01*
X100151937Y-115068081D01*
X100115506Y-115083078D01*
X100079076Y-115098075D01*
X100063872Y-115101065D01*
X100001763Y-115113279D01*
X99922971Y-115113106D01*
X99845725Y-115097566D01*
X99772995Y-115067254D01*
X99707577Y-115023337D01*
X99651984Y-114967500D01*
X99619284Y-114918329D01*
X99366164Y-114442279D01*
X99206478Y-114141953D01*
X99184003Y-114087356D01*
X99177566Y-114054619D01*
X99168799Y-114010041D01*
X99168972Y-113931250D01*
X99184512Y-113854004D01*
X99214824Y-113781274D01*
X99258741Y-113715856D01*
X99314578Y-113660263D01*
X99314579Y-113660262D01*
X99353832Y-113634158D01*
X99380187Y-113616631D01*
X99416618Y-113601634D01*
X99453048Y-113586637D01*
X99468252Y-113583647D01*
X99530361Y-113571433D01*
X99609152Y-113571606D01*
G37*
G36*
X100580394Y-113055188D02*
G01*
X100657640Y-113070728D01*
X100730370Y-113101040D01*
X100795788Y-113144957D01*
X100850031Y-113199438D01*
X100851382Y-113200795D01*
X100884079Y-113249961D01*
X101296888Y-114026340D01*
X101319363Y-114080937D01*
X101323813Y-114103566D01*
X101334567Y-114158252D01*
X101334394Y-114237044D01*
X101318854Y-114314290D01*
X101288542Y-114387020D01*
X101244625Y-114452438D01*
X101194254Y-114502589D01*
X101188787Y-114508032D01*
X101166810Y-114522647D01*
X101123179Y-114551663D01*
X101086748Y-114566660D01*
X101050318Y-114581657D01*
X101035114Y-114584647D01*
X100973005Y-114596861D01*
X100894213Y-114596688D01*
X100816967Y-114581148D01*
X100744237Y-114550836D01*
X100678819Y-114506919D01*
X100623226Y-114451082D01*
X100590526Y-114401911D01*
X100340272Y-113931250D01*
X100177720Y-113625535D01*
X100155245Y-113570938D01*
X100148808Y-113538201D01*
X100140041Y-113493623D01*
X100140214Y-113414832D01*
X100155754Y-113337586D01*
X100186066Y-113264856D01*
X100229983Y-113199438D01*
X100285820Y-113143845D01*
X100285821Y-113143844D01*
X100307798Y-113129229D01*
X100351429Y-113100213D01*
X100413867Y-113074510D01*
X100424290Y-113070219D01*
X100439494Y-113067229D01*
X100501603Y-113055015D01*
X100580394Y-113055188D01*
G37*
G36*
X159369495Y-110174508D02*
G01*
X159560583Y-110253660D01*
X159732557Y-110368569D01*
X159878810Y-110514822D01*
X159993719Y-110686796D01*
X160072871Y-110877884D01*
X160113221Y-111080742D01*
X160113221Y-111287574D01*
X160072871Y-111490432D01*
X159993719Y-111681520D01*
X159878810Y-111853494D01*
X159732557Y-111999747D01*
X159560583Y-112114656D01*
X159369495Y-112193808D01*
X159166637Y-112234158D01*
X158959805Y-112234158D01*
X158756947Y-112193808D01*
X158565859Y-112114656D01*
X158393885Y-111999747D01*
X158247632Y-111853494D01*
X158132723Y-111681520D01*
X158053571Y-111490432D01*
X158013221Y-111287574D01*
X158013221Y-111080742D01*
X158053571Y-110877884D01*
X158132723Y-110686796D01*
X158247632Y-110514822D01*
X158393885Y-110368569D01*
X158565859Y-110253660D01*
X158756947Y-110174508D01*
X158959805Y-110134158D01*
X159166637Y-110134158D01*
X159369495Y-110174508D01*
G37*
G36*
X102321866Y-110962683D02*
G01*
X102399112Y-110978223D01*
X102471842Y-111008535D01*
X102537260Y-111052452D01*
X102592853Y-111108289D01*
X102636485Y-111173898D01*
X102651482Y-111210329D01*
X102661292Y-111234158D01*
X102666479Y-111246760D01*
X102681683Y-111324072D01*
X102681510Y-111402864D01*
X102665970Y-111480110D01*
X102635658Y-111552840D01*
X102591741Y-111618258D01*
X102535904Y-111673851D01*
X102486733Y-111706551D01*
X102070353Y-111927944D01*
X101710357Y-112119357D01*
X101655760Y-112141832D01*
X101623023Y-112148269D01*
X101578445Y-112157036D01*
X101499654Y-112156863D01*
X101422408Y-112141323D01*
X101349678Y-112111011D01*
X101284260Y-112067094D01*
X101228667Y-112011257D01*
X101185035Y-111945648D01*
X101155041Y-111872786D01*
X101154641Y-111870750D01*
X101151247Y-111853494D01*
X101139837Y-111795474D01*
X101140010Y-111716683D01*
X101155550Y-111639437D01*
X101185862Y-111566707D01*
X101229779Y-111501289D01*
X101285616Y-111445696D01*
X101285617Y-111445695D01*
X101334783Y-111412998D01*
X102111162Y-111000189D01*
X102165759Y-110977714D01*
X102198496Y-110971277D01*
X102243074Y-110962510D01*
X102321866Y-110962683D01*
G37*
G36*
X178594508Y-108697566D02*
G01*
X178894789Y-108821947D01*
X179165035Y-109002519D01*
X179394860Y-109232344D01*
X179575432Y-109502590D01*
X179699813Y-109802871D01*
X179763221Y-110121647D01*
X179763221Y-110446669D01*
X179699813Y-110765445D01*
X179575432Y-111065726D01*
X179394860Y-111335972D01*
X179165035Y-111565797D01*
X178894789Y-111746369D01*
X178594508Y-111870750D01*
X178275732Y-111934158D01*
X177950710Y-111934158D01*
X177631934Y-111870750D01*
X177331653Y-111746369D01*
X177061407Y-111565797D01*
X176831582Y-111335972D01*
X176651010Y-111065726D01*
X176526629Y-110765445D01*
X176463221Y-110446669D01*
X176463221Y-110121647D01*
X176526629Y-109802871D01*
X176651010Y-109502590D01*
X176831582Y-109232344D01*
X177061407Y-109002519D01*
X177331653Y-108821947D01*
X177631934Y-108697566D01*
X177950710Y-108634158D01*
X178275732Y-108634158D01*
X178594508Y-108697566D01*
G37*
G36*
X140494508Y-108697566D02*
G01*
X140794789Y-108821947D01*
X141065035Y-109002519D01*
X141294860Y-109232344D01*
X141475432Y-109502590D01*
X141599813Y-109802871D01*
X141663221Y-110121647D01*
X141663221Y-110446669D01*
X141599813Y-110765445D01*
X141475432Y-111065726D01*
X141294860Y-111335972D01*
X141065035Y-111565797D01*
X140794789Y-111746369D01*
X140494508Y-111870750D01*
X140175732Y-111934158D01*
X139850710Y-111934158D01*
X139531934Y-111870750D01*
X139231653Y-111746369D01*
X138961407Y-111565797D01*
X138731582Y-111335972D01*
X138551010Y-111065726D01*
X138426629Y-110765445D01*
X138363221Y-110446669D01*
X138363221Y-110121647D01*
X138426629Y-109802871D01*
X138551010Y-109502590D01*
X138731582Y-109232344D01*
X138961407Y-109002519D01*
X139231653Y-108821947D01*
X139531934Y-108697566D01*
X139850710Y-108634158D01*
X140175732Y-108634158D01*
X140494508Y-108697566D01*
G37*
G36*
X134790326Y-109370666D02*
G01*
X134963215Y-109442279D01*
X135118811Y-109546245D01*
X135251134Y-109678568D01*
X135355100Y-109834164D01*
X135426713Y-110007053D01*
X135463221Y-110190591D01*
X135463221Y-110377725D01*
X135426713Y-110561263D01*
X135355100Y-110734152D01*
X135251134Y-110889748D01*
X135118811Y-111022071D01*
X134963215Y-111126037D01*
X134790326Y-111197650D01*
X134606788Y-111234158D01*
X134419654Y-111234158D01*
X134236116Y-111197650D01*
X134063227Y-111126037D01*
X133907631Y-111022071D01*
X133775308Y-110889748D01*
X133671342Y-110734152D01*
X133599729Y-110561263D01*
X133563221Y-110377725D01*
X133563221Y-110190591D01*
X133599729Y-110007053D01*
X133671342Y-109834164D01*
X133775308Y-109678568D01*
X133907631Y-109546245D01*
X134063227Y-109442279D01*
X134236116Y-109370666D01*
X134419654Y-109334158D01*
X134606788Y-109334158D01*
X134790326Y-109370666D01*
G37*
G36*
X183890326Y-109370666D02*
G01*
X184063215Y-109442279D01*
X184218811Y-109546245D01*
X184351134Y-109678568D01*
X184455100Y-109834164D01*
X184526713Y-110007053D01*
X184563221Y-110190591D01*
X184563221Y-110377725D01*
X184526713Y-110561263D01*
X184455100Y-110734152D01*
X184351134Y-110889748D01*
X184218811Y-111022071D01*
X184063215Y-111126037D01*
X183890326Y-111197650D01*
X183706788Y-111234158D01*
X183519654Y-111234158D01*
X183336116Y-111197650D01*
X183163227Y-111126037D01*
X183007631Y-111022071D01*
X182875308Y-110889748D01*
X182771342Y-110734152D01*
X182699729Y-110561263D01*
X182663221Y-110377725D01*
X182663221Y-110190591D01*
X182699729Y-110007053D01*
X182771342Y-109834164D01*
X182875308Y-109678568D01*
X183007631Y-109546245D01*
X183163227Y-109442279D01*
X183336116Y-109370666D01*
X183519654Y-109334158D01*
X183706788Y-109334158D01*
X183890326Y-109370666D01*
G37*
G36*
X145790326Y-109370666D02*
G01*
X145963215Y-109442279D01*
X146118811Y-109546245D01*
X146251134Y-109678568D01*
X146355100Y-109834164D01*
X146426713Y-110007053D01*
X146463221Y-110190591D01*
X146463221Y-110377725D01*
X146426713Y-110561263D01*
X146355100Y-110734152D01*
X146251134Y-110889748D01*
X146118811Y-111022071D01*
X145963215Y-111126037D01*
X145790326Y-111197650D01*
X145606788Y-111234158D01*
X145419654Y-111234158D01*
X145236116Y-111197650D01*
X145063227Y-111126037D01*
X144907631Y-111022071D01*
X144775308Y-110889748D01*
X144671342Y-110734152D01*
X144599729Y-110561263D01*
X144563221Y-110377725D01*
X144563221Y-110190591D01*
X144599729Y-110007053D01*
X144671342Y-109834164D01*
X144775308Y-109678568D01*
X144907631Y-109546245D01*
X145063227Y-109442279D01*
X145236116Y-109370666D01*
X145419654Y-109334158D01*
X145606788Y-109334158D01*
X145790326Y-109370666D01*
G37*
G36*
X172890326Y-109370666D02*
G01*
X173063215Y-109442279D01*
X173218811Y-109546245D01*
X173351134Y-109678568D01*
X173455100Y-109834164D01*
X173526713Y-110007053D01*
X173563221Y-110190591D01*
X173563221Y-110377725D01*
X173526713Y-110561263D01*
X173455100Y-110734152D01*
X173351134Y-110889748D01*
X173218811Y-111022071D01*
X173063215Y-111126037D01*
X172890326Y-111197650D01*
X172706788Y-111234158D01*
X172519654Y-111234158D01*
X172336116Y-111197650D01*
X172163227Y-111126037D01*
X172007631Y-111022071D01*
X171875308Y-110889748D01*
X171771342Y-110734152D01*
X171699729Y-110561263D01*
X171663221Y-110377725D01*
X171663221Y-110190591D01*
X171699729Y-110007053D01*
X171771342Y-109834164D01*
X171875308Y-109678568D01*
X172007631Y-109546245D01*
X172163227Y-109442279D01*
X172336116Y-109370666D01*
X172519654Y-109334158D01*
X172706788Y-109334158D01*
X172890326Y-109370666D01*
G37*
G36*
X101805447Y-109991441D02*
G01*
X101882693Y-110006981D01*
X101955423Y-110037293D01*
X102020841Y-110081210D01*
X102076434Y-110137047D01*
X102120066Y-110202656D01*
X102150060Y-110275518D01*
X102165264Y-110352830D01*
X102165091Y-110431622D01*
X102149551Y-110508868D01*
X102119239Y-110581598D01*
X102075322Y-110647016D01*
X102019485Y-110702609D01*
X101970314Y-110735309D01*
X101553934Y-110956702D01*
X101193938Y-111148115D01*
X101139341Y-111170590D01*
X101106604Y-111177027D01*
X101062026Y-111185794D01*
X100983235Y-111185621D01*
X100905989Y-111170081D01*
X100833259Y-111139769D01*
X100767841Y-111095852D01*
X100712248Y-111040015D01*
X100668616Y-110974406D01*
X100638622Y-110901544D01*
X100623418Y-110824232D01*
X100623591Y-110745441D01*
X100639131Y-110668195D01*
X100669443Y-110595465D01*
X100713360Y-110530047D01*
X100769197Y-110474454D01*
X100769198Y-110474453D01*
X100818364Y-110441756D01*
X101594743Y-110028947D01*
X101649340Y-110006472D01*
X101682077Y-110000035D01*
X101726655Y-109991268D01*
X101805447Y-109991441D01*
G37*
G36*
X101289029Y-109020199D02*
G01*
X101366275Y-109035739D01*
X101439005Y-109066051D01*
X101504423Y-109109968D01*
X101560016Y-109165805D01*
X101603648Y-109231414D01*
X101633642Y-109304276D01*
X101648846Y-109381588D01*
X101648673Y-109460380D01*
X101633133Y-109537626D01*
X101602821Y-109610356D01*
X101558904Y-109675774D01*
X101503067Y-109731367D01*
X101453896Y-109764067D01*
X101037516Y-109985460D01*
X100677520Y-110176873D01*
X100622923Y-110199348D01*
X100590186Y-110205785D01*
X100545608Y-110214552D01*
X100466817Y-110214379D01*
X100389571Y-110198839D01*
X100316841Y-110168527D01*
X100251423Y-110124610D01*
X100195830Y-110068773D01*
X100152198Y-110003164D01*
X100122204Y-109930302D01*
X100107000Y-109852990D01*
X100107173Y-109774199D01*
X100122713Y-109696953D01*
X100153025Y-109624223D01*
X100196942Y-109558805D01*
X100252779Y-109503212D01*
X100252780Y-109503211D01*
X100301946Y-109470514D01*
X101078325Y-109057705D01*
X101132922Y-109035230D01*
X101165659Y-109028793D01*
X101210237Y-109020026D01*
X101289029Y-109020199D01*
G37*
G36*
X164369495Y-108074508D02*
G01*
X164560583Y-108153660D01*
X164732557Y-108268569D01*
X164878810Y-108414822D01*
X164993719Y-108586796D01*
X165072871Y-108777884D01*
X165113221Y-108980742D01*
X165113221Y-109187574D01*
X165072871Y-109390432D01*
X164993719Y-109581520D01*
X164878810Y-109753494D01*
X164732557Y-109899747D01*
X164560583Y-110014656D01*
X164369495Y-110093808D01*
X164166637Y-110134158D01*
X163959805Y-110134158D01*
X163756947Y-110093808D01*
X163565859Y-110014656D01*
X163393885Y-109899747D01*
X163247632Y-109753494D01*
X163132723Y-109581520D01*
X163053571Y-109390432D01*
X163013221Y-109187574D01*
X163013221Y-108980742D01*
X163053571Y-108777884D01*
X163132723Y-108586796D01*
X163247632Y-108414822D01*
X163393885Y-108268569D01*
X163565859Y-108153660D01*
X163756947Y-108074508D01*
X163959805Y-108034158D01*
X164166637Y-108034158D01*
X164369495Y-108074508D01*
G37*
G36*
X154369495Y-108074508D02*
G01*
X154560583Y-108153660D01*
X154732557Y-108268569D01*
X154878810Y-108414822D01*
X154993719Y-108586796D01*
X155072871Y-108777884D01*
X155113221Y-108980742D01*
X155113221Y-109187574D01*
X155072871Y-109390432D01*
X154993719Y-109581520D01*
X154878810Y-109753494D01*
X154732557Y-109899747D01*
X154560583Y-110014656D01*
X154369495Y-110093808D01*
X154166637Y-110134158D01*
X153959805Y-110134158D01*
X153756947Y-110093808D01*
X153565859Y-110014656D01*
X153393885Y-109899747D01*
X153247632Y-109753494D01*
X153132723Y-109581520D01*
X153053571Y-109390432D01*
X153013221Y-109187574D01*
X153013221Y-108980742D01*
X153053571Y-108777884D01*
X153132723Y-108586796D01*
X153247632Y-108414822D01*
X153393885Y-108268569D01*
X153565859Y-108153660D01*
X153756947Y-108074508D01*
X153959805Y-108034158D01*
X154166637Y-108034158D01*
X154369495Y-108074508D01*
G37*
G36*
X100772610Y-108048956D02*
G01*
X100849856Y-108064496D01*
X100922586Y-108094808D01*
X100988004Y-108138725D01*
X101043597Y-108194562D01*
X101087229Y-108260171D01*
X101117223Y-108333033D01*
X101132427Y-108410345D01*
X101132254Y-108489137D01*
X101116714Y-108566383D01*
X101086402Y-108639113D01*
X101042485Y-108704531D01*
X100986648Y-108760124D01*
X100937477Y-108792824D01*
X100584048Y-108980745D01*
X100161101Y-109205630D01*
X100106504Y-109228105D01*
X100073767Y-109234542D01*
X100029189Y-109243309D01*
X99950398Y-109243136D01*
X99873152Y-109227596D01*
X99800422Y-109197284D01*
X99735004Y-109153367D01*
X99679411Y-109097530D01*
X99635779Y-109031921D01*
X99605785Y-108959059D01*
X99590581Y-108881747D01*
X99590754Y-108802956D01*
X99606294Y-108725710D01*
X99636606Y-108652980D01*
X99680523Y-108587562D01*
X99736360Y-108531969D01*
X99736361Y-108531968D01*
X99785527Y-108499271D01*
X100561906Y-108086462D01*
X100616503Y-108063987D01*
X100649240Y-108057550D01*
X100693818Y-108048783D01*
X100772610Y-108048956D01*
G37*
G36*
X216519495Y-107124508D02*
G01*
X216710583Y-107203660D01*
X216882557Y-107318569D01*
X217028810Y-107464822D01*
X217143719Y-107636796D01*
X217222871Y-107827884D01*
X217263221Y-108030742D01*
X217263221Y-108237574D01*
X217222871Y-108440432D01*
X217143719Y-108631520D01*
X217028810Y-108803494D01*
X216882557Y-108949747D01*
X216710583Y-109064656D01*
X216519495Y-109143808D01*
X216316637Y-109184158D01*
X216109805Y-109184158D01*
X215906947Y-109143808D01*
X215715859Y-109064656D01*
X215543885Y-108949747D01*
X215397632Y-108803494D01*
X215282723Y-108631520D01*
X215203571Y-108440432D01*
X215163221Y-108237574D01*
X215163221Y-108030742D01*
X215203571Y-107827884D01*
X215282723Y-107636796D01*
X215397632Y-107464822D01*
X215543885Y-107318569D01*
X215715859Y-107203660D01*
X215906947Y-107124508D01*
X216109805Y-107084158D01*
X216316637Y-107084158D01*
X216519495Y-107124508D01*
G37*
G36*
X100256191Y-107077714D02*
G01*
X100333437Y-107093254D01*
X100406167Y-107123566D01*
X100471585Y-107167483D01*
X100527178Y-107223320D01*
X100570810Y-107288929D01*
X100600804Y-107361791D01*
X100616008Y-107439103D01*
X100615835Y-107517895D01*
X100600295Y-107595141D01*
X100569983Y-107667871D01*
X100526066Y-107733289D01*
X100470229Y-107788882D01*
X100421058Y-107821582D01*
X100027684Y-108030742D01*
X99644682Y-108234388D01*
X99590085Y-108256863D01*
X99557348Y-108263300D01*
X99512770Y-108272067D01*
X99433979Y-108271894D01*
X99356733Y-108256354D01*
X99284003Y-108226042D01*
X99218585Y-108182125D01*
X99162992Y-108126288D01*
X99119360Y-108060679D01*
X99089366Y-107987817D01*
X99074162Y-107910505D01*
X99074335Y-107831714D01*
X99089875Y-107754468D01*
X99120187Y-107681738D01*
X99164104Y-107616320D01*
X99219941Y-107560727D01*
X99219942Y-107560726D01*
X99269108Y-107528029D01*
X100045487Y-107115220D01*
X100100084Y-107092745D01*
X100132821Y-107086308D01*
X100177399Y-107077541D01*
X100256191Y-107077714D01*
G37*
G36*
X99739773Y-106106472D02*
G01*
X99817019Y-106122012D01*
X99889749Y-106152324D01*
X99955167Y-106196241D01*
X100010760Y-106252078D01*
X100054392Y-106317687D01*
X100061918Y-106335970D01*
X100076920Y-106372411D01*
X100084386Y-106390549D01*
X100099590Y-106467861D01*
X100099417Y-106546653D01*
X100083877Y-106623899D01*
X100053565Y-106696629D01*
X100009648Y-106762047D01*
X99953811Y-106817640D01*
X99904640Y-106850340D01*
X99488260Y-107071733D01*
X99128264Y-107263146D01*
X99073667Y-107285621D01*
X99040930Y-107292058D01*
X98996352Y-107300825D01*
X98917561Y-107300652D01*
X98840315Y-107285112D01*
X98767585Y-107254800D01*
X98702167Y-107210883D01*
X98646574Y-107155046D01*
X98602942Y-107089437D01*
X98587945Y-107053006D01*
X98572948Y-107016576D01*
X98567177Y-106987228D01*
X98557744Y-106939263D01*
X98557917Y-106860472D01*
X98573457Y-106783226D01*
X98603769Y-106710496D01*
X98647686Y-106645078D01*
X98703523Y-106589485D01*
X98703524Y-106589484D01*
X98752690Y-106556787D01*
X99529069Y-106143978D01*
X99583666Y-106121503D01*
X99616403Y-106115066D01*
X99660981Y-106106299D01*
X99739773Y-106106472D01*
G37*
G36*
X211519495Y-105024508D02*
G01*
X211710583Y-105103660D01*
X211882557Y-105218569D01*
X212028810Y-105364822D01*
X212143719Y-105536796D01*
X212222871Y-105727884D01*
X212263221Y-105930742D01*
X212263221Y-106137574D01*
X212222871Y-106340432D01*
X212143719Y-106531520D01*
X212028810Y-106703494D01*
X211882557Y-106849747D01*
X211710583Y-106964656D01*
X211519495Y-107043808D01*
X211316637Y-107084158D01*
X211109805Y-107084158D01*
X210906947Y-107043808D01*
X210715859Y-106964656D01*
X210543885Y-106849747D01*
X210397632Y-106703494D01*
X210282723Y-106531520D01*
X210203571Y-106340432D01*
X210163221Y-106137574D01*
X210163221Y-105930742D01*
X210203571Y-105727884D01*
X210282723Y-105536796D01*
X210397632Y-105364822D01*
X210543885Y-105218569D01*
X210715859Y-105103660D01*
X210906947Y-105024508D01*
X211109805Y-104984158D01*
X211316637Y-104984158D01*
X211519495Y-105024508D01*
G37*
G36*
X221519495Y-105024508D02*
G01*
X221710583Y-105103660D01*
X221882557Y-105218569D01*
X222028810Y-105364822D01*
X222143719Y-105536796D01*
X222222871Y-105727884D01*
X222263221Y-105930742D01*
X222263221Y-106137574D01*
X222222871Y-106340432D01*
X222143719Y-106531520D01*
X222028810Y-106703494D01*
X221882557Y-106849747D01*
X221710583Y-106964656D01*
X221519495Y-107043808D01*
X221316637Y-107084158D01*
X221109805Y-107084158D01*
X220906947Y-107043808D01*
X220715859Y-106964656D01*
X220543885Y-106849747D01*
X220397632Y-106703494D01*
X220282723Y-106531520D01*
X220203571Y-106340432D01*
X220163221Y-106137574D01*
X220163221Y-105930742D01*
X220203571Y-105727884D01*
X220282723Y-105536796D01*
X220397632Y-105364822D01*
X220543885Y-105218569D01*
X220715859Y-105103660D01*
X220906947Y-105024508D01*
X221109805Y-104984158D01*
X221316637Y-104984158D01*
X221519495Y-105024508D01*
G37*
G36*
X82854655Y-105491580D02*
G01*
X82931901Y-105507120D01*
X83004631Y-105537432D01*
X83070049Y-105581349D01*
X83124292Y-105635830D01*
X83125643Y-105637187D01*
X83158340Y-105686353D01*
X83571149Y-106462732D01*
X83593624Y-106517329D01*
X83599390Y-106546653D01*
X83608828Y-106594644D01*
X83608655Y-106673436D01*
X83593115Y-106750682D01*
X83562803Y-106823412D01*
X83518886Y-106888830D01*
X83473359Y-106934158D01*
X83463048Y-106944424D01*
X83441071Y-106959039D01*
X83397440Y-106988055D01*
X83361009Y-107003052D01*
X83324579Y-107018049D01*
X83309375Y-107021039D01*
X83247266Y-107033253D01*
X83168474Y-107033080D01*
X83091228Y-107017540D01*
X83018498Y-106987228D01*
X82953080Y-106943311D01*
X82897487Y-106887474D01*
X82864787Y-106838303D01*
X82626712Y-106390548D01*
X82451981Y-106061927D01*
X82429506Y-106007330D01*
X82421776Y-105968020D01*
X82414302Y-105930015D01*
X82414475Y-105851224D01*
X82430015Y-105773978D01*
X82460327Y-105701248D01*
X82504244Y-105635830D01*
X82560081Y-105580237D01*
X82560082Y-105580236D01*
X82612303Y-105545508D01*
X82625690Y-105536605D01*
X82662121Y-105521608D01*
X82698551Y-105506611D01*
X82713755Y-105503621D01*
X82775864Y-105491407D01*
X82854655Y-105491580D01*
G37*
G36*
X159544508Y-103697566D02*
G01*
X159844789Y-103821947D01*
X160115035Y-104002519D01*
X160344860Y-104232344D01*
X160525432Y-104502590D01*
X160649813Y-104802871D01*
X160713221Y-105121647D01*
X160713221Y-105446669D01*
X160649813Y-105765445D01*
X160525432Y-106065726D01*
X160344860Y-106335972D01*
X160115035Y-106565797D01*
X159844789Y-106746369D01*
X159544508Y-106870750D01*
X159225732Y-106934158D01*
X158900710Y-106934158D01*
X158581934Y-106870750D01*
X158281653Y-106746369D01*
X158011407Y-106565797D01*
X157781582Y-106335972D01*
X157601010Y-106065726D01*
X157476629Y-105765445D01*
X157413221Y-105446669D01*
X157413221Y-105121647D01*
X157476629Y-104802871D01*
X157601010Y-104502590D01*
X157781582Y-104232344D01*
X158011407Y-104002519D01*
X158281653Y-103821947D01*
X158581934Y-103697566D01*
X158900710Y-103634158D01*
X159225732Y-103634158D01*
X159544508Y-103697566D01*
G37*
G36*
X83825897Y-104975161D02*
G01*
X83903143Y-104990701D01*
X83975873Y-105021013D01*
X84041291Y-105064930D01*
X84095534Y-105119411D01*
X84096885Y-105120768D01*
X84129582Y-105169934D01*
X84542391Y-105946313D01*
X84564866Y-106000910D01*
X84566128Y-106007330D01*
X84580070Y-106078225D01*
X84579897Y-106157017D01*
X84564357Y-106234263D01*
X84534045Y-106306993D01*
X84490128Y-106372411D01*
X84471911Y-106390548D01*
X84434290Y-106428005D01*
X84412313Y-106442620D01*
X84368682Y-106471636D01*
X84332251Y-106486633D01*
X84295821Y-106501630D01*
X84280617Y-106504620D01*
X84218508Y-106516834D01*
X84139716Y-106516661D01*
X84062470Y-106501121D01*
X83989740Y-106470809D01*
X83924322Y-106426892D01*
X83868729Y-106371055D01*
X83836029Y-106321884D01*
X83600595Y-105879095D01*
X83423223Y-105545508D01*
X83400748Y-105490911D01*
X83392048Y-105446669D01*
X83385544Y-105413596D01*
X83385717Y-105334805D01*
X83401257Y-105257559D01*
X83431569Y-105184829D01*
X83475486Y-105119411D01*
X83531323Y-105063818D01*
X83531324Y-105063817D01*
X83583545Y-105029089D01*
X83596932Y-105020186D01*
X83633363Y-105005189D01*
X83669793Y-104990192D01*
X83684997Y-104987202D01*
X83747106Y-104974988D01*
X83825897Y-104975161D01*
G37*
G36*
X99223354Y-105135229D02*
G01*
X99300600Y-105150769D01*
X99373330Y-105181081D01*
X99438748Y-105224998D01*
X99494341Y-105280835D01*
X99537973Y-105346444D01*
X99542870Y-105358340D01*
X99565617Y-105413596D01*
X99567967Y-105419306D01*
X99583171Y-105496618D01*
X99582998Y-105575410D01*
X99567458Y-105652656D01*
X99537146Y-105725386D01*
X99493229Y-105790804D01*
X99437392Y-105846397D01*
X99388221Y-105879097D01*
X98971841Y-106100490D01*
X98611845Y-106291903D01*
X98557248Y-106314378D01*
X98524511Y-106320815D01*
X98479933Y-106329582D01*
X98401142Y-106329409D01*
X98323896Y-106313869D01*
X98251166Y-106283557D01*
X98185748Y-106239640D01*
X98130155Y-106183803D01*
X98086523Y-106118194D01*
X98056529Y-106045332D01*
X98041325Y-105968020D01*
X98041498Y-105889229D01*
X98057038Y-105811983D01*
X98087350Y-105739253D01*
X98131267Y-105673835D01*
X98187104Y-105618242D01*
X98187105Y-105618241D01*
X98236271Y-105585544D01*
X99012650Y-105172735D01*
X99067247Y-105150260D01*
X99099984Y-105143823D01*
X99144562Y-105135056D01*
X99223354Y-105135229D01*
G37*
G36*
X164840326Y-104370666D02*
G01*
X165013215Y-104442279D01*
X165168811Y-104546245D01*
X165301134Y-104678568D01*
X165405100Y-104834164D01*
X165476713Y-105007053D01*
X165513221Y-105190591D01*
X165513221Y-105377725D01*
X165476713Y-105561263D01*
X165405100Y-105734152D01*
X165301134Y-105889748D01*
X165168811Y-106022071D01*
X165013215Y-106126037D01*
X164840326Y-106197650D01*
X164656788Y-106234158D01*
X164469654Y-106234158D01*
X164286116Y-106197650D01*
X164113227Y-106126037D01*
X163957631Y-106022071D01*
X163825308Y-105889748D01*
X163721342Y-105734152D01*
X163649729Y-105561263D01*
X163613221Y-105377725D01*
X163613221Y-105190591D01*
X163649729Y-105007053D01*
X163721342Y-104834164D01*
X163825308Y-104678568D01*
X163957631Y-104546245D01*
X164113227Y-104442279D01*
X164286116Y-104370666D01*
X164469654Y-104334158D01*
X164656788Y-104334158D01*
X164840326Y-104370666D01*
G37*
G36*
X153840326Y-104370666D02*
G01*
X154013215Y-104442279D01*
X154168811Y-104546245D01*
X154301134Y-104678568D01*
X154405100Y-104834164D01*
X154476713Y-105007053D01*
X154513221Y-105190591D01*
X154513221Y-105377725D01*
X154476713Y-105561263D01*
X154405100Y-105734152D01*
X154301134Y-105889748D01*
X154168811Y-106022071D01*
X154013215Y-106126037D01*
X153840326Y-106197650D01*
X153656788Y-106234158D01*
X153469654Y-106234158D01*
X153286116Y-106197650D01*
X153113227Y-106126037D01*
X152957631Y-106022071D01*
X152825308Y-105889748D01*
X152721342Y-105734152D01*
X152649729Y-105561263D01*
X152613221Y-105377725D01*
X152613221Y-105190591D01*
X152649729Y-105007053D01*
X152721342Y-104834164D01*
X152825308Y-104678568D01*
X152957631Y-104546245D01*
X153113227Y-104442279D01*
X153286116Y-104370666D01*
X153469654Y-104334158D01*
X153656788Y-104334158D01*
X153840326Y-104370666D01*
G37*
G36*
X84797139Y-104458742D02*
G01*
X84874385Y-104474282D01*
X84947115Y-104504594D01*
X85012533Y-104548511D01*
X85066776Y-104602992D01*
X85068127Y-104604349D01*
X85100824Y-104653515D01*
X85513633Y-105429894D01*
X85536108Y-105484491D01*
X85540558Y-105507120D01*
X85551312Y-105561806D01*
X85551139Y-105640598D01*
X85535599Y-105717844D01*
X85505287Y-105790574D01*
X85461370Y-105855992D01*
X85406650Y-105910473D01*
X85405532Y-105911586D01*
X85383555Y-105926201D01*
X85339924Y-105955217D01*
X85308823Y-105968020D01*
X85267063Y-105985211D01*
X85251859Y-105988201D01*
X85189750Y-106000415D01*
X85110958Y-106000242D01*
X85033712Y-105984702D01*
X84960982Y-105954390D01*
X84895564Y-105910473D01*
X84839971Y-105854636D01*
X84807271Y-105805465D01*
X84545059Y-105312314D01*
X84394465Y-105029089D01*
X84371990Y-104974492D01*
X84365553Y-104941755D01*
X84356786Y-104897177D01*
X84356959Y-104818386D01*
X84372499Y-104741140D01*
X84402811Y-104668410D01*
X84446728Y-104602992D01*
X84502565Y-104547399D01*
X84502566Y-104547398D01*
X84535681Y-104525376D01*
X84568174Y-104503767D01*
X84604605Y-104488770D01*
X84641035Y-104473773D01*
X84656239Y-104470783D01*
X84718348Y-104458569D01*
X84797139Y-104458742D01*
G37*
G36*
X85768382Y-103942324D02*
G01*
X85845628Y-103957864D01*
X85918358Y-103988176D01*
X85983776Y-104032093D01*
X86038019Y-104086574D01*
X86039370Y-104087931D01*
X86072067Y-104137097D01*
X86484876Y-104913476D01*
X86507351Y-104968073D01*
X86512996Y-104996779D01*
X86522555Y-105045388D01*
X86522382Y-105124180D01*
X86506842Y-105201426D01*
X86476530Y-105274156D01*
X86432613Y-105339574D01*
X86377893Y-105394055D01*
X86376775Y-105395168D01*
X86354798Y-105409783D01*
X86311167Y-105438799D01*
X86292056Y-105446666D01*
X86238306Y-105468793D01*
X86223102Y-105471783D01*
X86160993Y-105483997D01*
X86082201Y-105483824D01*
X86004955Y-105468284D01*
X85932225Y-105437972D01*
X85866807Y-105394055D01*
X85811214Y-105338218D01*
X85778514Y-105289047D01*
X85536649Y-104834164D01*
X85365708Y-104512671D01*
X85343233Y-104458074D01*
X85336796Y-104425337D01*
X85328029Y-104380759D01*
X85328202Y-104301968D01*
X85343742Y-104224722D01*
X85374054Y-104151992D01*
X85417971Y-104086574D01*
X85473808Y-104030981D01*
X85473809Y-104030980D01*
X85501524Y-104012549D01*
X85539417Y-103987349D01*
X85575848Y-103972352D01*
X85612278Y-103957355D01*
X85627482Y-103954365D01*
X85689591Y-103942151D01*
X85768382Y-103942324D01*
G37*
G36*
X98706935Y-104163987D02*
G01*
X98784181Y-104179527D01*
X98856911Y-104209839D01*
X98922329Y-104253756D01*
X98977922Y-104309593D01*
X99021554Y-104375202D01*
X99026451Y-104387098D01*
X99051548Y-104448063D01*
X99052157Y-104451159D01*
X99066752Y-104525376D01*
X99066579Y-104604168D01*
X99051039Y-104681414D01*
X99020727Y-104754144D01*
X98976810Y-104819562D01*
X98920973Y-104875155D01*
X98871802Y-104907855D01*
X98469711Y-105121650D01*
X98095426Y-105320661D01*
X98040829Y-105343136D01*
X98008092Y-105349573D01*
X97963514Y-105358340D01*
X97884723Y-105358167D01*
X97807477Y-105342627D01*
X97734747Y-105312315D01*
X97669329Y-105268398D01*
X97613736Y-105212561D01*
X97606332Y-105201427D01*
X97595293Y-105184829D01*
X97570104Y-105146952D01*
X97540110Y-105074090D01*
X97524906Y-104996778D01*
X97525079Y-104917987D01*
X97540619Y-104840741D01*
X97570931Y-104768011D01*
X97614848Y-104702593D01*
X97670685Y-104647000D01*
X97670686Y-104646999D01*
X97719852Y-104614302D01*
X98496231Y-104201493D01*
X98550828Y-104179018D01*
X98583565Y-104172581D01*
X98628143Y-104163814D01*
X98706935Y-104163987D01*
G37*
G36*
X86739624Y-103425905D02*
G01*
X86816870Y-103441445D01*
X86889600Y-103471757D01*
X86955018Y-103515674D01*
X86993309Y-103554133D01*
X87010612Y-103571512D01*
X87043309Y-103620678D01*
X87456118Y-104397057D01*
X87478593Y-104451654D01*
X87483043Y-104474283D01*
X87493797Y-104528969D01*
X87493624Y-104607761D01*
X87478084Y-104685007D01*
X87447772Y-104757737D01*
X87403855Y-104823155D01*
X87351628Y-104875154D01*
X87348017Y-104878749D01*
X87326040Y-104893364D01*
X87282409Y-104922380D01*
X87245978Y-104937377D01*
X87209548Y-104952374D01*
X87194344Y-104955364D01*
X87132235Y-104967578D01*
X87053443Y-104967405D01*
X86976197Y-104951865D01*
X86903467Y-104921553D01*
X86838049Y-104877636D01*
X86782456Y-104821799D01*
X86749756Y-104772628D01*
X86503557Y-104309593D01*
X86336950Y-103996252D01*
X86314475Y-103941655D01*
X86307053Y-103903912D01*
X86299271Y-103864340D01*
X86299444Y-103785549D01*
X86314984Y-103708303D01*
X86345296Y-103635573D01*
X86389213Y-103570155D01*
X86445050Y-103514562D01*
X86445051Y-103514561D01*
X86497272Y-103479833D01*
X86510659Y-103470930D01*
X86547090Y-103455933D01*
X86583520Y-103440936D01*
X86598724Y-103437946D01*
X86660833Y-103425732D01*
X86739624Y-103425905D01*
G37*
G36*
X87710866Y-102909486D02*
G01*
X87788112Y-102925026D01*
X87860842Y-102955338D01*
X87926260Y-102999255D01*
X87957609Y-103030742D01*
X87981854Y-103055093D01*
X88014551Y-103104259D01*
X88427360Y-103880638D01*
X88449835Y-103935235D01*
X88454285Y-103957864D01*
X88465039Y-104012550D01*
X88464866Y-104091342D01*
X88449326Y-104168588D01*
X88419014Y-104241318D01*
X88375097Y-104306736D01*
X88320377Y-104361217D01*
X88319259Y-104362330D01*
X88297282Y-104376945D01*
X88253651Y-104405961D01*
X88217220Y-104420958D01*
X88180790Y-104435955D01*
X88165586Y-104438945D01*
X88103477Y-104451159D01*
X88024685Y-104450986D01*
X87947439Y-104435446D01*
X87874709Y-104405134D01*
X87809291Y-104361217D01*
X87753698Y-104305380D01*
X87720998Y-104256209D01*
X87476710Y-103796769D01*
X87308192Y-103479833D01*
X87285717Y-103425236D01*
X87276462Y-103378172D01*
X87270513Y-103347921D01*
X87270686Y-103269130D01*
X87286226Y-103191884D01*
X87316538Y-103119154D01*
X87360455Y-103053736D01*
X87416292Y-102998143D01*
X87416293Y-102998142D01*
X87450337Y-102975502D01*
X87481901Y-102954511D01*
X87518332Y-102939514D01*
X87554762Y-102924517D01*
X87569966Y-102921527D01*
X87632075Y-102909313D01*
X87710866Y-102909486D01*
G37*
G36*
X98190516Y-103192745D02*
G01*
X98267762Y-103208285D01*
X98340492Y-103238597D01*
X98405910Y-103282514D01*
X98452683Y-103329492D01*
X98461504Y-103338352D01*
X98467868Y-103347922D01*
X98505135Y-103403960D01*
X98514098Y-103425733D01*
X98533045Y-103471758D01*
X98535129Y-103476822D01*
X98550333Y-103554134D01*
X98550160Y-103632926D01*
X98534620Y-103710172D01*
X98504308Y-103782902D01*
X98460391Y-103848320D01*
X98404554Y-103903913D01*
X98355383Y-103936613D01*
X97978326Y-104137097D01*
X97579007Y-104349419D01*
X97524410Y-104371894D01*
X97491673Y-104378331D01*
X97447095Y-104387098D01*
X97368304Y-104386925D01*
X97291058Y-104371385D01*
X97218328Y-104341073D01*
X97152910Y-104297156D01*
X97097317Y-104241319D01*
X97091350Y-104232346D01*
X97082701Y-104219341D01*
X97053685Y-104175710D01*
X97023691Y-104102848D01*
X97008487Y-104025536D01*
X97008660Y-103946745D01*
X97024200Y-103869499D01*
X97054512Y-103796769D01*
X97098429Y-103731351D01*
X97154266Y-103675758D01*
X97154267Y-103675757D01*
X97203433Y-103643060D01*
X97979812Y-103230251D01*
X98034409Y-103207776D01*
X98067146Y-103201339D01*
X98111724Y-103192572D01*
X98190516Y-103192745D01*
G37*
G36*
X121269495Y-102124508D02*
G01*
X121460583Y-102203660D01*
X121632557Y-102318569D01*
X121778810Y-102464822D01*
X121893719Y-102636796D01*
X121972871Y-102827884D01*
X122013221Y-103030742D01*
X122013221Y-103237574D01*
X121972871Y-103440432D01*
X121893719Y-103631520D01*
X121778810Y-103803494D01*
X121632557Y-103949747D01*
X121460583Y-104064656D01*
X121269495Y-104143808D01*
X121066637Y-104184158D01*
X120859805Y-104184158D01*
X120656947Y-104143808D01*
X120465859Y-104064656D01*
X120293885Y-103949747D01*
X120147632Y-103803494D01*
X120032723Y-103631520D01*
X119953571Y-103440432D01*
X119913221Y-103237574D01*
X119913221Y-103030742D01*
X119953571Y-102827884D01*
X120032723Y-102636796D01*
X120147632Y-102464822D01*
X120293885Y-102318569D01*
X120465859Y-102203660D01*
X120656947Y-102124508D01*
X120859805Y-102084158D01*
X121066637Y-102084158D01*
X121269495Y-102124508D01*
G37*
G36*
X197469495Y-102124508D02*
G01*
X197660583Y-102203660D01*
X197832557Y-102318569D01*
X197978810Y-102464822D01*
X198093719Y-102636796D01*
X198172871Y-102827884D01*
X198213221Y-103030742D01*
X198213221Y-103237574D01*
X198172871Y-103440432D01*
X198093719Y-103631520D01*
X197978810Y-103803494D01*
X197832557Y-103949747D01*
X197660583Y-104064656D01*
X197469495Y-104143808D01*
X197266637Y-104184158D01*
X197059805Y-104184158D01*
X196856947Y-104143808D01*
X196665859Y-104064656D01*
X196493885Y-103949747D01*
X196347632Y-103803494D01*
X196232723Y-103631520D01*
X196153571Y-103440432D01*
X196113221Y-103237574D01*
X196113221Y-103030742D01*
X196153571Y-102827884D01*
X196232723Y-102636796D01*
X196347632Y-102464822D01*
X196493885Y-102318569D01*
X196665859Y-102203660D01*
X196856947Y-102124508D01*
X197059805Y-102084158D01*
X197266637Y-102084158D01*
X197469495Y-102124508D01*
G37*
G36*
X88682109Y-102393067D02*
G01*
X88759355Y-102408607D01*
X88832085Y-102438919D01*
X88897503Y-102482836D01*
X88951746Y-102537317D01*
X88953097Y-102538674D01*
X88985794Y-102587840D01*
X89398603Y-103364219D01*
X89421078Y-103418816D01*
X89425528Y-103441445D01*
X89436282Y-103496131D01*
X89436109Y-103574923D01*
X89420569Y-103652169D01*
X89390257Y-103724899D01*
X89346340Y-103790317D01*
X89315775Y-103820748D01*
X89290502Y-103845911D01*
X89268525Y-103860526D01*
X89224894Y-103889542D01*
X89189986Y-103903912D01*
X89152033Y-103919536D01*
X89136829Y-103922526D01*
X89074720Y-103934740D01*
X88995928Y-103934567D01*
X88918682Y-103919027D01*
X88845952Y-103888715D01*
X88780534Y-103844798D01*
X88724941Y-103788961D01*
X88692241Y-103739790D01*
X88421315Y-103230251D01*
X88279435Y-102963414D01*
X88256960Y-102908817D01*
X88250523Y-102876080D01*
X88241756Y-102831502D01*
X88241929Y-102752711D01*
X88257469Y-102675465D01*
X88287781Y-102602735D01*
X88331698Y-102537317D01*
X88387535Y-102481724D01*
X88387536Y-102481723D01*
X88415250Y-102463293D01*
X88453144Y-102438092D01*
X88489575Y-102423095D01*
X88526005Y-102408098D01*
X88541209Y-102405108D01*
X88603318Y-102392894D01*
X88682109Y-102393067D01*
G37*
G36*
X216694508Y-100647566D02*
G01*
X216994789Y-100771947D01*
X217265035Y-100952519D01*
X217494860Y-101182344D01*
X217675432Y-101452590D01*
X217799813Y-101752871D01*
X217863221Y-102071647D01*
X217863221Y-102396669D01*
X217799813Y-102715445D01*
X217675432Y-103015726D01*
X217494860Y-103285972D01*
X217265035Y-103515797D01*
X216994789Y-103696369D01*
X216694508Y-103820750D01*
X216375732Y-103884158D01*
X216050710Y-103884158D01*
X215731934Y-103820750D01*
X215431653Y-103696369D01*
X215161407Y-103515797D01*
X214931582Y-103285972D01*
X214751010Y-103015726D01*
X214626629Y-102715445D01*
X214563221Y-102396669D01*
X214563221Y-102071647D01*
X214626629Y-101752871D01*
X214751010Y-101452590D01*
X214931582Y-101182344D01*
X215161407Y-100952519D01*
X215431653Y-100771947D01*
X215731934Y-100647566D01*
X216050710Y-100584158D01*
X216375732Y-100584158D01*
X216694508Y-100647566D01*
G37*
G36*
X89653351Y-101876649D02*
G01*
X89730597Y-101892189D01*
X89803327Y-101922501D01*
X89868745Y-101966418D01*
X89922988Y-102020899D01*
X89924339Y-102022256D01*
X89957036Y-102071422D01*
X90369845Y-102847801D01*
X90392320Y-102902398D01*
X90396770Y-102925027D01*
X90407524Y-102979713D01*
X90407351Y-103058505D01*
X90391811Y-103135751D01*
X90361499Y-103208481D01*
X90317582Y-103273899D01*
X90265340Y-103325913D01*
X90261744Y-103329493D01*
X90239767Y-103344108D01*
X90196136Y-103373124D01*
X90159705Y-103388121D01*
X90123275Y-103403118D01*
X90108071Y-103406108D01*
X90045962Y-103418322D01*
X89967170Y-103418149D01*
X89889924Y-103402609D01*
X89817194Y-103372297D01*
X89751776Y-103328380D01*
X89696183Y-103272543D01*
X89663483Y-103223372D01*
X89417162Y-102760108D01*
X89250677Y-102446996D01*
X89228202Y-102392399D01*
X89220783Y-102354671D01*
X89212998Y-102315084D01*
X89213171Y-102236293D01*
X89228711Y-102159047D01*
X89259023Y-102086317D01*
X89302940Y-102020899D01*
X89358777Y-101965306D01*
X89358778Y-101965305D01*
X89410999Y-101930577D01*
X89424386Y-101921674D01*
X89462867Y-101905833D01*
X89497247Y-101891680D01*
X89512451Y-101888690D01*
X89574560Y-101876476D01*
X89653351Y-101876649D01*
G37*
G36*
X97674098Y-102221502D02*
G01*
X97751344Y-102237042D01*
X97824074Y-102267354D01*
X97889492Y-102311271D01*
X97918380Y-102340286D01*
X97945086Y-102367109D01*
X97957191Y-102385311D01*
X97988717Y-102432717D01*
X98018711Y-102505579D01*
X98033915Y-102582891D01*
X98033742Y-102661683D01*
X98018202Y-102738929D01*
X97987890Y-102811659D01*
X97943973Y-102877077D01*
X97888136Y-102932670D01*
X97838965Y-102965370D01*
X97518524Y-103135751D01*
X97062589Y-103378176D01*
X97007992Y-103400651D01*
X96975255Y-103407088D01*
X96930677Y-103415855D01*
X96851886Y-103415682D01*
X96774640Y-103400142D01*
X96701910Y-103369830D01*
X96636492Y-103325913D01*
X96580899Y-103270076D01*
X96537267Y-103204467D01*
X96513878Y-103147650D01*
X96507273Y-103131606D01*
X96501895Y-103104259D01*
X96492069Y-103054293D01*
X96492242Y-102975502D01*
X96507782Y-102898256D01*
X96538094Y-102825526D01*
X96582011Y-102760108D01*
X96637848Y-102704515D01*
X96637849Y-102704514D01*
X96687015Y-102671817D01*
X97463394Y-102259008D01*
X97517991Y-102236533D01*
X97550728Y-102230096D01*
X97595306Y-102221329D01*
X97674098Y-102221502D01*
G37*
G36*
X210990326Y-101320666D02*
G01*
X211163215Y-101392279D01*
X211318811Y-101496245D01*
X211451134Y-101628568D01*
X211555100Y-101784164D01*
X211626713Y-101957053D01*
X211663221Y-102140591D01*
X211663221Y-102327725D01*
X211626713Y-102511263D01*
X211555100Y-102684152D01*
X211451134Y-102839748D01*
X211318811Y-102972071D01*
X211163215Y-103076037D01*
X210990326Y-103147650D01*
X210806788Y-103184158D01*
X210619654Y-103184158D01*
X210436116Y-103147650D01*
X210263227Y-103076037D01*
X210107631Y-102972071D01*
X209975308Y-102839748D01*
X209871342Y-102684152D01*
X209799729Y-102511263D01*
X209763221Y-102327725D01*
X209763221Y-102140591D01*
X209799729Y-101957053D01*
X209871342Y-101784164D01*
X209975308Y-101628568D01*
X210107631Y-101496245D01*
X210263227Y-101392279D01*
X210436116Y-101320666D01*
X210619654Y-101284158D01*
X210806788Y-101284158D01*
X210990326Y-101320666D01*
G37*
G36*
X221990326Y-101320666D02*
G01*
X222163215Y-101392279D01*
X222318811Y-101496245D01*
X222451134Y-101628568D01*
X222555100Y-101784164D01*
X222626713Y-101957053D01*
X222663221Y-102140591D01*
X222663221Y-102327725D01*
X222626713Y-102511263D01*
X222555100Y-102684152D01*
X222451134Y-102839748D01*
X222318811Y-102972071D01*
X222163215Y-103076037D01*
X221990326Y-103147650D01*
X221806788Y-103184158D01*
X221619654Y-103184158D01*
X221436116Y-103147650D01*
X221263227Y-103076037D01*
X221107631Y-102972071D01*
X220975308Y-102839748D01*
X220871342Y-102684152D01*
X220799729Y-102511263D01*
X220763221Y-102327725D01*
X220763221Y-102140591D01*
X220799729Y-101957053D01*
X220871342Y-101784164D01*
X220975308Y-101628568D01*
X221107631Y-101496245D01*
X221263227Y-101392279D01*
X221436116Y-101320666D01*
X221619654Y-101284158D01*
X221806788Y-101284158D01*
X221990326Y-101320666D01*
G37*
G36*
X90624593Y-101360230D02*
G01*
X90701839Y-101375770D01*
X90774569Y-101406082D01*
X90839987Y-101449999D01*
X90886031Y-101496245D01*
X90895581Y-101505837D01*
X90928278Y-101555003D01*
X91341087Y-102331382D01*
X91363562Y-102385979D01*
X91368012Y-102408608D01*
X91378766Y-102463294D01*
X91378593Y-102542086D01*
X91363053Y-102619332D01*
X91332741Y-102692062D01*
X91288824Y-102757480D01*
X91234407Y-102811659D01*
X91232986Y-102813074D01*
X91214262Y-102825526D01*
X91167378Y-102856705D01*
X91130947Y-102871702D01*
X91094517Y-102886699D01*
X91079313Y-102889689D01*
X91017204Y-102901903D01*
X90938412Y-102901730D01*
X90861166Y-102886190D01*
X90788436Y-102855878D01*
X90723018Y-102811961D01*
X90667425Y-102756124D01*
X90634725Y-102706953D01*
X90396549Y-102259008D01*
X90221919Y-101930577D01*
X90199444Y-101875980D01*
X90192451Y-101840417D01*
X90184240Y-101798665D01*
X90184413Y-101719874D01*
X90199953Y-101642628D01*
X90230265Y-101569898D01*
X90274182Y-101504480D01*
X90330019Y-101448887D01*
X90330020Y-101448886D01*
X90362410Y-101427346D01*
X90395628Y-101405255D01*
X90432059Y-101390258D01*
X90468489Y-101375261D01*
X90483693Y-101372271D01*
X90545802Y-101360057D01*
X90624593Y-101360230D01*
G37*
G36*
X97157679Y-101250260D02*
G01*
X97234925Y-101265800D01*
X97307655Y-101296112D01*
X97373073Y-101340029D01*
X97428666Y-101395866D01*
X97472298Y-101461475D01*
X97477195Y-101473371D01*
X97501133Y-101531520D01*
X97502292Y-101534337D01*
X97517496Y-101611649D01*
X97517323Y-101690441D01*
X97501783Y-101767687D01*
X97471471Y-101840417D01*
X97427554Y-101905835D01*
X97371717Y-101961428D01*
X97322546Y-101994128D01*
X96981165Y-102175643D01*
X96546170Y-102406934D01*
X96491573Y-102429409D01*
X96458836Y-102435846D01*
X96414258Y-102444613D01*
X96335467Y-102444440D01*
X96258221Y-102428900D01*
X96185491Y-102398588D01*
X96120073Y-102354671D01*
X96064480Y-102298834D01*
X96062291Y-102295542D01*
X96049864Y-102276856D01*
X96020848Y-102233225D01*
X95990854Y-102160363D01*
X95975650Y-102083051D01*
X95975823Y-102004260D01*
X95991363Y-101927014D01*
X96021675Y-101854284D01*
X96065592Y-101788866D01*
X96121429Y-101733273D01*
X96121430Y-101733272D01*
X96170596Y-101700575D01*
X96946975Y-101287766D01*
X97001572Y-101265291D01*
X97034309Y-101258854D01*
X97078887Y-101250087D01*
X97157679Y-101250260D01*
G37*
G36*
X91595836Y-100843811D02*
G01*
X91673082Y-100859351D01*
X91745812Y-100889663D01*
X91811230Y-100933580D01*
X91865473Y-100988061D01*
X91866824Y-100989418D01*
X91899521Y-101038584D01*
X92312330Y-101814963D01*
X92334805Y-101869560D01*
X92339255Y-101892189D01*
X92350009Y-101946875D01*
X92349836Y-102025667D01*
X92334296Y-102102913D01*
X92303984Y-102175643D01*
X92260067Y-102241061D01*
X92205347Y-102295542D01*
X92204229Y-102296655D01*
X92200952Y-102298834D01*
X92138621Y-102340286D01*
X92103677Y-102354671D01*
X92065760Y-102370280D01*
X92050556Y-102373270D01*
X91988447Y-102385484D01*
X91909655Y-102385311D01*
X91832409Y-102369771D01*
X91759679Y-102339459D01*
X91694261Y-102295542D01*
X91638668Y-102239705D01*
X91605968Y-102190534D01*
X91345452Y-101700573D01*
X91193162Y-101414158D01*
X91170687Y-101359561D01*
X91163039Y-101320666D01*
X91155483Y-101282246D01*
X91155656Y-101203455D01*
X91171196Y-101126209D01*
X91201508Y-101053479D01*
X91245425Y-100988061D01*
X91301262Y-100932468D01*
X91301263Y-100932467D01*
X91328977Y-100914037D01*
X91366871Y-100888836D01*
X91414632Y-100869175D01*
X91439732Y-100858842D01*
X91454936Y-100855852D01*
X91517045Y-100843638D01*
X91595836Y-100843811D01*
G37*
G36*
X126269495Y-100024508D02*
G01*
X126460583Y-100103660D01*
X126632557Y-100218569D01*
X126778810Y-100364822D01*
X126893719Y-100536796D01*
X126972871Y-100727884D01*
X127013221Y-100930742D01*
X127013221Y-101137574D01*
X126972871Y-101340432D01*
X126893719Y-101531520D01*
X126778810Y-101703494D01*
X126632557Y-101849747D01*
X126460583Y-101964656D01*
X126269495Y-102043808D01*
X126066637Y-102084158D01*
X125859805Y-102084158D01*
X125656947Y-102043808D01*
X125465859Y-101964656D01*
X125293885Y-101849747D01*
X125147632Y-101703494D01*
X125032723Y-101531520D01*
X124953571Y-101340432D01*
X124913221Y-101137574D01*
X124913221Y-100930742D01*
X124953571Y-100727884D01*
X125032723Y-100536796D01*
X125147632Y-100364822D01*
X125293885Y-100218569D01*
X125465859Y-100103660D01*
X125656947Y-100024508D01*
X125859805Y-99984158D01*
X126066637Y-99984158D01*
X126269495Y-100024508D01*
G37*
G36*
X116269495Y-100024508D02*
G01*
X116460583Y-100103660D01*
X116632557Y-100218569D01*
X116778810Y-100364822D01*
X116893719Y-100536796D01*
X116972871Y-100727884D01*
X117013221Y-100930742D01*
X117013221Y-101137574D01*
X116972871Y-101340432D01*
X116893719Y-101531520D01*
X116778810Y-101703494D01*
X116632557Y-101849747D01*
X116460583Y-101964656D01*
X116269495Y-102043808D01*
X116066637Y-102084158D01*
X115859805Y-102084158D01*
X115656947Y-102043808D01*
X115465859Y-101964656D01*
X115293885Y-101849747D01*
X115147632Y-101703494D01*
X115032723Y-101531520D01*
X114953571Y-101340432D01*
X114913221Y-101137574D01*
X114913221Y-100930742D01*
X114953571Y-100727884D01*
X115032723Y-100536796D01*
X115147632Y-100364822D01*
X115293885Y-100218569D01*
X115465859Y-100103660D01*
X115656947Y-100024508D01*
X115859805Y-99984158D01*
X116066637Y-99984158D01*
X116269495Y-100024508D01*
G37*
G36*
X202469495Y-100024508D02*
G01*
X202660583Y-100103660D01*
X202832557Y-100218569D01*
X202978810Y-100364822D01*
X203093719Y-100536796D01*
X203172871Y-100727884D01*
X203213221Y-100930742D01*
X203213221Y-101137574D01*
X203172871Y-101340432D01*
X203093719Y-101531520D01*
X202978810Y-101703494D01*
X202832557Y-101849747D01*
X202660583Y-101964656D01*
X202469495Y-102043808D01*
X202266637Y-102084158D01*
X202059805Y-102084158D01*
X201856947Y-102043808D01*
X201665859Y-101964656D01*
X201493885Y-101849747D01*
X201347632Y-101703494D01*
X201232723Y-101531520D01*
X201153571Y-101340432D01*
X201113221Y-101137574D01*
X201113221Y-100930742D01*
X201153571Y-100727884D01*
X201232723Y-100536796D01*
X201347632Y-100364822D01*
X201493885Y-100218569D01*
X201665859Y-100103660D01*
X201856947Y-100024508D01*
X202059805Y-99984158D01*
X202266637Y-99984158D01*
X202469495Y-100024508D01*
G37*
G36*
X192469495Y-100024508D02*
G01*
X192660583Y-100103660D01*
X192832557Y-100218569D01*
X192978810Y-100364822D01*
X193093719Y-100536796D01*
X193172871Y-100727884D01*
X193213221Y-100930742D01*
X193213221Y-101137574D01*
X193172871Y-101340432D01*
X193093719Y-101531520D01*
X192978810Y-101703494D01*
X192832557Y-101849747D01*
X192660583Y-101964656D01*
X192469495Y-102043808D01*
X192266637Y-102084158D01*
X192059805Y-102084158D01*
X191856947Y-102043808D01*
X191665859Y-101964656D01*
X191493885Y-101849747D01*
X191347632Y-101703494D01*
X191232723Y-101531520D01*
X191153571Y-101340432D01*
X191113221Y-101137574D01*
X191113221Y-100930742D01*
X191153571Y-100727884D01*
X191232723Y-100536796D01*
X191347632Y-100364822D01*
X191493885Y-100218569D01*
X191665859Y-100103660D01*
X191856947Y-100024508D01*
X192059805Y-99984158D01*
X192266637Y-99984158D01*
X192469495Y-100024508D01*
G37*
G36*
X92567078Y-100327393D02*
G01*
X92644324Y-100342933D01*
X92717054Y-100373245D01*
X92782472Y-100417162D01*
X92789901Y-100424624D01*
X92838066Y-100473000D01*
X92870763Y-100522166D01*
X93283572Y-101298545D01*
X93306047Y-101353142D01*
X93310497Y-101375771D01*
X93321251Y-101430457D01*
X93321078Y-101509249D01*
X93305538Y-101586495D01*
X93275226Y-101659225D01*
X93231309Y-101724643D01*
X93202960Y-101752868D01*
X93175471Y-101780237D01*
X93169566Y-101784164D01*
X93109863Y-101823868D01*
X93073432Y-101838865D01*
X93037002Y-101853862D01*
X93021798Y-101856852D01*
X92959689Y-101869066D01*
X92880897Y-101868893D01*
X92803651Y-101853353D01*
X92730921Y-101823041D01*
X92665503Y-101779124D01*
X92609910Y-101723287D01*
X92577210Y-101674116D01*
X92351750Y-101250087D01*
X92164404Y-100897740D01*
X92141929Y-100843143D01*
X92135492Y-100810406D01*
X92126725Y-100765828D01*
X92126898Y-100687037D01*
X92142438Y-100609791D01*
X92172750Y-100537061D01*
X92216667Y-100471643D01*
X92272504Y-100416050D01*
X92272505Y-100416049D01*
X92324726Y-100381321D01*
X92338113Y-100372418D01*
X92374544Y-100357421D01*
X92410974Y-100342424D01*
X92426178Y-100339434D01*
X92488287Y-100327220D01*
X92567078Y-100327393D01*
G37*
G36*
X96641260Y-100279018D02*
G01*
X96718506Y-100294558D01*
X96791236Y-100324870D01*
X96856654Y-100368787D01*
X96912247Y-100424624D01*
X96955879Y-100490233D01*
X96985873Y-100563095D01*
X97001077Y-100640407D01*
X97000904Y-100719199D01*
X96985364Y-100796445D01*
X96955052Y-100869175D01*
X96911135Y-100934593D01*
X96855298Y-100990186D01*
X96806127Y-101022886D01*
X96457556Y-101208224D01*
X96029751Y-101435692D01*
X95975154Y-101458167D01*
X95942417Y-101464604D01*
X95897839Y-101473371D01*
X95819048Y-101473198D01*
X95741802Y-101457658D01*
X95669072Y-101427346D01*
X95603654Y-101383429D01*
X95548061Y-101327592D01*
X95543456Y-101320667D01*
X95528740Y-101298539D01*
X95504429Y-101261983D01*
X95482298Y-101208222D01*
X95474435Y-101189122D01*
X95464298Y-101137574D01*
X95459231Y-101111809D01*
X95459404Y-101033018D01*
X95474944Y-100955772D01*
X95505256Y-100883042D01*
X95549173Y-100817624D01*
X95605010Y-100762031D01*
X95605011Y-100762030D01*
X95654177Y-100729333D01*
X96430556Y-100316524D01*
X96485153Y-100294049D01*
X96517890Y-100287612D01*
X96562468Y-100278845D01*
X96641260Y-100279018D01*
G37*
G36*
X93538321Y-99810974D02*
G01*
X93615567Y-99826514D01*
X93688297Y-99856826D01*
X93753715Y-99900743D01*
X93807958Y-99955224D01*
X93809309Y-99956581D01*
X93842006Y-100005747D01*
X94254815Y-100782126D01*
X94277290Y-100836723D01*
X94281740Y-100859352D01*
X94292494Y-100914038D01*
X94292321Y-100992830D01*
X94276781Y-101070076D01*
X94246469Y-101142806D01*
X94202552Y-101208224D01*
X94148558Y-101261982D01*
X94146714Y-101263818D01*
X94143732Y-101265801D01*
X94081106Y-101307449D01*
X94044675Y-101322446D01*
X94008245Y-101337443D01*
X93995099Y-101340028D01*
X93930932Y-101352647D01*
X93852140Y-101352474D01*
X93774894Y-101336934D01*
X93702164Y-101306622D01*
X93636746Y-101262705D01*
X93581153Y-101206868D01*
X93548453Y-101157697D01*
X93327060Y-100741317D01*
X93135647Y-100381321D01*
X93113172Y-100326724D01*
X93103757Y-100278845D01*
X93097968Y-100249409D01*
X93098141Y-100170618D01*
X93113681Y-100093372D01*
X93143993Y-100020642D01*
X93187910Y-99955224D01*
X93243747Y-99899631D01*
X93243748Y-99899630D01*
X93265725Y-99885015D01*
X93309356Y-99855999D01*
X93345787Y-99841002D01*
X93382217Y-99826005D01*
X93397421Y-99823015D01*
X93459530Y-99810801D01*
X93538321Y-99810974D01*
G37*
G36*
X140319495Y-97124508D02*
G01*
X140510583Y-97203660D01*
X140682557Y-97318569D01*
X140828810Y-97464822D01*
X140943719Y-97636796D01*
X141022871Y-97827884D01*
X141063221Y-98030742D01*
X141063221Y-98237574D01*
X141022871Y-98440432D01*
X140943719Y-98631520D01*
X140828810Y-98803494D01*
X140682557Y-98949747D01*
X140510583Y-99064656D01*
X140319495Y-99143808D01*
X140116637Y-99184158D01*
X139909805Y-99184158D01*
X139706947Y-99143808D01*
X139515859Y-99064656D01*
X139343885Y-98949747D01*
X139197632Y-98803494D01*
X139082723Y-98631520D01*
X139003571Y-98440432D01*
X138963221Y-98237574D01*
X138963221Y-98030742D01*
X139003571Y-97827884D01*
X139082723Y-97636796D01*
X139197632Y-97464822D01*
X139343885Y-97318569D01*
X139515859Y-97203660D01*
X139706947Y-97124508D01*
X139909805Y-97084158D01*
X140116637Y-97084158D01*
X140319495Y-97124508D01*
G37*
G36*
X178419495Y-97124508D02*
G01*
X178610583Y-97203660D01*
X178782557Y-97318569D01*
X178928810Y-97464822D01*
X179043719Y-97636796D01*
X179122871Y-97827884D01*
X179163221Y-98030742D01*
X179163221Y-98237574D01*
X179122871Y-98440432D01*
X179043719Y-98631520D01*
X178928810Y-98803494D01*
X178782557Y-98949747D01*
X178610583Y-99064656D01*
X178419495Y-99143808D01*
X178216637Y-99184158D01*
X178009805Y-99184158D01*
X177806947Y-99143808D01*
X177615859Y-99064656D01*
X177443885Y-98949747D01*
X177297632Y-98803494D01*
X177182723Y-98631520D01*
X177103571Y-98440432D01*
X177063221Y-98237574D01*
X177063221Y-98030742D01*
X177103571Y-97827884D01*
X177182723Y-97636796D01*
X177297632Y-97464822D01*
X177443885Y-97318569D01*
X177615859Y-97203660D01*
X177806947Y-97124508D01*
X178009805Y-97084158D01*
X178216637Y-97084158D01*
X178419495Y-97124508D01*
G37*
G36*
X197644508Y-95647566D02*
G01*
X197944789Y-95771947D01*
X198215035Y-95952519D01*
X198444860Y-96182344D01*
X198625432Y-96452590D01*
X198749813Y-96752871D01*
X198813221Y-97071647D01*
X198813221Y-97396669D01*
X198749813Y-97715445D01*
X198625432Y-98015726D01*
X198444860Y-98285972D01*
X198215035Y-98515797D01*
X197944789Y-98696369D01*
X197644508Y-98820750D01*
X197325732Y-98884158D01*
X197000710Y-98884158D01*
X196681934Y-98820750D01*
X196381653Y-98696369D01*
X196111407Y-98515797D01*
X195881582Y-98285972D01*
X195701010Y-98015726D01*
X195576629Y-97715445D01*
X195513221Y-97396669D01*
X195513221Y-97071647D01*
X195576629Y-96752871D01*
X195701010Y-96452590D01*
X195881582Y-96182344D01*
X196111407Y-95952519D01*
X196381653Y-95771947D01*
X196681934Y-95647566D01*
X197000710Y-95584158D01*
X197325732Y-95584158D01*
X197644508Y-95647566D01*
G37*
G36*
X121444508Y-95647566D02*
G01*
X121744789Y-95771947D01*
X122015035Y-95952519D01*
X122244860Y-96182344D01*
X122425432Y-96452590D01*
X122549813Y-96752871D01*
X122613221Y-97071647D01*
X122613221Y-97396669D01*
X122549813Y-97715445D01*
X122425432Y-98015726D01*
X122244860Y-98285972D01*
X122015035Y-98515797D01*
X121744789Y-98696369D01*
X121444508Y-98820750D01*
X121125732Y-98884158D01*
X120800710Y-98884158D01*
X120481934Y-98820750D01*
X120181653Y-98696369D01*
X119911407Y-98515797D01*
X119681582Y-98285972D01*
X119501010Y-98015726D01*
X119376629Y-97715445D01*
X119313221Y-97396669D01*
X119313221Y-97071647D01*
X119376629Y-96752871D01*
X119501010Y-96452590D01*
X119681582Y-96182344D01*
X119911407Y-95952519D01*
X120181653Y-95771947D01*
X120481934Y-95647566D01*
X120800710Y-95584158D01*
X121125732Y-95584158D01*
X121444508Y-95647566D01*
G37*
G36*
X191940326Y-96320666D02*
G01*
X192113215Y-96392279D01*
X192268811Y-96496245D01*
X192401134Y-96628568D01*
X192505100Y-96784164D01*
X192576713Y-96957053D01*
X192613221Y-97140591D01*
X192613221Y-97327725D01*
X192576713Y-97511263D01*
X192505100Y-97684152D01*
X192401134Y-97839748D01*
X192268811Y-97972071D01*
X192113215Y-98076037D01*
X191940326Y-98147650D01*
X191756788Y-98184158D01*
X191569654Y-98184158D01*
X191386116Y-98147650D01*
X191213227Y-98076037D01*
X191057631Y-97972071D01*
X190925308Y-97839748D01*
X190821342Y-97684152D01*
X190749729Y-97511263D01*
X190713221Y-97327725D01*
X190713221Y-97140591D01*
X190749729Y-96957053D01*
X190821342Y-96784164D01*
X190925308Y-96628568D01*
X191057631Y-96496245D01*
X191213227Y-96392279D01*
X191386116Y-96320666D01*
X191569654Y-96284158D01*
X191756788Y-96284158D01*
X191940326Y-96320666D01*
G37*
G36*
X202940326Y-96320666D02*
G01*
X203113215Y-96392279D01*
X203268811Y-96496245D01*
X203401134Y-96628568D01*
X203505100Y-96784164D01*
X203576713Y-96957053D01*
X203613221Y-97140591D01*
X203613221Y-97327725D01*
X203576713Y-97511263D01*
X203505100Y-97684152D01*
X203401134Y-97839748D01*
X203268811Y-97972071D01*
X203113215Y-98076037D01*
X202940326Y-98147650D01*
X202756788Y-98184158D01*
X202569654Y-98184158D01*
X202386116Y-98147650D01*
X202213227Y-98076037D01*
X202057631Y-97972071D01*
X201925308Y-97839748D01*
X201821342Y-97684152D01*
X201749729Y-97511263D01*
X201713221Y-97327725D01*
X201713221Y-97140591D01*
X201749729Y-96957053D01*
X201821342Y-96784164D01*
X201925308Y-96628568D01*
X202057631Y-96496245D01*
X202213227Y-96392279D01*
X202386116Y-96320666D01*
X202569654Y-96284158D01*
X202756788Y-96284158D01*
X202940326Y-96320666D01*
G37*
G36*
X115740326Y-96320666D02*
G01*
X115913215Y-96392279D01*
X116068811Y-96496245D01*
X116201134Y-96628568D01*
X116305100Y-96784164D01*
X116376713Y-96957053D01*
X116413221Y-97140591D01*
X116413221Y-97327725D01*
X116376713Y-97511263D01*
X116305100Y-97684152D01*
X116201134Y-97839748D01*
X116068811Y-97972071D01*
X115913215Y-98076037D01*
X115740326Y-98147650D01*
X115556788Y-98184158D01*
X115369654Y-98184158D01*
X115186116Y-98147650D01*
X115013227Y-98076037D01*
X114857631Y-97972071D01*
X114725308Y-97839748D01*
X114621342Y-97684152D01*
X114549729Y-97511263D01*
X114513221Y-97327725D01*
X114513221Y-97140591D01*
X114549729Y-96957053D01*
X114621342Y-96784164D01*
X114725308Y-96628568D01*
X114857631Y-96496245D01*
X115013227Y-96392279D01*
X115186116Y-96320666D01*
X115369654Y-96284158D01*
X115556788Y-96284158D01*
X115740326Y-96320666D01*
G37*
G36*
X126740326Y-96320666D02*
G01*
X126913215Y-96392279D01*
X127068811Y-96496245D01*
X127201134Y-96628568D01*
X127305100Y-96784164D01*
X127376713Y-96957053D01*
X127413221Y-97140591D01*
X127413221Y-97327725D01*
X127376713Y-97511263D01*
X127305100Y-97684152D01*
X127201134Y-97839748D01*
X127068811Y-97972071D01*
X126913215Y-98076037D01*
X126740326Y-98147650D01*
X126556788Y-98184158D01*
X126369654Y-98184158D01*
X126186116Y-98147650D01*
X126013227Y-98076037D01*
X125857631Y-97972071D01*
X125725308Y-97839748D01*
X125621342Y-97684152D01*
X125549729Y-97511263D01*
X125513221Y-97327725D01*
X125513221Y-97140591D01*
X125549729Y-96957053D01*
X125621342Y-96784164D01*
X125725308Y-96628568D01*
X125857631Y-96496245D01*
X126013227Y-96392279D01*
X126186116Y-96320666D01*
X126369654Y-96284158D01*
X126556788Y-96284158D01*
X126740326Y-96320666D01*
G37*
G36*
X145319495Y-95024508D02*
G01*
X145510583Y-95103660D01*
X145682557Y-95218569D01*
X145828810Y-95364822D01*
X145943719Y-95536796D01*
X146022871Y-95727884D01*
X146063221Y-95930742D01*
X146063221Y-96137574D01*
X146022871Y-96340432D01*
X145943719Y-96531520D01*
X145828810Y-96703494D01*
X145682557Y-96849747D01*
X145510583Y-96964656D01*
X145319495Y-97043808D01*
X145116637Y-97084158D01*
X144909805Y-97084158D01*
X144706947Y-97043808D01*
X144515859Y-96964656D01*
X144343885Y-96849747D01*
X144197632Y-96703494D01*
X144082723Y-96531520D01*
X144003571Y-96340432D01*
X143963221Y-96137574D01*
X143963221Y-95930742D01*
X144003571Y-95727884D01*
X144082723Y-95536796D01*
X144197632Y-95364822D01*
X144343885Y-95218569D01*
X144515859Y-95103660D01*
X144706947Y-95024508D01*
X144909805Y-94984158D01*
X145116637Y-94984158D01*
X145319495Y-95024508D01*
G37*
G36*
X173419495Y-95024508D02*
G01*
X173610583Y-95103660D01*
X173782557Y-95218569D01*
X173928810Y-95364822D01*
X174043719Y-95536796D01*
X174122871Y-95727884D01*
X174163221Y-95930742D01*
X174163221Y-96137574D01*
X174122871Y-96340432D01*
X174043719Y-96531520D01*
X173928810Y-96703494D01*
X173782557Y-96849747D01*
X173610583Y-96964656D01*
X173419495Y-97043808D01*
X173216637Y-97084158D01*
X173009805Y-97084158D01*
X172806947Y-97043808D01*
X172615859Y-96964656D01*
X172443885Y-96849747D01*
X172297632Y-96703494D01*
X172182723Y-96531520D01*
X172103571Y-96340432D01*
X172063221Y-96137574D01*
X172063221Y-95930742D01*
X172103571Y-95727884D01*
X172182723Y-95536796D01*
X172297632Y-95364822D01*
X172443885Y-95218569D01*
X172615859Y-95103660D01*
X172806947Y-95024508D01*
X173009805Y-94984158D01*
X173216637Y-94984158D01*
X173419495Y-95024508D01*
G37*
G36*
X135319495Y-95024508D02*
G01*
X135510583Y-95103660D01*
X135682557Y-95218569D01*
X135828810Y-95364822D01*
X135943719Y-95536796D01*
X136022871Y-95727884D01*
X136063221Y-95930742D01*
X136063221Y-96137574D01*
X136022871Y-96340432D01*
X135943719Y-96531520D01*
X135828810Y-96703494D01*
X135682557Y-96849747D01*
X135510583Y-96964656D01*
X135319495Y-97043808D01*
X135116637Y-97084158D01*
X134909805Y-97084158D01*
X134706947Y-97043808D01*
X134515859Y-96964656D01*
X134343885Y-96849747D01*
X134197632Y-96703494D01*
X134082723Y-96531520D01*
X134003571Y-96340432D01*
X133963221Y-96137574D01*
X133963221Y-95930742D01*
X134003571Y-95727884D01*
X134082723Y-95536796D01*
X134197632Y-95364822D01*
X134343885Y-95218569D01*
X134515859Y-95103660D01*
X134706947Y-95024508D01*
X134909805Y-94984158D01*
X135116637Y-94984158D01*
X135319495Y-95024508D01*
G37*
G36*
X183419495Y-95024508D02*
G01*
X183610583Y-95103660D01*
X183782557Y-95218569D01*
X183928810Y-95364822D01*
X184043719Y-95536796D01*
X184122871Y-95727884D01*
X184163221Y-95930742D01*
X184163221Y-96137574D01*
X184122871Y-96340432D01*
X184043719Y-96531520D01*
X183928810Y-96703494D01*
X183782557Y-96849747D01*
X183610583Y-96964656D01*
X183419495Y-97043808D01*
X183216637Y-97084158D01*
X183009805Y-97084158D01*
X182806947Y-97043808D01*
X182615859Y-96964656D01*
X182443885Y-96849747D01*
X182297632Y-96703494D01*
X182182723Y-96531520D01*
X182103571Y-96340432D01*
X182063221Y-96137574D01*
X182063221Y-95930742D01*
X182103571Y-95727884D01*
X182182723Y-95536796D01*
X182297632Y-95364822D01*
X182443885Y-95218569D01*
X182615859Y-95103660D01*
X182806947Y-95024508D01*
X183009805Y-94984158D01*
X183216637Y-94984158D01*
X183419495Y-95024508D01*
G37*
G36*
X159369495Y-92124508D02*
G01*
X159560583Y-92203660D01*
X159732557Y-92318569D01*
X159878810Y-92464822D01*
X159993719Y-92636796D01*
X160072871Y-92827884D01*
X160113221Y-93030742D01*
X160113221Y-93237574D01*
X160072871Y-93440432D01*
X159993719Y-93631520D01*
X159878810Y-93803494D01*
X159732557Y-93949747D01*
X159560583Y-94064656D01*
X159369495Y-94143808D01*
X159166637Y-94184158D01*
X158959805Y-94184158D01*
X158756947Y-94143808D01*
X158565859Y-94064656D01*
X158393885Y-93949747D01*
X158247632Y-93803494D01*
X158132723Y-93631520D01*
X158053571Y-93440432D01*
X158013221Y-93237574D01*
X158013221Y-93030742D01*
X158053571Y-92827884D01*
X158132723Y-92636796D01*
X158247632Y-92464822D01*
X158393885Y-92318569D01*
X158565859Y-92203660D01*
X158756947Y-92124508D01*
X158959805Y-92084158D01*
X159166637Y-92084158D01*
X159369495Y-92124508D01*
G37*
G36*
X140494508Y-90647566D02*
G01*
X140794789Y-90771947D01*
X141065035Y-90952519D01*
X141294860Y-91182344D01*
X141475432Y-91452590D01*
X141599813Y-91752871D01*
X141663221Y-92071647D01*
X141663221Y-92396669D01*
X141599813Y-92715445D01*
X141475432Y-93015726D01*
X141294860Y-93285972D01*
X141065035Y-93515797D01*
X140794789Y-93696369D01*
X140494508Y-93820750D01*
X140175732Y-93884158D01*
X139850710Y-93884158D01*
X139531934Y-93820750D01*
X139231653Y-93696369D01*
X138961407Y-93515797D01*
X138731582Y-93285972D01*
X138551010Y-93015726D01*
X138426629Y-92715445D01*
X138363221Y-92396669D01*
X138363221Y-92071647D01*
X138426629Y-91752871D01*
X138551010Y-91452590D01*
X138731582Y-91182344D01*
X138961407Y-90952519D01*
X139231653Y-90771947D01*
X139531934Y-90647566D01*
X139850710Y-90584158D01*
X140175732Y-90584158D01*
X140494508Y-90647566D01*
G37*
G36*
X178594508Y-90647566D02*
G01*
X178894789Y-90771947D01*
X179165035Y-90952519D01*
X179394860Y-91182344D01*
X179575432Y-91452590D01*
X179699813Y-91752871D01*
X179763221Y-92071647D01*
X179763221Y-92396669D01*
X179699813Y-92715445D01*
X179575432Y-93015726D01*
X179394860Y-93285972D01*
X179165035Y-93515797D01*
X178894789Y-93696369D01*
X178594508Y-93820750D01*
X178275732Y-93884158D01*
X177950710Y-93884158D01*
X177631934Y-93820750D01*
X177331653Y-93696369D01*
X177061407Y-93515797D01*
X176831582Y-93285972D01*
X176651010Y-93015726D01*
X176526629Y-92715445D01*
X176463221Y-92396669D01*
X176463221Y-92071647D01*
X176526629Y-91752871D01*
X176651010Y-91452590D01*
X176831582Y-91182344D01*
X177061407Y-90952519D01*
X177331653Y-90771947D01*
X177631934Y-90647566D01*
X177950710Y-90584158D01*
X178275732Y-90584158D01*
X178594508Y-90647566D01*
G37*
G36*
X134790326Y-91320666D02*
G01*
X134963215Y-91392279D01*
X135118811Y-91496245D01*
X135251134Y-91628568D01*
X135355100Y-91784164D01*
X135426713Y-91957053D01*
X135463221Y-92140591D01*
X135463221Y-92327725D01*
X135426713Y-92511263D01*
X135355100Y-92684152D01*
X135251134Y-92839748D01*
X135118811Y-92972071D01*
X134963215Y-93076037D01*
X134790326Y-93147650D01*
X134606788Y-93184158D01*
X134419654Y-93184158D01*
X134236116Y-93147650D01*
X134063227Y-93076037D01*
X133907631Y-92972071D01*
X133775308Y-92839748D01*
X133671342Y-92684152D01*
X133599729Y-92511263D01*
X133563221Y-92327725D01*
X133563221Y-92140591D01*
X133599729Y-91957053D01*
X133671342Y-91784164D01*
X133775308Y-91628568D01*
X133907631Y-91496245D01*
X134063227Y-91392279D01*
X134236116Y-91320666D01*
X134419654Y-91284158D01*
X134606788Y-91284158D01*
X134790326Y-91320666D01*
G37*
G36*
X145790326Y-91320666D02*
G01*
X145963215Y-91392279D01*
X146118811Y-91496245D01*
X146251134Y-91628568D01*
X146355100Y-91784164D01*
X146426713Y-91957053D01*
X146463221Y-92140591D01*
X146463221Y-92327725D01*
X146426713Y-92511263D01*
X146355100Y-92684152D01*
X146251134Y-92839748D01*
X146118811Y-92972071D01*
X145963215Y-93076037D01*
X145790326Y-93147650D01*
X145606788Y-93184158D01*
X145419654Y-93184158D01*
X145236116Y-93147650D01*
X145063227Y-93076037D01*
X144907631Y-92972071D01*
X144775308Y-92839748D01*
X144671342Y-92684152D01*
X144599729Y-92511263D01*
X144563221Y-92327725D01*
X144563221Y-92140591D01*
X144599729Y-91957053D01*
X144671342Y-91784164D01*
X144775308Y-91628568D01*
X144907631Y-91496245D01*
X145063227Y-91392279D01*
X145236116Y-91320666D01*
X145419654Y-91284158D01*
X145606788Y-91284158D01*
X145790326Y-91320666D01*
G37*
G36*
X183890326Y-91320666D02*
G01*
X184063215Y-91392279D01*
X184218811Y-91496245D01*
X184351134Y-91628568D01*
X184455100Y-91784164D01*
X184526713Y-91957053D01*
X184563221Y-92140591D01*
X184563221Y-92327725D01*
X184526713Y-92511263D01*
X184455100Y-92684152D01*
X184351134Y-92839748D01*
X184218811Y-92972071D01*
X184063215Y-93076037D01*
X183890326Y-93147650D01*
X183706788Y-93184158D01*
X183519654Y-93184158D01*
X183336116Y-93147650D01*
X183163227Y-93076037D01*
X183007631Y-92972071D01*
X182875308Y-92839748D01*
X182771342Y-92684152D01*
X182699729Y-92511263D01*
X182663221Y-92327725D01*
X182663221Y-92140591D01*
X182699729Y-91957053D01*
X182771342Y-91784164D01*
X182875308Y-91628568D01*
X183007631Y-91496245D01*
X183163227Y-91392279D01*
X183336116Y-91320666D01*
X183519654Y-91284158D01*
X183706788Y-91284158D01*
X183890326Y-91320666D01*
G37*
G36*
X172890326Y-91320666D02*
G01*
X173063215Y-91392279D01*
X173218811Y-91496245D01*
X173351134Y-91628568D01*
X173455100Y-91784164D01*
X173526713Y-91957053D01*
X173563221Y-92140591D01*
X173563221Y-92327725D01*
X173526713Y-92511263D01*
X173455100Y-92684152D01*
X173351134Y-92839748D01*
X173218811Y-92972071D01*
X173063215Y-93076037D01*
X172890326Y-93147650D01*
X172706788Y-93184158D01*
X172519654Y-93184158D01*
X172336116Y-93147650D01*
X172163227Y-93076037D01*
X172007631Y-92972071D01*
X171875308Y-92839748D01*
X171771342Y-92684152D01*
X171699729Y-92511263D01*
X171663221Y-92327725D01*
X171663221Y-92140591D01*
X171699729Y-91957053D01*
X171771342Y-91784164D01*
X171875308Y-91628568D01*
X172007631Y-91496245D01*
X172163227Y-91392279D01*
X172336116Y-91320666D01*
X172519654Y-91284158D01*
X172706788Y-91284158D01*
X172890326Y-91320666D01*
G37*
G36*
X154369495Y-90024508D02*
G01*
X154560583Y-90103660D01*
X154732557Y-90218569D01*
X154878810Y-90364822D01*
X154993719Y-90536796D01*
X155072871Y-90727884D01*
X155113221Y-90930742D01*
X155113221Y-91137574D01*
X155072871Y-91340432D01*
X154993719Y-91531520D01*
X154878810Y-91703494D01*
X154732557Y-91849747D01*
X154560583Y-91964656D01*
X154369495Y-92043808D01*
X154166637Y-92084158D01*
X153959805Y-92084158D01*
X153756947Y-92043808D01*
X153565859Y-91964656D01*
X153393885Y-91849747D01*
X153247632Y-91703494D01*
X153132723Y-91531520D01*
X153053571Y-91340432D01*
X153013221Y-91137574D01*
X153013221Y-90930742D01*
X153053571Y-90727884D01*
X153132723Y-90536796D01*
X153247632Y-90364822D01*
X153393885Y-90218569D01*
X153565859Y-90103660D01*
X153756947Y-90024508D01*
X153959805Y-89984158D01*
X154166637Y-89984158D01*
X154369495Y-90024508D01*
G37*
G36*
X164369495Y-90024508D02*
G01*
X164560583Y-90103660D01*
X164732557Y-90218569D01*
X164878810Y-90364822D01*
X164993719Y-90536796D01*
X165072871Y-90727884D01*
X165113221Y-90930742D01*
X165113221Y-91137574D01*
X165072871Y-91340432D01*
X164993719Y-91531520D01*
X164878810Y-91703494D01*
X164732557Y-91849747D01*
X164560583Y-91964656D01*
X164369495Y-92043808D01*
X164166637Y-92084158D01*
X163959805Y-92084158D01*
X163756947Y-92043808D01*
X163565859Y-91964656D01*
X163393885Y-91849747D01*
X163247632Y-91703494D01*
X163132723Y-91531520D01*
X163053571Y-91340432D01*
X163013221Y-91137574D01*
X163013221Y-90930742D01*
X163053571Y-90727884D01*
X163132723Y-90536796D01*
X163247632Y-90364822D01*
X163393885Y-90218569D01*
X163565859Y-90103660D01*
X163756947Y-90024508D01*
X163959805Y-89984158D01*
X164166637Y-89984158D01*
X164369495Y-90024508D01*
G37*
G36*
X216519495Y-89074508D02*
G01*
X216710583Y-89153660D01*
X216882557Y-89268569D01*
X217028810Y-89414822D01*
X217143719Y-89586796D01*
X217222871Y-89777884D01*
X217263221Y-89980742D01*
X217263221Y-90187574D01*
X217222871Y-90390432D01*
X217143719Y-90581520D01*
X217028810Y-90753494D01*
X216882557Y-90899747D01*
X216710583Y-91014656D01*
X216519495Y-91093808D01*
X216316637Y-91134158D01*
X216109805Y-91134158D01*
X215906947Y-91093808D01*
X215715859Y-91014656D01*
X215543885Y-90899747D01*
X215397632Y-90753494D01*
X215282723Y-90581520D01*
X215203571Y-90390432D01*
X215163221Y-90187574D01*
X215163221Y-89980742D01*
X215203571Y-89777884D01*
X215282723Y-89586796D01*
X215397632Y-89414822D01*
X215543885Y-89268569D01*
X215715859Y-89153660D01*
X215906947Y-89074508D01*
X216109805Y-89034158D01*
X216316637Y-89034158D01*
X216519495Y-89074508D01*
G37*
G36*
X221519495Y-86974508D02*
G01*
X221710583Y-87053660D01*
X221882557Y-87168569D01*
X222028810Y-87314822D01*
X222143719Y-87486796D01*
X222222871Y-87677884D01*
X222263221Y-87880742D01*
X222263221Y-88087574D01*
X222222871Y-88290432D01*
X222143719Y-88481520D01*
X222028810Y-88653494D01*
X221882557Y-88799747D01*
X221710583Y-88914656D01*
X221519495Y-88993808D01*
X221316637Y-89034158D01*
X221109805Y-89034158D01*
X220906947Y-88993808D01*
X220715859Y-88914656D01*
X220543885Y-88799747D01*
X220397632Y-88653494D01*
X220282723Y-88481520D01*
X220203571Y-88290432D01*
X220163221Y-88087574D01*
X220163221Y-87880742D01*
X220203571Y-87677884D01*
X220282723Y-87486796D01*
X220397632Y-87314822D01*
X220543885Y-87168569D01*
X220715859Y-87053660D01*
X220906947Y-86974508D01*
X221109805Y-86934158D01*
X221316637Y-86934158D01*
X221519495Y-86974508D01*
G37*
G36*
X211519495Y-86974508D02*
G01*
X211710583Y-87053660D01*
X211882557Y-87168569D01*
X212028810Y-87314822D01*
X212143719Y-87486796D01*
X212222871Y-87677884D01*
X212263221Y-87880742D01*
X212263221Y-88087574D01*
X212222871Y-88290432D01*
X212143719Y-88481520D01*
X212028810Y-88653494D01*
X211882557Y-88799747D01*
X211710583Y-88914656D01*
X211519495Y-88993808D01*
X211316637Y-89034158D01*
X211109805Y-89034158D01*
X210906947Y-88993808D01*
X210715859Y-88914656D01*
X210543885Y-88799747D01*
X210397632Y-88653494D01*
X210282723Y-88481520D01*
X210203571Y-88290432D01*
X210163221Y-88087574D01*
X210163221Y-87880742D01*
X210203571Y-87677884D01*
X210282723Y-87486796D01*
X210397632Y-87314822D01*
X210543885Y-87168569D01*
X210715859Y-87053660D01*
X210906947Y-86974508D01*
X211109805Y-86934158D01*
X211316637Y-86934158D01*
X211519495Y-86974508D01*
G37*
G36*
X159544508Y-85647566D02*
G01*
X159844789Y-85771947D01*
X160115035Y-85952519D01*
X160344860Y-86182344D01*
X160525432Y-86452590D01*
X160649813Y-86752871D01*
X160713221Y-87071647D01*
X160713221Y-87396669D01*
X160649813Y-87715445D01*
X160525432Y-88015726D01*
X160344860Y-88285972D01*
X160115035Y-88515797D01*
X159844789Y-88696369D01*
X159544508Y-88820750D01*
X159225732Y-88884158D01*
X158900710Y-88884158D01*
X158581934Y-88820750D01*
X158281653Y-88696369D01*
X158011407Y-88515797D01*
X157781582Y-88285972D01*
X157601010Y-88015726D01*
X157476629Y-87715445D01*
X157413221Y-87396669D01*
X157413221Y-87071647D01*
X157476629Y-86752871D01*
X157601010Y-86452590D01*
X157781582Y-86182344D01*
X158011407Y-85952519D01*
X158281653Y-85771947D01*
X158581934Y-85647566D01*
X158900710Y-85584158D01*
X159225732Y-85584158D01*
X159544508Y-85647566D01*
G37*
G36*
X153840326Y-86320666D02*
G01*
X154013215Y-86392279D01*
X154168811Y-86496245D01*
X154301134Y-86628568D01*
X154405100Y-86784164D01*
X154476713Y-86957053D01*
X154513221Y-87140591D01*
X154513221Y-87327725D01*
X154476713Y-87511263D01*
X154405100Y-87684152D01*
X154301134Y-87839748D01*
X154168811Y-87972071D01*
X154013215Y-88076037D01*
X153840326Y-88147650D01*
X153656788Y-88184158D01*
X153469654Y-88184158D01*
X153286116Y-88147650D01*
X153113227Y-88076037D01*
X152957631Y-87972071D01*
X152825308Y-87839748D01*
X152721342Y-87684152D01*
X152649729Y-87511263D01*
X152613221Y-87327725D01*
X152613221Y-87140591D01*
X152649729Y-86957053D01*
X152721342Y-86784164D01*
X152825308Y-86628568D01*
X152957631Y-86496245D01*
X153113227Y-86392279D01*
X153286116Y-86320666D01*
X153469654Y-86284158D01*
X153656788Y-86284158D01*
X153840326Y-86320666D01*
G37*
G36*
X164840326Y-86320666D02*
G01*
X165013215Y-86392279D01*
X165168811Y-86496245D01*
X165301134Y-86628568D01*
X165405100Y-86784164D01*
X165476713Y-86957053D01*
X165513221Y-87140591D01*
X165513221Y-87327725D01*
X165476713Y-87511263D01*
X165405100Y-87684152D01*
X165301134Y-87839748D01*
X165168811Y-87972071D01*
X165013215Y-88076037D01*
X164840326Y-88147650D01*
X164656788Y-88184158D01*
X164469654Y-88184158D01*
X164286116Y-88147650D01*
X164113227Y-88076037D01*
X163957631Y-87972071D01*
X163825308Y-87839748D01*
X163721342Y-87684152D01*
X163649729Y-87511263D01*
X163613221Y-87327725D01*
X163613221Y-87140591D01*
X163649729Y-86957053D01*
X163721342Y-86784164D01*
X163825308Y-86628568D01*
X163957631Y-86496245D01*
X164113227Y-86392279D01*
X164286116Y-86320666D01*
X164469654Y-86284158D01*
X164656788Y-86284158D01*
X164840326Y-86320666D01*
G37*
G36*
X121269495Y-84074508D02*
G01*
X121460583Y-84153660D01*
X121632557Y-84268569D01*
X121778810Y-84414822D01*
X121893719Y-84586796D01*
X121972871Y-84777884D01*
X122013221Y-84980742D01*
X122013221Y-85187574D01*
X121972871Y-85390432D01*
X121893719Y-85581520D01*
X121778810Y-85753494D01*
X121632557Y-85899747D01*
X121460583Y-86014656D01*
X121269495Y-86093808D01*
X121066637Y-86134158D01*
X120859805Y-86134158D01*
X120656947Y-86093808D01*
X120465859Y-86014656D01*
X120293885Y-85899747D01*
X120147632Y-85753494D01*
X120032723Y-85581520D01*
X119953571Y-85390432D01*
X119913221Y-85187574D01*
X119913221Y-84980742D01*
X119953571Y-84777884D01*
X120032723Y-84586796D01*
X120147632Y-84414822D01*
X120293885Y-84268569D01*
X120465859Y-84153660D01*
X120656947Y-84074508D01*
X120859805Y-84034158D01*
X121066637Y-84034158D01*
X121269495Y-84074508D01*
G37*
G36*
X197469495Y-84074508D02*
G01*
X197660583Y-84153660D01*
X197832557Y-84268569D01*
X197978810Y-84414822D01*
X198093719Y-84586796D01*
X198172871Y-84777884D01*
X198213221Y-84980742D01*
X198213221Y-85187574D01*
X198172871Y-85390432D01*
X198093719Y-85581520D01*
X197978810Y-85753494D01*
X197832557Y-85899747D01*
X197660583Y-86014656D01*
X197469495Y-86093808D01*
X197266637Y-86134158D01*
X197059805Y-86134158D01*
X196856947Y-86093808D01*
X196665859Y-86014656D01*
X196493885Y-85899747D01*
X196347632Y-85753494D01*
X196232723Y-85581520D01*
X196153571Y-85390432D01*
X196113221Y-85187574D01*
X196113221Y-84980742D01*
X196153571Y-84777884D01*
X196232723Y-84586796D01*
X196347632Y-84414822D01*
X196493885Y-84268569D01*
X196665859Y-84153660D01*
X196856947Y-84074508D01*
X197059805Y-84034158D01*
X197266637Y-84034158D01*
X197469495Y-84074508D01*
G37*
G36*
X216694508Y-82597566D02*
G01*
X216994789Y-82721947D01*
X217265035Y-82902519D01*
X217494860Y-83132344D01*
X217675432Y-83402590D01*
X217799813Y-83702871D01*
X217863221Y-84021647D01*
X217863221Y-84346669D01*
X217799813Y-84665445D01*
X217675432Y-84965726D01*
X217494860Y-85235972D01*
X217265035Y-85465797D01*
X216994789Y-85646369D01*
X216694508Y-85770750D01*
X216375732Y-85834158D01*
X216050710Y-85834158D01*
X215731934Y-85770750D01*
X215431653Y-85646369D01*
X215161407Y-85465797D01*
X214931582Y-85235972D01*
X214751010Y-84965726D01*
X214626629Y-84665445D01*
X214563221Y-84346669D01*
X214563221Y-84021647D01*
X214626629Y-83702871D01*
X214751010Y-83402590D01*
X214931582Y-83132344D01*
X215161407Y-82902519D01*
X215431653Y-82721947D01*
X215731934Y-82597566D01*
X216050710Y-82534158D01*
X216375732Y-82534158D01*
X216694508Y-82597566D01*
G37*
G36*
X221990326Y-83270666D02*
G01*
X222163215Y-83342279D01*
X222318811Y-83446245D01*
X222451134Y-83578568D01*
X222555100Y-83734164D01*
X222626713Y-83907053D01*
X222663221Y-84090591D01*
X222663221Y-84277725D01*
X222626713Y-84461263D01*
X222555100Y-84634152D01*
X222451134Y-84789748D01*
X222318811Y-84922071D01*
X222163215Y-85026037D01*
X221990326Y-85097650D01*
X221806788Y-85134158D01*
X221619654Y-85134158D01*
X221436116Y-85097650D01*
X221263227Y-85026037D01*
X221107631Y-84922071D01*
X220975308Y-84789748D01*
X220871342Y-84634152D01*
X220799729Y-84461263D01*
X220763221Y-84277725D01*
X220763221Y-84090591D01*
X220799729Y-83907053D01*
X220871342Y-83734164D01*
X220975308Y-83578568D01*
X221107631Y-83446245D01*
X221263227Y-83342279D01*
X221436116Y-83270666D01*
X221619654Y-83234158D01*
X221806788Y-83234158D01*
X221990326Y-83270666D01*
G37*
G36*
X210990326Y-83270666D02*
G01*
X211163215Y-83342279D01*
X211318811Y-83446245D01*
X211451134Y-83578568D01*
X211555100Y-83734164D01*
X211626713Y-83907053D01*
X211663221Y-84090591D01*
X211663221Y-84277725D01*
X211626713Y-84461263D01*
X211555100Y-84634152D01*
X211451134Y-84789748D01*
X211318811Y-84922071D01*
X211163215Y-85026037D01*
X210990326Y-85097650D01*
X210806788Y-85134158D01*
X210619654Y-85134158D01*
X210436116Y-85097650D01*
X210263227Y-85026037D01*
X210107631Y-84922071D01*
X209975308Y-84789748D01*
X209871342Y-84634152D01*
X209799729Y-84461263D01*
X209763221Y-84277725D01*
X209763221Y-84090591D01*
X209799729Y-83907053D01*
X209871342Y-83734164D01*
X209975308Y-83578568D01*
X210107631Y-83446245D01*
X210263227Y-83342279D01*
X210436116Y-83270666D01*
X210619654Y-83234158D01*
X210806788Y-83234158D01*
X210990326Y-83270666D01*
G37*
G36*
X202469495Y-81974508D02*
G01*
X202660583Y-82053660D01*
X202832557Y-82168569D01*
X202978810Y-82314822D01*
X203093719Y-82486796D01*
X203172871Y-82677884D01*
X203213221Y-82880742D01*
X203213221Y-83087574D01*
X203172871Y-83290432D01*
X203093719Y-83481520D01*
X202978810Y-83653494D01*
X202832557Y-83799747D01*
X202660583Y-83914656D01*
X202469495Y-83993808D01*
X202266637Y-84034158D01*
X202059805Y-84034158D01*
X201856947Y-83993808D01*
X201665859Y-83914656D01*
X201493885Y-83799747D01*
X201347632Y-83653494D01*
X201232723Y-83481520D01*
X201153571Y-83290432D01*
X201113221Y-83087574D01*
X201113221Y-82880742D01*
X201153571Y-82677884D01*
X201232723Y-82486796D01*
X201347632Y-82314822D01*
X201493885Y-82168569D01*
X201665859Y-82053660D01*
X201856947Y-81974508D01*
X202059805Y-81934158D01*
X202266637Y-81934158D01*
X202469495Y-81974508D01*
G37*
G36*
X192469495Y-81974508D02*
G01*
X192660583Y-82053660D01*
X192832557Y-82168569D01*
X192978810Y-82314822D01*
X193093719Y-82486796D01*
X193172871Y-82677884D01*
X193213221Y-82880742D01*
X193213221Y-83087574D01*
X193172871Y-83290432D01*
X193093719Y-83481520D01*
X192978810Y-83653494D01*
X192832557Y-83799747D01*
X192660583Y-83914656D01*
X192469495Y-83993808D01*
X192266637Y-84034158D01*
X192059805Y-84034158D01*
X191856947Y-83993808D01*
X191665859Y-83914656D01*
X191493885Y-83799747D01*
X191347632Y-83653494D01*
X191232723Y-83481520D01*
X191153571Y-83290432D01*
X191113221Y-83087574D01*
X191113221Y-82880742D01*
X191153571Y-82677884D01*
X191232723Y-82486796D01*
X191347632Y-82314822D01*
X191493885Y-82168569D01*
X191665859Y-82053660D01*
X191856947Y-81974508D01*
X192059805Y-81934158D01*
X192266637Y-81934158D01*
X192469495Y-81974508D01*
G37*
G36*
X126269495Y-81974508D02*
G01*
X126460583Y-82053660D01*
X126632557Y-82168569D01*
X126778810Y-82314822D01*
X126893719Y-82486796D01*
X126972871Y-82677884D01*
X127013221Y-82880742D01*
X127013221Y-83087574D01*
X126972871Y-83290432D01*
X126893719Y-83481520D01*
X126778810Y-83653494D01*
X126632557Y-83799747D01*
X126460583Y-83914656D01*
X126269495Y-83993808D01*
X126066637Y-84034158D01*
X125859805Y-84034158D01*
X125656947Y-83993808D01*
X125465859Y-83914656D01*
X125293885Y-83799747D01*
X125147632Y-83653494D01*
X125032723Y-83481520D01*
X124953571Y-83290432D01*
X124913221Y-83087574D01*
X124913221Y-82880742D01*
X124953571Y-82677884D01*
X125032723Y-82486796D01*
X125147632Y-82314822D01*
X125293885Y-82168569D01*
X125465859Y-82053660D01*
X125656947Y-81974508D01*
X125859805Y-81934158D01*
X126066637Y-81934158D01*
X126269495Y-81974508D01*
G37*
G36*
X116269495Y-81974508D02*
G01*
X116460583Y-82053660D01*
X116632557Y-82168569D01*
X116778810Y-82314822D01*
X116893719Y-82486796D01*
X116972871Y-82677884D01*
X117013221Y-82880742D01*
X117013221Y-83087574D01*
X116972871Y-83290432D01*
X116893719Y-83481520D01*
X116778810Y-83653494D01*
X116632557Y-83799747D01*
X116460583Y-83914656D01*
X116269495Y-83993808D01*
X116066637Y-84034158D01*
X115859805Y-84034158D01*
X115656947Y-83993808D01*
X115465859Y-83914656D01*
X115293885Y-83799747D01*
X115147632Y-83653494D01*
X115032723Y-83481520D01*
X114953571Y-83290432D01*
X114913221Y-83087574D01*
X114913221Y-82880742D01*
X114953571Y-82677884D01*
X115032723Y-82486796D01*
X115147632Y-82314822D01*
X115293885Y-82168569D01*
X115465859Y-82053660D01*
X115656947Y-81974508D01*
X115859805Y-81934158D01*
X116066637Y-81934158D01*
X116269495Y-81974508D01*
G37*
G36*
X178419495Y-79074508D02*
G01*
X178610583Y-79153660D01*
X178782557Y-79268569D01*
X178928810Y-79414822D01*
X179043719Y-79586796D01*
X179122871Y-79777884D01*
X179163221Y-79980742D01*
X179163221Y-80187574D01*
X179122871Y-80390432D01*
X179043719Y-80581520D01*
X178928810Y-80753494D01*
X178782557Y-80899747D01*
X178610583Y-81014656D01*
X178419495Y-81093808D01*
X178216637Y-81134158D01*
X178009805Y-81134158D01*
X177806947Y-81093808D01*
X177615859Y-81014656D01*
X177443885Y-80899747D01*
X177297632Y-80753494D01*
X177182723Y-80581520D01*
X177103571Y-80390432D01*
X177063221Y-80187574D01*
X177063221Y-79980742D01*
X177103571Y-79777884D01*
X177182723Y-79586796D01*
X177297632Y-79414822D01*
X177443885Y-79268569D01*
X177615859Y-79153660D01*
X177806947Y-79074508D01*
X178009805Y-79034158D01*
X178216637Y-79034158D01*
X178419495Y-79074508D01*
G37*
G36*
X140319495Y-79074508D02*
G01*
X140510583Y-79153660D01*
X140682557Y-79268569D01*
X140828810Y-79414822D01*
X140943719Y-79586796D01*
X141022871Y-79777884D01*
X141063221Y-79980742D01*
X141063221Y-80187574D01*
X141022871Y-80390432D01*
X140943719Y-80581520D01*
X140828810Y-80753494D01*
X140682557Y-80899747D01*
X140510583Y-81014656D01*
X140319495Y-81093808D01*
X140116637Y-81134158D01*
X139909805Y-81134158D01*
X139706947Y-81093808D01*
X139515859Y-81014656D01*
X139343885Y-80899747D01*
X139197632Y-80753494D01*
X139082723Y-80581520D01*
X139003571Y-80390432D01*
X138963221Y-80187574D01*
X138963221Y-79980742D01*
X139003571Y-79777884D01*
X139082723Y-79586796D01*
X139197632Y-79414822D01*
X139343885Y-79268569D01*
X139515859Y-79153660D01*
X139706947Y-79074508D01*
X139909805Y-79034158D01*
X140116637Y-79034158D01*
X140319495Y-79074508D01*
G37*
G36*
X197644508Y-77597566D02*
G01*
X197944789Y-77721947D01*
X198215035Y-77902519D01*
X198444860Y-78132344D01*
X198625432Y-78402590D01*
X198749813Y-78702871D01*
X198813221Y-79021647D01*
X198813221Y-79346669D01*
X198749813Y-79665445D01*
X198625432Y-79965726D01*
X198444860Y-80235972D01*
X198215035Y-80465797D01*
X197944789Y-80646369D01*
X197644508Y-80770750D01*
X197325732Y-80834158D01*
X197000710Y-80834158D01*
X196681934Y-80770750D01*
X196381653Y-80646369D01*
X196111407Y-80465797D01*
X195881582Y-80235972D01*
X195701010Y-79965726D01*
X195576629Y-79665445D01*
X195513221Y-79346669D01*
X195513221Y-79021647D01*
X195576629Y-78702871D01*
X195701010Y-78402590D01*
X195881582Y-78132344D01*
X196111407Y-77902519D01*
X196381653Y-77721947D01*
X196681934Y-77597566D01*
X197000710Y-77534158D01*
X197325732Y-77534158D01*
X197644508Y-77597566D01*
G37*
G36*
X121444508Y-77597566D02*
G01*
X121744789Y-77721947D01*
X122015035Y-77902519D01*
X122244860Y-78132344D01*
X122425432Y-78402590D01*
X122549813Y-78702871D01*
X122613221Y-79021647D01*
X122613221Y-79346669D01*
X122549813Y-79665445D01*
X122425432Y-79965726D01*
X122244860Y-80235972D01*
X122015035Y-80465797D01*
X121744789Y-80646369D01*
X121444508Y-80770750D01*
X121125732Y-80834158D01*
X120800710Y-80834158D01*
X120481934Y-80770750D01*
X120181653Y-80646369D01*
X119911407Y-80465797D01*
X119681582Y-80235972D01*
X119501010Y-79965726D01*
X119376629Y-79665445D01*
X119313221Y-79346669D01*
X119313221Y-79021647D01*
X119376629Y-78702871D01*
X119501010Y-78402590D01*
X119681582Y-78132344D01*
X119911407Y-77902519D01*
X120181653Y-77721947D01*
X120481934Y-77597566D01*
X120800710Y-77534158D01*
X121125732Y-77534158D01*
X121444508Y-77597566D01*
G37*
G36*
X115740326Y-78270666D02*
G01*
X115913215Y-78342279D01*
X116068811Y-78446245D01*
X116201134Y-78578568D01*
X116305100Y-78734164D01*
X116376713Y-78907053D01*
X116413221Y-79090591D01*
X116413221Y-79277725D01*
X116376713Y-79461263D01*
X116305100Y-79634152D01*
X116201134Y-79789748D01*
X116068811Y-79922071D01*
X115913215Y-80026037D01*
X115740326Y-80097650D01*
X115556788Y-80134158D01*
X115369654Y-80134158D01*
X115186116Y-80097650D01*
X115013227Y-80026037D01*
X114857631Y-79922071D01*
X114725308Y-79789748D01*
X114621342Y-79634152D01*
X114549729Y-79461263D01*
X114513221Y-79277725D01*
X114513221Y-79090591D01*
X114549729Y-78907053D01*
X114621342Y-78734164D01*
X114725308Y-78578568D01*
X114857631Y-78446245D01*
X115013227Y-78342279D01*
X115186116Y-78270666D01*
X115369654Y-78234158D01*
X115556788Y-78234158D01*
X115740326Y-78270666D01*
G37*
G36*
X202940326Y-78270666D02*
G01*
X203113215Y-78342279D01*
X203268811Y-78446245D01*
X203401134Y-78578568D01*
X203505100Y-78734164D01*
X203576713Y-78907053D01*
X203613221Y-79090591D01*
X203613221Y-79277725D01*
X203576713Y-79461263D01*
X203505100Y-79634152D01*
X203401134Y-79789748D01*
X203268811Y-79922071D01*
X203113215Y-80026037D01*
X202940326Y-80097650D01*
X202756788Y-80134158D01*
X202569654Y-80134158D01*
X202386116Y-80097650D01*
X202213227Y-80026037D01*
X202057631Y-79922071D01*
X201925308Y-79789748D01*
X201821342Y-79634152D01*
X201749729Y-79461263D01*
X201713221Y-79277725D01*
X201713221Y-79090591D01*
X201749729Y-78907053D01*
X201821342Y-78734164D01*
X201925308Y-78578568D01*
X202057631Y-78446245D01*
X202213227Y-78342279D01*
X202386116Y-78270666D01*
X202569654Y-78234158D01*
X202756788Y-78234158D01*
X202940326Y-78270666D01*
G37*
G36*
X191940326Y-78270666D02*
G01*
X192113215Y-78342279D01*
X192268811Y-78446245D01*
X192401134Y-78578568D01*
X192505100Y-78734164D01*
X192576713Y-78907053D01*
X192613221Y-79090591D01*
X192613221Y-79277725D01*
X192576713Y-79461263D01*
X192505100Y-79634152D01*
X192401134Y-79789748D01*
X192268811Y-79922071D01*
X192113215Y-80026037D01*
X191940326Y-80097650D01*
X191756788Y-80134158D01*
X191569654Y-80134158D01*
X191386116Y-80097650D01*
X191213227Y-80026037D01*
X191057631Y-79922071D01*
X190925308Y-79789748D01*
X190821342Y-79634152D01*
X190749729Y-79461263D01*
X190713221Y-79277725D01*
X190713221Y-79090591D01*
X190749729Y-78907053D01*
X190821342Y-78734164D01*
X190925308Y-78578568D01*
X191057631Y-78446245D01*
X191213227Y-78342279D01*
X191386116Y-78270666D01*
X191569654Y-78234158D01*
X191756788Y-78234158D01*
X191940326Y-78270666D01*
G37*
G36*
X126740326Y-78270666D02*
G01*
X126913215Y-78342279D01*
X127068811Y-78446245D01*
X127201134Y-78578568D01*
X127305100Y-78734164D01*
X127376713Y-78907053D01*
X127413221Y-79090591D01*
X127413221Y-79277725D01*
X127376713Y-79461263D01*
X127305100Y-79634152D01*
X127201134Y-79789748D01*
X127068811Y-79922071D01*
X126913215Y-80026037D01*
X126740326Y-80097650D01*
X126556788Y-80134158D01*
X126369654Y-80134158D01*
X126186116Y-80097650D01*
X126013227Y-80026037D01*
X125857631Y-79922071D01*
X125725308Y-79789748D01*
X125621342Y-79634152D01*
X125549729Y-79461263D01*
X125513221Y-79277725D01*
X125513221Y-79090591D01*
X125549729Y-78907053D01*
X125621342Y-78734164D01*
X125725308Y-78578568D01*
X125857631Y-78446245D01*
X126013227Y-78342279D01*
X126186116Y-78270666D01*
X126369654Y-78234158D01*
X126556788Y-78234158D01*
X126740326Y-78270666D01*
G37*
G36*
X183419495Y-76974508D02*
G01*
X183610583Y-77053660D01*
X183782557Y-77168569D01*
X183928810Y-77314822D01*
X184043719Y-77486796D01*
X184122871Y-77677884D01*
X184163221Y-77880742D01*
X184163221Y-78087574D01*
X184122871Y-78290432D01*
X184043719Y-78481520D01*
X183928810Y-78653494D01*
X183782557Y-78799747D01*
X183610583Y-78914656D01*
X183419495Y-78993808D01*
X183216637Y-79034158D01*
X183009805Y-79034158D01*
X182806947Y-78993808D01*
X182615859Y-78914656D01*
X182443885Y-78799747D01*
X182297632Y-78653494D01*
X182182723Y-78481520D01*
X182103571Y-78290432D01*
X182063221Y-78087574D01*
X182063221Y-77880742D01*
X182103571Y-77677884D01*
X182182723Y-77486796D01*
X182297632Y-77314822D01*
X182443885Y-77168569D01*
X182615859Y-77053660D01*
X182806947Y-76974508D01*
X183009805Y-76934158D01*
X183216637Y-76934158D01*
X183419495Y-76974508D01*
G37*
G36*
X173419495Y-76974508D02*
G01*
X173610583Y-77053660D01*
X173782557Y-77168569D01*
X173928810Y-77314822D01*
X174043719Y-77486796D01*
X174122871Y-77677884D01*
X174163221Y-77880742D01*
X174163221Y-78087574D01*
X174122871Y-78290432D01*
X174043719Y-78481520D01*
X173928810Y-78653494D01*
X173782557Y-78799747D01*
X173610583Y-78914656D01*
X173419495Y-78993808D01*
X173216637Y-79034158D01*
X173009805Y-79034158D01*
X172806947Y-78993808D01*
X172615859Y-78914656D01*
X172443885Y-78799747D01*
X172297632Y-78653494D01*
X172182723Y-78481520D01*
X172103571Y-78290432D01*
X172063221Y-78087574D01*
X172063221Y-77880742D01*
X172103571Y-77677884D01*
X172182723Y-77486796D01*
X172297632Y-77314822D01*
X172443885Y-77168569D01*
X172615859Y-77053660D01*
X172806947Y-76974508D01*
X173009805Y-76934158D01*
X173216637Y-76934158D01*
X173419495Y-76974508D01*
G37*
G36*
X145319495Y-76974508D02*
G01*
X145510583Y-77053660D01*
X145682557Y-77168569D01*
X145828810Y-77314822D01*
X145943719Y-77486796D01*
X146022871Y-77677884D01*
X146063221Y-77880742D01*
X146063221Y-78087574D01*
X146022871Y-78290432D01*
X145943719Y-78481520D01*
X145828810Y-78653494D01*
X145682557Y-78799747D01*
X145510583Y-78914656D01*
X145319495Y-78993808D01*
X145116637Y-79034158D01*
X144909805Y-79034158D01*
X144706947Y-78993808D01*
X144515859Y-78914656D01*
X144343885Y-78799747D01*
X144197632Y-78653494D01*
X144082723Y-78481520D01*
X144003571Y-78290432D01*
X143963221Y-78087574D01*
X143963221Y-77880742D01*
X144003571Y-77677884D01*
X144082723Y-77486796D01*
X144197632Y-77314822D01*
X144343885Y-77168569D01*
X144515859Y-77053660D01*
X144706947Y-76974508D01*
X144909805Y-76934158D01*
X145116637Y-76934158D01*
X145319495Y-76974508D01*
G37*
G36*
X135319495Y-76974508D02*
G01*
X135510583Y-77053660D01*
X135682557Y-77168569D01*
X135828810Y-77314822D01*
X135943719Y-77486796D01*
X136022871Y-77677884D01*
X136063221Y-77880742D01*
X136063221Y-78087574D01*
X136022871Y-78290432D01*
X135943719Y-78481520D01*
X135828810Y-78653494D01*
X135682557Y-78799747D01*
X135510583Y-78914656D01*
X135319495Y-78993808D01*
X135116637Y-79034158D01*
X134909805Y-79034158D01*
X134706947Y-78993808D01*
X134515859Y-78914656D01*
X134343885Y-78799747D01*
X134197632Y-78653494D01*
X134082723Y-78481520D01*
X134003571Y-78290432D01*
X133963221Y-78087574D01*
X133963221Y-77880742D01*
X134003571Y-77677884D01*
X134082723Y-77486796D01*
X134197632Y-77314822D01*
X134343885Y-77168569D01*
X134515859Y-77053660D01*
X134706947Y-76974508D01*
X134909805Y-76934158D01*
X135116637Y-76934158D01*
X135319495Y-76974508D01*
G37*
G36*
X159369495Y-74074508D02*
G01*
X159560583Y-74153660D01*
X159732557Y-74268569D01*
X159878810Y-74414822D01*
X159993719Y-74586796D01*
X160072871Y-74777884D01*
X160113221Y-74980742D01*
X160113221Y-75187574D01*
X160072871Y-75390432D01*
X159993719Y-75581520D01*
X159878810Y-75753494D01*
X159732557Y-75899747D01*
X159560583Y-76014656D01*
X159369495Y-76093808D01*
X159166637Y-76134158D01*
X158959805Y-76134158D01*
X158756947Y-76093808D01*
X158565859Y-76014656D01*
X158393885Y-75899747D01*
X158247632Y-75753494D01*
X158132723Y-75581520D01*
X158053571Y-75390432D01*
X158013221Y-75187574D01*
X158013221Y-74980742D01*
X158053571Y-74777884D01*
X158132723Y-74586796D01*
X158247632Y-74414822D01*
X158393885Y-74268569D01*
X158565859Y-74153660D01*
X158756947Y-74074508D01*
X158959805Y-74034158D01*
X159166637Y-74034158D01*
X159369495Y-74074508D01*
G37*
G36*
X140494508Y-72597566D02*
G01*
X140794789Y-72721947D01*
X141065035Y-72902519D01*
X141294860Y-73132344D01*
X141475432Y-73402590D01*
X141599813Y-73702871D01*
X141663221Y-74021647D01*
X141663221Y-74346669D01*
X141599813Y-74665445D01*
X141475432Y-74965726D01*
X141294860Y-75235972D01*
X141065035Y-75465797D01*
X140794789Y-75646369D01*
X140494508Y-75770750D01*
X140175732Y-75834158D01*
X139850710Y-75834158D01*
X139531934Y-75770750D01*
X139231653Y-75646369D01*
X138961407Y-75465797D01*
X138731582Y-75235972D01*
X138551010Y-74965726D01*
X138426629Y-74665445D01*
X138363221Y-74346669D01*
X138363221Y-74021647D01*
X138426629Y-73702871D01*
X138551010Y-73402590D01*
X138731582Y-73132344D01*
X138961407Y-72902519D01*
X139231653Y-72721947D01*
X139531934Y-72597566D01*
X139850710Y-72534158D01*
X140175732Y-72534158D01*
X140494508Y-72597566D01*
G37*
G36*
X178594508Y-72597566D02*
G01*
X178894789Y-72721947D01*
X179165035Y-72902519D01*
X179394860Y-73132344D01*
X179575432Y-73402590D01*
X179699813Y-73702871D01*
X179763221Y-74021647D01*
X179763221Y-74346669D01*
X179699813Y-74665445D01*
X179575432Y-74965726D01*
X179394860Y-75235972D01*
X179165035Y-75465797D01*
X178894789Y-75646369D01*
X178594508Y-75770750D01*
X178275732Y-75834158D01*
X177950710Y-75834158D01*
X177631934Y-75770750D01*
X177331653Y-75646369D01*
X177061407Y-75465797D01*
X176831582Y-75235972D01*
X176651010Y-74965726D01*
X176526629Y-74665445D01*
X176463221Y-74346669D01*
X176463221Y-74021647D01*
X176526629Y-73702871D01*
X176651010Y-73402590D01*
X176831582Y-73132344D01*
X177061407Y-72902519D01*
X177331653Y-72721947D01*
X177631934Y-72597566D01*
X177950710Y-72534158D01*
X178275732Y-72534158D01*
X178594508Y-72597566D01*
G37*
G36*
X134790326Y-73270666D02*
G01*
X134963215Y-73342279D01*
X135118811Y-73446245D01*
X135251134Y-73578568D01*
X135355100Y-73734164D01*
X135426713Y-73907053D01*
X135463221Y-74090591D01*
X135463221Y-74277725D01*
X135426713Y-74461263D01*
X135355100Y-74634152D01*
X135251134Y-74789748D01*
X135118811Y-74922071D01*
X134963215Y-75026037D01*
X134790326Y-75097650D01*
X134606788Y-75134158D01*
X134419654Y-75134158D01*
X134236116Y-75097650D01*
X134063227Y-75026037D01*
X133907631Y-74922071D01*
X133775308Y-74789748D01*
X133671342Y-74634152D01*
X133599729Y-74461263D01*
X133563221Y-74277725D01*
X133563221Y-74090591D01*
X133599729Y-73907053D01*
X133671342Y-73734164D01*
X133775308Y-73578568D01*
X133907631Y-73446245D01*
X134063227Y-73342279D01*
X134236116Y-73270666D01*
X134419654Y-73234158D01*
X134606788Y-73234158D01*
X134790326Y-73270666D01*
G37*
G36*
X183890326Y-73270666D02*
G01*
X184063215Y-73342279D01*
X184218811Y-73446245D01*
X184351134Y-73578568D01*
X184455100Y-73734164D01*
X184526713Y-73907053D01*
X184563221Y-74090591D01*
X184563221Y-74277725D01*
X184526713Y-74461263D01*
X184455100Y-74634152D01*
X184351134Y-74789748D01*
X184218811Y-74922071D01*
X184063215Y-75026037D01*
X183890326Y-75097650D01*
X183706788Y-75134158D01*
X183519654Y-75134158D01*
X183336116Y-75097650D01*
X183163227Y-75026037D01*
X183007631Y-74922071D01*
X182875308Y-74789748D01*
X182771342Y-74634152D01*
X182699729Y-74461263D01*
X182663221Y-74277725D01*
X182663221Y-74090591D01*
X182699729Y-73907053D01*
X182771342Y-73734164D01*
X182875308Y-73578568D01*
X183007631Y-73446245D01*
X183163227Y-73342279D01*
X183336116Y-73270666D01*
X183519654Y-73234158D01*
X183706788Y-73234158D01*
X183890326Y-73270666D01*
G37*
G36*
X172890326Y-73270666D02*
G01*
X173063215Y-73342279D01*
X173218811Y-73446245D01*
X173351134Y-73578568D01*
X173455100Y-73734164D01*
X173526713Y-73907053D01*
X173563221Y-74090591D01*
X173563221Y-74277725D01*
X173526713Y-74461263D01*
X173455100Y-74634152D01*
X173351134Y-74789748D01*
X173218811Y-74922071D01*
X173063215Y-75026037D01*
X172890326Y-75097650D01*
X172706788Y-75134158D01*
X172519654Y-75134158D01*
X172336116Y-75097650D01*
X172163227Y-75026037D01*
X172007631Y-74922071D01*
X171875308Y-74789748D01*
X171771342Y-74634152D01*
X171699729Y-74461263D01*
X171663221Y-74277725D01*
X171663221Y-74090591D01*
X171699729Y-73907053D01*
X171771342Y-73734164D01*
X171875308Y-73578568D01*
X172007631Y-73446245D01*
X172163227Y-73342279D01*
X172336116Y-73270666D01*
X172519654Y-73234158D01*
X172706788Y-73234158D01*
X172890326Y-73270666D01*
G37*
G36*
X145790326Y-73270666D02*
G01*
X145963215Y-73342279D01*
X146118811Y-73446245D01*
X146251134Y-73578568D01*
X146355100Y-73734164D01*
X146426713Y-73907053D01*
X146463221Y-74090591D01*
X146463221Y-74277725D01*
X146426713Y-74461263D01*
X146355100Y-74634152D01*
X146251134Y-74789748D01*
X146118811Y-74922071D01*
X145963215Y-75026037D01*
X145790326Y-75097650D01*
X145606788Y-75134158D01*
X145419654Y-75134158D01*
X145236116Y-75097650D01*
X145063227Y-75026037D01*
X144907631Y-74922071D01*
X144775308Y-74789748D01*
X144671342Y-74634152D01*
X144599729Y-74461263D01*
X144563221Y-74277725D01*
X144563221Y-74090591D01*
X144599729Y-73907053D01*
X144671342Y-73734164D01*
X144775308Y-73578568D01*
X144907631Y-73446245D01*
X145063227Y-73342279D01*
X145236116Y-73270666D01*
X145419654Y-73234158D01*
X145606788Y-73234158D01*
X145790326Y-73270666D01*
G37*
G36*
X154369495Y-71974508D02*
G01*
X154560583Y-72053660D01*
X154732557Y-72168569D01*
X154878810Y-72314822D01*
X154993719Y-72486796D01*
X155072871Y-72677884D01*
X155113221Y-72880742D01*
X155113221Y-73087574D01*
X155072871Y-73290432D01*
X154993719Y-73481520D01*
X154878810Y-73653494D01*
X154732557Y-73799747D01*
X154560583Y-73914656D01*
X154369495Y-73993808D01*
X154166637Y-74034158D01*
X153959805Y-74034158D01*
X153756947Y-73993808D01*
X153565859Y-73914656D01*
X153393885Y-73799747D01*
X153247632Y-73653494D01*
X153132723Y-73481520D01*
X153053571Y-73290432D01*
X153013221Y-73087574D01*
X153013221Y-72880742D01*
X153053571Y-72677884D01*
X153132723Y-72486796D01*
X153247632Y-72314822D01*
X153393885Y-72168569D01*
X153565859Y-72053660D01*
X153756947Y-71974508D01*
X153959805Y-71934158D01*
X154166637Y-71934158D01*
X154369495Y-71974508D01*
G37*
G36*
X164369495Y-71974508D02*
G01*
X164560583Y-72053660D01*
X164732557Y-72168569D01*
X164878810Y-72314822D01*
X164993719Y-72486796D01*
X165072871Y-72677884D01*
X165113221Y-72880742D01*
X165113221Y-73087574D01*
X165072871Y-73290432D01*
X164993719Y-73481520D01*
X164878810Y-73653494D01*
X164732557Y-73799747D01*
X164560583Y-73914656D01*
X164369495Y-73993808D01*
X164166637Y-74034158D01*
X163959805Y-74034158D01*
X163756947Y-73993808D01*
X163565859Y-73914656D01*
X163393885Y-73799747D01*
X163247632Y-73653494D01*
X163132723Y-73481520D01*
X163053571Y-73290432D01*
X163013221Y-73087574D01*
X163013221Y-72880742D01*
X163053571Y-72677884D01*
X163132723Y-72486796D01*
X163247632Y-72314822D01*
X163393885Y-72168569D01*
X163565859Y-72053660D01*
X163756947Y-71974508D01*
X163959805Y-71934158D01*
X164166637Y-71934158D01*
X164369495Y-71974508D01*
G37*
G36*
X216891314Y-67399524D02*
G01*
X216891316Y-67399525D01*
X216891317Y-67399525D01*
X217409983Y-67614364D01*
X217876768Y-67926259D01*
X218273741Y-68323232D01*
X218585636Y-68790017D01*
X218787651Y-69277722D01*
X218800476Y-69308686D01*
X218910000Y-69859299D01*
X218910000Y-70420701D01*
X218827758Y-70834158D01*
X218800475Y-70971317D01*
X218585636Y-71489983D01*
X218273741Y-71956768D01*
X217876768Y-72353741D01*
X217409983Y-72665636D01*
X216891317Y-72880475D01*
X216891316Y-72880475D01*
X216891314Y-72880476D01*
X216340701Y-72990000D01*
X215779299Y-72990000D01*
X215228686Y-72880476D01*
X215228684Y-72880475D01*
X215228683Y-72880475D01*
X214710017Y-72665636D01*
X214243232Y-72353741D01*
X213846259Y-71956768D01*
X213534364Y-71489983D01*
X213319525Y-70971317D01*
X213292242Y-70834158D01*
X213210000Y-70420701D01*
X213210000Y-69859299D01*
X213319524Y-69308686D01*
X213332350Y-69277722D01*
X213534364Y-68790017D01*
X213846259Y-68323232D01*
X214243232Y-67926259D01*
X214710017Y-67614364D01*
X215228683Y-67399525D01*
X215228684Y-67399525D01*
X215228686Y-67399524D01*
X215779299Y-67290000D01*
X216340701Y-67290000D01*
X216891314Y-67399524D01*
G37*
G36*
X159544508Y-67597566D02*
G01*
X159844789Y-67721947D01*
X160115035Y-67902519D01*
X160344860Y-68132344D01*
X160525432Y-68402590D01*
X160649813Y-68702871D01*
X160713221Y-69021647D01*
X160713221Y-69346669D01*
X160649813Y-69665445D01*
X160525432Y-69965726D01*
X160344860Y-70235972D01*
X160115035Y-70465797D01*
X159844789Y-70646369D01*
X159544508Y-70770750D01*
X159225732Y-70834158D01*
X158900710Y-70834158D01*
X158581934Y-70770750D01*
X158281653Y-70646369D01*
X158011407Y-70465797D01*
X157781582Y-70235972D01*
X157601010Y-69965726D01*
X157476629Y-69665445D01*
X157413221Y-69346669D01*
X157413221Y-69021647D01*
X157476629Y-68702871D01*
X157601010Y-68402590D01*
X157781582Y-68132344D01*
X158011407Y-67902519D01*
X158281653Y-67721947D01*
X158581934Y-67597566D01*
X158900710Y-67534158D01*
X159225732Y-67534158D01*
X159544508Y-67597566D01*
G37*
G36*
X164840326Y-68270666D02*
G01*
X165013215Y-68342279D01*
X165168811Y-68446245D01*
X165301134Y-68578568D01*
X165405100Y-68734164D01*
X165476713Y-68907053D01*
X165513221Y-69090591D01*
X165513221Y-69277725D01*
X165476713Y-69461263D01*
X165405100Y-69634152D01*
X165301134Y-69789748D01*
X165168811Y-69922071D01*
X165013215Y-70026037D01*
X164840326Y-70097650D01*
X164656788Y-70134158D01*
X164469654Y-70134158D01*
X164286116Y-70097650D01*
X164113227Y-70026037D01*
X163957631Y-69922071D01*
X163825308Y-69789748D01*
X163721342Y-69634152D01*
X163649729Y-69461263D01*
X163613221Y-69277725D01*
X163613221Y-69090591D01*
X163649729Y-68907053D01*
X163721342Y-68734164D01*
X163825308Y-68578568D01*
X163957631Y-68446245D01*
X164113227Y-68342279D01*
X164286116Y-68270666D01*
X164469654Y-68234158D01*
X164656788Y-68234158D01*
X164840326Y-68270666D01*
G37*
G36*
X153840326Y-68270666D02*
G01*
X154013215Y-68342279D01*
X154168811Y-68446245D01*
X154301134Y-68578568D01*
X154405100Y-68734164D01*
X154476713Y-68907053D01*
X154513221Y-69090591D01*
X154513221Y-69277725D01*
X154476713Y-69461263D01*
X154405100Y-69634152D01*
X154301134Y-69789748D01*
X154168811Y-69922071D01*
X154013215Y-70026037D01*
X153840326Y-70097650D01*
X153656788Y-70134158D01*
X153469654Y-70134158D01*
X153286116Y-70097650D01*
X153113227Y-70026037D01*
X152957631Y-69922071D01*
X152825308Y-69789748D01*
X152721342Y-69634152D01*
X152649729Y-69461263D01*
X152613221Y-69277725D01*
X152613221Y-69090591D01*
X152649729Y-68907053D01*
X152721342Y-68734164D01*
X152825308Y-68578568D01*
X152957631Y-68446245D01*
X153113227Y-68342279D01*
X153286116Y-68270666D01*
X153469654Y-68234158D01*
X153656788Y-68234158D01*
X153840326Y-68270666D01*
G37*
G36*
X122181314Y-63379524D02*
G01*
X122181316Y-63379525D01*
X122181317Y-63379525D01*
X122699983Y-63594364D01*
X123166768Y-63906259D01*
X123563740Y-64303231D01*
X123875637Y-64770019D01*
X124090476Y-65288686D01*
X124200000Y-65839299D01*
X124200000Y-66400701D01*
X124090476Y-66951314D01*
X124090475Y-66951317D01*
X123875636Y-67469983D01*
X123563741Y-67936768D01*
X123166768Y-68333741D01*
X122699983Y-68645636D01*
X122181317Y-68860475D01*
X122181316Y-68860475D01*
X122181314Y-68860476D01*
X121630701Y-68970000D01*
X121069299Y-68970000D01*
X120518686Y-68860476D01*
X120518684Y-68860475D01*
X120518683Y-68860475D01*
X120000017Y-68645636D01*
X119533232Y-68333741D01*
X119136259Y-67936768D01*
X118824364Y-67469983D01*
X118609525Y-66951317D01*
X118609524Y-66951314D01*
X118500000Y-66400701D01*
X118500000Y-65839299D01*
X118609524Y-65288686D01*
X118824363Y-64770019D01*
X119136260Y-64303231D01*
X119533232Y-63906259D01*
X120000017Y-63594364D01*
X120518683Y-63379525D01*
X120518684Y-63379525D01*
X120518686Y-63379524D01*
X121069299Y-63270000D01*
X121630701Y-63270000D01*
X122181314Y-63379524D01*
G37*
M02*
