G04 #@! TF.GenerationSoftware,KiCad,Pcbnew,(5.1.9)-1*
G04 #@! TF.CreationDate,2021-01-29T17:36:36+01:00*
G04 #@! TF.ProjectId,Mathias_ergo,4d617468-6961-4735-9f65-72676f2e6b69,1.0*
G04 #@! TF.SameCoordinates,Original*
G04 #@! TF.FileFunction,Legend,Bot*
G04 #@! TF.FilePolarity,Positive*
%FSLAX46Y46*%
G04 Gerber Fmt 4.6, Leading zero omitted, Abs format (unit mm)*
G04 Created by KiCad (PCBNEW (5.1.9)-1) date 2021-01-29 17:36:36*
%MOMM*%
%LPD*%
G01*
G04 APERTURE LIST*
%ADD10C,0.170000*%
%ADD11C,0.300000*%
%ADD12C,0.150000*%
%ADD13C,0.120000*%
%ADD14C,0.100000*%
G04 APERTURE END LIST*
D10*
X210084740Y-142383300D02*
X209916559Y-142472723D01*
X209854825Y-142559479D01*
X209815446Y-142688281D01*
X209862824Y-142878818D01*
X210019315Y-143173133D01*
X210150783Y-143318958D01*
X210279585Y-143358337D01*
X210386031Y-143355670D01*
X210554211Y-143266247D01*
X210615946Y-143179490D01*
X210655324Y-143050689D01*
X210607946Y-142860152D01*
X210451456Y-142565836D01*
X210319988Y-142420012D01*
X210191186Y-142380633D01*
X210084740Y-142383300D01*
X209610553Y-143012952D02*
X209274192Y-143191799D01*
X209797399Y-143668651D02*
X209394995Y-142911839D01*
X209308238Y-142850105D01*
X209201792Y-142852771D01*
X209117702Y-142897483D01*
X209106012Y-143281222D02*
X208769651Y-143460068D01*
X209292858Y-143936921D02*
X208890453Y-143180109D01*
X208803697Y-143118374D01*
X208697251Y-143121041D01*
X208613160Y-143165752D01*
X213332427Y-140737389D02*
X213164246Y-140826812D01*
X213102512Y-140913569D01*
X213063133Y-141042371D01*
X213110511Y-141232907D01*
X213267002Y-141527223D01*
X213398470Y-141673048D01*
X213527272Y-141712426D01*
X213633718Y-141709760D01*
X213801898Y-141620337D01*
X213863633Y-141533580D01*
X213903012Y-141404778D01*
X213855634Y-141214242D01*
X213699143Y-140919926D01*
X213567675Y-140774101D01*
X213438873Y-140734723D01*
X213332427Y-140737389D01*
X212732105Y-141434109D02*
X213045086Y-142022741D01*
X212776817Y-141518199D02*
X212712416Y-141498510D01*
X212605970Y-141501176D01*
X212479834Y-141568244D01*
X212418100Y-141655001D01*
X212420766Y-141761447D01*
X212666680Y-142223943D01*
D11*
X167309571Y-59709857D02*
X167095285Y-59781285D01*
X167023857Y-59852714D01*
X166952428Y-59995571D01*
X166952428Y-60209857D01*
X167023857Y-60352714D01*
X167095285Y-60424142D01*
X167238142Y-60495571D01*
X167809571Y-60495571D01*
X167809571Y-58995571D01*
X167309571Y-58995571D01*
X167166714Y-59067000D01*
X167095285Y-59138428D01*
X167023857Y-59281285D01*
X167023857Y-59424142D01*
X167095285Y-59567000D01*
X167166714Y-59638428D01*
X167309571Y-59709857D01*
X167809571Y-59709857D01*
X166095285Y-60495571D02*
X166238142Y-60424142D01*
X166309571Y-60352714D01*
X166381000Y-60209857D01*
X166381000Y-59781285D01*
X166309571Y-59638428D01*
X166238142Y-59567000D01*
X166095285Y-59495571D01*
X165881000Y-59495571D01*
X165738142Y-59567000D01*
X165666714Y-59638428D01*
X165595285Y-59781285D01*
X165595285Y-60209857D01*
X165666714Y-60352714D01*
X165738142Y-60424142D01*
X165881000Y-60495571D01*
X166095285Y-60495571D01*
X165166714Y-59495571D02*
X164595285Y-59495571D01*
X164952428Y-58995571D02*
X164952428Y-60281285D01*
X164881000Y-60424142D01*
X164738142Y-60495571D01*
X164595285Y-60495571D01*
X164095285Y-60495571D02*
X164095285Y-58995571D01*
X163952428Y-59924142D02*
X163523857Y-60495571D01*
X163523857Y-59495571D02*
X164095285Y-60067000D01*
X162309571Y-60424142D02*
X162452428Y-60495571D01*
X162738142Y-60495571D01*
X162881000Y-60424142D01*
X162952428Y-60281285D01*
X162952428Y-59709857D01*
X162881000Y-59567000D01*
X162738142Y-59495571D01*
X162452428Y-59495571D01*
X162309571Y-59567000D01*
X162238142Y-59709857D01*
X162238142Y-59852714D01*
X162952428Y-59995571D01*
X161023857Y-60424142D02*
X161166714Y-60495571D01*
X161452428Y-60495571D01*
X161595285Y-60424142D01*
X161666714Y-60281285D01*
X161666714Y-59709857D01*
X161595285Y-59567000D01*
X161452428Y-59495571D01*
X161166714Y-59495571D01*
X161023857Y-59567000D01*
X160952428Y-59709857D01*
X160952428Y-59852714D01*
X161666714Y-59995571D01*
X160309571Y-60495571D02*
X160309571Y-58995571D01*
X160309571Y-59567000D02*
X160166714Y-59495571D01*
X159881000Y-59495571D01*
X159738142Y-59567000D01*
X159666714Y-59638428D01*
X159595285Y-59781285D01*
X159595285Y-60209857D01*
X159666714Y-60352714D01*
X159738142Y-60424142D01*
X159881000Y-60495571D01*
X160166714Y-60495571D01*
X160309571Y-60424142D01*
X157809571Y-60495571D02*
X157809571Y-59495571D01*
X157809571Y-59781285D02*
X157738142Y-59638428D01*
X157666714Y-59567000D01*
X157523857Y-59495571D01*
X157381000Y-59495571D01*
X156309571Y-60424142D02*
X156452428Y-60495571D01*
X156738142Y-60495571D01*
X156881000Y-60424142D01*
X156952428Y-60281285D01*
X156952428Y-59709857D01*
X156881000Y-59567000D01*
X156738142Y-59495571D01*
X156452428Y-59495571D01*
X156309571Y-59567000D01*
X156238142Y-59709857D01*
X156238142Y-59852714D01*
X156952428Y-59995571D01*
X155738142Y-59495571D02*
X155381000Y-60495571D01*
X155023857Y-59495571D01*
X152523857Y-60495571D02*
X153381000Y-60495571D01*
X152952428Y-60495571D02*
X152952428Y-58995571D01*
X153095285Y-59209857D01*
X153238142Y-59352714D01*
X153381000Y-59424142D01*
X151881000Y-60352714D02*
X151809571Y-60424142D01*
X151881000Y-60495571D01*
X151952428Y-60424142D01*
X151881000Y-60352714D01*
X151881000Y-60495571D01*
X150381000Y-60495571D02*
X151238142Y-60495571D01*
X150809571Y-60495571D02*
X150809571Y-58995571D01*
X150952428Y-59209857D01*
X151095285Y-59352714D01*
X151238142Y-59424142D01*
D10*
X200275200Y-136469380D02*
X200275200Y-135469380D01*
X200037104Y-135469380D01*
X199894247Y-135517000D01*
X199799009Y-135612238D01*
X199751390Y-135707476D01*
X199703771Y-135897952D01*
X199703771Y-136040809D01*
X199751390Y-136231285D01*
X199799009Y-136326523D01*
X199894247Y-136421761D01*
X200037104Y-136469380D01*
X200275200Y-136469380D01*
X198894247Y-136421761D02*
X198989485Y-136469380D01*
X199179961Y-136469380D01*
X199275200Y-136421761D01*
X199322819Y-136326523D01*
X199322819Y-135945571D01*
X199275200Y-135850333D01*
X199179961Y-135802714D01*
X198989485Y-135802714D01*
X198894247Y-135850333D01*
X198846628Y-135945571D01*
X198846628Y-136040809D01*
X199322819Y-136136047D01*
X198418057Y-136469380D02*
X198418057Y-135469380D01*
X198418057Y-135850333D02*
X198322819Y-135802714D01*
X198132342Y-135802714D01*
X198037104Y-135850333D01*
X197989485Y-135897952D01*
X197941866Y-135993190D01*
X197941866Y-136278904D01*
X197989485Y-136374142D01*
X198037104Y-136421761D01*
X198132342Y-136469380D01*
X198322819Y-136469380D01*
X198418057Y-136421761D01*
X197370438Y-136469380D02*
X197465676Y-136421761D01*
X197513295Y-136374142D01*
X197560914Y-136278904D01*
X197560914Y-135993190D01*
X197513295Y-135897952D01*
X197465676Y-135850333D01*
X197370438Y-135802714D01*
X197227580Y-135802714D01*
X197132342Y-135850333D01*
X197084723Y-135897952D01*
X197037104Y-135993190D01*
X197037104Y-136278904D01*
X197084723Y-136374142D01*
X197132342Y-136421761D01*
X197227580Y-136469380D01*
X197370438Y-136469380D01*
X196179961Y-135802714D02*
X196179961Y-136469380D01*
X196608533Y-135802714D02*
X196608533Y-136326523D01*
X196560914Y-136421761D01*
X196465676Y-136469380D01*
X196322819Y-136469380D01*
X196227580Y-136421761D01*
X196179961Y-136374142D01*
X195703771Y-135802714D02*
X195703771Y-136469380D01*
X195703771Y-135897952D02*
X195656152Y-135850333D01*
X195560914Y-135802714D01*
X195418057Y-135802714D01*
X195322819Y-135850333D01*
X195275200Y-135945571D01*
X195275200Y-136469380D01*
X194370438Y-136421761D02*
X194465676Y-136469380D01*
X194656152Y-136469380D01*
X194751390Y-136421761D01*
X194799009Y-136374142D01*
X194846628Y-136278904D01*
X194846628Y-135993190D01*
X194799009Y-135897952D01*
X194751390Y-135850333D01*
X194656152Y-135802714D01*
X194465676Y-135802714D01*
X194370438Y-135850333D01*
X193560914Y-136421761D02*
X193656152Y-136469380D01*
X193846628Y-136469380D01*
X193941866Y-136421761D01*
X193989485Y-136326523D01*
X193989485Y-135945571D01*
X193941866Y-135850333D01*
X193846628Y-135802714D01*
X193656152Y-135802714D01*
X193560914Y-135850333D01*
X193513295Y-135945571D01*
X193513295Y-136040809D01*
X193989485Y-136136047D01*
X192179961Y-136469380D02*
X192275200Y-136421761D01*
X192322819Y-136326523D01*
X192322819Y-135469380D01*
X191418057Y-136421761D02*
X191513295Y-136469380D01*
X191703771Y-136469380D01*
X191799009Y-136421761D01*
X191846628Y-136326523D01*
X191846628Y-135945571D01*
X191799009Y-135850333D01*
X191703771Y-135802714D01*
X191513295Y-135802714D01*
X191418057Y-135850333D01*
X191370438Y-135945571D01*
X191370438Y-136040809D01*
X191846628Y-136136047D01*
X191084723Y-135802714D02*
X190703771Y-135802714D01*
X190941866Y-136469380D02*
X190941866Y-135612238D01*
X190894247Y-135517000D01*
X190799009Y-135469380D01*
X190703771Y-135469380D01*
X190513295Y-135802714D02*
X190132342Y-135802714D01*
X190370438Y-135469380D02*
X190370438Y-136326523D01*
X190322819Y-136421761D01*
X190227580Y-136469380D01*
X190132342Y-136469380D01*
D12*
X208221460Y-142251252D02*
X213165966Y-139622211D01*
D13*
X171984336Y-144785622D02*
G75*
G03*
X179680721Y-144784158I3846385J9501464D01*
G01*
X186380721Y-144784158D02*
X179680721Y-144784158D01*
X165280721Y-144784158D02*
X171980721Y-144784158D01*
X179780721Y-124434158D02*
X186580721Y-129234158D01*
X171880721Y-124434158D02*
X179780721Y-124434158D01*
X165030721Y-129234158D02*
X171880721Y-124434158D01*
X127063221Y-82984158D02*
G75*
G03*
X127063221Y-82984158I-1100000J0D01*
G01*
D14*
X128329221Y-86618158D02*
X113529221Y-86618158D01*
X113529221Y-86618158D02*
X113529221Y-71818158D01*
X113529221Y-71818158D02*
X128329221Y-71818158D01*
X128329221Y-71818158D02*
X128329221Y-86618158D01*
D13*
X116841644Y-143921563D02*
G75*
G03*
X116841644Y-143921563I-1100000J0D01*
G01*
D14*
X119499566Y-146085339D02*
X106312670Y-152804399D01*
X106312670Y-152804399D02*
X99593610Y-139617502D01*
X99593610Y-139617502D02*
X112780507Y-132898443D01*
X112780507Y-132898443D02*
X119499566Y-146085339D01*
D13*
X165163221Y-91034158D02*
G75*
G03*
X165163221Y-91034158I-1100000J0D01*
G01*
D14*
X166429221Y-94668158D02*
X151629221Y-94668158D01*
X151629221Y-94668158D02*
X151629221Y-79868158D01*
X151629221Y-79868158D02*
X166429221Y-79868158D01*
X166429221Y-79868158D02*
X166429221Y-94668158D01*
D13*
X87574132Y-139311448D02*
G75*
G03*
X87574132Y-139311448I-1100000J0D01*
G01*
D14*
X90633347Y-140538170D02*
X79379339Y-150150001D01*
X79379339Y-150150001D02*
X69767508Y-138895992D01*
X69767508Y-138895992D02*
X81021516Y-129284161D01*
X81021516Y-129284161D02*
X90633347Y-140538170D01*
D13*
X155113221Y-137134158D02*
G75*
G03*
X155113221Y-137134158I-1100000J0D01*
G01*
D14*
X156379221Y-140768158D02*
X141579221Y-140768158D01*
X141579221Y-140768158D02*
X141579221Y-125968158D01*
X141579221Y-125968158D02*
X156379221Y-125968158D01*
X156379221Y-125968158D02*
X156379221Y-140768158D01*
D13*
X108193125Y-126947889D02*
G75*
G03*
X108193125Y-126947889I-1100000J0D01*
G01*
D14*
X110851047Y-129111665D02*
X97664151Y-135830725D01*
X97664151Y-135830725D02*
X90945091Y-122643828D01*
X90945091Y-122643828D02*
X104131988Y-115924769D01*
X104131988Y-115924769D02*
X110851047Y-129111665D01*
D13*
X203263221Y-82984158D02*
G75*
G03*
X203263221Y-82984158I-1100000J0D01*
G01*
D14*
X204529221Y-86618158D02*
X189729221Y-86618158D01*
X189729221Y-86618158D02*
X189729221Y-71818158D01*
X189729221Y-71818158D02*
X204529221Y-71818158D01*
X204529221Y-71818158D02*
X204529221Y-86618158D01*
D13*
X203263221Y-119084158D02*
G75*
G03*
X203263221Y-119084158I-1100000J0D01*
G01*
D14*
X204529221Y-122718158D02*
X189729221Y-122718158D01*
X189729221Y-122718158D02*
X189729221Y-107918158D01*
X189729221Y-107918158D02*
X204529221Y-107918158D01*
X204529221Y-107918158D02*
X204529221Y-122718158D01*
D13*
X146113221Y-114084158D02*
G75*
G03*
X146113221Y-114084158I-1100000J0D01*
G01*
D14*
X147379221Y-117718158D02*
X132579221Y-117718158D01*
X132579221Y-117718158D02*
X132579221Y-102918158D01*
X132579221Y-102918158D02*
X147379221Y-102918158D01*
X147379221Y-102918158D02*
X147379221Y-117718158D01*
D13*
X127063221Y-119084158D02*
G75*
G03*
X127063221Y-119084158I-1100000J0D01*
G01*
D14*
X128329221Y-122718158D02*
X113529221Y-122718158D01*
X113529221Y-122718158D02*
X113529221Y-107918158D01*
X113529221Y-107918158D02*
X128329221Y-107918158D01*
X128329221Y-107918158D02*
X128329221Y-122718158D01*
D13*
X165163221Y-72984158D02*
G75*
G03*
X165163221Y-72984158I-1100000J0D01*
G01*
D14*
X166429221Y-76618158D02*
X151629221Y-76618158D01*
X151629221Y-76618158D02*
X151629221Y-61818158D01*
X151629221Y-61818158D02*
X166429221Y-61818158D01*
X166429221Y-61818158D02*
X166429221Y-76618158D01*
D13*
X184213221Y-114084158D02*
G75*
G03*
X184213221Y-114084158I-1100000J0D01*
G01*
D14*
X185479221Y-117718158D02*
X170679221Y-117718158D01*
X170679221Y-117718158D02*
X170679221Y-102918158D01*
X170679221Y-102918158D02*
X185479221Y-102918158D01*
X185479221Y-102918158D02*
X185479221Y-117718158D01*
D13*
X146113221Y-96034158D02*
G75*
G03*
X146113221Y-96034158I-1100000J0D01*
G01*
D14*
X147379221Y-99668158D02*
X132579221Y-99668158D01*
X132579221Y-99668158D02*
X132579221Y-84868158D01*
X132579221Y-84868158D02*
X147379221Y-84868158D01*
X147379221Y-84868158D02*
X147379221Y-99668158D01*
D13*
X146113221Y-77984158D02*
G75*
G03*
X146113221Y-77984158I-1100000J0D01*
G01*
D14*
X147379221Y-81618158D02*
X132579221Y-81618158D01*
X132579221Y-81618158D02*
X132579221Y-66818158D01*
X132579221Y-66818158D02*
X147379221Y-66818158D01*
X147379221Y-66818158D02*
X147379221Y-81618158D01*
D13*
X99946118Y-153797181D02*
G75*
G03*
X99946118Y-153797181I-1100000J0D01*
G01*
D14*
X103005333Y-155023903D02*
X91751325Y-164635734D01*
X91751325Y-164635734D02*
X82139494Y-153381725D01*
X82139494Y-153381725D02*
X93393502Y-143769894D01*
X93393502Y-143769894D02*
X103005333Y-155023903D01*
D13*
X222313221Y-87984158D02*
G75*
G03*
X222313221Y-87984158I-1100000J0D01*
G01*
D14*
X223579221Y-91618158D02*
X208779221Y-91618158D01*
X208779221Y-91618158D02*
X208779221Y-76818158D01*
X208779221Y-76818158D02*
X223579221Y-76818158D01*
X223579221Y-76818158D02*
X223579221Y-91618158D01*
D13*
X203263221Y-101034158D02*
G75*
G03*
X203263221Y-101034158I-1100000J0D01*
G01*
D14*
X204529221Y-104668158D02*
X189729221Y-104668158D01*
X189729221Y-104668158D02*
X189729221Y-89868158D01*
X189729221Y-89868158D02*
X204529221Y-89868158D01*
X204529221Y-89868158D02*
X204529221Y-104668158D01*
D13*
X184213221Y-96034158D02*
G75*
G03*
X184213221Y-96034158I-1100000J0D01*
G01*
D14*
X185479221Y-99668158D02*
X170679221Y-99668158D01*
X170679221Y-99668158D02*
X170679221Y-84868158D01*
X170679221Y-84868158D02*
X185479221Y-84868158D01*
X185479221Y-84868158D02*
X185479221Y-99668158D01*
D13*
X184213221Y-77984158D02*
G75*
G03*
X184213221Y-77984158I-1100000J0D01*
G01*
D14*
X185479221Y-81618158D02*
X170679221Y-81618158D01*
X170679221Y-81618158D02*
X170679221Y-66818158D01*
X170679221Y-66818158D02*
X185479221Y-66818158D01*
X185479221Y-66818158D02*
X185479221Y-81618158D01*
D13*
X165163221Y-109084158D02*
G75*
G03*
X165163221Y-109084158I-1100000J0D01*
G01*
D14*
X166429221Y-112718158D02*
X151629221Y-112718158D01*
X151629221Y-112718158D02*
X151629221Y-97918158D01*
X151629221Y-97918158D02*
X166429221Y-97918158D01*
X166429221Y-97918158D02*
X166429221Y-112718158D01*
D13*
X127063221Y-101034158D02*
G75*
G03*
X127063221Y-101034158I-1100000J0D01*
G01*
D14*
X128329221Y-104668158D02*
X113529221Y-104668158D01*
X113529221Y-104668158D02*
X113529221Y-89868158D01*
X113529221Y-89868158D02*
X128329221Y-89868158D01*
X128329221Y-89868158D02*
X128329221Y-104668158D01*
D13*
X222313221Y-106034158D02*
G75*
G03*
X222313221Y-106034158I-1100000J0D01*
G01*
D14*
X223579221Y-109668158D02*
X208779221Y-109668158D01*
X208779221Y-109668158D02*
X208779221Y-94868158D01*
X208779221Y-94868158D02*
X223579221Y-94868158D01*
X223579221Y-94868158D02*
X223579221Y-109668158D01*
D13*
X135575761Y-138262991D02*
G75*
G03*
X135575761Y-138262991I-1100000J0D01*
G01*
D14*
X137624729Y-141244251D02*
X123233654Y-144699243D01*
X123233654Y-144699243D02*
X119778662Y-130308168D01*
X119778662Y-130308168D02*
X134169737Y-126853177D01*
X134169737Y-126853177D02*
X137624729Y-141244251D01*
D13*
X222313221Y-124084158D02*
G75*
G03*
X222313221Y-124084158I-1100000J0D01*
G01*
D14*
X223579221Y-127718158D02*
X208779221Y-127718158D01*
X208779221Y-127718158D02*
X208779221Y-112918158D01*
X208779221Y-112918158D02*
X223579221Y-112918158D01*
X223579221Y-112918158D02*
X223579221Y-127718158D01*
D13*
X97495149Y-97582833D02*
X104537222Y-110827047D01*
X80002191Y-106884004D02*
X87044265Y-120128217D01*
X85028644Y-105412272D02*
G75*
G03*
X85028644Y-105412272I-349999J0D01*
G01*
X69520410Y-121847832D02*
X61703436Y-128524157D01*
X61703436Y-128524157D02*
X59975905Y-126501478D01*
X59975905Y-126501478D02*
X67792878Y-119825152D01*
X67792878Y-119825152D02*
X69520410Y-121847832D01*
X67070492Y-120442127D02*
X63173804Y-115879691D01*
X63173804Y-115879691D02*
X62595895Y-116373272D01*
X62595895Y-116373272D02*
X66492584Y-120935708D01*
X67024868Y-120481094D02*
X63128180Y-115918658D01*
X66933619Y-120559028D02*
X63036931Y-115996592D01*
X66842370Y-120636962D02*
X62945682Y-116074526D01*
X66751122Y-120714895D02*
X62854433Y-116152460D01*
X66659873Y-120792829D02*
X62763185Y-116230393D01*
X66568624Y-120870763D02*
X62671936Y-116308327D01*
X69012342Y-122715741D02*
X68798024Y-122464807D01*
X68434433Y-123209322D02*
X68220116Y-122958388D01*
X67543354Y-123536396D02*
X65815822Y-121513717D01*
X65139061Y-122091725D02*
X61242373Y-117529290D01*
X61242373Y-117529290D02*
X60664464Y-118022870D01*
X60664464Y-118022870D02*
X64561153Y-122585306D01*
X67124470Y-124416340D02*
X66866593Y-124114405D01*
X66546561Y-124909921D02*
X66288684Y-124607986D01*
X65611923Y-125185994D02*
X63884391Y-123163315D01*
X63207630Y-123741323D02*
X59310942Y-119178888D01*
X59310942Y-119178888D02*
X58733033Y-119672468D01*
X58733033Y-119672468D02*
X62629721Y-124234904D01*
X65193039Y-126065938D02*
X64935162Y-125764003D01*
X64615130Y-126559519D02*
X64357253Y-126257584D01*
X63680492Y-126835593D02*
X61952960Y-124812913D01*
X61276199Y-125390921D02*
X57379511Y-120828486D01*
X57379511Y-120828486D02*
X56801602Y-121322066D01*
X56801602Y-121322066D02*
X60698290Y-125884502D01*
X63261608Y-127715536D02*
X63003731Y-127413601D01*
X62683699Y-128209117D02*
X62425822Y-127907182D01*
X70269074Y-124772298D02*
X71234790Y-123947499D01*
X71234790Y-123947499D02*
X70409991Y-122981783D01*
X198743221Y-143694221D02*
X197813221Y-143694221D01*
X195583221Y-143694221D02*
X196513221Y-143694221D01*
X195583221Y-143694221D02*
X195583221Y-141534221D01*
X198743221Y-143694221D02*
X198743221Y-142234221D01*
D12*
X209998851Y-135988509D02*
X209895072Y-136097622D01*
X209684846Y-136209401D01*
X209578400Y-136212067D01*
X209513999Y-136192378D01*
X209427243Y-136130643D01*
X209382531Y-136046553D01*
X209379865Y-135940107D01*
X209399554Y-135875706D01*
X209461288Y-135788949D01*
X209607113Y-135657481D01*
X209668847Y-135570724D01*
X209688537Y-135506323D01*
X209685870Y-135399877D01*
X209641159Y-135315787D01*
X209554402Y-135254053D01*
X209490001Y-135234363D01*
X209383555Y-135237030D01*
X209173330Y-135348809D01*
X209069550Y-135457921D01*
X208752878Y-135572367D02*
X209012124Y-136567093D01*
X208508607Y-136025839D01*
X208675763Y-136745939D01*
X207996066Y-135974771D01*
X207746462Y-136215352D02*
X207682061Y-136195662D01*
X207575615Y-136198329D01*
X207365389Y-136310108D01*
X207303655Y-136396864D01*
X207283965Y-136461265D01*
X207286632Y-136567711D01*
X207331343Y-136651802D01*
X207440456Y-136755581D01*
X208213267Y-136991853D01*
X207666680Y-137282478D01*
X206440396Y-136801935D02*
X206608577Y-136712512D01*
X206715023Y-136709845D01*
X206779424Y-136729535D01*
X206930582Y-136810958D01*
X207062050Y-136956783D01*
X207240896Y-137293144D01*
X207243563Y-137399590D01*
X207223873Y-137463991D01*
X207162139Y-137550748D01*
X206993958Y-137640171D01*
X206887512Y-137642837D01*
X206823111Y-137623148D01*
X206736355Y-137561414D01*
X206624576Y-137351188D01*
X206621909Y-137244742D01*
X206641599Y-137180341D01*
X206703333Y-137093584D01*
X206871514Y-137004161D01*
X206977960Y-137001495D01*
X207042360Y-137021184D01*
X207129117Y-137082919D01*
X167466435Y-125512729D02*
X167323578Y-125560348D01*
X167275959Y-125607967D01*
X167228340Y-125703205D01*
X167228340Y-125846062D01*
X167275959Y-125941300D01*
X167323578Y-125988919D01*
X167418816Y-126036538D01*
X167799768Y-126036538D01*
X167799768Y-125036538D01*
X167466435Y-125036538D01*
X167371197Y-125084158D01*
X167323578Y-125131777D01*
X167275959Y-125227015D01*
X167275959Y-125322253D01*
X167323578Y-125417491D01*
X167371197Y-125465110D01*
X167466435Y-125512729D01*
X167799768Y-125512729D01*
X166942625Y-125036538D02*
X166371197Y-125036538D01*
X166656911Y-126036538D02*
X166656911Y-125036538D01*
X166085482Y-125131777D02*
X166037863Y-125084158D01*
X165942625Y-125036538D01*
X165704530Y-125036538D01*
X165609292Y-125084158D01*
X165561673Y-125131777D01*
X165514054Y-125227015D01*
X165514054Y-125322253D01*
X165561673Y-125465110D01*
X166133101Y-126036538D01*
X165514054Y-126036538D01*
X94626602Y-110369133D02*
X95509549Y-109899661D01*
X94722382Y-109940682D01*
X95196568Y-109311029D01*
X94313621Y-109780501D01*
X93905884Y-108810797D02*
X93886194Y-108875198D01*
X93911216Y-109023689D01*
X93955928Y-109107779D01*
X94065041Y-109211559D01*
X94193842Y-109250937D01*
X94300288Y-109248271D01*
X94490825Y-109200893D01*
X94616960Y-109133825D01*
X94762785Y-109002357D01*
X94824519Y-108915600D01*
X94863898Y-108786799D01*
X94838876Y-108638307D01*
X94794164Y-108554217D01*
X94685052Y-108450438D01*
X94620651Y-108430748D01*
X94503539Y-108007631D02*
X93788772Y-108387679D01*
X93682326Y-108390345D01*
X93617925Y-108370656D01*
X93531168Y-108308922D01*
X93441745Y-108140741D01*
X93439078Y-108034295D01*
X93458768Y-107969894D01*
X93520502Y-107883138D01*
X94235269Y-107503089D01*
X93949977Y-107169395D02*
X93969666Y-107104994D01*
X93967000Y-106998548D01*
X93855221Y-106788322D01*
X93768464Y-106726588D01*
X93704063Y-106706898D01*
X93597617Y-106709565D01*
X93513527Y-106754276D01*
X93409747Y-106863389D01*
X93173475Y-107636200D01*
X92882850Y-107089613D01*
X60516895Y-128204847D02*
X59973748Y-128668738D01*
X59896045Y-128797727D01*
X59885477Y-128931998D01*
X59942046Y-129071554D01*
X60003898Y-129143974D01*
X60166140Y-127940811D02*
X60171424Y-127873675D01*
X60145782Y-127770329D01*
X59991151Y-127589280D01*
X59893089Y-127547787D01*
X59825953Y-127542503D01*
X59722608Y-127568145D01*
X59650188Y-127629998D01*
X59572485Y-127758986D01*
X59509080Y-128564617D01*
X59107041Y-128093889D01*
X195210840Y-142838982D02*
X195163221Y-142743744D01*
X195067982Y-142648506D01*
X194925125Y-142505649D01*
X194877506Y-142410411D01*
X194877506Y-142315173D01*
X195115601Y-142362792D02*
X195067982Y-142267554D01*
X194972744Y-142172316D01*
X194782268Y-142124697D01*
X194448935Y-142124697D01*
X194258459Y-142172316D01*
X194163221Y-142267554D01*
X194115601Y-142362792D01*
X194115601Y-142553268D01*
X194163221Y-142648506D01*
X194258459Y-142743744D01*
X194448935Y-142791363D01*
X194782268Y-142791363D01*
X194972744Y-142743744D01*
X195067982Y-142648506D01*
X195115601Y-142553268D01*
X195115601Y-142362792D01*
X194210840Y-143172316D02*
X194163221Y-143219935D01*
X194115601Y-143315173D01*
X194115601Y-143553268D01*
X194163221Y-143648506D01*
X194210840Y-143696125D01*
X194306078Y-143743744D01*
X194401316Y-143743744D01*
X194544173Y-143696125D01*
X195115601Y-143124697D01*
X195115601Y-143743744D01*
M02*
