M48
; DRILL file {KiCad (5.1.9)-1} date 01/29/21 17:36:56
; FORMAT={-:-/ absolute / inch / decimal}
; #@! TF.CreationDate,2021-01-29T17:36:56+01:00
; #@! TF.GenerationSoftware,Kicad,Pcbnew,(5.1.9)-1
; #@! TF.FileFunction,NonPlated,1,2,NPTH
FMAT,2
INCH
T1C0.0354
T2C0.0709
T3C0.1260
%
G90
G05
T1
X8.2189Y-5.5312
X8.2189Y-5.5312
X8.3231Y-5.4758
X8.3231Y-5.4758
T2
X2.993Y-5.6394
X3.3223Y-5.3582
X3.4801Y-6.2097
X3.78Y-5.0523
X3.8094Y-5.9285
X4.1205Y-5.7206
X4.1659Y-4.8557
X4.5064Y-5.524
X4.5458Y-3.1175
X4.5458Y-3.8281
X4.5458Y-4.5387
X4.8574Y-5.3945
X4.9789Y-3.1175
X4.9789Y-3.8281
X4.9789Y-4.5387
X5.2785Y-5.2934
X5.2958Y-2.9206
X5.2958Y-3.6313
X5.2958Y-4.3419
X5.6501Y-5.2494
X5.7289Y-2.9206
X5.7289Y-3.6313
X5.7289Y-4.3419
X6.0458Y-2.7238
X6.0458Y-3.4344
X6.0458Y-4.145
X6.0832Y-5.2494
X6.4789Y-2.7238
X6.4789Y-3.4344
X6.4789Y-4.145
X6.7958Y-2.9206
X6.7958Y-3.6313
X6.7958Y-4.3419
X7.2289Y-2.9206
X7.2289Y-3.6313
X7.2289Y-4.3419
X7.5458Y-3.1175
X7.5458Y-3.8281
X7.5458Y-4.5387
X7.9789Y-3.1175
X7.9789Y-3.8281
X7.9789Y-4.5387
X8.2958Y-3.3143
X8.2958Y-4.025
X8.2958Y-4.7356
X8.7289Y-3.3143
X8.7289Y-4.025
X8.7289Y-4.7356
T3
X3.1576Y-5.4988
X3.6447Y-6.0691
X3.9729Y-4.954
X4.3134Y-5.6223
X4.7623Y-3.1175
X4.7623Y-3.8281
X4.7623Y-4.5387
X5.068Y-5.3439
X5.5123Y-2.9206
X5.5123Y-3.6313
X5.5123Y-4.3419
X5.8667Y-5.2494
X6.2623Y-2.7238
X6.2623Y-3.4344
X6.2623Y-4.145
X7.0123Y-2.9206
X7.0123Y-3.6313
X7.0123Y-4.3419
X7.7623Y-3.1175
X7.7623Y-3.8281
X7.7623Y-4.5387
X8.5123Y-3.3143
X8.5123Y-4.025
X8.5123Y-4.7356
T0
M30
