M48
; DRILL file {KiCad (5.1.9)-1} date 01/29/21 17:36:56
; FORMAT={-:-/ absolute / inch / decimal}
; #@! TF.CreationDate,2021-01-29T17:36:56+01:00
; #@! TF.GenerationSoftware,Kicad,Pcbnew,(5.1.9)-1
; #@! TF.FileFunction,Plated,1,2,PTH
FMAT,2
INCH
T1C0.0157
T2C0.0394
T3C0.0472
T4C0.0730
T5C0.0866
%
G90
G05
T1
X8.207Y-5.289
T2
X2.5059Y-5.0691
X2.5059Y-5.0691
X2.5819Y-5.0042
X2.5819Y-5.0042
X2.658Y-4.9392
X2.658Y-4.9392
X2.734Y-4.8743
X2.734Y-4.8743
X7.7121Y-5.147
X7.7121Y-5.247
X7.8121Y-5.147
X7.8121Y-5.247
T3
X3.1051Y-5.7404
X3.3085Y-5.6754
X3.4045Y-5.4847
X3.5922Y-6.3107
X3.7956Y-6.2457
X3.8655Y-5.1767
X3.8916Y-6.055
X4.0784Y-5.161
X4.206Y-5.8449
X4.2163Y-4.9979
X4.4189Y-5.8292
X4.5568Y-5.6662
X4.5655Y-3.2671
X4.5655Y-3.9777
X4.5655Y-4.6884
X4.7623Y-3.3498
X4.7623Y-4.0604
X4.7623Y-4.771
X4.9115Y-5.5353
X4.9592Y-3.2671
X4.9592Y-3.9777
X4.9592Y-4.6884
X5.1222Y-5.5698
X5.2943Y-5.4434
X5.3155Y-3.0702
X5.3155Y-3.7809
X5.3155Y-4.4915
X5.5123Y-3.1529
X5.5123Y-3.8635
X5.5123Y-4.5742
X5.6698Y-5.399
X5.7092Y-3.0702
X5.7092Y-3.7809
X5.7092Y-4.4915
X5.8667Y-5.4817
X6.0635Y-5.399
X6.0655Y-2.8734
X6.0655Y-3.584
X6.0655Y-4.2947
X6.2623Y-2.9561
X6.2623Y-3.6667
X6.2623Y-4.3773
X6.4592Y-2.8734
X6.4592Y-3.584
X6.4592Y-4.2947
X6.8155Y-3.0702
X6.8155Y-3.7809
X6.8155Y-4.4915
X7.0123Y-3.1529
X7.0123Y-3.8635
X7.0123Y-4.5742
X7.2092Y-3.0702
X7.2092Y-3.7809
X7.2092Y-4.4915
X7.5655Y-3.2671
X7.5655Y-3.9777
X7.5655Y-4.6884
X7.7623Y-3.3498
X7.7623Y-4.0604
X7.7623Y-4.771
X7.9592Y-3.2671
X7.9592Y-3.9777
X7.9592Y-4.6884
X8.3155Y-3.4639
X8.3155Y-4.1746
X8.3155Y-4.8852
X8.5123Y-3.5466
X8.5123Y-4.2573
X8.5123Y-4.9679
X8.7092Y-3.4639
X8.7092Y-4.1746
X8.7092Y-4.8852
T4
X6.507Y-5.3261
X6.507Y-5.3261
X7.338Y-5.3261
X7.338Y-5.3261
T5
X3.129Y-4.5735
X3.9447Y-6.427
X4.7623Y-2.5958
X6.223Y-4.7454
X8.4791Y-5.2501
X8.5123Y-2.7927
T0
M30
