G04 #@! TF.GenerationSoftware,KiCad,Pcbnew,(5.1.6)-1*
G04 #@! TF.CreationDate,2020-10-07T13:29:02+02:00*
G04 #@! TF.ProjectId,Mathias_ergo,4d617468-6961-4735-9f65-72676f2e6b69,rev?*
G04 #@! TF.SameCoordinates,Original*
G04 #@! TF.FileFunction,Legend,Bot*
G04 #@! TF.FilePolarity,Positive*
%FSLAX46Y46*%
G04 Gerber Fmt 4.6, Leading zero omitted, Abs format (unit mm)*
G04 Created by KiCad (PCBNEW (5.1.6)-1) date 2020-10-07 13:29:02*
%MOMM*%
%LPD*%
G01*
G04 APERTURE LIST*
%ADD10C,0.150000*%
%ADD11C,0.120000*%
G04 APERTURE END LIST*
D10*
X205620000Y-142522380D02*
X205620000Y-141522380D01*
X205381904Y-141522380D01*
X205239047Y-141570000D01*
X205143809Y-141665238D01*
X205096190Y-141760476D01*
X205048571Y-141950952D01*
X205048571Y-142093809D01*
X205096190Y-142284285D01*
X205143809Y-142379523D01*
X205239047Y-142474761D01*
X205381904Y-142522380D01*
X205620000Y-142522380D01*
X204239047Y-142474761D02*
X204334285Y-142522380D01*
X204524761Y-142522380D01*
X204620000Y-142474761D01*
X204667619Y-142379523D01*
X204667619Y-141998571D01*
X204620000Y-141903333D01*
X204524761Y-141855714D01*
X204334285Y-141855714D01*
X204239047Y-141903333D01*
X204191428Y-141998571D01*
X204191428Y-142093809D01*
X204667619Y-142189047D01*
X203762857Y-142522380D02*
X203762857Y-141522380D01*
X203762857Y-141903333D02*
X203667619Y-141855714D01*
X203477142Y-141855714D01*
X203381904Y-141903333D01*
X203334285Y-141950952D01*
X203286666Y-142046190D01*
X203286666Y-142331904D01*
X203334285Y-142427142D01*
X203381904Y-142474761D01*
X203477142Y-142522380D01*
X203667619Y-142522380D01*
X203762857Y-142474761D01*
X202715238Y-142522380D02*
X202810476Y-142474761D01*
X202858095Y-142427142D01*
X202905714Y-142331904D01*
X202905714Y-142046190D01*
X202858095Y-141950952D01*
X202810476Y-141903333D01*
X202715238Y-141855714D01*
X202572380Y-141855714D01*
X202477142Y-141903333D01*
X202429523Y-141950952D01*
X202381904Y-142046190D01*
X202381904Y-142331904D01*
X202429523Y-142427142D01*
X202477142Y-142474761D01*
X202572380Y-142522380D01*
X202715238Y-142522380D01*
X201524761Y-141855714D02*
X201524761Y-142522380D01*
X201953333Y-141855714D02*
X201953333Y-142379523D01*
X201905714Y-142474761D01*
X201810476Y-142522380D01*
X201667619Y-142522380D01*
X201572380Y-142474761D01*
X201524761Y-142427142D01*
X201048571Y-141855714D02*
X201048571Y-142522380D01*
X201048571Y-141950952D02*
X201000952Y-141903333D01*
X200905714Y-141855714D01*
X200762857Y-141855714D01*
X200667619Y-141903333D01*
X200620000Y-141998571D01*
X200620000Y-142522380D01*
X199715238Y-142474761D02*
X199810476Y-142522380D01*
X200000952Y-142522380D01*
X200096190Y-142474761D01*
X200143809Y-142427142D01*
X200191428Y-142331904D01*
X200191428Y-142046190D01*
X200143809Y-141950952D01*
X200096190Y-141903333D01*
X200000952Y-141855714D01*
X199810476Y-141855714D01*
X199715238Y-141903333D01*
X198905714Y-142474761D02*
X199000952Y-142522380D01*
X199191428Y-142522380D01*
X199286666Y-142474761D01*
X199334285Y-142379523D01*
X199334285Y-141998571D01*
X199286666Y-141903333D01*
X199191428Y-141855714D01*
X199000952Y-141855714D01*
X198905714Y-141903333D01*
X198858095Y-141998571D01*
X198858095Y-142093809D01*
X199334285Y-142189047D01*
X197524761Y-142522380D02*
X197620000Y-142474761D01*
X197667619Y-142379523D01*
X197667619Y-141522380D01*
X196762857Y-142474761D02*
X196858095Y-142522380D01*
X197048571Y-142522380D01*
X197143809Y-142474761D01*
X197191428Y-142379523D01*
X197191428Y-141998571D01*
X197143809Y-141903333D01*
X197048571Y-141855714D01*
X196858095Y-141855714D01*
X196762857Y-141903333D01*
X196715238Y-141998571D01*
X196715238Y-142093809D01*
X197191428Y-142189047D01*
X196429523Y-141855714D02*
X196048571Y-141855714D01*
X196286666Y-142522380D02*
X196286666Y-141665238D01*
X196239047Y-141570000D01*
X196143809Y-141522380D01*
X196048571Y-141522380D01*
X195858095Y-141855714D02*
X195477142Y-141855714D01*
X195715238Y-141522380D02*
X195715238Y-142379523D01*
X195667619Y-142474761D01*
X195572380Y-142522380D01*
X195477142Y-142522380D01*
D11*
X165163221Y-91034158D02*
G75*
G03*
X165163221Y-91034158I-1100000J0D01*
G01*
X71252781Y-124754834D02*
X70402985Y-123811040D01*
X70308987Y-125604630D02*
X71252781Y-124754834D01*
X62816177Y-129238834D02*
X62550484Y-128943752D01*
X63380967Y-128730294D02*
X63115274Y-128435213D01*
X56755813Y-122508118D02*
X60770597Y-126966987D01*
X57320603Y-121999579D02*
X56755813Y-122508118D01*
X61335387Y-126458448D02*
X57320603Y-121999579D01*
X63776673Y-127839687D02*
X61996786Y-125862922D01*
X64703765Y-127539242D02*
X64438072Y-127244161D01*
X65268555Y-127030703D02*
X65002862Y-126735621D01*
X58643401Y-120808526D02*
X62658185Y-125267395D01*
X59208191Y-120299987D02*
X58643401Y-120808526D01*
X63222975Y-124758856D02*
X59208191Y-120299987D01*
X65664261Y-126140095D02*
X63884374Y-124163330D01*
X66591352Y-125839650D02*
X66325660Y-125544569D01*
X67156142Y-125331111D02*
X66890450Y-125036030D01*
X60530989Y-119108935D02*
X64545773Y-123567804D01*
X61095779Y-118600395D02*
X60530989Y-119108935D01*
X65110563Y-123059264D02*
X61095779Y-118600395D01*
X67551849Y-124440503D02*
X65771962Y-122463738D01*
X68434061Y-124090215D02*
X68213248Y-123844977D01*
X68998851Y-123581676D02*
X68778038Y-123336438D01*
X66507675Y-121801299D02*
X62492891Y-117342430D01*
X66596852Y-121721003D02*
X62582069Y-117262134D01*
X66686030Y-121640707D02*
X62671246Y-117181838D01*
X66775207Y-121560412D02*
X62760423Y-117101543D01*
X66864384Y-121480116D02*
X62849601Y-117021247D01*
X66953562Y-121399820D02*
X62938778Y-116940951D01*
X62418577Y-117409343D02*
X66433360Y-121868212D01*
X62983367Y-116900804D02*
X62418577Y-117409343D01*
X66998151Y-121359673D02*
X62983367Y-116900804D01*
X67704138Y-120723999D02*
X69484026Y-122700764D01*
X60064609Y-127602661D02*
X67704138Y-120723999D01*
X61844497Y-129579426D02*
X60064609Y-127602661D01*
X69484026Y-122700764D02*
X61844497Y-129579426D01*
X95560016Y-99590200D02*
X102602089Y-112834414D01*
X78067058Y-108891371D02*
X85109132Y-122135584D01*
X83093511Y-107419639D02*
G75*
G03*
X83093511Y-107419639I-349999J0D01*
G01*
X85477253Y-141976260D02*
G75*
G03*
X85477253Y-141976260I-1100000J0D01*
G01*
X167313221Y-126234158D02*
X174163221Y-121434158D01*
X174163221Y-121434158D02*
X182063221Y-121434158D01*
X182063221Y-121434158D02*
X188863221Y-126234158D01*
X167563221Y-141784158D02*
X174263221Y-141784158D01*
X188663221Y-141784158D02*
X181963221Y-141784158D01*
X167363221Y-135034158D02*
X162563221Y-135034158D01*
X162563221Y-135034158D02*
X162563221Y-129534158D01*
X162563221Y-129534158D02*
X167363221Y-129534158D01*
X188863221Y-129534158D02*
X193663221Y-129534158D01*
X193663221Y-129534158D02*
X193663221Y-135034158D01*
X193663221Y-135034158D02*
X188863221Y-135034158D01*
X174266836Y-141785622D02*
G75*
G03*
X181963221Y-141784158I3846385J9501464D01*
G01*
X165470000Y-120990000D02*
X164010000Y-120990000D01*
X165470000Y-124150000D02*
X163310000Y-124150000D01*
X165470000Y-124150000D02*
X165470000Y-123220000D01*
X165470000Y-120990000D02*
X165470000Y-121920000D01*
X155113221Y-138134158D02*
G75*
G03*
X155113221Y-138134158I-1100000J0D01*
G01*
X106571438Y-128693703D02*
G75*
G03*
X106571438Y-128693703I-1100000J0D01*
G01*
X115514872Y-145513855D02*
G75*
G03*
X115514872Y-145513855I-1100000J0D01*
G01*
D10*
X159252000Y-147032500D02*
X164852000Y-147032500D01*
D11*
X203263221Y-82984158D02*
G75*
G03*
X203263221Y-82984158I-1100000J0D01*
G01*
X203263221Y-119084158D02*
G75*
G03*
X203263221Y-119084158I-1100000J0D01*
G01*
X146113221Y-114084158D02*
G75*
G03*
X146113221Y-114084158I-1100000J0D01*
G01*
X127063221Y-119084158D02*
G75*
G03*
X127063221Y-119084158I-1100000J0D01*
G01*
X165163221Y-72984158D02*
G75*
G03*
X165163221Y-72984158I-1100000J0D01*
G01*
X184213221Y-114084158D02*
G75*
G03*
X184213221Y-114084158I-1100000J0D01*
G01*
X146113221Y-96034158D02*
G75*
G03*
X146113221Y-96034158I-1100000J0D01*
G01*
X146113221Y-77984158D02*
G75*
G03*
X146113221Y-77984158I-1100000J0D01*
G01*
X98224191Y-156133169D02*
G75*
G03*
X98224191Y-156133169I-1100000J0D01*
G01*
X222313221Y-87984158D02*
G75*
G03*
X222313221Y-87984158I-1100000J0D01*
G01*
X203263221Y-101034158D02*
G75*
G03*
X203263221Y-101034158I-1100000J0D01*
G01*
X184213221Y-96034158D02*
G75*
G03*
X184213221Y-96034158I-1100000J0D01*
G01*
X184213221Y-77984158D02*
G75*
G03*
X184213221Y-77984158I-1100000J0D01*
G01*
X165163221Y-109084158D02*
G75*
G03*
X165163221Y-109084158I-1100000J0D01*
G01*
X127063221Y-101034158D02*
G75*
G03*
X127063221Y-101034158I-1100000J0D01*
G01*
X222313221Y-106034158D02*
G75*
G03*
X222313221Y-106034158I-1100000J0D01*
G01*
X134860990Y-139392973D02*
G75*
G03*
X134860990Y-139392973I-1100000J0D01*
G01*
X127063221Y-82984158D02*
G75*
G03*
X127063221Y-82984158I-1100000J0D01*
G01*
X222313221Y-124084158D02*
G75*
G03*
X222313221Y-124084158I-1100000J0D01*
G01*
D10*
X60650003Y-129291286D02*
X60119186Y-129769236D01*
X60044885Y-129900214D01*
X60037836Y-130034717D01*
X60098039Y-130172743D01*
X60161765Y-130243519D01*
X60292457Y-129036522D02*
X60295982Y-128969271D01*
X60267643Y-128866632D01*
X60108326Y-128689692D01*
X60009212Y-128650780D01*
X59941960Y-128647256D01*
X59839321Y-128675594D01*
X59768546Y-128739321D01*
X59694245Y-128870299D01*
X59651952Y-129677314D01*
X59237728Y-129217272D01*
X92691469Y-112376500D02*
X93574416Y-111907028D01*
X92787249Y-111948049D01*
X93261435Y-111318396D01*
X92378488Y-111787868D01*
X91970751Y-110818164D02*
X91951061Y-110882565D01*
X91976083Y-111031056D01*
X92020795Y-111115146D01*
X92129908Y-111218926D01*
X92258709Y-111258304D01*
X92365155Y-111255638D01*
X92555692Y-111208260D01*
X92681827Y-111141192D01*
X92827652Y-111009724D01*
X92889386Y-110922967D01*
X92928765Y-110794166D01*
X92903743Y-110645674D01*
X92859031Y-110561584D01*
X92749919Y-110457805D01*
X92685518Y-110438115D01*
X92568406Y-110014998D02*
X91853639Y-110395046D01*
X91747193Y-110397712D01*
X91682792Y-110378023D01*
X91596035Y-110316289D01*
X91506612Y-110148108D01*
X91503945Y-110041662D01*
X91523635Y-109977261D01*
X91585369Y-109890505D01*
X92300136Y-109510456D01*
X92014844Y-109176762D02*
X92034533Y-109112361D01*
X92031867Y-109005915D01*
X91920088Y-108795689D01*
X91833331Y-108733955D01*
X91768930Y-108714265D01*
X91662484Y-108716932D01*
X91578394Y-108761643D01*
X91474614Y-108870756D01*
X91238342Y-109643567D01*
X90947717Y-109096980D01*
X169748935Y-122512729D02*
X169606078Y-122560348D01*
X169558459Y-122607967D01*
X169510840Y-122703205D01*
X169510840Y-122846062D01*
X169558459Y-122941300D01*
X169606078Y-122988919D01*
X169701316Y-123036538D01*
X170082268Y-123036538D01*
X170082268Y-122036538D01*
X169748935Y-122036538D01*
X169653697Y-122084158D01*
X169606078Y-122131777D01*
X169558459Y-122227015D01*
X169558459Y-122322253D01*
X169606078Y-122417491D01*
X169653697Y-122465110D01*
X169748935Y-122512729D01*
X170082268Y-122512729D01*
X169225125Y-122036538D02*
X168653697Y-122036538D01*
X168939411Y-123036538D02*
X168939411Y-122036538D01*
X168367982Y-122131777D02*
X168320363Y-122084158D01*
X168225125Y-122036538D01*
X167987030Y-122036538D01*
X167891792Y-122084158D01*
X167844173Y-122131777D01*
X167796554Y-122227015D01*
X167796554Y-122322253D01*
X167844173Y-122465110D01*
X168415601Y-123036538D01*
X167796554Y-123036538D01*
X164805238Y-125617619D02*
X164900476Y-125570000D01*
X164995714Y-125474761D01*
X165138571Y-125331904D01*
X165233809Y-125284285D01*
X165329047Y-125284285D01*
X165281428Y-125522380D02*
X165376666Y-125474761D01*
X165471904Y-125379523D01*
X165519523Y-125189047D01*
X165519523Y-124855714D01*
X165471904Y-124665238D01*
X165376666Y-124570000D01*
X165281428Y-124522380D01*
X165090952Y-124522380D01*
X164995714Y-124570000D01*
X164900476Y-124665238D01*
X164852857Y-124855714D01*
X164852857Y-125189047D01*
X164900476Y-125379523D01*
X164995714Y-125474761D01*
X165090952Y-125522380D01*
X165281428Y-125522380D01*
X164471904Y-124617619D02*
X164424285Y-124570000D01*
X164329047Y-124522380D01*
X164090952Y-124522380D01*
X163995714Y-124570000D01*
X163948095Y-124617619D01*
X163900476Y-124712857D01*
X163900476Y-124808095D01*
X163948095Y-124950952D01*
X164519523Y-125522380D01*
X163900476Y-125522380D01*
X163761523Y-142337261D02*
X163618666Y-142384880D01*
X163380571Y-142384880D01*
X163285333Y-142337261D01*
X163237714Y-142289642D01*
X163190095Y-142194404D01*
X163190095Y-142099166D01*
X163237714Y-142003928D01*
X163285333Y-141956309D01*
X163380571Y-141908690D01*
X163571047Y-141861071D01*
X163666285Y-141813452D01*
X163713904Y-141765833D01*
X163761523Y-141670595D01*
X163761523Y-141575357D01*
X163713904Y-141480119D01*
X163666285Y-141432500D01*
X163571047Y-141384880D01*
X163332952Y-141384880D01*
X163190095Y-141432500D01*
X162856761Y-141384880D02*
X162618666Y-142384880D01*
X162428190Y-141670595D01*
X162237714Y-142384880D01*
X161999619Y-141384880D01*
X161666285Y-141480119D02*
X161618666Y-141432500D01*
X161523428Y-141384880D01*
X161285333Y-141384880D01*
X161190095Y-141432500D01*
X161142476Y-141480119D01*
X161094857Y-141575357D01*
X161094857Y-141670595D01*
X161142476Y-141813452D01*
X161713904Y-142384880D01*
X161094857Y-142384880D01*
X160237714Y-141384880D02*
X160428190Y-141384880D01*
X160523428Y-141432500D01*
X160571047Y-141480119D01*
X160666285Y-141622976D01*
X160713904Y-141813452D01*
X160713904Y-142194404D01*
X160666285Y-142289642D01*
X160618666Y-142337261D01*
X160523428Y-142384880D01*
X160332952Y-142384880D01*
X160237714Y-142337261D01*
X160190095Y-142289642D01*
X160142476Y-142194404D01*
X160142476Y-141956309D01*
X160190095Y-141861071D01*
X160237714Y-141813452D01*
X160332952Y-141765833D01*
X160523428Y-141765833D01*
X160618666Y-141813452D01*
X160666285Y-141861071D01*
X160713904Y-141956309D01*
M02*
