M48
; DRILL file {KiCad (5.1.6)-1} date 10/07/20 13:29:58
; FORMAT={-:-/ absolute / inch / decimal}
; #@! TF.CreationDate,2020-10-07T13:29:58+02:00
; #@! TF.GenerationSoftware,Kicad,Pcbnew,(5.1.6)-1
; #@! TF.FileFunction,NonPlated,1,2,NPTH
FMAT,2
INCH
T1C0.0354
T2C0.0709
T3C0.1260
%
G90
G05
T1
X6.3209Y-5.7375
X6.4391Y-5.7375
X6.3209Y-5.7375
X6.4391Y-5.7375
T2
X5.2958Y-3.6313
X5.7289Y-3.6313
X3.7172Y-5.1287
X4.0996Y-4.9253
X8.2958Y-4.7356
X8.7289Y-4.7356
X7.5458Y-3.8281
X7.9789Y-3.8281
X6.7958Y-4.3419
X7.2289Y-4.3419
X8.2958Y-4.025
X8.7289Y-4.025
X6.0458Y-4.145
X6.4789Y-4.145
X2.9146Y-5.755
X3.2365Y-5.4653
X8.2958Y-3.3143
X8.7289Y-3.3143
X6.0458Y-2.7238
X6.4789Y-2.7238
X4.5458Y-3.8281
X4.9789Y-3.8281
X6.0458Y-3.4344
X6.4789Y-3.4344
X3.4165Y-6.3124
X3.7383Y-6.0226
X5.2958Y-2.9206
X5.7289Y-2.9206
X5.6501Y-5.2887
X6.0832Y-5.2887
X6.7958Y-2.9206
X7.2289Y-2.9206
X4.5458Y-3.1175
X4.9789Y-3.1175
X4.5458Y-4.5387
X4.9789Y-4.5387
X7.5458Y-4.5387
X7.9789Y-4.5387
X5.2958Y-4.3419
X5.7289Y-4.3419
X4.0693Y-5.7909
X4.4517Y-5.5876
X7.5458Y-3.1175
X7.9789Y-3.1175
X6.7958Y-3.6313
X7.2289Y-3.6313
X4.8289Y-5.4428
X5.2491Y-5.338
T3
X8.5123Y-4.7356
X7.7623Y-3.8281
X7.0123Y-4.3419
X8.5123Y-4.025
X6.2623Y-4.145
X3.0755Y-5.6102
X8.5123Y-3.3143
X6.2623Y-2.7238
X4.7623Y-3.8281
X6.2623Y-3.4344
X3.5774Y-6.1675
X5.5123Y-2.9206
X5.8667Y-5.2887
X7.0123Y-2.9206
X4.7623Y-3.1175
X4.7623Y-4.5387
X7.7623Y-4.5387
X5.5123Y-4.3419
X4.2605Y-5.6892
X7.7623Y-3.1175
X7.0123Y-3.6313
X5.039Y-5.3904
X5.5123Y-3.6313
X3.9084Y-5.027
T0
M30
